  0
SECTION
  2
HEADER
  9
$ACADVER
  1
AC1024
  9
$ACADMAINTVER
 70
6
  9
$DWGCODEPAGE
  3
ANSI_1252
  9
$LASTSAVEDBY
  1
ezdxf
  9
$INSBASE
 10
0.0
 20
0.0
 30
0.0
  9
$EXTMIN
 10
1e+20
 20
1e+20
 30
1e+20
  9
$EXTMAX
 10
-1e+20
 20
-1e+20
 30
-1e+20
  9
$LIMMIN
 10
0.0
 20
0.0
  9
$LIMMAX
 10
420.0
 20
297.0
  9
$ORTHOMODE
 70
0
  9
$REGENMODE
 70
1
  9
$FILLMODE
 70
1
  9
$QTEXTMODE
 70
0
  9
$MIRRTEXT
 70
1
  9
$LTSCALE
 40
1.0
  9
$ATTMODE
 70
1
  9
$TEXTSIZE
 40
2.5
  9
$TRACEWID
 40
1.0
  9
$TEXTSTYLE
  7
Standard
  9
$CLAYER
  8
0
  9
$CELTYPE
  6
ByLayer
  9
$CECOLOR
 62
256
  9
$CELTSCALE
 40
1.0
  9
$DISPSILH
 70
0
  9
$DIMSCALE
 40
1.0
  9
$DIMASZ
 40
2.5
  9
$DIMEXO
 40
0.625
  9
$DIMDLI
 40
3.75
  9
$DIMRND
 40
0.0
  9
$DIMDLE
 40
0.0
  9
$DIMEXE
 40
1.25
  9
$DIMTP
 40
0.0
  9
$DIMTM
 40
0.0
  9
$DIMTXT
 40
2.5
  9
$DIMCEN
 40
2.5
  9
$DIMTSZ
 40
0.0
  9
$DIMTOL
 70
0
  9
$DIMLIM
 70
0
  9
$DIMTIH
 70
0
  9
$DIMTOH
 70
0
  9
$DIMSE1
 70
0
  9
$DIMSE2
 70
0
  9
$DIMTAD
 70
1
  9
$DIMZIN
 70
8
  9
$DIMBLK
  1

  9
$DIMASO
 70
1
  9
$DIMSHO
 70
1
  9
$DIMPOST
  1

  9
$DIMAPOST
  1

  9
$DIMALT
 70
0
  9
$DIMALTD
 70
3
  9
$DIMALTF
 40
0.03937007874
  9
$DIMLFAC
 40
1.0
  9
$DIMTOFL
 70
1
  9
$DIMTVP
 40
0.0
  9
$DIMTIX
 70
0
  9
$DIMSOXD
 70
0
  9
$DIMSAH
 70
0
  9
$DIMBLK1
  1

  9
$DIMBLK2
  1

  9
$DIMSTYLE
  2
ISO-25
  9
$DIMCLRD
 70
0
  9
$DIMCLRE
 70
0
  9
$DIMCLRT
 70
0
  9
$DIMTFAC
 40
1.0
  9
$DIMGAP
 40
0.625
  9
$DIMJUST
 70
0
  9
$DIMSD1
 70
0
  9
$DIMSD2
 70
0
  9
$DIMTOLJ
 70
0
  9
$DIMTZIN
 70
8
  9
$DIMALTZ
 70
0
  9
$DIMALTTZ
 70
0
  9
$DIMUPT
 70
0
  9
$DIMDEC
 70
2
  9
$DIMTDEC
 70
2
  9
$DIMALTU
 70
2
  9
$DIMALTTD
 70
3
  9
$DIMTXSTY
  7
Standard
  9
$DIMAUNIT
 70
0
  9
$DIMADEC
 70
0
  9
$DIMALTRND
 40
0.0
  9
$DIMAZIN
 70
0
  9
$DIMDSEP
 70
44
  9
$DIMATFIT
 70
3
  9
$DIMFRAC
 70
0
  9
$DIMLDRBLK
  1

  9
$DIMLUNIT
 70
2
  9
$DIMLWD
 70
-2
  9
$DIMLWE
 70
-2
  9
$DIMTMOVE
 70
0
  9
$DIMFXL
 40
1.0
  9
$DIMFXLON
 70
0
  9
$DIMJOGANG
 40
0.785398163397
  9
$DIMTFILL
 70
0
  9
$DIMTFILLCLR
 70
0
  9
$DIMARCSYM
 70
0
  9
$DIMLTYPE
  6

  9
$DIMLTEX1
  6

  9
$DIMLTEX2
  6

  9
$DIMTXTDIRECTION
 70
0
  9
$LUNITS
 70
2
  9
$LUPREC
 70
4
  9
$SKETCHINC
 40
1.0
  9
$FILLETRAD
 40
10.0
  9
$AUNITS
 70
0
  9
$AUPREC
 70
2
  9
$MENU
  1
.
  9
$ELEVATION
 40
0.0
  9
$PELEVATION
 40
0.0
  9
$THICKNESS
 40
0.0
  9
$LIMCHECK
 70
0
  9
$CHAMFERA
 40
0.0
  9
$CHAMFERB
 40
0.0
  9
$CHAMFERC
 40
0.0
  9
$CHAMFERD
 40
0.0
  9
$SKPOLY
 70
0
  9
$TDCREATE
 40
2461264.6651273146
  9
$TDUCREATE
 40
2458532.153996898
  9
$TDUPDATE
 40
2461264.6651273146
  9
$TDUUPDATE
 40
2458532.1544311
  9
$TDINDWG
 40
0.0
  9
$TDUSRTIMER
 40
0.0
  9
$USRTIMER
 70
1
  9
$ANGBASE
 50
0.0
  9
$ANGDIR
 70
0
  9
$PDMODE
 70
0
  9
$PDSIZE
 40
0.0
  9
$PLINEWID
 40
0.0
  9
$SPLFRAME
 70
0
  9
$SPLINETYPE
 70
6
  9
$SPLINESEGS
 70
8
  9
$HANDSEED
  5
B3
  9
$SURFTAB1
 70
6
  9
$SURFTAB2
 70
6
  9
$SURFTYPE
 70
6
  9
$SURFU
 70
6
  9
$SURFV
 70
6
  9
$UCSBASE
  2

  9
$UCSNAME
  2

  9
$UCSORG
 10
0.0
 20
0.0
 30
0.0
  9
$UCSXDIR
 10
1.0
 20
0.0
 30
0.0
  9
$UCSYDIR
 10
0.0
 20
1.0
 30
0.0
  9
$UCSORTHOREF
  2

  9
$UCSORTHOVIEW
 70
0
  9
$UCSORGTOP
 10
0.0
 20
0.0
 30
0.0
  9
$UCSORGBOTTOM
 10
0.0
 20
0.0
 30
0.0
  9
$UCSORGLEFT
 10
0.0
 20
0.0
 30
0.0
  9
$UCSORGRIGHT
 10
0.0
 20
0.0
 30
0.0
  9
$UCSORGFRONT
 10
0.0
 20
0.0
 30
0.0
  9
$UCSORGBACK
 10
0.0
 20
0.0
 30
0.0
  9
$PUCSBASE
  2

  9
$PUCSNAME
  2

  9
$PUCSORG
 10
0.0
 20
0.0
 30
0.0
  9
$PUCSXDIR
 10
1.0
 20
0.0
 30
0.0
  9
$PUCSYDIR
 10
0.0
 20
1.0
 30
0.0
  9
$PUCSORTHOREF
  2

  9
$PUCSORTHOVIEW
 70
0
  9
$PUCSORGTOP
 10
0.0
 20
0.0
 30
0.0
  9
$PUCSORGBOTTOM
 10
0.0
 20
0.0
 30
0.0
  9
$PUCSORGLEFT
 10
0.0
 20
0.0
 30
0.0
  9
$PUCSORGRIGHT
 10
0.0
 20
0.0
 30
0.0
  9
$PUCSORGFRONT
 10
0.0
 20
0.0
 30
0.0
  9
$PUCSORGBACK
 10
0.0
 20
0.0
 30
0.0
  9
$USERI1
 70
0
  9
$USERI2
 70
0
  9
$USERI3
 70
0
  9
$USERI4
 70
0
  9
$USERI5
 70
0
  9
$USERR1
 40
0.0
  9
$USERR2
 40
0.0
  9
$USERR3
 40
0.0
  9
$USERR4
 40
0.0
  9
$USERR5
 40
0.0
  9
$WORLDVIEW
 70
1
  9
$SHADEDGE
 70
3
  9
$SHADEDIF
 70
70
  9
$TILEMODE
 70
1
  9
$MAXACTVP
 70
64
  9
$PINSBASE
 10
0.0
 20
0.0
 30
0.0
  9
$PLIMCHECK
 70
0
  9
$PEXTMIN
 10
1e+20
 20
1e+20
 30
1e+20
  9
$PEXTMAX
 10
-1e+20
 20
-1e+20
 30
-1e+20
  9
$PLIMMIN
 10
0.0
 20
0.0
  9
$PLIMMAX
 10
420.0
 20
297.0
  9
$UNITMODE
 70
0
  9
$VISRETAIN
 70
1
  9
$PLINEGEN
 70
0
  9
$PSLTSCALE
 70
1
  9
$TREEDEPTH
 70
3020
  9
$CMLSTYLE
  2
Standard
  9
$CMLJUST
 70
0
  9
$CMLSCALE
 40
20.0
  9
$PROXYGRAPHICS
 70
1
  9
$MEASUREMENT
 70
1
  9
$CELWEIGHT
370
-1
  9
$ENDCAPS
280
0
  9
$JOINSTYLE
280
0
  9
$LWDISPLAY
290
0
  9
$INSUNITS
 70
6
  9
$HYPERLINKBASE
  1

  9
$STYLESHEET
  1

  9
$XEDIT
290
1
  9
$CEPSNTYPE
380
0
  9
$PSTYLEMODE
290
1
  9
$FINGERPRINTGUID
  2
{D0E4A472-C80F-47DF-A336-8377FA6D67FC}
  9
$VERSIONGUID
  2
{85C3762C-677A-4626-852E-9EEB77ED4153}
  9
$EXTNAMES
290
1
  9
$PSVPSCALE
 40
0.0
  9
$OLESTARTUP
290
0
  9
$SORTENTS
280
127
  9
$INDEXCTL
280
0
  9
$HIDETEXT
280
1
  9
$XCLIPFRAME
280
1
  9
$HALOGAP
280
0
  9
$OBSCOLOR
 70
257
  9
$OBSLTYPE
280
0
  9
$INTERSECTIONDISPLAY
280
0
  9
$INTERSECTIONCOLOR
 70
257
  9
$DIMASSOC
280
2
  9
$PROJECTNAME
  1

  9
$CAMERADISPLAY
290
0
  9
$LENSLENGTH
 40
50.0
  9
$CAMERAHEIGHT
 40
0.0
  9
$STEPSPERSEC
 40
24.0
  9
$STEPSIZE
 40
100.0
  9
$3DDWFPREC
 40
2.0
  9
$PSOLWIDTH
 40
0.005
  9
$PSOLHEIGHT
 40
0.08
  9
$LOFTANG1
 40
1.570796326795
  9
$LOFTANG2
 40
1.570796326795
  9
$LOFTMAG1
 40
0.0
  9
$LOFTMAG2
 40
0.0
  9
$LOFTPARAM
 70
7
  9
$LOFTNORMALS
280
1
  9
$LATITUDE
 40
37.795
  9
$LONGITUDE
 40
-122.394
  9
$NORTHDIRECTION
 40
0.0
  9
$TIMEZONE
 70
-8000
  9
$LIGHTGLYPHDISPLAY
280
1
  9
$TILEMODELIGHTSYNCH
280
1
  9
$CMATERIAL
347
20
  9
$SOLIDHIST
280
0
  9
$SHOWHIST
280
1
  9
$DWFFRAME
280
2
  9
$DGNFRAME
280
2
  9
$REALWORLDSCALE
290
1
  9
$INTERFERECOLOR
 62
256
  9
$CSHADOW
280
0
  9
$SHADOWPLANELOCATION
 40
0.0
  0
ENDSEC
  0
SECTION
  2
CLASSES
  0
CLASS
  1
ACDBDICTIONARYWDFLT
  2
AcDbDictionaryWithDefault
  3
ObjectDBX Classes
 90
0
 91
0
280
0
281
0
  0
CLASS
  1
SUN
  2
AcDbSun
  3
SCENEOE
 90
1153
 91
0
280
0
281
0
  0
CLASS
  1
VISUALSTYLE
  2
AcDbVisualStyle
  3
ObjectDBX Classes
 90
4095
 91
0
280
0
281
0
  0
CLASS
  1
MATERIAL
  2
AcDbMaterial
  3
ObjectDBX Classes
 90
1153
 91
0
280
0
281
0
  0
CLASS
  1
SCALE
  2
AcDbScale
  3
ObjectDBX Classes
 90
1153
 91
0
280
0
281
0
  0
CLASS
  1
TABLESTYLE
  2
AcDbTableStyle
  3
ObjectDBX Classes
 90
4095
 91
0
280
0
281
0
  0
CLASS
  1
MLEADERSTYLE
  2
AcDbMLeaderStyle
  3
ACDB_MLEADERSTYLE_CLASS
 90
4095
 91
0
280
0
281
0
  0
CLASS
  1
DICTIONARYVAR
  2
AcDbDictionaryVar
  3
ObjectDBX Classes
 90
0
 91
0
280
0
281
0
  0
CLASS
  1
CELLSTYLEMAP
  2
AcDbCellStyleMap
  3
ObjectDBX Classes
 90
1152
 91
0
280
0
281
0
  0
CLASS
  1
MENTALRAYRENDERSETTINGS
  2
AcDbMentalRayRenderSettings
  3
SCENEOE
 90
1024
 91
0
280
0
281
0
  0
CLASS
  1
ACDBDETAILVIEWSTYLE
  2
AcDbDetailViewStyle
  3
ObjectDBX Classes
 90
1025
 91
0
280
0
281
0
  0
CLASS
  1
ACDBSECTIONVIEWSTYLE
  2
AcDbSectionViewStyle
  3
ObjectDBX Classes
 90
1025
 91
0
280
0
281
0
  0
CLASS
  1
RASTERVARIABLES
  2
AcDbRasterVariables
  3
ISM
 90
0
 91
0
280
0
281
0
  0
CLASS
  1
LAYOUT
  2
AcDbLayout
  3
ObjectDBX Classes
 90
0
 91
0
280
0
281
0
  0
CLASS
  1
ACDBPLACEHOLDER
  2
AcDbPlaceHolder
  3
ObjectDBX Classes
 90
0
 91
0
280
0
281
0
  0
ENDSEC
  0
SECTION
  2
TABLES
  0
TABLE
  2
VPORT
  5
8
330
0
100
AcDbSymbolTable
 70
1
  0
VPORT
  5
23
330
8
100
AcDbSymbolTableRecord
100
AcDbViewportTableRecord
  2
*Active
 70
0
 10
0.0
 20
0.0
 11
1.0
 21
1.0
 12
0.0
 22
0.0
 13
0.0
 23
0.0
 14
0.5
 24
0.5
 15
0.5
 25
0.5
 16
0.0
 26
0.0
 36
1.0
 17
0.0
 27
0.0
 37
0.0
 40
1000.0
 41
1.34
 42
50.0
 43
0.0
 44
0.0
 50
0.0
 51
0.0
 71
0
 72
1000
 73
1
 74
3
 75
0
 76
0
 77
0
 78
0
281
0
 65
0
146
0.0
  0
ENDTAB
  0
TABLE
  2
LTYPE
  5
2
330
0
100
AcDbSymbolTable
 70
3
  0
LTYPE
  5
24
330
2
100
AcDbSymbolTableRecord
100
AcDbLinetypeTableRecord
  2
ByBlock
 70
0
  3

 72
65
 73
0
 40
0.0
  0
LTYPE
  5
25
330
2
100
AcDbSymbolTableRecord
100
AcDbLinetypeTableRecord
  2
ByLayer
 70
0
  3

 72
65
 73
0
 40
0.0
  0
LTYPE
  5
26
330
2
100
AcDbSymbolTableRecord
100
AcDbLinetypeTableRecord
  2
Continuous
 70
0
  3

 72
65
 73
0
 40
0.0
  0
ENDTAB
  0
TABLE
  2
LAYER
  5
1
330
0
100
AcDbSymbolTable
 70
10
  0
LAYER
  5
27
330
1
100
AcDbSymbolTableRecord
100
AcDbLayerTableRecord
  2
0
 70
0
 62
7
  6
Continuous
370
-3
390
13
347
21
  0
LAYER
  5
28
330
1
100
AcDbSymbolTableRecord
100
AcDbLayerTableRecord
  2
Defpoints
 70
0
 62
7
  6
Continuous
290
0
370
-3
390
13
347
21
  0
LAYER
  5
55
330
1
100
AcDbSymbolTableRecord
100
AcDbLayerTableRecord
  2
View_cyclone_front_dxf
 70
0
 62
7
  6
CONTINUOUS
370
-3
390
10061
347
10069
  0
LAYER
  5
65
330
1
100
AcDbSymbolTableRecord
100
AcDbLayerTableRecord
  2
View_cyclone_top_dxf
 70
0
 62
7
  6
CONTINUOUS
370
-3
390
10061
347
10069
  0
LAYER
  5
88
330
1
100
AcDbSymbolTableRecord
100
AcDbLayerTableRecord
  2
View_cyclone_side_dxf
 70
0
 62
7
  6
CONTINUOUS
370
-3
390
10061
347
10069
  0
LAYER
  5
8D
330
1
100
AcDbSymbolTableRecord
100
AcDbLayerTableRecord
  2
View_barrel_dxf
 70
0
 62
7
  6
CONTINUOUS
370
-3
390
10061
347
10069
  0
LAYER
  5
92
330
1
100
AcDbSymbolTableRecord
100
AcDbLayerTableRecord
  2
View_cone_dxf
 70
0
 62
7
  6
CONTINUOUS
370
-3
390
10061
347
10069
  0
LAYER
  5
9A
330
1
100
AcDbSymbolTableRecord
100
AcDbLayerTableRecord
  2
View_air_out_pipe_dxf
 70
0
 62
7
  6
CONTINUOUS
370
-3
390
10061
347
10069
  0
LAYER
  5
A2
330
1
100
AcDbSymbolTableRecord
100
AcDbLayerTableRecord
  2
View_dust_outlet_pipe_dxf
 70
0
 62
7
  6
CONTINUOUS
370
-3
390
10061
347
10069
  0
LAYER
  5
AF
330
1
100
AcDbSymbolTableRecord
100
AcDbLayerTableRecord
  2
View_inlet_duct_dxf
 70
0
 62
7
  6
CONTINUOUS
370
-3
390
10061
347
10069
  0
ENDTAB
  0
TABLE
  2
STYLE
  5
5
330
0
100
AcDbSymbolTable
 70
1
  0
STYLE
  5
29
330
5
100
AcDbSymbolTableRecord
100
AcDbTextStyleTableRecord
  2
Standard
 70
0
 40
0.0
 41
1.0
 50
0.0
 71
0
 42
2.5
  3
txt
  4

  0
ENDTAB
  0
TABLE
  2
VIEW
  5
7
330
0
100
AcDbSymbolTable
 70
0
  0
ENDTAB
  0
TABLE
  2
UCS
  5
6
330
0
100
AcDbSymbolTable
 70
0
  0
ENDTAB
  0
TABLE
  2
APPID
  5
3
330
0
100
AcDbSymbolTable
 70
3
  0
APPID
  5
2A
330
3
100
AcDbSymbolTableRecord
100
AcDbRegAppTableRecord
  2
ACAD
 70
0
  0
APPID
  5
B0
330
3
100
AcDbSymbolTableRecord
100
AcDbRegAppTableRecord
  2
HATCHBACKGROUNDCOLOR
 70
0
  0
APPID
  5
B1
330
3
100
AcDbSymbolTableRecord
100
AcDbRegAppTableRecord
  2
EZDXF
 70
0
  0
ENDTAB
  0
TABLE
  2
DIMSTYLE
  5
4
330
0
100
AcDbSymbolTable
 70
1
100
AcDbDimStyleTable
  0
DIMSTYLE
105
2B
330
4
100
AcDbSymbolTableRecord
100
AcDbDimStyleTableRecord
  2
Standard
 70
0
 40
1.0
 41
2.5
 42
0.625
 43
3.75
 44
1.25
 45
0.0
 46
0.0
 47
0.0
 48
0.0
 49
2.5
140
2.5
141
2.5
142
0.0
143
0.03937007874
144
1.0
145
0.0
146
1.0
147
0.625
148
0.0
 69
0
 70
0
 71
0
 72
0
 73
0
 74
0
 75
0
 76
0
 77
1
 78
8
 79
3
170
0
171
3
172
1
173
0
174
0
175
0
176
0
177
0
178
0
179
2
271
2
272
2
273
2
274
3
275
0
276
0
277
2
278
44
279
0
280
0
281
0
282
0
283
0
284
8
285
0
286
0
288
0
289
3
290
0
371
-2
372
-2
  0
ENDTAB
  0
TABLE
  2
BLOCK_RECORD
  5
9
330
0
100
AcDbSymbolTable
 70
2
  0
BLOCK_RECORD
  5
17
330
9
100
AcDbSymbolTableRecord
100
AcDbBlockTableRecord
  2
*Model_Space
340
1A
 70
0
280
1
281
0
  0
BLOCK_RECORD
  5
1B
330
9
100
AcDbSymbolTableRecord
100
AcDbBlockTableRecord
  2
*Paper_Space
340
1E
 70
0
280
1
281
0
  0
ENDTAB
  0
ENDSEC
  0
SECTION
  2
BLOCKS
  0
BLOCK
  5
18
330
17
100
AcDbEntity
  8
0
100
AcDbBlockBegin
  2
*Model_Space
 70
0
 10
0.0
 20
0.0
 30
0.0
  3
*Model_Space
  1

  0
ENDBLK
  5
19
330
17
100
AcDbEntity
  8
0
100
AcDbBlockEnd
  0
BLOCK
  5
1C
330
1B
100
AcDbEntity
  8
0
100
AcDbBlockBegin
  2
*Paper_Space
 70
0
 10
0.0
 20
0.0
 30
0.0
  3
*Paper_Space
  1

  0
ENDBLK
  5
1D
330
1B
100
AcDbEntity
  8
0
100
AcDbBlockEnd
  0
ENDSEC
  0
SECTION
  2
ENTITIES
  0
SPLINE
  5
2F
330
17
100
AcDbEntity
  8
View_cyclone_front_dxf
100
AcDbSpline
 70
8
 71
1
 72
17
 73
15
 74
0
 40
3.141592654
 40
3.141592654
 40
3.365992129
 40
3.590391604
 40
3.814791079
 40
4.039190555
 40
4.26359003
 40
4.487989505
 40
4.71238898
 40
4.936788456
 40
5.161187931
 40
5.385587406
 40
5.609986881
 40
5.834386357
 40
6.058785832
 40
6.283185307
 40
6.283185307
 10
0.0
 20
1444.9999999999998
 30
0.0
 10
3.7608131730000025
 20
1444.9999999999998
 30
0.0
 10
14.854669814999994
 20
1444.9999999999998
 30
0.0
 10
32.725277629999994
 20
1444.9999999999998
 30
0.0
 10
56.476529721000006
 20
1444.9999999999998
 30
0.0
 10
84.917439132
 20
1444.9999999999998
 30
0.0
 10
116.621859907
 20
1444.9999999999998
 30
0.0
 10
150.0
 20
1444.9999999999998
 30
0.0
 10
183.378140093
 20
1444.9999999999998
 30
0.0
 10
215.082560868
 20
1444.9999999999998
 30
0.0
 10
243.52347027899998
 20
1444.9999999999998
 30
0.0
 10
267.27472237
 20
1444.9999999999998
 30
0.0
 10
285.14533018500003
 20
1444.9999999999998
 30
0.0
 10
296.239186827
 20
1444.9999999999998
 30
0.0
 10
300.0
 20
1444.9999999999998
 30
0.0
  0
LINE
  5
30
330
17
100
AcDbEntity
  8
View_cyclone_front_dxf
100
AcDbLine
 10
300.0
 20
1444.9999999999998
 30
0.0
 11
300.0
 21
1699.9999999999998
 31
0.0
  0
SPLINE
  5
31
330
17
100
AcDbEntity
  8
View_cyclone_front_dxf
100
AcDbSpline
 70
8
 71
1
 72
17
 73
15
 74
0
 40
3.141592654
 40
3.141592654
 40
3.28580583
 40
3.430019005
 40
3.574232181
 40
3.718445357
 40
3.862658533
 40
4.006871709
 40
4.151084885
 40
4.295298061
 40
4.439511237
 40
4.583724413
 40
4.727937589
 40
4.872150765
 40
5.01636394
 40
5.160577116
 40
5.160577116
 10
0.0
 20
1894.9999999999998
 30
0.0
 10
1.5571065469999894
 20
1894.9999999999998
 30
0.0
 10
6.196098444
 20
1894.9999999999998
 30
0.0
 10
13.820663628000005
 20
1894.9999999999998
 30
0.0
 10
24.27250529599999
 20
1894.9999999999998
 30
0.0
 10
37.334628365
 20
1894.9999999999998
 30
0.0
 10
52.735844605
 20
1894.9999999999998
 30
0.0
 10
70.156402887
 20
1894.9999999999998
 30
0.0
 10
89.234627672
 20
1894.9999999999998
 30
0.0
 10
109.574427912
 20
1894.9999999999998
 30
0.0
 10
130.753520458
 20
1894.9999999999998
 30
0.0
 10
152.332197262
 20
1894.9999999999998
 30
0.0
 10
173.862454337
 20
1894.9999999999998
 30
0.0
 10
194.897292961
 20
1894.9999999999998
 30
0.0
 10
215.0
 20
1894.9999999999998
 30
0.0
  0
LINE
  5
32
330
17
100
AcDbEntity
  8
View_cyclone_front_dxf
100
AcDbLine
 10
0.0
 20
1444.9999999999998
 30
0.0
 11
100.0
 21
844.9999999999998
 31
0.0
  0
SPLINE
  5
33
330
17
100
AcDbEntity
  8
View_cyclone_front_dxf
100
AcDbSpline
 70
8
 71
1
 72
17
 73
15
 74
0
 40
3.141592654
 40
3.141592654
 40
3.365992129
 40
3.590391604
 40
3.814791079
 40
4.039190555
 40
4.26359003
 40
4.487989505
 40
4.71238898
 40
4.936788456
 40
5.161187931
 40
5.385587406
 40
5.609986881
 40
5.834386357
 40
6.058785832
 40
6.283185307
 40
6.283185307
 10
200.0
 20
844.9999999999998
 30
0.0
 10
198.746395609
 20
844.9999999999998
 30
0.0
 10
195.048443395
 20
844.9999999999998
 30
0.0
 10
189.091574123
 20
844.9999999999998
 30
0.0
 10
181.174490093
 20
844.9999999999998
 30
0.0
 10
171.694186956
 20
844.9999999999998
 30
0.0
 10
161.126046698
 20
844.9999999999998
 30
0.0
 10
150.0
 20
844.9999999999998
 30
0.0
 10
138.873953302
 20
844.9999999999998
 30
0.0
 10
128.305813044
 20
844.9999999999998
 30
0.0
 10
118.825509907
 20
844.9999999999998
 30
0.0
 10
110.908425877
 20
844.9999999999998
 30
0.0
 10
104.95155660500001
 20
844.9999999999998
 30
0.0
 10
101.25360439100001
 20
844.9999999999998
 30
0.0
 10
100.0
 20
844.9999999999998
 30
0.0
  0
LINE
  5
34
330
17
100
AcDbEntity
  8
View_cyclone_front_dxf
100
AcDbLine
 10
200.0
 20
749.9999999999998
 30
0.0
 11
200.0
 21
844.9999999999998
 31
0.0
  0
LINE
  5
35
330
17
100
AcDbEntity
  8
View_cyclone_front_dxf
100
AcDbLine
 10
225.0
 20
1899.9999999999998
 30
0.0
 11
225.0
 21
1939.9999999999998
 31
0.0
  0
SPLINE
  5
36
330
17
100
AcDbEntity
  8
View_cyclone_front_dxf
100
AcDbSpline
 70
8
 71
1
 72
17
 73
15
 74
0
 40
3.141592654
 40
3.141592654
 40
3.365992129
 40
3.590391604
 40
3.814791079
 40
4.039190555
 40
4.26359003
 40
4.487989505
 40
4.71238898
 40
4.936788456
 40
5.161187931
 40
5.385587406
 40
5.609986881
 40
5.834386357
 40
6.058785832
 40
6.283185307
 40
6.283185307
 10
75.0
 20
749.9999999999998
 30
0.0
 10
76.880406586
 20
749.9999999999998
 30
0.0
 10
82.427334907
 20
749.9999999999998
 30
0.0
 10
91.362638815
 20
749.9999999999998
 30
0.0
 10
103.238264861
 20
749.9999999999998
 30
0.0
 10
117.458719566
 20
749.9999999999998
 30
0.0
 10
133.310929953
 20
749.9999999999998
 30
0.0
 10
150.0
 20
749.9999999999998
 30
0.0
 10
166.689070047
 20
749.9999999999998
 30
0.0
 10
182.541280434
 20
749.9999999999998
 30
0.0
 10
196.761735139
 20
749.9999999999998
 30
0.0
 10
208.637361185
 20
749.9999999999998
 30
0.0
 10
217.572665093
 20
749.9999999999998
 30
0.0
 10
223.119593414
 20
749.9999999999998
 30
0.0
 10
225.0
 20
749.9999999999998
 30
0.0
  0
LINE
  5
37
330
17
100
AcDbEntity
  8
View_cyclone_front_dxf
100
AcDbLine
 10
215.0
 20
1699.9999999999998
 30
0.0
 11
325.0
 21
1699.9999999999998
 31
0.0
  0
LINE
  5
38
330
17
100
AcDbEntity
  8
View_cyclone_front_dxf
100
AcDbLine
 10
325.0
 20
1699.9999999999998
 30
0.0
 11
325.0
 21
1899.9999999999998
 31
0.0
  0
LINE
  5
39
330
17
100
AcDbEntity
  8
View_cyclone_front_dxf
100
AcDbLine
 10
215.0
 20
1699.9999999999998
 30
0.0
 11
215.0
 21
1899.9999999999998
 31
0.0
  0
LINE
  5
3A
330
17
100
AcDbEntity
  8
View_cyclone_front_dxf
100
AcDbLine
 10
215.0
 20
1899.9999999999998
 30
0.0
 11
325.0
 21
1899.9999999999998
 31
0.0
  0
CIRCLE
  5
3B
330
17
100
AcDbEntity
  8
View_cyclone_front_dxf
100
AcDbCircle
 10
227.5
 20
1712.4999999999998
 30
0.0
 40
6.0
  0
CIRCLE
  5
3C
330
17
100
AcDbEntity
  8
View_cyclone_front_dxf
100
AcDbCircle
 10
227.5
 20
1887.4999999999998
 30
0.0
 40
6.0
  0
CIRCLE
  5
3D
330
17
100
AcDbEntity
  8
View_cyclone_front_dxf
100
AcDbCircle
 10
312.5
 20
1712.4999999999998
 30
0.0
 40
6.0
  0
CIRCLE
  5
3E
330
17
100
AcDbEntity
  8
View_cyclone_front_dxf
100
AcDbCircle
 10
312.5
 20
1887.4999999999998
 30
0.0
 40
6.0
  0
SPLINE
  5
3F
330
17
100
AcDbEntity
  8
View_cyclone_front_dxf
100
AcDbSpline
 70
8
 71
1
 72
17
 73
15
 74
0
 40
3.141592654
 40
3.141592654
 40
3.365992129
 40
3.590391604
 40
3.814791079
 40
4.039190555
 40
4.26359003
 40
4.487989505
 40
4.71238898
 40
4.936788456
 40
5.161187931
 40
5.385587406
 40
5.609986881
 40
5.834386357
 40
6.058785832
 40
6.283185307
 40
6.283185307
 10
50.0
 20
1939.9999999999998
 30
0.0
 10
52.507208782000006
 20
1939.9999999999998
 30
0.0
 10
59.90311321
 20
1939.9999999999998
 30
0.0
 10
71.816851753
 20
1939.9999999999998
 30
0.0
 10
87.651019814
 20
1939.9999999999998
 30
0.0
 10
106.61162608800001
 20
1939.9999999999998
 30
0.0
 10
127.74790660400001
 20
1939.9999999999998
 30
0.0
 10
150.0
 20
1939.9999999999998
 30
0.0
 10
172.252093396
 20
1939.9999999999998
 30
0.0
 10
193.388373912
 20
1939.9999999999998
 30
0.0
 10
212.348980186
 20
1939.9999999999998
 30
0.0
 10
228.18314824700002
 20
1939.9999999999998
 30
0.0
 10
240.09688678999999
 20
1939.9999999999998
 30
0.0
 10
247.49279121799998
 20
1939.9999999999998
 30
0.0
 10
250.0
 20
1939.9999999999998
 30
0.0
  0
LINE
  5
40
330
17
100
AcDbEntity
  8
View_cyclone_front_dxf
100
AcDbLine
 10
225.0
 20
734.9999999999998
 30
0.0
 11
225.0
 21
749.9999999999998
 31
0.0
  0
SPLINE
  5
41
330
17
100
AcDbEntity
  8
View_cyclone_front_dxf
100
AcDbSpline
 70
8
 71
1
 72
17
 73
15
 74
0
 40
3.141592654
 40
3.141592654
 40
3.365992129
 40
3.590391604
 40
3.814791079
 40
4.039190555
 40
4.26359003
 40
4.487989505
 40
4.71238898
 40
4.936788456
 40
5.161187931
 40
5.385587406
 40
5.609986881
 40
5.834386357
 40
6.058785832
 40
6.283185307
 40
6.283185307
 10
75.0
 20
734.9999999999998
 30
0.0
 10
76.880406586
 20
734.9999999999998
 30
0.0
 10
82.427334907
 20
734.9999999999998
 30
0.0
 10
91.362638815
 20
734.9999999999998
 30
0.0
 10
103.238264861
 20
734.9999999999998
 30
0.0
 10
117.458719566
 20
734.9999999999998
 30
0.0
 10
133.310929953
 20
734.9999999999998
 30
0.0
 10
150.0
 20
734.9999999999998
 30
0.0
 10
166.689070047
 20
734.9999999999998
 30
0.0
 10
182.541280434
 20
734.9999999999998
 30
0.0
 10
196.761735139
 20
734.9999999999998
 30
0.0
 10
208.637361185
 20
734.9999999999998
 30
0.0
 10
217.572665093
 20
734.9999999999998
 30
0.0
 10
223.119593414
 20
734.9999999999998
 30
0.0
 10
225.0
 20
734.9999999999998
 30
0.0
  0
LINE
  5
42
330
17
100
AcDbEntity
  8
View_cyclone_front_dxf
100
AcDbLine
 10
240.0
 20
1874.9999999999998
 30
0.0
 11
300.0
 21
1874.9999999999998
 31
0.0
  0
LINE
  5
43
330
17
100
AcDbEntity
  8
View_cyclone_front_dxf
100
AcDbLine
 10
240.0
 20
1874.9999999999998
 30
0.0
 11
240.0
 21
1724.9999999999998
 31
0.0
  0
LINE
  5
44
330
17
100
AcDbEntity
  8
View_cyclone_front_dxf
100
AcDbLine
 10
300.0
 20
1874.9999999999998
 30
0.0
 11
300.0
 21
1724.9999999999998
 31
0.0
  0
LINE
  5
45
330
17
100
AcDbEntity
  8
View_cyclone_front_dxf
100
AcDbLine
 10
240.0
 20
1724.9999999999998
 30
0.0
 11
300.0
 21
1724.9999999999998
 31
0.0
  0
SPLINE
  5
46
330
17
100
AcDbEntity
  8
View_cyclone_front_dxf
100
AcDbSpline
 70
8
 71
1
 72
17
 73
15
 74
0
 40
3.141592654
 40
3.141592654
 40
3.365992129
 40
3.590391604
 40
3.814791079
 40
4.039190555
 40
4.26359003
 40
4.487989505
 40
4.71238898
 40
4.936788456
 40
5.161187931
 40
5.385587406
 40
5.609986881
 40
5.834386357
 40
6.058785832
 40
6.283185307
 40
6.283185307
 10
50.0
 20
1954.9999999999998
 30
0.0
 10
52.507208782000006
 20
1954.9999999999998
 30
0.0
 10
59.90311321
 20
1954.9999999999998
 30
0.0
 10
71.816851753
 20
1954.9999999999998
 30
0.0
 10
87.651019814
 20
1954.9999999999998
 30
0.0
 10
106.61162608800001
 20
1954.9999999999998
 30
0.0
 10
127.74790660400001
 20
1954.9999999999998
 30
0.0
 10
150.0
 20
1954.9999999999998
 30
0.0
 10
172.252093396
 20
1954.9999999999998
 30
0.0
 10
193.388373912
 20
1954.9999999999998
 30
0.0
 10
212.348980186
 20
1954.9999999999998
 30
0.0
 10
228.18314824700002
 20
1954.9999999999998
 30
0.0
 10
240.09688678999999
 20
1954.9999999999998
 30
0.0
 10
247.49279121799998
 20
1954.9999999999998
 30
0.0
 10
250.0
 20
1954.9999999999998
 30
0.0
  0
LINE
  5
47
330
17
100
AcDbEntity
  8
View_cyclone_front_dxf
100
AcDbLine
 10
250.0
 20
1939.9999999999998
 30
0.0
 11
250.0
 21
1954.9999999999998
 31
0.0
  0
LINE
  5
48
330
17
100
AcDbEntity
  8
View_cyclone_front_dxf
100
AcDbLine
 10
243.0
 20
1871.9999999999998
 30
0.0
 11
297.0
 21
1871.9999999999998
 31
0.0
  0
LINE
  5
49
330
17
100
AcDbEntity
  8
View_cyclone_front_dxf
100
AcDbLine
 10
243.0
 20
1727.9999999999998
 30
0.0
 11
243.0
 21
1871.9999999999998
 31
0.0
  0
LINE
  5
4A
330
17
100
AcDbEntity
  8
View_cyclone_front_dxf
100
AcDbLine
 10
243.0
 20
1727.9999999999998
 30
0.0
 11
297.0
 21
1727.9999999999998
 31
0.0
  0
LINE
  5
4B
330
17
100
AcDbEntity
  8
View_cyclone_front_dxf
100
AcDbLine
 10
297.0
 20
1727.9999999999998
 30
0.0
 11
297.0
 21
1871.9999999999998
 31
0.0
  0
SPLINE
  5
4C
330
17
100
AcDbEntity
  8
View_cyclone_front_dxf
100
AcDbSpline
 70
8
 71
1
 72
17
 73
15
 74
0
 40
5.381131684
 40
5.381131684
 40
5.431254454
 40
5.481377224
 40
5.531499994
 40
5.581622764
 40
5.631745534
 40
5.681868304
 40
5.731991074
 40
5.782113844
 40
5.832236614
 40
5.882359384
 40
5.932482155
 40
5.982604925
 40
6.032727695
 40
6.082850465
 40
6.082850465
 10
243.0
 20
1871.9999999999998
 30
0.0
 10
248.77969561700002
 20
1871.9999999999998
 30
0.0
 10
254.311279737
 20
1871.9999999999998
 30
0.0
 10
259.580858315
 20
1871.9999999999998
 30
0.0
 10
264.575195402
 20
1871.9999999999998
 30
0.0
 10
269.28174638999997
 20
1871.9999999999998
 30
0.0
 10
273.688689524
 20
1871.9999999999998
 30
0.0
 10
277.784955594
 20
1871.9999999999998
 30
0.0
 10
281.56025573700003
 20
1871.9999999999998
 30
0.0
 10
285.005107282
 20
1871.9999999999998
 30
0.0
 10
288.110857567
 20
1871.9999999999998
 30
0.0
 10
290.869705674
 20
1871.9999999999998
 30
0.0
 10
293.274722022
 20
1871.9999999999998
 30
0.0
 10
295.31986577099997
 20
1871.9999999999998
 30
0.0
 10
297.0
 20
1871.9999999999998
 30
0.0
  0
SPLINE
  5
4D
330
17
100
AcDbEntity
  8
View_cyclone_front_dxf
100
AcDbSpline
 70
8
 71
1
 72
17
 73
15
 74
0
 40
5.381131684
 40
5.381131684
 40
5.431254454
 40
5.481377224
 40
5.531499994
 40
5.581622764
 40
5.631745534
 40
5.681868304
 40
5.731991074
 40
5.782113844
 40
5.832236614
 40
5.882359384
 40
5.932482155
 40
5.982604925
 40
6.032727695
 40
6.082850465
 40
6.082850465
 10
243.0
 20
1727.9999999999998
 30
0.0
 10
248.77969561700002
 20
1727.9999999999998
 30
0.0
 10
254.311279737
 20
1727.9999999999998
 30
0.0
 10
259.580858315
 20
1727.9999999999998
 30
0.0
 10
264.575195402
 20
1727.9999999999998
 30
0.0
 10
269.28174638999997
 20
1727.9999999999998
 30
0.0
 10
273.688689524
 20
1727.9999999999998
 30
0.0
 10
277.784955594
 20
1727.9999999999998
 30
0.0
 10
281.56025573700003
 20
1727.9999999999998
 30
0.0
 10
285.005107282
 20
1727.9999999999998
 30
0.0
 10
288.110857567
 20
1727.9999999999998
 30
0.0
 10
290.869705674
 20
1727.9999999999998
 30
0.0
 10
293.274722022
 20
1727.9999999999998
 30
0.0
 10
295.31986577099997
 20
1727.9999999999998
 30
0.0
 10
297.0
 20
1727.9999999999998
 30
0.0
  0
LINE
  5
4E
330
17
100
AcDbEntity
  8
View_cyclone_front_dxf
100
AcDbLine
 10
297.0
 20
1727.9999999999998
 30
0.0
 11
297.0
 21
1871.9999999999998
 31
0.0
  0
LINE
  5
4F
330
17
100
AcDbEntity
  8
View_cyclone_front_dxf
100
AcDbLine
 10
0.0
 20
1444.9999999999998
 30
0.0
 11
0.0
 21
1894.9999999999998
 31
0.0
  0
LINE
  5
50
330
17
100
AcDbEntity
  8
View_cyclone_front_dxf
100
AcDbLine
 10
200.0
 20
844.9999999999998
 30
0.0
 11
300.0
 21
1444.9999999999998
 31
0.0
  0
LINE
  5
51
330
17
100
AcDbEntity
  8
View_cyclone_front_dxf
100
AcDbLine
 10
100.0
 20
749.9999999999998
 30
0.0
 11
100.0
 21
844.9999999999998
 31
0.0
  0
LINE
  5
52
330
17
100
AcDbEntity
  8
View_cyclone_front_dxf
100
AcDbLine
 10
75.0
 20
1894.9999999999998
 30
0.0
 11
75.0
 21
1939.9999999999998
 31
0.0
  0
LINE
  5
53
330
17
100
AcDbEntity
  8
View_cyclone_front_dxf
100
AcDbLine
 10
75.0
 20
734.9999999999998
 30
0.0
 11
75.0
 21
749.9999999999998
 31
0.0
  0
LINE
  5
54
330
17
100
AcDbEntity
  8
View_cyclone_front_dxf
100
AcDbLine
 10
50.0
 20
1939.9999999999998
 30
0.0
 11
50.0
 21
1954.9999999999998
 31
0.0
  0
ARC
  5
56
330
17
100
AcDbEntity
  8
View_cyclone_top_dxf
100
AcDbCircle
 10
625.0
 20
2110.0
 30
0.0
 40
150.0
100
AcDbArc
 50
0.0
 51
-180.0
  0
ARC
  5
57
330
17
100
AcDbEntity
  8
View_cyclone_top_dxf
100
AcDbCircle
 10
625.0
 20
2110.0
 30
0.0
 40
150.0
100
AcDbArc
 50
-180.0
 51
0.0
  0
LINE
  5
58
330
17
100
AcDbEntity
  8
View_cyclone_top_dxf
100
AcDbLine
 10
775.0
 20
2330.0
 30
0.0
 11
775.0
 21
2110.0
 31
0.0
  0
LINE
  5
59
330
17
100
AcDbEntity
  8
View_cyclone_top_dxf
100
AcDbLine
 10
715.0
 20
2330.0
 30
0.0
 11
715.0
 21
2230.0
 31
0.0
  0
LINE
  5
5A
330
17
100
AcDbEntity
  8
View_cyclone_top_dxf
100
AcDbLine
 10
690.0
 20
2330.0
 30
0.0
 11
800.0
 21
2330.0
 31
0.0
  0
LINE
  5
5B
330
17
100
AcDbEntity
  8
View_cyclone_top_dxf
100
AcDbLine
 10
690.0
 20
2345.0
 30
0.0
 11
690.0
 21
2330.0
 31
0.0
  0
LINE
  5
5C
330
17
100
AcDbEntity
  8
View_cyclone_top_dxf
100
AcDbLine
 10
800.0
 20
2345.0
 30
0.0
 11
800.0
 21
2330.0
 31
0.0
  0
LINE
  5
5D
330
17
100
AcDbEntity
  8
View_cyclone_top_dxf
100
AcDbLine
 10
690.0
 20
2345.0
 30
0.0
 11
800.0
 21
2345.0
 31
0.0
  0
CIRCLE
  5
5E
330
17
100
AcDbEntity
  8
View_cyclone_top_dxf
100
AcDbCircle
 10
625.0
 20
2110.0
 30
0.0
 40
75.0
  0
CIRCLE
  5
5F
330
17
100
AcDbEntity
  8
View_cyclone_top_dxf
100
AcDbCircle
 10
625.0
 20
2172.5
 30
0.0
 40
6.0
  0
CIRCLE
  5
60
330
17
100
AcDbEntity
  8
View_cyclone_top_dxf
100
AcDbCircle
 10
562.5
 20
2110.0
 30
0.0
 40
6.0
  0
CIRCLE
  5
61
330
17
100
AcDbEntity
  8
View_cyclone_top_dxf
100
AcDbCircle
 10
687.5
 20
2110.0
 30
0.0
 40
6.0
  0
CIRCLE
  5
62
330
17
100
AcDbEntity
  8
View_cyclone_top_dxf
100
AcDbCircle
 10
625.0
 20
2047.5
 30
0.0
 40
6.0
  0
CIRCLE
  5
63
330
17
100
AcDbEntity
  8
View_cyclone_top_dxf
100
AcDbCircle
 10
625.0
 20
2110.0
 30
0.0
 40
50.0
  0
CIRCLE
  5
64
330
17
100
AcDbEntity
  8
View_cyclone_top_dxf
100
AcDbCircle
 10
625.0
 20
2110.0
 30
0.0
 40
47.0
  0
SPLINE
  5
66
330
17
100
AcDbEntity
  8
View_cyclone_side_dxf
100
AcDbSpline
 70
8
 71
1
 72
17
 73
15
 74
0
 40
4.71238898
 40
4.71238898
 40
4.824588718
 40
4.936788456
 40
5.048988193
 40
5.161187931
 40
5.273387669
 40
5.385587406
 40
5.497787144
 40
5.609986881
 40
5.722186619
 40
5.834386357
 40
5.946586094
 40
6.058785832
 40
6.17098557
 40
6.283185307
 40
6.283185307
 10
1660.0
 20
2260.0
 30
0.0
 10
1660.0
 20
2259.056831484
 30
0.0
 10
1660.0
 20
2256.239186827
 30
0.0
 10
1660.0
 20
2251.582499546
 30
0.0
 10
1660.0
 20
2245.145330185
 30
0.0
 10
1660.0
 20
2237.008629884
 30
0.0
 10
1660.0
 20
2227.27472237
 30
0.0
 10
1660.0
 20
2216.066017178
 30
0.0
 10
1660.0
 20
2203.523470279
 30
0.0
 10
1660.0
 20
2189.804811477
 30
0.0
 10
1660.0
 20
2175.082560868
 30
0.0
 10
1660.0
 20
2159.541859293
 30
0.0
 10
1660.0
 20
2143.378140093
 30
0.0
 10
1660.0
 20
2126.794671415
 30
0.0
 10
1660.0
 20
2110.0
 30
0.0
  0
SPLINE
  5
67
330
17
100
AcDbEntity
  8
View_cyclone_side_dxf
100
AcDbSpline
 70
8
 71
1
 72
17
 73
15
 74
0
 40
0.0
 40
0.0
 40
0.112199738
 40
0.224399475
 40
0.336599213
 40
0.448798951
 40
0.560998688
 40
0.673198426
 40
0.785398163
 40
0.897597901
 40
1.009797639
 40
1.121997376
 40
1.234197114
 40
1.346396852
 40
1.458596589
 40
1.570796327
 40
1.570796327
 10
1660.0
 20
2110.0
 30
0.0
 10
1660.0
 20
2093.205328585
 30
0.0
 10
1660.0
 20
2076.621859907
 30
0.0
 10
1660.0
 20
2060.458140707
 30
0.0
 10
1660.0
 20
2044.917439132
 30
0.0
 10
1660.0
 20
2030.195188523
 30
0.0
 10
1660.0
 20
2016.476529721
 30
0.0
 10
1660.0
 20
2003.933982822
 30
0.0
 10
1660.0
 20
1992.72527763
 30
0.0
 10
1660.0
 20
1982.991370116
 30
0.0
 10
1660.0
 20
1974.854669815
 30
0.0
 10
1660.0
 20
1968.417500454
 30
0.0
 10
1660.0
 20
1963.760813173
 30
0.0
 10
1660.0
 20
1960.943168516
 30
0.0
 10
1660.0
 20
1960.0
 30
0.0
  0
LINE
  5
68
330
17
100
AcDbEntity
  8
View_cyclone_side_dxf
100
AcDbLine
 10
1940.0
 20
2110.0
 30
0.0
 11
2090.0
 21
2110.0
 31
0.0
  0
SPLINE
  5
69
330
17
100
AcDbEntity
  8
View_cyclone_side_dxf
100
AcDbSpline
 70
8
 71
1
 72
17
 73
15
 74
0
 40
0.0
 40
0.0
 40
0.112199738
 40
0.224399475
 40
0.336599213
 40
0.448798951
 40
0.560998688
 40
0.673198426
 40
0.785398163
 40
0.897597901
 40
1.009797639
 40
1.121997376
 40
1.234197114
 40
1.346396852
 40
1.458596589
 40
1.570796327
 40
1.570796327
 10
2110.0
 20
2110.0
 30
0.0
 10
2110.0
 20
2093.205328585
 30
0.0
 10
2110.0
 20
2076.621859907
 30
0.0
 10
2110.0
 20
2060.458140707
 30
0.0
 10
2110.0
 20
2044.917439132
 30
0.0
 10
2110.0
 20
2030.195188523
 30
0.0
 10
2110.0
 20
2016.476529721
 30
0.0
 10
2110.0
 20
2003.933982822
 30
0.0
 10
2110.0
 20
1992.72527763
 30
0.0
 10
2110.0
 20
1982.991370116
 30
0.0
 10
2110.0
 20
1974.854669815
 30
0.0
 10
2110.0
 20
1968.417500454
 30
0.0
 10
2110.0
 20
1963.760813173
 30
0.0
 10
2110.0
 20
1960.943168516
 30
0.0
 10
2110.0
 20
1960.0
 30
0.0
  0
SPLINE
  5
6A
330
17
100
AcDbEntity
  8
View_cyclone_side_dxf
100
AcDbSpline
 70
8
 71
1
 72
17
 73
15
 74
0
 40
4.71238898
 40
4.71238898
 40
4.824588718
 40
4.936788456
 40
5.048988193
 40
5.161187931
 40
5.273387669
 40
5.385587406
 40
5.497787144
 40
5.609986881
 40
5.722186619
 40
5.834386357
 40
5.946586094
 40
6.058785832
 40
6.17098557
 40
6.283185307
 40
6.283185307
 10
2110.0
 20
2260.0
 30
0.0
 10
2110.0
 20
2259.056831484
 30
0.0
 10
2110.0
 20
2256.239186827
 30
0.0
 10
2110.0
 20
2251.582499546
 30
0.0
 10
2110.0
 20
2245.145330185
 30
0.0
 10
2110.0
 20
2237.008629884
 30
0.0
 10
2110.0
 20
2227.27472237
 30
0.0
 10
2110.0
 20
2216.066017178
 30
0.0
 10
2110.0
 20
2203.523470279
 30
0.0
 10
2110.0
 20
2189.804811477
 30
0.0
 10
2110.0
 20
2175.082560868
 30
0.0
 10
2110.0
 20
2159.541859293
 30
0.0
 10
2110.0
 20
2143.378140093
 30
0.0
 10
2110.0
 20
2126.794671415
 30
0.0
 10
2110.0
 20
2110.0
 30
0.0
  0
SPLINE
  5
6B
330
17
100
AcDbEntity
  8
View_cyclone_side_dxf
100
AcDbSpline
 70
8
 71
1
 72
17
 73
15
 74
0
 40
1.570796327
 40
1.570796327
 40
1.682996064
 40
1.795195802
 40
1.90739554
 40
2.019595277
 40
2.131795015
 40
2.243994753
 40
2.35619449
 40
2.468394228
 40
2.580593965
 40
2.692793703
 40
2.804993441
 40
2.917193178
 40
3.029392916
 40
3.141592654
 40
3.141592654
 10
1060.0
 20
2060.0
 30
0.0
 10
1060.0
 20
2060.314389505
 30
0.0
 10
1060.0
 20
2061.253604391
 30
0.0
 10
1060.0
 20
2062.805833485
 30
0.0
 10
1060.0
 20
2064.951556605
 30
0.0
 10
1060.0
 20
2067.663790039
 30
0.0
 10
1060.0
 20
2070.908425877
 30
0.0
 10
1060.0
 20
2074.644660941
 30
0.0
 10
1060.0
 20
2078.825509907
 30
0.0
 10
1060.0
 20
2083.398396174
 30
0.0
 10
1060.0
 20
2088.305813044
 30
0.0
 10
1060.0
 20
2093.486046902
 30
0.0
 10
1060.0
 20
2098.873953302
 30
0.0
 10
1060.0
 20
2104.401776195
 30
0.0
 10
1060.0
 20
2110.0
 30
0.0
  0
SPLINE
  5
6C
330
17
100
AcDbEntity
  8
View_cyclone_side_dxf
100
AcDbSpline
 70
8
 71
1
 72
17
 73
15
 74
0
 40
3.141592654
 40
3.141592654
 40
3.253792391
 40
3.365992129
 40
3.478191866
 40
3.590391604
 40
3.702591342
 40
3.814791079
 40
3.926990817
 40
4.039190555
 40
4.151390292
 40
4.26359003
 40
4.375789768
 40
4.487989505
 40
4.600189243
 40
4.71238898
 40
4.71238898
 10
1060.0
 20
2110.0
 30
0.0
 10
1060.0
 20
2115.598223805
 30
0.0
 10
1060.0
 20
2121.126046698
 30
0.0
 10
1060.0
 20
2126.513953098
 30
0.0
 10
1060.0
 20
2131.694186956
 30
0.0
 10
1060.0
 20
2136.601603826
 30
0.0
 10
1060.0
 20
2141.174490093
 30
0.0
 10
1060.0
 20
2145.355339059
 30
0.0
 10
1060.0
 20
2149.091574123
 30
0.0
 10
1060.0
 20
2152.336209961
 30
0.0
 10
1060.0
 20
2155.048443395
 30
0.0
 10
1060.0
 20
2157.194166515
 30
0.0
 10
1060.0
 20
2158.746395609
 30
0.0
 10
1060.0
 20
2159.685610495
 30
0.0
 10
1060.0
 20
2160.0
 30
0.0
  0
LINE
  5
6D
330
17
100
AcDbEntity
  8
View_cyclone_side_dxf
100
AcDbLine
 10
2090.0
 20
2330.0
 30
0.0
 11
2090.0
 21
2110.0
 31
0.0
  0
LINE
  5
6E
330
17
100
AcDbEntity
  8
View_cyclone_side_dxf
100
AcDbLine
 10
1940.0
 20
2330.0
 30
0.0
 11
1940.0
 21
2110.0
 31
0.0
  0
LINE
  5
6F
330
17
100
AcDbEntity
  8
View_cyclone_side_dxf
100
AcDbLine
 10
1915.0
 20
2330.0
 30
0.0
 11
2115.0
 21
2330.0
 31
0.0
  0
SPLINE
  5
70
330
17
100
AcDbEntity
  8
View_cyclone_side_dxf
100
AcDbSpline
 70
8
 71
1
 72
17
 73
15
 74
0
 40
0.0
 40
0.0
 40
0.112199738
 40
0.224399475
 40
0.336599213
 40
0.448798951
 40
0.560998688
 40
0.673198426
 40
0.785398163
 40
0.897597901
 40
1.009797639
 40
1.121997376
 40
1.234197114
 40
1.346396852
 40
1.458596589
 40
1.570796327
 40
1.570796327
 10
965.0
 20
2110.0
 30
0.0
 10
965.0
 20
2101.602664292
 30
0.0
 10
965.0
 20
2093.310929953
 30
0.0
 10
965.0
 20
2085.2290703529998
 30
0.0
 10
965.0
 20
2077.458719566
 30
0.0
 10
965.0
 20
2070.097594261
 30
0.0
 10
965.0
 20
2063.238264861
 30
0.0
 10
965.0
 20
2056.966991411
 30
0.0
 10
965.0
 20
2051.362638815
 30
0.0
 10
965.0
 20
2046.495685058
 30
0.0
 10
965.0
 20
2042.427334907
 30
0.0
 10
965.0
 20
2039.208750227
 30
0.0
 10
965.0
 20
2036.880406586
 30
0.0
 10
965.0
 20
2035.471584258
 30
0.0
 10
965.0
 20
2035.0
 30
0.0
  0
SPLINE
  5
71
330
17
100
AcDbEntity
  8
View_cyclone_side_dxf
100
AcDbSpline
 70
8
 71
1
 72
17
 73
15
 74
0
 40
4.71238898
 40
4.71238898
 40
4.824588718
 40
4.936788456
 40
5.048988193
 40
5.161187931
 40
5.273387669
 40
5.385587406
 40
5.497787144
 40
5.609986881
 40
5.722186619
 40
5.834386357
 40
5.946586094
 40
6.058785832
 40
6.17098557
 40
6.283185307
 40
6.283185307
 10
965.0
 20
2185.0
 30
0.0
 10
965.0
 20
2184.528415742
 30
0.0
 10
965.0
 20
2183.119593414
 30
0.0
 10
965.0
 20
2180.791249773
 30
0.0
 10
965.0
 20
2177.572665093
 30
0.0
 10
965.0
 20
2173.504314942
 30
0.0
 10
965.0
 20
2168.637361185
 30
0.0
 10
965.0
 20
2163.033008589
 30
0.0
 10
965.0
 20
2156.761735139
 30
0.0
 10
965.0
 20
2149.902405739
 30
0.0
 10
965.0
 20
2142.541280434
 30
0.0
 10
965.0
 20
2134.770929647
 30
0.0
 10
965.0
 20
2126.689070047
 30
0.0
 10
965.0
 20
2118.397335708
 30
0.0
 10
965.0
 20
2110.0
 30
0.0
  0
LINE
  5
72
330
17
100
AcDbEntity
  8
View_cyclone_side_dxf
100
AcDbLine
 10
1915.0
 20
2345.0
 30
0.0
 11
1915.0
 21
2330.0
 31
0.0
  0
LINE
  5
73
330
17
100
AcDbEntity
  8
View_cyclone_side_dxf
100
AcDbLine
 10
1915.0
 20
2345.0
 30
0.0
 11
2115.0
 21
2345.0
 31
0.0
  0
LINE
  5
74
330
17
100
AcDbEntity
  8
View_cyclone_side_dxf
100
AcDbLine
 10
2115.0
 20
2345.0
 30
0.0
 11
2115.0
 21
2330.0
 31
0.0
  0
SPLINE
  5
75
330
17
100
AcDbEntity
  8
View_cyclone_side_dxf
100
AcDbSpline
 70
8
 71
1
 72
17
 73
15
 74
0
 40
0.0
 40
0.0
 40
0.112199738
 40
0.224399475
 40
0.336599213
 40
0.448798951
 40
0.560998688
 40
0.673198426
 40
0.785398163
 40
0.897597901
 40
1.009797639
 40
1.121997376
 40
1.234197114
 40
1.346396852
 40
1.458596589
 40
1.570796327
 40
1.570796327
 10
2155.0
 20
2110.0
 30
0.0
 10
2155.0
 20
2098.80355239
 30
0.0
 10
2155.0
 20
2087.747906604
 30
0.0
 10
2155.0
 20
2076.972093804
 30
0.0
 10
2155.0
 20
2066.611626088
 30
0.0
 10
2155.0
 20
2056.796792348
 30
0.0
 10
2155.0
 20
2047.651019814
 30
0.0
 10
2155.0
 20
2039.289321881
 30
0.0
 10
2155.0
 20
2031.816851753
 30
0.0
 10
2155.0
 20
2025.327580077
 30
0.0
 10
2155.0
 20
2019.90311321
 30
0.0
 10
2155.0
 20
2015.611666969
 30
0.0
 10
2155.0
 20
2012.507208782
 30
0.0
 10
2155.0
 20
2010.628779011
 30
0.0
 10
2155.0
 20
2010.0
 30
0.0
  0
SPLINE
  5
76
330
17
100
AcDbEntity
  8
View_cyclone_side_dxf
100
AcDbSpline
 70
8
 71
1
 72
17
 73
15
 74
0
 40
4.71238898
 40
4.71238898
 40
4.824588718
 40
4.936788456
 40
5.048988193
 40
5.161187931
 40
5.273387669
 40
5.385587406
 40
5.497787144
 40
5.609986881
 40
5.722186619
 40
5.834386357
 40
5.946586094
 40
6.058785832
 40
6.17098557
 40
6.283185307
 40
6.283185307
 10
2155.0
 20
2210.0
 30
0.0
 10
2155.0
 20
2209.371220989
 30
0.0
 10
2155.0
 20
2207.492791218
 30
0.0
 10
2155.0
 20
2204.388333031
 30
0.0
 10
2155.0
 20
2200.09688679
 30
0.0
 10
2155.0
 20
2194.672419923
 30
0.0
 10
2155.0
 20
2188.183148247
 30
0.0
 10
2155.0
 20
2180.710678119
 30
0.0
 10
2155.0
 20
2172.348980186
 30
0.0
 10
2155.0
 20
2163.203207652
 30
0.0
 10
2155.0
 20
2153.388373912
 30
0.0
 10
2155.0
 20
2143.027906196
 30
0.0
 10
2155.0
 20
2132.252093396
 30
0.0
 10
2155.0
 20
2121.19644761
 30
0.0
 10
2155.0
 20
2110.0
 30
0.0
  0
SPLINE
  5
77
330
17
100
AcDbEntity
  8
View_cyclone_side_dxf
100
AcDbSpline
 70
8
 71
1
 72
17
 73
15
 74
0
 40
0.0
 40
0.0
 40
0.112199738
 40
0.224399475
 40
0.336599213
 40
0.448798951
 40
0.560998688
 40
0.673198426
 40
0.785398163
 40
0.897597901
 40
1.009797639
 40
1.121997376
 40
1.234197114
 40
1.346396852
 40
1.458596589
 40
1.570796327
 40
1.570796327
 10
950.0
 20
2110.0
 30
0.0
 10
950.0
 20
2101.602664292
 30
0.0
 10
950.0
 20
2093.310929953
 30
0.0
 10
950.0
 20
2085.2290703529998
 30
0.0
 10
950.0
 20
2077.458719566
 30
0.0
 10
950.0
 20
2070.097594261
 30
0.0
 10
950.0
 20
2063.238264861
 30
0.0
 10
950.0
 20
2056.966991411
 30
0.0
 10
950.0
 20
2051.362638815
 30
0.0
 10
950.0
 20
2046.495685058
 30
0.0
 10
950.0
 20
2042.427334907
 30
0.0
 10
950.0
 20
2039.208750227
 30
0.0
 10
950.0
 20
2036.880406586
 30
0.0
 10
950.0
 20
2035.471584258
 30
0.0
 10
950.0
 20
2035.0
 30
0.0
  0
SPLINE
  5
78
330
17
100
AcDbEntity
  8
View_cyclone_side_dxf
100
AcDbSpline
 70
8
 71
1
 72
17
 73
15
 74
0
 40
4.71238898
 40
4.71238898
 40
4.824588718
 40
4.936788456
 40
5.048988193
 40
5.161187931
 40
5.273387669
 40
5.385587406
 40
5.497787144
 40
5.609986881
 40
5.722186619
 40
5.834386357
 40
5.946586094
 40
6.058785832
 40
6.17098557
 40
6.283185307
 40
6.283185307
 10
950.0
 20
2185.0
 30
0.0
 10
950.0
 20
2184.528415742
 30
0.0
 10
950.0
 20
2183.119593414
 30
0.0
 10
950.0
 20
2180.791249773
 30
0.0
 10
950.0
 20
2177.572665093
 30
0.0
 10
950.0
 20
2173.504314942
 30
0.0
 10
950.0
 20
2168.637361185
 30
0.0
 10
950.0
 20
2163.033008589
 30
0.0
 10
950.0
 20
2156.761735139
 30
0.0
 10
950.0
 20
2149.902405739
 30
0.0
 10
950.0
 20
2142.541280434
 30
0.0
 10
950.0
 20
2134.770929647
 30
0.0
 10
950.0
 20
2126.689070047
 30
0.0
 10
950.0
 20
2118.397335708
 30
0.0
 10
950.0
 20
2110.0
 30
0.0
  0
SPLINE
  5
79
330
17
100
AcDbEntity
  8
View_cyclone_side_dxf
100
AcDbSpline
 70
8
 71
1
 72
17
 73
15
 74
0
 40
0.0
 40
0.0
 40
0.112199738
 40
0.224399475
 40
0.336599213
 40
0.448798951
 40
0.560998688
 40
0.673198426
 40
0.785398163
 40
0.897597901
 40
1.009797639
 40
1.121997376
 40
1.234197114
 40
1.346396852
 40
1.458596589
 40
1.570796327
 40
1.570796327
 10
2170.0
 20
2110.0
 30
0.0
 10
2170.0
 20
2098.80355239
 30
0.0
 10
2170.0
 20
2087.747906604
 30
0.0
 10
2170.0
 20
2076.972093804
 30
0.0
 10
2170.0
 20
2066.611626088
 30
0.0
 10
2170.0
 20
2056.796792348
 30
0.0
 10
2170.0
 20
2047.651019814
 30
0.0
 10
2170.0
 20
2039.289321881
 30
0.0
 10
2170.0
 20
2031.816851753
 30
0.0
 10
2170.0
 20
2025.327580077
 30
0.0
 10
2170.0
 20
2019.90311321
 30
0.0
 10
2170.0
 20
2015.611666969
 30
0.0
 10
2170.0
 20
2012.507208782
 30
0.0
 10
2170.0
 20
2010.628779011
 30
0.0
 10
2170.0
 20
2010.0
 30
0.0
  0
SPLINE
  5
7A
330
17
100
AcDbEntity
  8
View_cyclone_side_dxf
100
AcDbSpline
 70
8
 71
1
 72
17
 73
15
 74
0
 40
4.71238898
 40
4.71238898
 40
4.824588718
 40
4.936788456
 40
5.048988193
 40
5.161187931
 40
5.273387669
 40
5.385587406
 40
5.497787144
 40
5.609986881
 40
5.722186619
 40
5.834386357
 40
5.946586094
 40
6.058785832
 40
6.17098557
 40
6.283185307
 40
6.283185307
 10
2170.0
 20
2210.0
 30
0.0
 10
2170.0
 20
2209.371220989
 30
0.0
 10
2170.0
 20
2207.492791218
 30
0.0
 10
2170.0
 20
2204.388333031
 30
0.0
 10
2170.0
 20
2200.09688679
 30
0.0
 10
2170.0
 20
2194.672419923
 30
0.0
 10
2170.0
 20
2188.183148247
 30
0.0
 10
2170.0
 20
2180.710678119
 30
0.0
 10
2170.0
 20
2172.348980186
 30
0.0
 10
2170.0
 20
2163.203207652
 30
0.0
 10
2170.0
 20
2153.388373912
 30
0.0
 10
2170.0
 20
2143.027906196
 30
0.0
 10
2170.0
 20
2132.252093396
 30
0.0
 10
2170.0
 20
2121.19644761
 30
0.0
 10
2170.0
 20
2110.0
 30
0.0
  0
LINE
  5
7B
330
17
100
AcDbEntity
  8
View_cyclone_side_dxf
100
AcDbLine
 10
1660.0
 20
1960.0
 30
0.0
 11
2110.0
 21
1960.0
 31
0.0
  0
LINE
  5
7C
330
17
100
AcDbEntity
  8
View_cyclone_side_dxf
100
AcDbLine
 10
1660.0
 20
2260.0
 30
0.0
 11
1940.0
 21
2260.0
 31
0.0
  0
LINE
  5
7D
330
17
100
AcDbEntity
  8
View_cyclone_side_dxf
100
AcDbLine
 10
2090.0
 20
2260.0
 30
0.0
 11
2110.0
 21
2260.0
 31
0.0
  0
LINE
  5
7E
330
17
100
AcDbEntity
  8
View_cyclone_side_dxf
100
AcDbLine
 10
1060.0
 20
2160.0
 30
0.0
 11
1660.0
 21
2260.0
 31
0.0
  0
LINE
  5
7F
330
17
100
AcDbEntity
  8
View_cyclone_side_dxf
100
AcDbLine
 10
1060.0
 20
2060.0
 30
0.0
 11
1660.0
 21
1960.0
 31
0.0
  0
LINE
  5
80
330
17
100
AcDbEntity
  8
View_cyclone_side_dxf
100
AcDbLine
 10
965.0
 20
2060.0
 30
0.0
 11
1060.0
 21
2060.0
 31
0.0
  0
LINE
  5
81
330
17
100
AcDbEntity
  8
View_cyclone_side_dxf
100
AcDbLine
 10
965.0
 20
2160.0
 30
0.0
 11
1060.0
 21
2160.0
 31
0.0
  0
LINE
  5
82
330
17
100
AcDbEntity
  8
View_cyclone_side_dxf
100
AcDbLine
 10
2110.0
 20
2035.0
 30
0.0
 11
2155.0
 21
2035.0
 31
0.0
  0
LINE
  5
83
330
17
100
AcDbEntity
  8
View_cyclone_side_dxf
100
AcDbLine
 10
2110.0
 20
2185.0
 30
0.0
 11
2155.0
 21
2185.0
 31
0.0
  0
LINE
  5
84
330
17
100
AcDbEntity
  8
View_cyclone_side_dxf
100
AcDbLine
 10
950.0
 20
2035.0
 30
0.0
 11
965.0
 21
2035.0
 31
0.0
  0
LINE
  5
85
330
17
100
AcDbEntity
  8
View_cyclone_side_dxf
100
AcDbLine
 10
950.0
 20
2185.0
 30
0.0
 11
965.0
 21
2185.0
 31
0.0
  0
LINE
  5
86
330
17
100
AcDbEntity
  8
View_cyclone_side_dxf
100
AcDbLine
 10
2155.0
 20
2010.0
 30
0.0
 11
2170.0
 21
2010.0
 31
0.0
  0
LINE
  5
87
330
17
100
AcDbEntity
  8
View_cyclone_side_dxf
100
AcDbLine
 10
2155.0
 20
2210.0
 30
0.0
 11
2170.0
 21
2210.0
 31
0.0
  0
SPLINE
  5
89
330
17
100
AcDbEntity
  8
View_barrel_dxf
100
AcDbSpline
 70
8
 71
1
 72
17
 73
15
 74
0
 40
3.141592654
 40
3.141592654
 40
3.365992129
 40
3.590391604
 40
3.814791079
 40
4.039190555
 40
4.26359003
 40
4.487989505
 40
4.71238898
 40
4.936788456
 40
5.161187931
 40
5.385587406
 40
5.609986881
 40
5.834386357
 40
6.058785832
 40
6.283185307
 40
6.283185307
 10
487.5
 20
1460.0
 30
0.0
 10
491.260813173
 20
1460.0
 30
0.0
 10
502.35466981499997
 20
1460.0
 30
0.0
 10
520.2252776299999
 20
1460.0
 30
0.0
 10
543.976529721
 20
1460.0
 30
0.0
 10
572.417439132
 20
1460.0
 30
0.0
 10
604.121859907
 20
1460.0
 30
0.0
 10
637.5
 20
1460.0
 30
0.0
 10
670.878140093
 20
1460.0
 30
0.0
 10
702.582560868
 20
1460.0
 30
0.0
 10
731.023470279
 20
1460.0
 30
0.0
 10
754.7747223700001
 20
1460.0
 30
0.0
 10
772.645330185
 20
1460.0
 30
0.0
 10
783.739186827
 20
1460.0
 30
0.0
 10
787.5
 20
1460.0
 30
0.0
  0
LINE
  5
8A
330
17
100
AcDbEntity
  8
View_barrel_dxf
100
AcDbLine
 10
787.5
 20
1010.0
 30
0.0
 11
787.5
 21
1460.0
 31
0.0
  0
SPLINE
  5
8B
330
17
100
AcDbEntity
  8
View_barrel_dxf
100
AcDbSpline
 70
8
 71
1
 72
17
 73
15
 74
0
 40
3.141592654
 40
3.141592654
 40
3.365992129
 40
3.590391604
 40
3.814791079
 40
4.039190555
 40
4.26359003
 40
4.487989505
 40
4.71238898
 40
4.936788456
 40
5.161187931
 40
5.385587406
 40
5.609986881
 40
5.834386357
 40
6.058785832
 40
6.283185307
 40
6.283185307
 10
487.5
 20
1010.0
 30
0.0
 10
491.260813173
 20
1010.0
 30
0.0
 10
502.35466981499997
 20
1010.0
 30
0.0
 10
520.2252776299999
 20
1010.0
 30
0.0
 10
543.976529721
 20
1010.0
 30
0.0
 10
572.417439132
 20
1010.0
 30
0.0
 10
604.121859907
 20
1010.0
 30
0.0
 10
637.5
 20
1010.0
 30
0.0
 10
670.878140093
 20
1010.0
 30
0.0
 10
702.582560868
 20
1010.0
 30
0.0
 10
731.023470279
 20
1010.0
 30
0.0
 10
754.7747223700001
 20
1010.0
 30
0.0
 10
772.645330185
 20
1010.0
 30
0.0
 10
783.739186827
 20
1010.0
 30
0.0
 10
787.5
 20
1010.0
 30
0.0
  0
LINE
  5
8C
330
17
100
AcDbEntity
  8
View_barrel_dxf
100
AcDbLine
 10
487.5
 20
1010.0
 30
0.0
 11
487.5
 21
1460.0
 31
0.0
  0
SPLINE
  5
8E
330
17
100
AcDbEntity
  8
View_cone_dxf
100
AcDbSpline
 70
8
 71
1
 72
17
 73
15
 74
0
 40
3.141592654
 40
3.141592654
 40
3.365992129
 40
3.590391604
 40
3.814791079
 40
4.039190555
 40
4.26359003
 40
4.487989505
 40
4.71238898
 40
4.936788456
 40
5.161187931
 40
5.385587406
 40
5.609986881
 40
5.834386357
 40
6.058785832
 40
6.283185307
 40
6.283185307
 10
687.5
 20
260.0
 30
0.0
 10
686.246395609
 20
260.0
 30
0.0
 10
682.548443395
 20
260.0
 30
0.0
 10
676.591574123
 20
260.0
 30
0.0
 10
668.674490093
 20
260.0
 30
0.0
 10
659.194186956
 20
260.0
 30
0.0
 10
648.626046698
 20
260.0
 30
0.0
 10
637.5
 20
260.0
 30
0.0
 10
626.373953302
 20
260.0
 30
0.0
 10
615.805813044
 20
260.0
 30
0.0
 10
606.325509907
 20
260.0
 30
0.0
 10
598.408425877
 20
260.0
 30
0.0
 10
592.451556605
 20
260.0
 30
0.0
 10
588.753604391
 20
260.0
 30
0.0
 10
587.5
 20
260.0
 30
0.0
  0
LINE
  5
8F
330
17
100
AcDbEntity
  8
View_cone_dxf
100
AcDbLine
 10
487.5
 20
860.0
 30
0.0
 11
587.5
 21
260.0
 31
0.0
  0
SPLINE
  5
90
330
17
100
AcDbEntity
  8
View_cone_dxf
100
AcDbSpline
 70
8
 71
1
 72
17
 73
15
 74
0
 40
3.141592654
 40
3.141592654
 40
3.365992129
 40
3.590391604
 40
3.814791079
 40
4.039190555
 40
4.26359003
 40
4.487989505
 40
4.71238898
 40
4.936788456
 40
5.161187931
 40
5.385587406
 40
5.609986881
 40
5.834386357
 40
6.058785832
 40
6.283185307
 40
6.283185307
 10
787.5
 20
860.0
 30
0.0
 10
783.739186827
 20
860.0
 30
0.0
 10
772.645330185
 20
860.0
 30
0.0
 10
754.7747223700001
 20
860.0
 30
0.0
 10
731.023470279
 20
860.0
 30
0.0
 10
702.582560868
 20
860.0
 30
0.0
 10
670.878140093
 20
860.0
 30
0.0
 10
637.5
 20
860.0
 30
0.0
 10
604.121859907
 20
860.0
 30
0.0
 10
572.417439132
 20
860.0
 30
0.0
 10
543.976529721
 20
860.0
 30
0.0
 10
520.2252776299999
 20
860.0
 30
0.0
 10
502.35466981499997
 20
860.0
 30
0.0
 10
491.260813173
 20
860.0
 30
0.0
 10
487.5
 20
860.0
 30
0.0
  0
LINE
  5
91
330
17
100
AcDbEntity
  8
View_cone_dxf
100
AcDbLine
 10
687.5
 20
260.0
 30
0.0
 11
787.5
 21
860.0
 31
0.0
  0
LINE
  5
93
330
17
100
AcDbEntity
  8
View_air_out_pipe_dxf
100
AcDbLine
 10
237.5
 20
2105.0
 30
0.0
 11
237.5
 21
2330.0
 31
0.0
  0
SPLINE
  5
94
330
17
100
AcDbEntity
  8
View_air_out_pipe_dxf
100
AcDbSpline
 70
8
 71
1
 72
17
 73
15
 74
0
 40
3.141592654
 40
3.141592654
 40
3.365992129
 40
3.590391604
 40
3.814791079
 40
4.039190555
 40
4.26359003
 40
4.487989505
 40
4.71238898
 40
4.936788456
 40
5.161187931
 40
5.385587406
 40
5.609986881
 40
5.834386357
 40
6.058785832
 40
6.283185307
 40
6.283185307
 10
87.5
 20
2105.0
 30
0.0
 10
89.380406586
 20
2105.0
 30
0.0
 10
94.927334907
 20
2105.0
 30
0.0
 10
103.862638815
 20
2105.0
 30
0.0
 10
115.738264861
 20
2105.0
 30
0.0
 10
129.958719566
 20
2105.0
 30
0.0
 10
145.810929953
 20
2105.0
 30
0.0
 10
162.5
 20
2105.0
 30
0.0
 10
179.189070047
 20
2105.0
 30
0.0
 10
195.041280434
 20
2105.0
 30
0.0
 10
209.261735139
 20
2105.0
 30
0.0
 10
221.137361185
 20
2105.0
 30
0.0
 10
230.072665093
 20
2105.0
 30
0.0
 10
235.619593414
 20
2105.0
 30
0.0
 10
237.5
 20
2105.0
 30
0.0
  0
SPLINE
  5
95
330
17
100
AcDbEntity
  8
View_air_out_pipe_dxf
100
AcDbSpline
 70
8
 71
1
 72
17
 73
15
 74
0
 40
3.141592654
 40
3.141592654
 40
3.365992129
 40
3.590391604
 40
3.814791079
 40
4.039190555
 40
4.26359003
 40
4.487989505
 40
4.71238898
 40
4.936788456
 40
5.161187931
 40
5.385587406
 40
5.609986881
 40
5.834386357
 40
6.058785832
 40
6.283185307
 40
6.283185307
 10
62.5
 20
2330.0
 30
0.0
 10
65.007208782
 20
2330.0
 30
0.0
 10
72.40311321
 20
2330.0
 30
0.0
 10
84.316851753
 20
2330.0
 30
0.0
 10
100.151019814
 20
2330.0
 30
0.0
 10
119.11162608800001
 20
2330.0
 30
0.0
 10
140.247906604
 20
2330.0
 30
0.0
 10
162.5
 20
2330.0
 30
0.0
 10
184.752093396
 20
2330.0
 30
0.0
 10
205.888373912
 20
2330.0
 30
0.0
 10
224.848980186
 20
2330.0
 30
0.0
 10
240.68314824700002
 20
2330.0
 30
0.0
 10
252.59688678999999
 20
2330.0
 30
0.0
 10
259.992791218
 20
2330.0
 30
0.0
 10
262.5
 20
2330.0
 30
0.0
  0
SPLINE
  5
96
330
17
100
AcDbEntity
  8
View_air_out_pipe_dxf
100
AcDbSpline
 70
8
 71
1
 72
17
 73
15
 74
0
 40
3.141592654
 40
3.141592654
 40
3.365992129
 40
3.590391604
 40
3.814791079
 40
4.039190555
 40
4.26359003
 40
4.487989505
 40
4.71238898
 40
4.936788456
 40
5.161187931
 40
5.385587406
 40
5.609986881
 40
5.834386357
 40
6.058785832
 40
6.283185307
 40
6.283185307
 10
62.5
 20
2345.0
 30
0.0
 10
65.007208782
 20
2345.0
 30
0.0
 10
72.40311321
 20
2345.0
 30
0.0
 10
84.316851753
 20
2345.0
 30
0.0
 10
100.151019814
 20
2345.0
 30
0.0
 10
119.11162608800001
 20
2345.0
 30
0.0
 10
140.247906604
 20
2345.0
 30
0.0
 10
162.5
 20
2345.0
 30
0.0
 10
184.752093396
 20
2345.0
 30
0.0
 10
205.888373912
 20
2345.0
 30
0.0
 10
224.848980186
 20
2345.0
 30
0.0
 10
240.68314824700002
 20
2345.0
 30
0.0
 10
252.59688678999999
 20
2345.0
 30
0.0
 10
259.992791218
 20
2345.0
 30
0.0
 10
262.5
 20
2345.0
 30
0.0
  0
LINE
  5
97
330
17
100
AcDbEntity
  8
View_air_out_pipe_dxf
100
AcDbLine
 10
262.5
 20
2330.0
 30
0.0
 11
262.5
 21
2345.0
 31
0.0
  0
LINE
  5
98
330
17
100
AcDbEntity
  8
View_air_out_pipe_dxf
100
AcDbLine
 10
87.5
 20
2105.0
 30
0.0
 11
87.5
 21
2330.0
 31
0.0
  0
LINE
  5
99
330
17
100
AcDbEntity
  8
View_air_out_pipe_dxf
100
AcDbLine
 10
62.5
 20
2330.0
 30
0.0
 11
62.5
 21
2345.0
 31
0.0
  0
LINE
  5
9B
330
17
100
AcDbEntity
  8
View_dust_outlet_pipe_dxf
100
AcDbLine
 10
687.5
 20
15.0
 30
0.0
 11
687.5
 21
110.0
 31
0.0
  0
SPLINE
  5
9C
330
17
100
AcDbEntity
  8
View_dust_outlet_pipe_dxf
100
AcDbSpline
 70
8
 71
1
 72
17
 73
15
 74
0
 40
3.141592654
 40
3.141592654
 40
3.365992129
 40
3.590391604
 40
3.814791079
 40
4.039190555
 40
4.26359003
 40
4.487989505
 40
4.71238898
 40
4.936788456
 40
5.161187931
 40
5.385587406
 40
5.609986881
 40
5.834386357
 40
6.058785832
 40
6.283185307
 40
6.283185307
 10
587.5
 20
110.0
 30
0.0
 10
588.753604391
 20
110.0
 30
0.0
 10
592.451556605
 20
110.0
 30
0.0
 10
598.408425877
 20
110.0
 30
0.0
 10
606.325509907
 20
110.0
 30
0.0
 10
615.805813044
 20
110.0
 30
0.0
 10
626.373953302
 20
110.0
 30
0.0
 10
637.5
 20
110.0
 30
0.0
 10
648.626046698
 20
110.0
 30
0.0
 10
659.194186956
 20
110.0
 30
0.0
 10
668.674490093
 20
110.0
 30
0.0
 10
676.591574123
 20
110.0
 30
0.0
 10
682.548443395
 20
110.0
 30
0.0
 10
686.246395609
 20
110.0
 30
0.0
 10
687.5
 20
110.0
 30
0.0
  0
SPLINE
  5
9D
330
17
100
AcDbEntity
  8
View_dust_outlet_pipe_dxf
100
AcDbSpline
 70
8
 71
1
 72
17
 73
15
 74
0
 40
3.141592654
 40
3.141592654
 40
3.365992129
 40
3.590391604
 40
3.814791079
 40
4.039190555
 40
4.26359003
 40
4.487989505
 40
4.71238898
 40
4.936788456
 40
5.161187931
 40
5.385587406
 40
5.609986881
 40
5.834386357
 40
6.058785832
 40
6.283185307
 40
6.283185307
 10
562.5
 20
15.0
 30
0.0
 10
564.380406586
 20
15.0
 30
0.0
 10
569.927334907
 20
15.0
 30
0.0
 10
578.862638815
 20
15.0
 30
0.0
 10
590.738264861
 20
15.0
 30
0.0
 10
604.958719566
 20
15.0
 30
0.0
 10
620.810929953
 20
15.0
 30
0.0
 10
637.5
 20
15.0
 30
0.0
 10
654.189070047
 20
15.0
 30
0.0
 10
670.041280434
 20
15.0
 30
0.0
 10
684.261735139
 20
15.0
 30
0.0
 10
696.137361185
 20
15.0
 30
0.0
 10
705.072665093
 20
15.0
 30
0.0
 10
710.619593414
 20
15.0
 30
0.0
 10
712.5
 20
15.0
 30
0.0
  0
LINE
  5
9E
330
17
100
AcDbEntity
  8
View_dust_outlet_pipe_dxf
100
AcDbLine
 10
712.5
 20
0.0
 30
0.0
 11
712.5
 21
15.0
 31
0.0
  0
SPLINE
  5
9F
330
17
100
AcDbEntity
  8
View_dust_outlet_pipe_dxf
100
AcDbSpline
 70
8
 71
1
 72
17
 73
15
 74
0
 40
3.141592654
 40
3.141592654
 40
3.365992129
 40
3.590391604
 40
3.814791079
 40
4.039190555
 40
4.26359003
 40
4.487989505
 40
4.71238898
 40
4.936788456
 40
5.161187931
 40
5.385587406
 40
5.609986881
 40
5.834386357
 40
6.058785832
 40
6.283185307
 40
6.283185307
 10
562.5
 20
0.0
 30
0.0
 10
564.380406586
 20
0.0
 30
0.0
 10
569.927334907
 20
0.0
 30
0.0
 10
578.862638815
 20
0.0
 30
0.0
 10
590.738264861
 20
0.0
 30
0.0
 10
604.958719566
 20
0.0
 30
0.0
 10
620.810929953
 20
0.0
 30
0.0
 10
637.5
 20
0.0
 30
0.0
 10
654.189070047
 20
0.0
 30
0.0
 10
670.041280434
 20
0.0
 30
0.0
 10
684.261735139
 20
0.0
 30
0.0
 10
696.137361185
 20
0.0
 30
0.0
 10
705.072665093
 20
0.0
 30
0.0
 10
710.619593414
 20
0.0
 30
0.0
 10
712.5
 20
0.0
 30
0.0
  0
LINE
  5
A0
330
17
100
AcDbEntity
  8
View_dust_outlet_pipe_dxf
100
AcDbLine
 10
587.5
 20
15.0
 30
0.0
 11
587.5
 21
110.0
 31
0.0
  0
LINE
  5
A1
330
17
100
AcDbEntity
  8
View_dust_outlet_pipe_dxf
100
AcDbLine
 10
562.5
 20
0.0
 30
0.0
 11
562.5
 21
15.0
 31
0.0
  0
LINE
  5
A3
330
17
100
AcDbEntity
  8
View_inlet_duct_dxf
100
AcDbLine
 10
582.5
 20
1610.0
 30
0.0
 11
692.5
 21
1610.0
 31
0.0
  0
LINE
  5
A4
330
17
100
AcDbEntity
  8
View_inlet_duct_dxf
100
AcDbLine
 10
692.5
 20
1610.0
 30
0.0
 11
692.5
 21
1810.0
 31
0.0
  0
LINE
  5
A5
330
17
100
AcDbEntity
  8
View_inlet_duct_dxf
100
AcDbLine
 10
582.5
 20
1610.0
 30
0.0
 11
582.5
 21
1810.0
 31
0.0
  0
LINE
  5
A6
330
17
100
AcDbEntity
  8
View_inlet_duct_dxf
100
AcDbLine
 10
582.5
 20
1810.0
 30
0.0
 11
692.5
 21
1810.0
 31
0.0
  0
CIRCLE
  5
A7
330
17
100
AcDbEntity
  8
View_inlet_duct_dxf
100
AcDbCircle
 10
595.0
 20
1622.5
 30
0.0
 40
6.0
  0
CIRCLE
  5
A8
330
17
100
AcDbEntity
  8
View_inlet_duct_dxf
100
AcDbCircle
 10
595.0
 20
1797.5
 30
0.0
 40
6.0
  0
CIRCLE
  5
A9
330
17
100
AcDbEntity
  8
View_inlet_duct_dxf
100
AcDbCircle
 10
680.0
 20
1622.5
 30
0.0
 40
6.0
  0
CIRCLE
  5
AA
330
17
100
AcDbEntity
  8
View_inlet_duct_dxf
100
AcDbCircle
 10
680.0
 20
1797.5
 30
0.0
 40
6.0
  0
LINE
  5
AB
330
17
100
AcDbEntity
  8
View_inlet_duct_dxf
100
AcDbLine
 10
607.5
 20
1785.0
 30
0.0
 11
667.5
 21
1785.0
 31
0.0
  0
LINE
  5
AC
330
17
100
AcDbEntity
  8
View_inlet_duct_dxf
100
AcDbLine
 10
607.5
 20
1785.0
 30
0.0
 11
607.5
 21
1635.0
 31
0.0
  0
LINE
  5
AD
330
17
100
AcDbEntity
  8
View_inlet_duct_dxf
100
AcDbLine
 10
667.5
 20
1785.0
 30
0.0
 11
667.5
 21
1635.0
 31
0.0
  0
LINE
  5
AE
330
17
100
AcDbEntity
  8
View_inlet_duct_dxf
100
AcDbLine
 10
607.5
 20
1635.0
 30
0.0
 11
667.5
 21
1635.0
 31
0.0
  0
ENDSEC
  0
SECTION
  2
OBJECTS
  0
DICTIONARY
  5
A
330
0
100
AcDbDictionary
281
1
  3
ACAD_COLOR
350
B
  3
ACAD_GROUP
350
C
  3
ACAD_LAYOUT
350
D
  3
ACAD_MATERIAL
350
E
  3
ACAD_MLEADERSTYLE
350
F
  3
ACAD_MLINESTYLE
350
10
  3
ACAD_PLOTSETTINGS
350
11
  3
ACAD_PLOTSTYLENAME
350
12
  3
ACAD_SCALELIST
350
14
  3
ACAD_TABLESTYLE
350
15
  3
ACAD_VISUALSTYLE
350
16
  3
EZDXF_META
350
2D
  0
DICTIONARY
  5
B
330
A
100
AcDbDictionary
281
1
  0
DICTIONARY
  5
C
330
A
100
AcDbDictionary
281
1
  0
DICTIONARY
  5
D
330
A
100
AcDbDictionary
281
1
  3
Model
350
1A
  3
Layout1
350
1E
  0
DICTIONARY
  5
E
330
A
100
AcDbDictionary
281
1
  3
ByBlock
350
1F
  3
ByLayer
350
20
  3
Global
350
21
  0
DICTIONARY
  5
F
330
A
100
AcDbDictionary
281
1
  3
Standard
350
2C
  0
DICTIONARY
  5
10
330
A
100
AcDbDictionary
281
1
  3
Standard
350
22
  0
DICTIONARY
  5
11
330
A
100
AcDbDictionary
281
1
  0
ACDBDICTIONARYWDFLT
  5
12
330
A
100
AcDbDictionary
281
1
  3
Normal
350
13
100
AcDbDictionaryWithDefault
340
13
  0
ACDBPLACEHOLDER
  5
13
330
12
  0
DICTIONARY
  5
14
330
A
100
AcDbDictionary
281
1
  0
DICTIONARY
  5
15
330
A
100
AcDbDictionary
281
1
  0
DICTIONARY
  5
16
330
A
100
AcDbDictionary
281
1
  0
LAYOUT
  5
1A
330
D
100
AcDbPlotSettings
  1

  4
A3
  6

 40
7.5
 41
20.0
 42
7.5
 43
20.0
 44
420.0
 45
297.0
 46
0.0
 47
0.0
 48
0.0
 49
0.0
140
0.0
141
0.0
142
1.0
143
1.0
 70
1024
 72
1
 73
0
 74
5
  7

 75
16
 76
0
 77
2
 78
300
147
1.0
148
0.0
149
0.0
100
AcDbLayout
  1
Model
 70
1
 71
0
 10
0.0
 20
0.0
 11
420.0
 21
297.0
 12
0.0
 22
0.0
 32
0.0
 14
1e+20
 24
1e+20
 34
1e+20
 15
-1e+20
 25
-1e+20
 35
-1e+20
146
0.0
 13
0.0
 23
0.0
 33
0.0
 16
1.0
 26
0.0
 36
0.0
 17
0.0
 27
1.0
 37
0.0
 76
1
330
17
  0
LAYOUT
  5
1E
330
D
100
AcDbPlotSettings
  1

  4
A3
  6

 40
7.5
 41
20.0
 42
7.5
 43
20.0
 44
420.0
 45
297.0
 46
0.0
 47
0.0
 48
0.0
 49
0.0
140
0.0
141
0.0
142
1.0
143
1.0
 70
0
 72
1
 73
0
 74
5
  7

 75
16
 76
0
 77
2
 78
300
147
1.0
148
0.0
149
0.0
100
AcDbLayout
  1
Layout1
 70
1
 71
1
 10
0.0
 20
0.0
 11
420.0
 21
297.0
 12
0.0
 22
0.0
 32
0.0
 14
1e+20
 24
1e+20
 34
1e+20
 15
-1e+20
 25
-1e+20
 35
-1e+20
146
0.0
 13
0.0
 23
0.0
 33
0.0
 16
1.0
 26
0.0
 36
0.0
 17
0.0
 27
1.0
 37
0.0
 76
1
330
1B
  0
MATERIAL
  5
1F
102
{ACAD_REACTORS
330
E
102
}
330
E
100
AcDbMaterial
  1
ByBlock
  2

 70
0
 40
1.0
 71
1
 41
1.0
 91
-1023410177
 42
1.0
 72
1
  3

 73
1
 74
1
 75
1
 44
0.5
 73
0
 45
1.0
 46
1.0
 77
1
  4

 78
1
 79
1
170
1
 48
1.0
171
1
  6

172
1
173
1
174
1
140
1.0
141
1.0
175
1
  7

176
1
177
1
178
1
143
1.0
179
1
  8

270
1
271
1
272
1
145
1.0
146
1.0
273
1
  9

274
1
275
1
276
1
 42
1.0
 72
1
  3

 73
1
 74
1
 75
1
 94
63
  0
MATERIAL
  5
20
102
{ACAD_REACTORS
330
E
102
}
330
E
100
AcDbMaterial
  1
ByLayer
  2

 70
0
 40
1.0
 71
1
 41
1.0
 91
-1023410177
 42
1.0
 72
1
  3

 73
1
 74
1
 75
1
 44
0.5
 73
0
 45
1.0
 46
1.0
 77
1
  4

 78
1
 79
1
170
1
 48
1.0
171
1
  6

172
1
173
1
174
1
140
1.0
141
1.0
175
1
  7

176
1
177
1
178
1
143
1.0
179
1
  8

270
1
271
1
272
1
145
1.0
146
1.0
273
1
  9

274
1
275
1
276
1
 42
1.0
 72
1
  3

 73
1
 74
1
 75
1
 94
63
  0
MATERIAL
  5
21
102
{ACAD_REACTORS
330
E
102
}
330
E
100
AcDbMaterial
  1
Global
  2

 70
0
 40
1.0
 71
1
 41
1.0
 91
-1023410177
 42
1.0
 72
1
  3

 73
1
 74
1
 75
1
 44
0.5
 73
0
 45
1.0
 46
1.0
 77
1
  4

 78
1
 79
1
170
1
 48
1.0
171
1
  6

172
1
173
1
174
1
140
1.0
141
1.0
175
1
  7

176
1
177
1
178
1
143
1.0
179
1
  8

270
1
271
1
272
1
145
1.0
146
1.0
273
1
  9

274
1
275
1
276
1
 42
1.0
 72
1
  3

 73
1
 74
1
 75
1
 94
63
  0
MLINESTYLE
  5
22
102
{ACAD_REACTORS
330
10
102
}
330
10
100
AcDbMlineStyle
  2
Standard
 70
0
  3

 62
256
 51
90.0
 52
90.0
 71
2
 49
0.5
 62
256
  6
BYLAYER
 49
-0.5
 62
256
  6
BYLAYER
  0
MLEADERSTYLE
  5
2C
102
{ACAD_REACTORS
330
F
102
}
330
F
100
AcDbMLeaderStyle
179
2
170
2
171
1
172
0
 90
2
 40
0.0
 41
0.0
173
1
 91
-1056964608
 92
-2
290
1
 42
2.0
291
1
 43
8.0
  3
Standard
 44
4.0
300

342
29
174
1
175
1
176
0
178
1
 93
-1056964608
 45
4.0
292
0
297
0
 46
4.0
 94
-1056964608
 47
1.0
 49
1.0
140
1.0
294
1
141
0.0
177
0
142
1.0
295
0
296
0
143
3.75
271
0
272
9
273
9
  0
DICTIONARY
  5
2D
330
A
100
AcDbDictionary
280
1
281
1
  3
CREATED_BY_EZDXF
350
2E
  3
WRITTEN_BY_EZDXF
350
B2
  0
DICTIONARYVAR
  5
2E
330
2D
100
DictionaryVariables
280
0
  1
1.4.4 @ 2026-08-11T10:27:47.149156+00:00
  0
DICTIONARYVAR
  5
B2
330
2D
100
DictionaryVariables
280
0
  1
1.4.4 @ 2026-08-11T10:27:47.768612+00:00
  0
ENDSEC
  0
EOF
