ISO-10303-21;
HEADER;
FILE_DESCRIPTION(('FreeCAD Model'),'2;1');
FILE_NAME('Open CASCADE Shape Model','2026-08-11T15:57:40',('FreeCAD'),(
    'FreeCAD'),'Open CASCADE STEP processor 7.8','FreeCAD','Unknown');
FILE_SCHEMA(('AUTOMOTIVE_DESIGN { 1 0 10303 214 1 1 1 1 }'));
ENDSEC;
DATA;
#1 = APPLICATION_PROTOCOL_DEFINITION('international standard',
  'automotive_design',2000,#2);
#2 = APPLICATION_CONTEXT(
  'core data for automotive mechanical design processes');
#3 = SHAPE_DEFINITION_REPRESENTATION(#4,#10);
#4 = PRODUCT_DEFINITION_SHAPE('','',#5);
#5 = PRODUCT_DEFINITION('design','',#6,#9);
#6 = PRODUCT_DEFINITION_FORMATION('','',#7);
#7 = PRODUCT('Open CASCADE STEP translator 7.8 1',
  'Open CASCADE STEP translator 7.8 1','',(#8));
#8 = PRODUCT_CONTEXT('',#2,'mechanical');
#9 = PRODUCT_DEFINITION_CONTEXT('part definition',#2,'design');
#10 = ADVANCED_BREP_SHAPE_REPRESENTATION('',(#11,#15),#1896);
#11 = AXIS2_PLACEMENT_3D('',#12,#13,#14);
#12 = CARTESIAN_POINT('',(0.,0.,0.));
#13 = DIRECTION('',(0.,0.,1.));
#14 = DIRECTION('',(1.,0.,-0.));
#15 = MANIFOLD_SOLID_BREP('',#16);
#16 = CLOSED_SHELL('',(#17,#100,#135,#166,#186,#210,#234,#251,#277,#367,
    #392,#456,#487,#511,#535,#552,#577,#602,#627,#652,#716,#741,#766,
    #791,#816,#841,#899,#924,#949,#974,#999,#1024,#1056,#1087,#1111,
    #1135,#1152,#1184,#1209,#1255,#1280,#1300,#1341,#1365,#1399,#1490,
    #1510,#1544,#1617,#1691,#1709,#1762,#1787,#1821,#1839,#1859,#1878));
#17 = ADVANCED_FACE('',(#18),#95,.T.);
#18 = FACE_BOUND('',#19,.T.);
#19 = EDGE_LOOP('',(#20,#31,#39,#48,#56,#65,#73,#80,#81,#87,#88));
#20 = ORIENTED_EDGE('',*,*,#21,.T.);
#21 = EDGE_CURVE('',#22,#24,#26,.T.);
#22 = VERTEX_POINT('',#23);
#23 = CARTESIAN_POINT('',(-150.,-3.673940397442E-14,0.));
#24 = VERTEX_POINT('',#25);
#25 = CARTESIAN_POINT('',(150.,-3.673940397442E-14,0.));
#26 = CIRCLE('',#27,150.);
#27 = AXIS2_PLACEMENT_3D('',#28,#29,#30);
#28 = CARTESIAN_POINT('',(0.,0.,0.));
#29 = DIRECTION('',(0.,0.,1.));
#30 = DIRECTION('',(1.,0.,0.));
#31 = ORIENTED_EDGE('',*,*,#32,.T.);
#32 = EDGE_CURVE('',#24,#33,#35,.T.);
#33 = VERTEX_POINT('',#34);
#34 = CARTESIAN_POINT('',(150.,0.,280.));
#35 = LINE('',#36,#37);
#36 = CARTESIAN_POINT('',(150.,-3.673940397442E-14,0.));
#37 = VECTOR('',#38,1.);
#38 = DIRECTION('',(0.,0.,1.));
#39 = ORIENTED_EDGE('',*,*,#40,.F.);
#40 = EDGE_CURVE('',#41,#33,#43,.T.);
#41 = VERTEX_POINT('',#42);
#42 = CARTESIAN_POINT('',(90.,-120.,280.));
#43 = CIRCLE('',#44,150.);
#44 = AXIS2_PLACEMENT_3D('',#45,#46,#47);
#45 = CARTESIAN_POINT('',(0.,0.,280.));
#46 = DIRECTION('',(0.,0.,1.));
#47 = DIRECTION('',(1.,0.,0.));
#48 = ORIENTED_EDGE('',*,*,#49,.T.);
#49 = EDGE_CURVE('',#41,#50,#52,.T.);
#50 = VERTEX_POINT('',#51);
#51 = CARTESIAN_POINT('',(90.,-120.,430.));
#52 = LINE('',#53,#54);
#53 = CARTESIAN_POINT('',(90.,-120.,0.));
#54 = VECTOR('',#55,1.);
#55 = DIRECTION('',(0.,0.,1.));
#56 = ORIENTED_EDGE('',*,*,#57,.T.);
#57 = EDGE_CURVE('',#50,#58,#60,.T.);
#58 = VERTEX_POINT('',#59);
#59 = CARTESIAN_POINT('',(150.,0.,430.));
#60 = CIRCLE('',#61,150.);
#61 = AXIS2_PLACEMENT_3D('',#62,#63,#64);
#62 = CARTESIAN_POINT('',(0.,0.,430.));
#63 = DIRECTION('',(0.,0.,1.));
#64 = DIRECTION('',(1.,0.,0.));
#65 = ORIENTED_EDGE('',*,*,#66,.T.);
#66 = EDGE_CURVE('',#58,#67,#69,.T.);
#67 = VERTEX_POINT('',#68);
#68 = CARTESIAN_POINT('',(150.,-3.673940397442E-14,450.));
#69 = LINE('',#70,#71);
#70 = CARTESIAN_POINT('',(150.,-3.673940397442E-14,0.));
#71 = VECTOR('',#72,1.);
#72 = DIRECTION('',(0.,0.,1.));
#73 = ORIENTED_EDGE('',*,*,#74,.F.);
#74 = EDGE_CURVE('',#67,#67,#75,.T.);
#75 = CIRCLE('',#76,150.);
#76 = AXIS2_PLACEMENT_3D('',#77,#78,#79);
#77 = CARTESIAN_POINT('',(0.,0.,450.));
#78 = DIRECTION('',(0.,0.,1.));
#79 = DIRECTION('',(1.,0.,0.));
#80 = ORIENTED_EDGE('',*,*,#66,.F.);
#81 = ORIENTED_EDGE('',*,*,#82,.F.);
#82 = EDGE_CURVE('',#33,#58,#83,.T.);
#83 = LINE('',#84,#85);
#84 = CARTESIAN_POINT('',(150.,-3.673940397442E-14,0.));
#85 = VECTOR('',#86,1.);
#86 = DIRECTION('',(0.,0.,1.));
#87 = ORIENTED_EDGE('',*,*,#32,.F.);
#88 = ORIENTED_EDGE('',*,*,#89,.T.);
#89 = EDGE_CURVE('',#24,#22,#90,.T.);
#90 = CIRCLE('',#91,150.);
#91 = AXIS2_PLACEMENT_3D('',#92,#93,#94);
#92 = CARTESIAN_POINT('',(0.,0.,0.));
#93 = DIRECTION('',(0.,0.,1.));
#94 = DIRECTION('',(1.,0.,0.));
#95 = CYLINDRICAL_SURFACE('',#96,150.);
#96 = AXIS2_PLACEMENT_3D('',#97,#98,#99);
#97 = CARTESIAN_POINT('',(0.,0.,0.));
#98 = DIRECTION('',(0.,0.,1.));
#99 = DIRECTION('',(1.,0.,0.));
#100 = ADVANCED_FACE('',(#101),#130,.T.);
#101 = FACE_BOUND('',#102,.T.);
#102 = EDGE_LOOP('',(#103,#104,#112,#121,#128,#129));
#103 = ORIENTED_EDGE('',*,*,#21,.F.);
#104 = ORIENTED_EDGE('',*,*,#105,.T.);
#105 = EDGE_CURVE('',#22,#106,#108,.T.);
#106 = VERTEX_POINT('',#107);
#107 = CARTESIAN_POINT('',(-50.,-1.224646799147E-14,-600.));
#108 = LINE('',#109,#110);
#109 = CARTESIAN_POINT('',(-150.,-3.673940397442E-14,0.));
#110 = VECTOR('',#111,1.);
#111 = DIRECTION('',(0.164398987305,4.026613871731E-17,-0.986393923832)
  );
#112 = ORIENTED_EDGE('',*,*,#113,.F.);
#113 = EDGE_CURVE('',#114,#106,#116,.T.);
#114 = VERTEX_POINT('',#115);
#115 = CARTESIAN_POINT('',(50.,-1.224646799147E-14,-600.));
#116 = CIRCLE('',#117,50.);
#117 = AXIS2_PLACEMENT_3D('',#118,#119,#120);
#118 = CARTESIAN_POINT('',(0.,0.,-600.));
#119 = DIRECTION('',(0.,0.,-1.));
#120 = DIRECTION('',(-1.,0.,0.));
#121 = ORIENTED_EDGE('',*,*,#122,.F.);
#122 = EDGE_CURVE('',#106,#114,#123,.T.);
#123 = CIRCLE('',#124,50.);
#124 = AXIS2_PLACEMENT_3D('',#125,#126,#127);
#125 = CARTESIAN_POINT('',(0.,0.,-600.));
#126 = DIRECTION('',(0.,0.,-1.));
#127 = DIRECTION('',(-1.,0.,0.));
#128 = ORIENTED_EDGE('',*,*,#105,.F.);
#129 = ORIENTED_EDGE('',*,*,#89,.F.);
#130 = CONICAL_SURFACE('',#131,150.,0.165148677415);
#131 = AXIS2_PLACEMENT_3D('',#132,#133,#134);
#132 = CARTESIAN_POINT('',(0.,0.,0.));
#133 = DIRECTION('',(0.,0.,1.));
#134 = DIRECTION('',(-1.,0.,0.));
#135 = ADVANCED_FACE('',(#136),#161,.T.);
#136 = FACE_BOUND('',#137,.T.);
#137 = EDGE_LOOP('',(#138,#148,#154,#155));
#138 = ORIENTED_EDGE('',*,*,#139,.T.);
#139 = EDGE_CURVE('',#140,#142,#144,.T.);
#140 = VERTEX_POINT('',#141);
#141 = CARTESIAN_POINT('',(150.,-220.,430.));
#142 = VERTEX_POINT('',#143);
#143 = CARTESIAN_POINT('',(150.,-220.,280.));
#144 = LINE('',#145,#146);
#145 = CARTESIAN_POINT('',(150.,-220.,267.5));
#146 = VECTOR('',#147,1.);
#147 = DIRECTION('',(0.,0.,-1.));
#148 = ORIENTED_EDGE('',*,*,#149,.T.);
#149 = EDGE_CURVE('',#142,#33,#150,.T.);
#150 = LINE('',#151,#152);
#151 = CARTESIAN_POINT('',(150.,-225.,280.));
#152 = VECTOR('',#153,1.);
#153 = DIRECTION('',(0.,1.,0.));
#154 = ORIENTED_EDGE('',*,*,#82,.T.);
#155 = ORIENTED_EDGE('',*,*,#156,.F.);
#156 = EDGE_CURVE('',#140,#58,#157,.T.);
#157 = LINE('',#158,#159);
#158 = CARTESIAN_POINT('',(150.,-225.,430.));
#159 = VECTOR('',#160,1.);
#160 = DIRECTION('',(0.,1.,0.));
#161 = PLANE('',#162);
#162 = AXIS2_PLACEMENT_3D('',#163,#164,#165);
#163 = CARTESIAN_POINT('',(150.,-225.,280.));
#164 = DIRECTION('',(1.,0.,0.));
#165 = DIRECTION('',(0.,0.,1.));
#166 = ADVANCED_FACE('',(#167,#170),#181,.T.);
#167 = FACE_BOUND('',#168,.T.);
#168 = EDGE_LOOP('',(#169));
#169 = ORIENTED_EDGE('',*,*,#74,.T.);
#170 = FACE_BOUND('',#171,.T.);
#171 = EDGE_LOOP('',(#172));
#172 = ORIENTED_EDGE('',*,*,#173,.F.);
#173 = EDGE_CURVE('',#174,#174,#176,.T.);
#174 = VERTEX_POINT('',#175);
#175 = CARTESIAN_POINT('',(75.,-1.836970198721E-14,450.));
#176 = CIRCLE('',#177,75.);
#177 = AXIS2_PLACEMENT_3D('',#178,#179,#180);
#178 = CARTESIAN_POINT('',(0.,0.,450.));
#179 = DIRECTION('',(0.,0.,1.));
#180 = DIRECTION('',(1.,0.,0.));
#181 = PLANE('',#182);
#182 = AXIS2_PLACEMENT_3D('',#183,#184,#185);
#183 = CARTESIAN_POINT('',(0.,0.,450.));
#184 = DIRECTION('',(0.,0.,1.));
#185 = DIRECTION('',(1.,0.,0.));
#186 = ADVANCED_FACE('',(#187),#205,.T.);
#187 = FACE_BOUND('',#188,.T.);
#188 = EDGE_LOOP('',(#189,#197,#203,#204));
#189 = ORIENTED_EDGE('',*,*,#190,.F.);
#190 = EDGE_CURVE('',#191,#50,#193,.T.);
#191 = VERTEX_POINT('',#192);
#192 = CARTESIAN_POINT('',(90.,-220.,430.));
#193 = LINE('',#194,#195);
#194 = CARTESIAN_POINT('',(90.,-225.,430.));
#195 = VECTOR('',#196,1.);
#196 = DIRECTION('',(0.,1.,0.));
#197 = ORIENTED_EDGE('',*,*,#198,.T.);
#198 = EDGE_CURVE('',#191,#140,#199,.T.);
#199 = LINE('',#200,#201);
#200 = CARTESIAN_POINT('',(77.5,-220.,430.));
#201 = VECTOR('',#202,1.);
#202 = DIRECTION('',(1.,0.,0.));
#203 = ORIENTED_EDGE('',*,*,#156,.T.);
#204 = ORIENTED_EDGE('',*,*,#57,.F.);
#205 = PLANE('',#206);
#206 = AXIS2_PLACEMENT_3D('',#207,#208,#209);
#207 = CARTESIAN_POINT('',(90.,-225.,430.));
#208 = DIRECTION('',(0.,0.,1.));
#209 = DIRECTION('',(1.,0.,0.));
#210 = ADVANCED_FACE('',(#211),#229,.F.);
#211 = FACE_BOUND('',#212,.F.);
#212 = EDGE_LOOP('',(#213,#214,#222,#228));
#213 = ORIENTED_EDGE('',*,*,#190,.F.);
#214 = ORIENTED_EDGE('',*,*,#215,.T.);
#215 = EDGE_CURVE('',#191,#216,#218,.T.);
#216 = VERTEX_POINT('',#217);
#217 = CARTESIAN_POINT('',(90.,-220.,280.));
#218 = LINE('',#219,#220);
#219 = CARTESIAN_POINT('',(90.,-220.,267.5));
#220 = VECTOR('',#221,1.);
#221 = DIRECTION('',(0.,0.,-1.));
#222 = ORIENTED_EDGE('',*,*,#223,.T.);
#223 = EDGE_CURVE('',#216,#41,#224,.T.);
#224 = LINE('',#225,#226);
#225 = CARTESIAN_POINT('',(90.,-225.,280.));
#226 = VECTOR('',#227,1.);
#227 = DIRECTION('',(0.,1.,0.));
#228 = ORIENTED_EDGE('',*,*,#49,.T.);
#229 = PLANE('',#230);
#230 = AXIS2_PLACEMENT_3D('',#231,#232,#233);
#231 = CARTESIAN_POINT('',(90.,-225.,280.));
#232 = DIRECTION('',(1.,0.,0.));
#233 = DIRECTION('',(0.,0.,1.));
#234 = ADVANCED_FACE('',(#235),#246,.F.);
#235 = FACE_BOUND('',#236,.F.);
#236 = EDGE_LOOP('',(#237,#238,#244,#245));
#237 = ORIENTED_EDGE('',*,*,#223,.F.);
#238 = ORIENTED_EDGE('',*,*,#239,.T.);
#239 = EDGE_CURVE('',#216,#142,#240,.T.);
#240 = LINE('',#241,#242);
#241 = CARTESIAN_POINT('',(77.5,-220.,280.));
#242 = VECTOR('',#243,1.);
#243 = DIRECTION('',(1.,0.,0.));
#244 = ORIENTED_EDGE('',*,*,#149,.T.);
#245 = ORIENTED_EDGE('',*,*,#40,.F.);
#246 = PLANE('',#247);
#247 = AXIS2_PLACEMENT_3D('',#248,#249,#250);
#248 = CARTESIAN_POINT('',(90.,-225.,280.));
#249 = DIRECTION('',(0.,0.,1.));
#250 = DIRECTION('',(1.,0.,0.));
#251 = ADVANCED_FACE('',(#252),#272,.T.);
#252 = FACE_BOUND('',#253,.T.);
#253 = EDGE_LOOP('',(#254,#262,#263,#264,#265));
#254 = ORIENTED_EDGE('',*,*,#255,.T.);
#255 = EDGE_CURVE('',#256,#114,#258,.T.);
#256 = VERTEX_POINT('',#257);
#257 = CARTESIAN_POINT('',(50.,-1.224646799147E-14,-695.));
#258 = LINE('',#259,#260);
#259 = CARTESIAN_POINT('',(50.,-1.224646799147E-14,-700.));
#260 = VECTOR('',#261,1.);
#261 = DIRECTION('',(0.,0.,1.));
#262 = ORIENTED_EDGE('',*,*,#113,.T.);
#263 = ORIENTED_EDGE('',*,*,#122,.T.);
#264 = ORIENTED_EDGE('',*,*,#255,.F.);
#265 = ORIENTED_EDGE('',*,*,#266,.T.);
#266 = EDGE_CURVE('',#256,#256,#267,.T.);
#267 = CIRCLE('',#268,50.);
#268 = AXIS2_PLACEMENT_3D('',#269,#270,#271);
#269 = CARTESIAN_POINT('',(0.,0.,-695.));
#270 = DIRECTION('',(0.,0.,1.));
#271 = DIRECTION('',(1.,0.,0.));
#272 = CYLINDRICAL_SURFACE('',#273,50.);
#273 = AXIS2_PLACEMENT_3D('',#274,#275,#276);
#274 = CARTESIAN_POINT('',(0.,0.,-700.));
#275 = DIRECTION('',(0.,0.,1.));
#276 = DIRECTION('',(1.,0.,0.));
#277 = ADVANCED_FACE('',(#278,#312,#323,#334,#340,#351),#362,.T.);
#278 = FACE_BOUND('',#279,.T.);
#279 = EDGE_LOOP('',(#280,#290,#298,#306));
#280 = ORIENTED_EDGE('',*,*,#281,.F.);
#281 = EDGE_CURVE('',#282,#284,#286,.T.);
#282 = VERTEX_POINT('',#283);
#283 = CARTESIAN_POINT('',(65.,-220.,255.));
#284 = VERTEX_POINT('',#285);
#285 = CARTESIAN_POINT('',(175.,-220.,255.));
#286 = LINE('',#287,#288);
#287 = CARTESIAN_POINT('',(65.,-220.,255.));
#288 = VECTOR('',#289,1.);
#289 = DIRECTION('',(1.,0.,0.));
#290 = ORIENTED_EDGE('',*,*,#291,.T.);
#291 = EDGE_CURVE('',#282,#292,#294,.T.);
#292 = VERTEX_POINT('',#293);
#293 = CARTESIAN_POINT('',(65.,-220.,455.));
#294 = LINE('',#295,#296);
#295 = CARTESIAN_POINT('',(65.,-220.,255.));
#296 = VECTOR('',#297,1.);
#297 = DIRECTION('',(0.,0.,1.));
#298 = ORIENTED_EDGE('',*,*,#299,.T.);
#299 = EDGE_CURVE('',#292,#300,#302,.T.);
#300 = VERTEX_POINT('',#301);
#301 = CARTESIAN_POINT('',(175.,-220.,455.));
#302 = LINE('',#303,#304);
#303 = CARTESIAN_POINT('',(65.,-220.,455.));
#304 = VECTOR('',#305,1.);
#305 = DIRECTION('',(1.,0.,0.));
#306 = ORIENTED_EDGE('',*,*,#307,.F.);
#307 = EDGE_CURVE('',#284,#300,#308,.T.);
#308 = LINE('',#309,#310);
#309 = CARTESIAN_POINT('',(175.,-220.,255.));
#310 = VECTOR('',#311,1.);
#311 = DIRECTION('',(0.,0.,1.));
#312 = FACE_BOUND('',#313,.T.);
#313 = EDGE_LOOP('',(#314));
#314 = ORIENTED_EDGE('',*,*,#315,.F.);
#315 = EDGE_CURVE('',#316,#316,#318,.T.);
#316 = VERTEX_POINT('',#317);
#317 = CARTESIAN_POINT('',(77.5,-220.,273.5));
#318 = CIRCLE('',#319,6.);
#319 = AXIS2_PLACEMENT_3D('',#320,#321,#322);
#320 = CARTESIAN_POINT('',(77.5,-220.,267.5));
#321 = DIRECTION('',(0.,1.,0.));
#322 = DIRECTION('',(0.,0.,1.));
#323 = FACE_BOUND('',#324,.T.);
#324 = EDGE_LOOP('',(#325));
#325 = ORIENTED_EDGE('',*,*,#326,.F.);
#326 = EDGE_CURVE('',#327,#327,#329,.T.);
#327 = VERTEX_POINT('',#328);
#328 = CARTESIAN_POINT('',(77.5,-220.,448.5));
#329 = CIRCLE('',#330,6.);
#330 = AXIS2_PLACEMENT_3D('',#331,#332,#333);
#331 = CARTESIAN_POINT('',(77.5,-220.,442.5));
#332 = DIRECTION('',(0.,1.,0.));
#333 = DIRECTION('',(0.,0.,1.));
#334 = FACE_BOUND('',#335,.T.);
#335 = EDGE_LOOP('',(#336,#337,#338,#339));
#336 = ORIENTED_EDGE('',*,*,#198,.F.);
#337 = ORIENTED_EDGE('',*,*,#215,.T.);
#338 = ORIENTED_EDGE('',*,*,#239,.T.);
#339 = ORIENTED_EDGE('',*,*,#139,.F.);
#340 = FACE_BOUND('',#341,.T.);
#341 = EDGE_LOOP('',(#342));
#342 = ORIENTED_EDGE('',*,*,#343,.F.);
#343 = EDGE_CURVE('',#344,#344,#346,.T.);
#344 = VERTEX_POINT('',#345);
#345 = CARTESIAN_POINT('',(162.5,-220.,273.5));
#346 = CIRCLE('',#347,6.);
#347 = AXIS2_PLACEMENT_3D('',#348,#349,#350);
#348 = CARTESIAN_POINT('',(162.5,-220.,267.5));
#349 = DIRECTION('',(0.,1.,0.));
#350 = DIRECTION('',(0.,0.,1.));
#351 = FACE_BOUND('',#352,.T.);
#352 = EDGE_LOOP('',(#353));
#353 = ORIENTED_EDGE('',*,*,#354,.F.);
#354 = EDGE_CURVE('',#355,#355,#357,.T.);
#355 = VERTEX_POINT('',#356);
#356 = CARTESIAN_POINT('',(162.5,-220.,448.5));
#357 = CIRCLE('',#358,6.);
#358 = AXIS2_PLACEMENT_3D('',#359,#360,#361);
#359 = CARTESIAN_POINT('',(162.5,-220.,442.5));
#360 = DIRECTION('',(0.,1.,0.));
#361 = DIRECTION('',(0.,0.,1.));
#362 = PLANE('',#363);
#363 = AXIS2_PLACEMENT_3D('',#364,#365,#366);
#364 = CARTESIAN_POINT('',(65.,-220.,255.));
#365 = DIRECTION('',(0.,1.,0.));
#366 = DIRECTION('',(0.,0.,1.));
#367 = ADVANCED_FACE('',(#368),#387,.T.);
#368 = FACE_BOUND('',#369,.T.);
#369 = EDGE_LOOP('',(#370,#371,#379,#386));
#370 = ORIENTED_EDGE('',*,*,#173,.T.);
#371 = ORIENTED_EDGE('',*,*,#372,.T.);
#372 = EDGE_CURVE('',#174,#373,#375,.T.);
#373 = VERTEX_POINT('',#374);
#374 = CARTESIAN_POINT('',(75.,-1.836970198721E-14,495.));
#375 = LINE('',#376,#377);
#376 = CARTESIAN_POINT('',(75.,-1.836970198721E-14,270.));
#377 = VECTOR('',#378,1.);
#378 = DIRECTION('',(0.,0.,1.));
#379 = ORIENTED_EDGE('',*,*,#380,.F.);
#380 = EDGE_CURVE('',#373,#373,#381,.T.);
#381 = CIRCLE('',#382,75.);
#382 = AXIS2_PLACEMENT_3D('',#383,#384,#385);
#383 = CARTESIAN_POINT('',(0.,0.,495.));
#384 = DIRECTION('',(0.,0.,1.));
#385 = DIRECTION('',(1.,0.,0.));
#386 = ORIENTED_EDGE('',*,*,#372,.F.);
#387 = CYLINDRICAL_SURFACE('',#388,75.);
#388 = AXIS2_PLACEMENT_3D('',#389,#390,#391);
#389 = CARTESIAN_POINT('',(0.,0.,270.));
#390 = DIRECTION('',(0.,0.,1.));
#391 = DIRECTION('',(1.,0.,0.));
#392 = ADVANCED_FACE('',(#393,#404,#415,#426,#429,#440),#451,.T.);
#393 = FACE_BOUND('',#394,.T.);
#394 = EDGE_LOOP('',(#395));
#395 = ORIENTED_EDGE('',*,*,#396,.T.);
#396 = EDGE_CURVE('',#397,#397,#399,.T.);
#397 = VERTEX_POINT('',#398);
#398 = CARTESIAN_POINT('',(75.,-1.836970198721E-14,-695.));
#399 = CIRCLE('',#400,75.);
#400 = AXIS2_PLACEMENT_3D('',#401,#402,#403);
#401 = CARTESIAN_POINT('',(0.,0.,-695.));
#402 = DIRECTION('',(0.,0.,1.));
#403 = DIRECTION('',(1.,0.,0.));
#404 = FACE_BOUND('',#405,.T.);
#405 = EDGE_LOOP('',(#406));
#406 = ORIENTED_EDGE('',*,*,#407,.F.);
#407 = EDGE_CURVE('',#408,#408,#410,.T.);
#408 = VERTEX_POINT('',#409);
#409 = CARTESIAN_POINT('',(6.,-62.5,-695.));
#410 = CIRCLE('',#411,6.);
#411 = AXIS2_PLACEMENT_3D('',#412,#413,#414);
#412 = CARTESIAN_POINT('',(-1.148106374201E-14,-62.5,-695.));
#413 = DIRECTION('',(0.,0.,1.));
#414 = DIRECTION('',(1.,0.,0.));
#415 = FACE_BOUND('',#416,.T.);
#416 = EDGE_LOOP('',(#417));
#417 = ORIENTED_EDGE('',*,*,#418,.F.);
#418 = EDGE_CURVE('',#419,#419,#421,.T.);
#419 = VERTEX_POINT('',#420);
#420 = CARTESIAN_POINT('',(-56.5,6.184466335694E-15,-695.));
#421 = CIRCLE('',#422,6.);
#422 = AXIS2_PLACEMENT_3D('',#423,#424,#425);
#423 = CARTESIAN_POINT('',(-62.5,7.654042494671E-15,-695.));
#424 = DIRECTION('',(0.,0.,1.));
#425 = DIRECTION('',(1.,0.,0.));
#426 = FACE_BOUND('',#427,.T.);
#427 = EDGE_LOOP('',(#428));
#428 = ORIENTED_EDGE('',*,*,#266,.F.);
#429 = FACE_BOUND('',#430,.T.);
#430 = EDGE_LOOP('',(#431));
#431 = ORIENTED_EDGE('',*,*,#432,.F.);
#432 = EDGE_CURVE('',#433,#433,#435,.T.);
#433 = VERTEX_POINT('',#434);
#434 = CARTESIAN_POINT('',(68.5,-1.469576158977E-15,-695.));
#435 = CIRCLE('',#436,6.);
#436 = AXIS2_PLACEMENT_3D('',#437,#438,#439);
#437 = CARTESIAN_POINT('',(62.5,0.,-695.));
#438 = DIRECTION('',(0.,0.,1.));
#439 = DIRECTION('',(1.,0.,0.));
#440 = FACE_BOUND('',#441,.T.);
#441 = EDGE_LOOP('',(#442));
#442 = ORIENTED_EDGE('',*,*,#443,.F.);
#443 = EDGE_CURVE('',#444,#444,#446,.T.);
#444 = VERTEX_POINT('',#445);
#445 = CARTESIAN_POINT('',(6.,62.5,-695.));
#446 = CIRCLE('',#447,6.);
#447 = AXIS2_PLACEMENT_3D('',#448,#449,#450);
#448 = CARTESIAN_POINT('',(3.827021247335E-15,62.5,-695.));
#449 = DIRECTION('',(0.,0.,1.));
#450 = DIRECTION('',(1.,0.,0.));
#451 = PLANE('',#452);
#452 = AXIS2_PLACEMENT_3D('',#453,#454,#455);
#453 = CARTESIAN_POINT('',(0.,0.,-695.));
#454 = DIRECTION('',(0.,0.,1.));
#455 = DIRECTION('',(1.,0.,0.));
#456 = ADVANCED_FACE('',(#457),#482,.F.);
#457 = FACE_BOUND('',#458,.F.);
#458 = EDGE_LOOP('',(#459,#467,#475,#481));
#459 = ORIENTED_EDGE('',*,*,#460,.F.);
#460 = EDGE_CURVE('',#461,#282,#463,.T.);
#461 = VERTEX_POINT('',#462);
#462 = CARTESIAN_POINT('',(65.,-235.,255.));
#463 = LINE('',#464,#465);
#464 = CARTESIAN_POINT('',(65.,-235.,255.));
#465 = VECTOR('',#466,1.);
#466 = DIRECTION('',(0.,1.,0.));
#467 = ORIENTED_EDGE('',*,*,#468,.T.);
#468 = EDGE_CURVE('',#461,#469,#471,.T.);
#469 = VERTEX_POINT('',#470);
#470 = CARTESIAN_POINT('',(175.,-235.,255.));
#471 = LINE('',#472,#473);
#472 = CARTESIAN_POINT('',(65.,-235.,255.));
#473 = VECTOR('',#474,1.);
#474 = DIRECTION('',(1.,0.,0.));
#475 = ORIENTED_EDGE('',*,*,#476,.T.);
#476 = EDGE_CURVE('',#469,#284,#477,.T.);
#477 = LINE('',#478,#479);
#478 = CARTESIAN_POINT('',(175.,-235.,255.));
#479 = VECTOR('',#480,1.);
#480 = DIRECTION('',(0.,1.,0.));
#481 = ORIENTED_EDGE('',*,*,#281,.F.);
#482 = PLANE('',#483);
#483 = AXIS2_PLACEMENT_3D('',#484,#485,#486);
#484 = CARTESIAN_POINT('',(65.,-235.,255.));
#485 = DIRECTION('',(0.,0.,1.));
#486 = DIRECTION('',(1.,0.,0.));
#487 = ADVANCED_FACE('',(#488),#506,.T.);
#488 = FACE_BOUND('',#489,.T.);
#489 = EDGE_LOOP('',(#490,#498,#499,#500));
#490 = ORIENTED_EDGE('',*,*,#491,.F.);
#491 = EDGE_CURVE('',#469,#492,#494,.T.);
#492 = VERTEX_POINT('',#493);
#493 = CARTESIAN_POINT('',(175.,-235.,455.));
#494 = LINE('',#495,#496);
#495 = CARTESIAN_POINT('',(175.,-235.,255.));
#496 = VECTOR('',#497,1.);
#497 = DIRECTION('',(0.,0.,1.));
#498 = ORIENTED_EDGE('',*,*,#476,.T.);
#499 = ORIENTED_EDGE('',*,*,#307,.T.);
#500 = ORIENTED_EDGE('',*,*,#501,.F.);
#501 = EDGE_CURVE('',#492,#300,#502,.T.);
#502 = LINE('',#503,#504);
#503 = CARTESIAN_POINT('',(175.,-235.,455.));
#504 = VECTOR('',#505,1.);
#505 = DIRECTION('',(0.,1.,0.));
#506 = PLANE('',#507);
#507 = AXIS2_PLACEMENT_3D('',#508,#509,#510);
#508 = CARTESIAN_POINT('',(175.,-235.,255.));
#509 = DIRECTION('',(1.,0.,0.));
#510 = DIRECTION('',(0.,0.,1.));
#511 = ADVANCED_FACE('',(#512),#530,.F.);
#512 = FACE_BOUND('',#513,.F.);
#513 = EDGE_LOOP('',(#514,#522,#523,#524));
#514 = ORIENTED_EDGE('',*,*,#515,.F.);
#515 = EDGE_CURVE('',#461,#516,#518,.T.);
#516 = VERTEX_POINT('',#517);
#517 = CARTESIAN_POINT('',(65.,-235.,455.));
#518 = LINE('',#519,#520);
#519 = CARTESIAN_POINT('',(65.,-235.,255.));
#520 = VECTOR('',#521,1.);
#521 = DIRECTION('',(0.,0.,1.));
#522 = ORIENTED_EDGE('',*,*,#460,.T.);
#523 = ORIENTED_EDGE('',*,*,#291,.T.);
#524 = ORIENTED_EDGE('',*,*,#525,.F.);
#525 = EDGE_CURVE('',#516,#292,#526,.T.);
#526 = LINE('',#527,#528);
#527 = CARTESIAN_POINT('',(65.,-235.,455.));
#528 = VECTOR('',#529,1.);
#529 = DIRECTION('',(0.,1.,0.));
#530 = PLANE('',#531);
#531 = AXIS2_PLACEMENT_3D('',#532,#533,#534);
#532 = CARTESIAN_POINT('',(65.,-235.,255.));
#533 = DIRECTION('',(1.,0.,0.));
#534 = DIRECTION('',(0.,0.,1.));
#535 = ADVANCED_FACE('',(#536),#547,.T.);
#536 = FACE_BOUND('',#537,.T.);
#537 = EDGE_LOOP('',(#538,#539,#545,#546));
#538 = ORIENTED_EDGE('',*,*,#525,.F.);
#539 = ORIENTED_EDGE('',*,*,#540,.T.);
#540 = EDGE_CURVE('',#516,#492,#541,.T.);
#541 = LINE('',#542,#543);
#542 = CARTESIAN_POINT('',(65.,-235.,455.));
#543 = VECTOR('',#544,1.);
#544 = DIRECTION('',(1.,0.,0.));
#545 = ORIENTED_EDGE('',*,*,#501,.T.);
#546 = ORIENTED_EDGE('',*,*,#299,.F.);
#547 = PLANE('',#548);
#548 = AXIS2_PLACEMENT_3D('',#549,#550,#551);
#549 = CARTESIAN_POINT('',(65.,-235.,455.));
#550 = DIRECTION('',(0.,0.,1.));
#551 = DIRECTION('',(1.,0.,0.));
#552 = ADVANCED_FACE('',(#553),#572,.F.);
#553 = FACE_BOUND('',#554,.F.);
#554 = EDGE_LOOP('',(#555,#556,#564,#571));
#555 = ORIENTED_EDGE('',*,*,#315,.F.);
#556 = ORIENTED_EDGE('',*,*,#557,.F.);
#557 = EDGE_CURVE('',#558,#316,#560,.T.);
#558 = VERTEX_POINT('',#559);
#559 = CARTESIAN_POINT('',(77.5,-235.,273.5));
#560 = LINE('',#561,#562);
#561 = CARTESIAN_POINT('',(77.5,-236.,273.5));
#562 = VECTOR('',#563,1.);
#563 = DIRECTION('',(0.,1.,0.));
#564 = ORIENTED_EDGE('',*,*,#565,.T.);
#565 = EDGE_CURVE('',#558,#558,#566,.T.);
#566 = CIRCLE('',#567,6.);
#567 = AXIS2_PLACEMENT_3D('',#568,#569,#570);
#568 = CARTESIAN_POINT('',(77.5,-235.,267.5));
#569 = DIRECTION('',(0.,1.,0.));
#570 = DIRECTION('',(0.,0.,1.));
#571 = ORIENTED_EDGE('',*,*,#557,.T.);
#572 = CYLINDRICAL_SURFACE('',#573,6.);
#573 = AXIS2_PLACEMENT_3D('',#574,#575,#576);
#574 = CARTESIAN_POINT('',(77.5,-236.,267.5));
#575 = DIRECTION('',(0.,1.,0.));
#576 = DIRECTION('',(0.,0.,1.));
#577 = ADVANCED_FACE('',(#578),#597,.F.);
#578 = FACE_BOUND('',#579,.F.);
#579 = EDGE_LOOP('',(#580,#581,#589,#596));
#580 = ORIENTED_EDGE('',*,*,#326,.F.);
#581 = ORIENTED_EDGE('',*,*,#582,.F.);
#582 = EDGE_CURVE('',#583,#327,#585,.T.);
#583 = VERTEX_POINT('',#584);
#584 = CARTESIAN_POINT('',(77.5,-235.,448.5));
#585 = LINE('',#586,#587);
#586 = CARTESIAN_POINT('',(77.5,-236.,448.5));
#587 = VECTOR('',#588,1.);
#588 = DIRECTION('',(0.,1.,0.));
#589 = ORIENTED_EDGE('',*,*,#590,.T.);
#590 = EDGE_CURVE('',#583,#583,#591,.T.);
#591 = CIRCLE('',#592,6.);
#592 = AXIS2_PLACEMENT_3D('',#593,#594,#595);
#593 = CARTESIAN_POINT('',(77.5,-235.,442.5));
#594 = DIRECTION('',(0.,1.,0.));
#595 = DIRECTION('',(0.,0.,1.));
#596 = ORIENTED_EDGE('',*,*,#582,.T.);
#597 = CYLINDRICAL_SURFACE('',#598,6.);
#598 = AXIS2_PLACEMENT_3D('',#599,#600,#601);
#599 = CARTESIAN_POINT('',(77.5,-236.,442.5));
#600 = DIRECTION('',(0.,1.,0.));
#601 = DIRECTION('',(0.,0.,1.));
#602 = ADVANCED_FACE('',(#603),#622,.F.);
#603 = FACE_BOUND('',#604,.F.);
#604 = EDGE_LOOP('',(#605,#606,#614,#621));
#605 = ORIENTED_EDGE('',*,*,#343,.F.);
#606 = ORIENTED_EDGE('',*,*,#607,.F.);
#607 = EDGE_CURVE('',#608,#344,#610,.T.);
#608 = VERTEX_POINT('',#609);
#609 = CARTESIAN_POINT('',(162.5,-235.,273.5));
#610 = LINE('',#611,#612);
#611 = CARTESIAN_POINT('',(162.5,-236.,273.5));
#612 = VECTOR('',#613,1.);
#613 = DIRECTION('',(0.,1.,0.));
#614 = ORIENTED_EDGE('',*,*,#615,.T.);
#615 = EDGE_CURVE('',#608,#608,#616,.T.);
#616 = CIRCLE('',#617,6.);
#617 = AXIS2_PLACEMENT_3D('',#618,#619,#620);
#618 = CARTESIAN_POINT('',(162.5,-235.,267.5));
#619 = DIRECTION('',(0.,1.,0.));
#620 = DIRECTION('',(0.,0.,1.));
#621 = ORIENTED_EDGE('',*,*,#607,.T.);
#622 = CYLINDRICAL_SURFACE('',#623,6.);
#623 = AXIS2_PLACEMENT_3D('',#624,#625,#626);
#624 = CARTESIAN_POINT('',(162.5,-236.,267.5));
#625 = DIRECTION('',(0.,1.,0.));
#626 = DIRECTION('',(0.,0.,1.));
#627 = ADVANCED_FACE('',(#628),#647,.F.);
#628 = FACE_BOUND('',#629,.F.);
#629 = EDGE_LOOP('',(#630,#631,#639,#646));
#630 = ORIENTED_EDGE('',*,*,#354,.F.);
#631 = ORIENTED_EDGE('',*,*,#632,.F.);
#632 = EDGE_CURVE('',#633,#355,#635,.T.);
#633 = VERTEX_POINT('',#634);
#634 = CARTESIAN_POINT('',(162.5,-235.,448.5));
#635 = LINE('',#636,#637);
#636 = CARTESIAN_POINT('',(162.5,-236.,448.5));
#637 = VECTOR('',#638,1.);
#638 = DIRECTION('',(0.,1.,0.));
#639 = ORIENTED_EDGE('',*,*,#640,.T.);
#640 = EDGE_CURVE('',#633,#633,#641,.T.);
#641 = CIRCLE('',#642,6.);
#642 = AXIS2_PLACEMENT_3D('',#643,#644,#645);
#643 = CARTESIAN_POINT('',(162.5,-235.,442.5));
#644 = DIRECTION('',(0.,1.,0.));
#645 = DIRECTION('',(0.,0.,1.));
#646 = ORIENTED_EDGE('',*,*,#632,.T.);
#647 = CYLINDRICAL_SURFACE('',#648,6.);
#648 = AXIS2_PLACEMENT_3D('',#649,#650,#651);
#649 = CARTESIAN_POINT('',(162.5,-236.,442.5));
#650 = DIRECTION('',(0.,1.,0.));
#651 = DIRECTION('',(0.,0.,1.));
#652 = ADVANCED_FACE('',(#653,#664,#675,#678,#689,#700),#711,.F.);
#653 = FACE_BOUND('',#654,.F.);
#654 = EDGE_LOOP('',(#655));
#655 = ORIENTED_EDGE('',*,*,#656,.T.);
#656 = EDGE_CURVE('',#657,#657,#659,.T.);
#657 = VERTEX_POINT('',#658);
#658 = CARTESIAN_POINT('',(100.,-2.449293598295E-14,495.));
#659 = CIRCLE('',#660,100.);
#660 = AXIS2_PLACEMENT_3D('',#661,#662,#663);
#661 = CARTESIAN_POINT('',(0.,0.,495.));
#662 = DIRECTION('',(0.,0.,1.));
#663 = DIRECTION('',(1.,0.,0.));
#664 = FACE_BOUND('',#665,.F.);
#665 = EDGE_LOOP('',(#666));
#666 = ORIENTED_EDGE('',*,*,#667,.F.);
#667 = EDGE_CURVE('',#668,#668,#670,.T.);
#668 = VERTEX_POINT('',#669);
#669 = CARTESIAN_POINT('',(6.,-87.5,495.));
#670 = CIRCLE('',#671,6.);
#671 = AXIS2_PLACEMENT_3D('',#672,#673,#674);
#672 = CARTESIAN_POINT('',(-1.607348923881E-14,-87.5,495.));
#673 = DIRECTION('',(0.,0.,1.));
#674 = DIRECTION('',(1.,0.,0.));
#675 = FACE_BOUND('',#676,.F.);
#676 = EDGE_LOOP('',(#677));
#677 = ORIENTED_EDGE('',*,*,#380,.F.);
#678 = FACE_BOUND('',#679,.F.);
#679 = EDGE_LOOP('',(#680));
#680 = ORIENTED_EDGE('',*,*,#681,.F.);
#681 = EDGE_CURVE('',#682,#682,#684,.T.);
#682 = VERTEX_POINT('',#683);
#683 = CARTESIAN_POINT('',(93.5,-1.469576158977E-15,495.));
#684 = CIRCLE('',#685,6.);
#685 = AXIS2_PLACEMENT_3D('',#686,#687,#688);
#686 = CARTESIAN_POINT('',(87.5,0.,495.));
#687 = DIRECTION('',(0.,0.,1.));
#688 = DIRECTION('',(1.,0.,0.));
#689 = FACE_BOUND('',#690,.F.);
#690 = EDGE_LOOP('',(#691));
#691 = ORIENTED_EDGE('',*,*,#692,.F.);
#692 = EDGE_CURVE('',#693,#693,#695,.T.);
#693 = VERTEX_POINT('',#694);
#694 = CARTESIAN_POINT('',(-81.5,9.246083333563E-15,495.));
#695 = CIRCLE('',#696,6.);
#696 = AXIS2_PLACEMENT_3D('',#697,#698,#699);
#697 = CARTESIAN_POINT('',(-87.5,1.071565949254E-14,495.));
#698 = DIRECTION('',(0.,0.,1.));
#699 = DIRECTION('',(1.,0.,0.));
#700 = FACE_BOUND('',#701,.F.);
#701 = EDGE_LOOP('',(#702));
#702 = ORIENTED_EDGE('',*,*,#703,.F.);
#703 = EDGE_CURVE('',#704,#704,#706,.T.);
#704 = VERTEX_POINT('',#705);
#705 = CARTESIAN_POINT('',(6.,87.5,495.));
#706 = CIRCLE('',#707,6.);
#707 = AXIS2_PLACEMENT_3D('',#708,#709,#710);
#708 = CARTESIAN_POINT('',(5.35782974627E-15,87.5,495.));
#709 = DIRECTION('',(0.,0.,1.));
#710 = DIRECTION('',(1.,0.,0.));
#711 = PLANE('',#712);
#712 = AXIS2_PLACEMENT_3D('',#713,#714,#715);
#713 = CARTESIAN_POINT('',(0.,0.,495.));
#714 = DIRECTION('',(0.,0.,1.));
#715 = DIRECTION('',(1.,0.,0.));
#716 = ADVANCED_FACE('',(#717),#736,.T.);
#717 = FACE_BOUND('',#718,.T.);
#718 = EDGE_LOOP('',(#719,#720,#728,#735));
#719 = ORIENTED_EDGE('',*,*,#396,.F.);
#720 = ORIENTED_EDGE('',*,*,#721,.F.);
#721 = EDGE_CURVE('',#722,#397,#724,.T.);
#722 = VERTEX_POINT('',#723);
#723 = CARTESIAN_POINT('',(75.,-1.836970198721E-14,-710.));
#724 = LINE('',#725,#726);
#725 = CARTESIAN_POINT('',(75.,-1.836970198721E-14,-710.));
#726 = VECTOR('',#727,1.);
#727 = DIRECTION('',(0.,0.,1.));
#728 = ORIENTED_EDGE('',*,*,#729,.T.);
#729 = EDGE_CURVE('',#722,#722,#730,.T.);
#730 = CIRCLE('',#731,75.);
#731 = AXIS2_PLACEMENT_3D('',#732,#733,#734);
#732 = CARTESIAN_POINT('',(0.,0.,-710.));
#733 = DIRECTION('',(0.,0.,1.));
#734 = DIRECTION('',(1.,0.,0.));
#735 = ORIENTED_EDGE('',*,*,#721,.T.);
#736 = CYLINDRICAL_SURFACE('',#737,75.);
#737 = AXIS2_PLACEMENT_3D('',#738,#739,#740);
#738 = CARTESIAN_POINT('',(0.,0.,-710.));
#739 = DIRECTION('',(0.,0.,1.));
#740 = DIRECTION('',(1.,0.,0.));
#741 = ADVANCED_FACE('',(#742),#761,.F.);
#742 = FACE_BOUND('',#743,.F.);
#743 = EDGE_LOOP('',(#744,#745,#753,#760));
#744 = ORIENTED_EDGE('',*,*,#407,.F.);
#745 = ORIENTED_EDGE('',*,*,#746,.F.);
#746 = EDGE_CURVE('',#747,#408,#749,.T.);
#747 = VERTEX_POINT('',#748);
#748 = CARTESIAN_POINT('',(6.,-62.5,-710.));
#749 = LINE('',#750,#751);
#750 = CARTESIAN_POINT('',(6.,-62.5,-711.));
#751 = VECTOR('',#752,1.);
#752 = DIRECTION('',(0.,0.,1.));
#753 = ORIENTED_EDGE('',*,*,#754,.T.);
#754 = EDGE_CURVE('',#747,#747,#755,.T.);
#755 = CIRCLE('',#756,6.);
#756 = AXIS2_PLACEMENT_3D('',#757,#758,#759);
#757 = CARTESIAN_POINT('',(-1.148106374201E-14,-62.5,-710.));
#758 = DIRECTION('',(0.,0.,1.));
#759 = DIRECTION('',(1.,0.,0.));
#760 = ORIENTED_EDGE('',*,*,#746,.T.);
#761 = CYLINDRICAL_SURFACE('',#762,6.);
#762 = AXIS2_PLACEMENT_3D('',#763,#764,#765);
#763 = CARTESIAN_POINT('',(-1.148106374201E-14,-62.5,-711.));
#764 = DIRECTION('',(0.,0.,1.));
#765 = DIRECTION('',(1.,0.,0.));
#766 = ADVANCED_FACE('',(#767),#786,.F.);
#767 = FACE_BOUND('',#768,.F.);
#768 = EDGE_LOOP('',(#769,#770,#778,#785));
#769 = ORIENTED_EDGE('',*,*,#418,.F.);
#770 = ORIENTED_EDGE('',*,*,#771,.F.);
#771 = EDGE_CURVE('',#772,#419,#774,.T.);
#772 = VERTEX_POINT('',#773);
#773 = CARTESIAN_POINT('',(-56.5,6.184466335694E-15,-710.));
#774 = LINE('',#775,#776);
#775 = CARTESIAN_POINT('',(-56.5,6.184466335694E-15,-711.));
#776 = VECTOR('',#777,1.);
#777 = DIRECTION('',(0.,0.,1.));
#778 = ORIENTED_EDGE('',*,*,#779,.T.);
#779 = EDGE_CURVE('',#772,#772,#780,.T.);
#780 = CIRCLE('',#781,6.);
#781 = AXIS2_PLACEMENT_3D('',#782,#783,#784);
#782 = CARTESIAN_POINT('',(-62.5,7.654042494671E-15,-710.));
#783 = DIRECTION('',(0.,0.,1.));
#784 = DIRECTION('',(1.,0.,0.));
#785 = ORIENTED_EDGE('',*,*,#771,.T.);
#786 = CYLINDRICAL_SURFACE('',#787,6.);
#787 = AXIS2_PLACEMENT_3D('',#788,#789,#790);
#788 = CARTESIAN_POINT('',(-62.5,7.654042494671E-15,-711.));
#789 = DIRECTION('',(0.,0.,1.));
#790 = DIRECTION('',(1.,0.,0.));
#791 = ADVANCED_FACE('',(#792),#811,.F.);
#792 = FACE_BOUND('',#793,.F.);
#793 = EDGE_LOOP('',(#794,#795,#803,#810));
#794 = ORIENTED_EDGE('',*,*,#432,.F.);
#795 = ORIENTED_EDGE('',*,*,#796,.F.);
#796 = EDGE_CURVE('',#797,#433,#799,.T.);
#797 = VERTEX_POINT('',#798);
#798 = CARTESIAN_POINT('',(68.5,-1.469576158977E-15,-710.));
#799 = LINE('',#800,#801);
#800 = CARTESIAN_POINT('',(68.5,-1.469576158977E-15,-711.));
#801 = VECTOR('',#802,1.);
#802 = DIRECTION('',(0.,0.,1.));
#803 = ORIENTED_EDGE('',*,*,#804,.T.);
#804 = EDGE_CURVE('',#797,#797,#805,.T.);
#805 = CIRCLE('',#806,6.);
#806 = AXIS2_PLACEMENT_3D('',#807,#808,#809);
#807 = CARTESIAN_POINT('',(62.5,0.,-710.));
#808 = DIRECTION('',(0.,0.,1.));
#809 = DIRECTION('',(1.,0.,0.));
#810 = ORIENTED_EDGE('',*,*,#796,.T.);
#811 = CYLINDRICAL_SURFACE('',#812,6.);
#812 = AXIS2_PLACEMENT_3D('',#813,#814,#815);
#813 = CARTESIAN_POINT('',(62.5,0.,-711.));
#814 = DIRECTION('',(0.,0.,1.));
#815 = DIRECTION('',(1.,0.,0.));
#816 = ADVANCED_FACE('',(#817),#836,.F.);
#817 = FACE_BOUND('',#818,.F.);
#818 = EDGE_LOOP('',(#819,#820,#828,#835));
#819 = ORIENTED_EDGE('',*,*,#443,.F.);
#820 = ORIENTED_EDGE('',*,*,#821,.F.);
#821 = EDGE_CURVE('',#822,#444,#824,.T.);
#822 = VERTEX_POINT('',#823);
#823 = CARTESIAN_POINT('',(6.,62.5,-710.));
#824 = LINE('',#825,#826);
#825 = CARTESIAN_POINT('',(6.,62.5,-711.));
#826 = VECTOR('',#827,1.);
#827 = DIRECTION('',(0.,0.,1.));
#828 = ORIENTED_EDGE('',*,*,#829,.T.);
#829 = EDGE_CURVE('',#822,#822,#830,.T.);
#830 = CIRCLE('',#831,6.);
#831 = AXIS2_PLACEMENT_3D('',#832,#833,#834);
#832 = CARTESIAN_POINT('',(3.827021247335E-15,62.5,-710.));
#833 = DIRECTION('',(0.,0.,1.));
#834 = DIRECTION('',(1.,0.,0.));
#835 = ORIENTED_EDGE('',*,*,#821,.T.);
#836 = CYLINDRICAL_SURFACE('',#837,6.);
#837 = AXIS2_PLACEMENT_3D('',#838,#839,#840);
#838 = CARTESIAN_POINT('',(3.827021247335E-15,62.5,-711.));
#839 = DIRECTION('',(0.,0.,1.));
#840 = DIRECTION('',(1.,0.,0.));
#841 = ADVANCED_FACE('',(#842,#848,#851,#854,#888,#891),#894,.F.);
#842 = FACE_BOUND('',#843,.F.);
#843 = EDGE_LOOP('',(#844,#845,#846,#847));
#844 = ORIENTED_EDGE('',*,*,#468,.F.);
#845 = ORIENTED_EDGE('',*,*,#515,.T.);
#846 = ORIENTED_EDGE('',*,*,#540,.T.);
#847 = ORIENTED_EDGE('',*,*,#491,.F.);
#848 = FACE_BOUND('',#849,.F.);
#849 = EDGE_LOOP('',(#850));
#850 = ORIENTED_EDGE('',*,*,#565,.F.);
#851 = FACE_BOUND('',#852,.F.);
#852 = EDGE_LOOP('',(#853));
#853 = ORIENTED_EDGE('',*,*,#590,.F.);
#854 = FACE_BOUND('',#855,.F.);
#855 = EDGE_LOOP('',(#856,#866,#874,#882));
#856 = ORIENTED_EDGE('',*,*,#857,.F.);
#857 = EDGE_CURVE('',#858,#860,#862,.T.);
#858 = VERTEX_POINT('',#859);
#859 = CARTESIAN_POINT('',(90.,-235.,430.));
#860 = VERTEX_POINT('',#861);
#861 = CARTESIAN_POINT('',(150.,-235.,430.));
#862 = LINE('',#863,#864);
#863 = CARTESIAN_POINT('',(77.5,-235.,430.));
#864 = VECTOR('',#865,1.);
#865 = DIRECTION('',(1.,0.,0.));
#866 = ORIENTED_EDGE('',*,*,#867,.T.);
#867 = EDGE_CURVE('',#858,#868,#870,.T.);
#868 = VERTEX_POINT('',#869);
#869 = CARTESIAN_POINT('',(90.,-235.,280.));
#870 = LINE('',#871,#872);
#871 = CARTESIAN_POINT('',(90.,-235.,267.5));
#872 = VECTOR('',#873,1.);
#873 = DIRECTION('',(0.,0.,-1.));
#874 = ORIENTED_EDGE('',*,*,#875,.T.);
#875 = EDGE_CURVE('',#868,#876,#878,.T.);
#876 = VERTEX_POINT('',#877);
#877 = CARTESIAN_POINT('',(150.,-235.,280.));
#878 = LINE('',#879,#880);
#879 = CARTESIAN_POINT('',(77.5,-235.,280.));
#880 = VECTOR('',#881,1.);
#881 = DIRECTION('',(1.,0.,0.));
#882 = ORIENTED_EDGE('',*,*,#883,.F.);
#883 = EDGE_CURVE('',#860,#876,#884,.T.);
#884 = LINE('',#885,#886);
#885 = CARTESIAN_POINT('',(150.,-235.,267.5));
#886 = VECTOR('',#887,1.);
#887 = DIRECTION('',(0.,0.,-1.));
#888 = FACE_BOUND('',#889,.F.);
#889 = EDGE_LOOP('',(#890));
#890 = ORIENTED_EDGE('',*,*,#615,.F.);
#891 = FACE_BOUND('',#892,.F.);
#892 = EDGE_LOOP('',(#893));
#893 = ORIENTED_EDGE('',*,*,#640,.F.);
#894 = PLANE('',#895);
#895 = AXIS2_PLACEMENT_3D('',#896,#897,#898);
#896 = CARTESIAN_POINT('',(65.,-235.,255.));
#897 = DIRECTION('',(0.,1.,0.));
#898 = DIRECTION('',(0.,0.,1.));
#899 = ADVANCED_FACE('',(#900),#919,.T.);
#900 = FACE_BOUND('',#901,.T.);
#901 = EDGE_LOOP('',(#902,#911,#917,#918));
#902 = ORIENTED_EDGE('',*,*,#903,.F.);
#903 = EDGE_CURVE('',#904,#904,#906,.T.);
#904 = VERTEX_POINT('',#905);
#905 = CARTESIAN_POINT('',(100.,-2.449293598295E-14,510.));
#906 = CIRCLE('',#907,100.);
#907 = AXIS2_PLACEMENT_3D('',#908,#909,#910);
#908 = CARTESIAN_POINT('',(0.,0.,510.));
#909 = DIRECTION('',(0.,0.,1.));
#910 = DIRECTION('',(1.,0.,0.));
#911 = ORIENTED_EDGE('',*,*,#912,.F.);
#912 = EDGE_CURVE('',#657,#904,#913,.T.);
#913 = LINE('',#914,#915);
#914 = CARTESIAN_POINT('',(100.,-2.449293598295E-14,495.));
#915 = VECTOR('',#916,1.);
#916 = DIRECTION('',(0.,0.,1.));
#917 = ORIENTED_EDGE('',*,*,#656,.T.);
#918 = ORIENTED_EDGE('',*,*,#912,.T.);
#919 = CYLINDRICAL_SURFACE('',#920,100.);
#920 = AXIS2_PLACEMENT_3D('',#921,#922,#923);
#921 = CARTESIAN_POINT('',(0.,0.,495.));
#922 = DIRECTION('',(0.,0.,1.));
#923 = DIRECTION('',(1.,0.,0.));
#924 = ADVANCED_FACE('',(#925),#944,.F.);
#925 = FACE_BOUND('',#926,.F.);
#926 = EDGE_LOOP('',(#927,#936,#942,#943));
#927 = ORIENTED_EDGE('',*,*,#928,.F.);
#928 = EDGE_CURVE('',#929,#929,#931,.T.);
#929 = VERTEX_POINT('',#930);
#930 = CARTESIAN_POINT('',(6.,-87.5,510.));
#931 = CIRCLE('',#932,6.);
#932 = AXIS2_PLACEMENT_3D('',#933,#934,#935);
#933 = CARTESIAN_POINT('',(-1.607348923881E-14,-87.5,510.));
#934 = DIRECTION('',(0.,0.,1.));
#935 = DIRECTION('',(1.,0.,0.));
#936 = ORIENTED_EDGE('',*,*,#937,.F.);
#937 = EDGE_CURVE('',#668,#929,#938,.T.);
#938 = LINE('',#939,#940);
#939 = CARTESIAN_POINT('',(6.,-87.5,494.));
#940 = VECTOR('',#941,1.);
#941 = DIRECTION('',(0.,0.,1.));
#942 = ORIENTED_EDGE('',*,*,#667,.T.);
#943 = ORIENTED_EDGE('',*,*,#937,.T.);
#944 = CYLINDRICAL_SURFACE('',#945,6.);
#945 = AXIS2_PLACEMENT_3D('',#946,#947,#948);
#946 = CARTESIAN_POINT('',(-1.607348923881E-14,-87.5,494.));
#947 = DIRECTION('',(0.,0.,1.));
#948 = DIRECTION('',(1.,0.,0.));
#949 = ADVANCED_FACE('',(#950),#969,.F.);
#950 = FACE_BOUND('',#951,.F.);
#951 = EDGE_LOOP('',(#952,#961,#967,#968));
#952 = ORIENTED_EDGE('',*,*,#953,.F.);
#953 = EDGE_CURVE('',#954,#954,#956,.T.);
#954 = VERTEX_POINT('',#955);
#955 = CARTESIAN_POINT('',(93.5,-1.469576158977E-15,510.));
#956 = CIRCLE('',#957,6.);
#957 = AXIS2_PLACEMENT_3D('',#958,#959,#960);
#958 = CARTESIAN_POINT('',(87.5,0.,510.));
#959 = DIRECTION('',(0.,0.,1.));
#960 = DIRECTION('',(1.,0.,0.));
#961 = ORIENTED_EDGE('',*,*,#962,.F.);
#962 = EDGE_CURVE('',#682,#954,#963,.T.);
#963 = LINE('',#964,#965);
#964 = CARTESIAN_POINT('',(93.5,-1.469576158977E-15,494.));
#965 = VECTOR('',#966,1.);
#966 = DIRECTION('',(0.,0.,1.));
#967 = ORIENTED_EDGE('',*,*,#681,.T.);
#968 = ORIENTED_EDGE('',*,*,#962,.T.);
#969 = CYLINDRICAL_SURFACE('',#970,6.);
#970 = AXIS2_PLACEMENT_3D('',#971,#972,#973);
#971 = CARTESIAN_POINT('',(87.5,0.,494.));
#972 = DIRECTION('',(0.,0.,1.));
#973 = DIRECTION('',(1.,0.,0.));
#974 = ADVANCED_FACE('',(#975),#994,.F.);
#975 = FACE_BOUND('',#976,.F.);
#976 = EDGE_LOOP('',(#977,#986,#992,#993));
#977 = ORIENTED_EDGE('',*,*,#978,.F.);
#978 = EDGE_CURVE('',#979,#979,#981,.T.);
#979 = VERTEX_POINT('',#980);
#980 = CARTESIAN_POINT('',(-81.5,9.246083333563E-15,510.));
#981 = CIRCLE('',#982,6.);
#982 = AXIS2_PLACEMENT_3D('',#983,#984,#985);
#983 = CARTESIAN_POINT('',(-87.5,1.071565949254E-14,510.));
#984 = DIRECTION('',(0.,0.,1.));
#985 = DIRECTION('',(1.,0.,0.));
#986 = ORIENTED_EDGE('',*,*,#987,.F.);
#987 = EDGE_CURVE('',#693,#979,#988,.T.);
#988 = LINE('',#989,#990);
#989 = CARTESIAN_POINT('',(-81.5,9.246083333563E-15,494.));
#990 = VECTOR('',#991,1.);
#991 = DIRECTION('',(0.,0.,1.));
#992 = ORIENTED_EDGE('',*,*,#692,.T.);
#993 = ORIENTED_EDGE('',*,*,#987,.T.);
#994 = CYLINDRICAL_SURFACE('',#995,6.);
#995 = AXIS2_PLACEMENT_3D('',#996,#997,#998);
#996 = CARTESIAN_POINT('',(-87.5,1.071565949254E-14,494.));
#997 = DIRECTION('',(0.,0.,1.));
#998 = DIRECTION('',(1.,0.,0.));
#999 = ADVANCED_FACE('',(#1000),#1019,.F.);
#1000 = FACE_BOUND('',#1001,.F.);
#1001 = EDGE_LOOP('',(#1002,#1011,#1017,#1018));
#1002 = ORIENTED_EDGE('',*,*,#1003,.F.);
#1003 = EDGE_CURVE('',#1004,#1004,#1006,.T.);
#1004 = VERTEX_POINT('',#1005);
#1005 = CARTESIAN_POINT('',(6.,87.5,510.));
#1006 = CIRCLE('',#1007,6.);
#1007 = AXIS2_PLACEMENT_3D('',#1008,#1009,#1010);
#1008 = CARTESIAN_POINT('',(5.35782974627E-15,87.5,510.));
#1009 = DIRECTION('',(0.,0.,1.));
#1010 = DIRECTION('',(1.,0.,0.));
#1011 = ORIENTED_EDGE('',*,*,#1012,.F.);
#1012 = EDGE_CURVE('',#704,#1004,#1013,.T.);
#1013 = LINE('',#1014,#1015);
#1014 = CARTESIAN_POINT('',(6.,87.5,494.));
#1015 = VECTOR('',#1016,1.);
#1016 = DIRECTION('',(0.,0.,1.));
#1017 = ORIENTED_EDGE('',*,*,#703,.T.);
#1018 = ORIENTED_EDGE('',*,*,#1012,.T.);
#1019 = CYLINDRICAL_SURFACE('',#1020,6.);
#1020 = AXIS2_PLACEMENT_3D('',#1021,#1022,#1023);
#1021 = CARTESIAN_POINT('',(5.35782974627E-15,87.5,494.));
#1022 = DIRECTION('',(0.,0.,1.));
#1023 = DIRECTION('',(1.,0.,0.));
#1024 = ADVANCED_FACE('',(#1025,#1028,#1031,#1034,#1045,#1048),#1051,.F.
  );
#1025 = FACE_BOUND('',#1026,.F.);
#1026 = EDGE_LOOP('',(#1027));
#1027 = ORIENTED_EDGE('',*,*,#729,.T.);
#1028 = FACE_BOUND('',#1029,.F.);
#1029 = EDGE_LOOP('',(#1030));
#1030 = ORIENTED_EDGE('',*,*,#754,.F.);
#1031 = FACE_BOUND('',#1032,.F.);
#1032 = EDGE_LOOP('',(#1033));
#1033 = ORIENTED_EDGE('',*,*,#779,.F.);
#1034 = FACE_BOUND('',#1035,.F.);
#1035 = EDGE_LOOP('',(#1036));
#1036 = ORIENTED_EDGE('',*,*,#1037,.F.);
#1037 = EDGE_CURVE('',#1038,#1038,#1040,.T.);
#1038 = VERTEX_POINT('',#1039);
#1039 = CARTESIAN_POINT('',(50.,-1.224646799147E-14,-710.));
#1040 = CIRCLE('',#1041,50.);
#1041 = AXIS2_PLACEMENT_3D('',#1042,#1043,#1044);
#1042 = CARTESIAN_POINT('',(0.,0.,-710.));
#1043 = DIRECTION('',(0.,0.,1.));
#1044 = DIRECTION('',(1.,0.,0.));
#1045 = FACE_BOUND('',#1046,.F.);
#1046 = EDGE_LOOP('',(#1047));
#1047 = ORIENTED_EDGE('',*,*,#804,.F.);
#1048 = FACE_BOUND('',#1049,.F.);
#1049 = EDGE_LOOP('',(#1050));
#1050 = ORIENTED_EDGE('',*,*,#829,.F.);
#1051 = PLANE('',#1052);
#1052 = AXIS2_PLACEMENT_3D('',#1053,#1054,#1055);
#1053 = CARTESIAN_POINT('',(0.,0.,-710.));
#1054 = DIRECTION('',(0.,0.,1.));
#1055 = DIRECTION('',(1.,0.,0.));
#1056 = ADVANCED_FACE('',(#1057),#1082,.F.);
#1057 = FACE_BOUND('',#1058,.F.);
#1058 = EDGE_LOOP('',(#1059,#1067,#1068,#1076));
#1059 = ORIENTED_EDGE('',*,*,#1060,.F.);
#1060 = EDGE_CURVE('',#858,#1061,#1063,.T.);
#1061 = VERTEX_POINT('',#1062);
#1062 = CARTESIAN_POINT('',(90.,-225.,430.));
#1063 = LINE('',#1064,#1065);
#1064 = CARTESIAN_POINT('',(90.,-236.,430.));
#1065 = VECTOR('',#1066,1.);
#1066 = DIRECTION('',(0.,1.,0.));
#1067 = ORIENTED_EDGE('',*,*,#857,.T.);
#1068 = ORIENTED_EDGE('',*,*,#1069,.T.);
#1069 = EDGE_CURVE('',#860,#1070,#1072,.T.);
#1070 = VERTEX_POINT('',#1071);
#1071 = CARTESIAN_POINT('',(150.,-225.,430.));
#1072 = LINE('',#1073,#1074);
#1073 = CARTESIAN_POINT('',(150.,-236.,430.));
#1074 = VECTOR('',#1075,1.);
#1075 = DIRECTION('',(0.,1.,0.));
#1076 = ORIENTED_EDGE('',*,*,#1077,.F.);
#1077 = EDGE_CURVE('',#1061,#1070,#1078,.T.);
#1078 = LINE('',#1079,#1080);
#1079 = CARTESIAN_POINT('',(90.,-225.,430.));
#1080 = VECTOR('',#1081,1.);
#1081 = DIRECTION('',(1.,0.,0.));
#1082 = PLANE('',#1083);
#1083 = AXIS2_PLACEMENT_3D('',#1084,#1085,#1086);
#1084 = CARTESIAN_POINT('',(90.,-236.,430.));
#1085 = DIRECTION('',(0.,0.,1.));
#1086 = DIRECTION('',(1.,0.,0.));
#1087 = ADVANCED_FACE('',(#1088),#1106,.T.);
#1088 = FACE_BOUND('',#1089,.T.);
#1089 = EDGE_LOOP('',(#1090,#1091,#1092,#1100));
#1090 = ORIENTED_EDGE('',*,*,#1060,.F.);
#1091 = ORIENTED_EDGE('',*,*,#867,.T.);
#1092 = ORIENTED_EDGE('',*,*,#1093,.T.);
#1093 = EDGE_CURVE('',#868,#1094,#1096,.T.);
#1094 = VERTEX_POINT('',#1095);
#1095 = CARTESIAN_POINT('',(90.,-225.,280.));
#1096 = LINE('',#1097,#1098);
#1097 = CARTESIAN_POINT('',(90.,-236.,280.));
#1098 = VECTOR('',#1099,1.);
#1099 = DIRECTION('',(0.,1.,0.));
#1100 = ORIENTED_EDGE('',*,*,#1101,.T.);
#1101 = EDGE_CURVE('',#1094,#1061,#1102,.T.);
#1102 = LINE('',#1103,#1104);
#1103 = CARTESIAN_POINT('',(90.,-225.,280.));
#1104 = VECTOR('',#1105,1.);
#1105 = DIRECTION('',(0.,0.,1.));
#1106 = PLANE('',#1107);
#1107 = AXIS2_PLACEMENT_3D('',#1108,#1109,#1110);
#1108 = CARTESIAN_POINT('',(90.,-236.,280.));
#1109 = DIRECTION('',(1.,0.,0.));
#1110 = DIRECTION('',(0.,0.,1.));
#1111 = ADVANCED_FACE('',(#1112),#1130,.F.);
#1112 = FACE_BOUND('',#1113,.F.);
#1113 = EDGE_LOOP('',(#1114,#1115,#1116,#1124));
#1114 = ORIENTED_EDGE('',*,*,#1069,.F.);
#1115 = ORIENTED_EDGE('',*,*,#883,.T.);
#1116 = ORIENTED_EDGE('',*,*,#1117,.T.);
#1117 = EDGE_CURVE('',#876,#1118,#1120,.T.);
#1118 = VERTEX_POINT('',#1119);
#1119 = CARTESIAN_POINT('',(150.,-225.,280.));
#1120 = LINE('',#1121,#1122);
#1121 = CARTESIAN_POINT('',(150.,-236.,280.));
#1122 = VECTOR('',#1123,1.);
#1123 = DIRECTION('',(0.,1.,0.));
#1124 = ORIENTED_EDGE('',*,*,#1125,.T.);
#1125 = EDGE_CURVE('',#1118,#1070,#1126,.T.);
#1126 = LINE('',#1127,#1128);
#1127 = CARTESIAN_POINT('',(150.,-225.,280.));
#1128 = VECTOR('',#1129,1.);
#1129 = DIRECTION('',(0.,0.,1.));
#1130 = PLANE('',#1131);
#1131 = AXIS2_PLACEMENT_3D('',#1132,#1133,#1134);
#1132 = CARTESIAN_POINT('',(150.,-236.,280.));
#1133 = DIRECTION('',(1.,0.,0.));
#1134 = DIRECTION('',(0.,0.,1.));
#1135 = ADVANCED_FACE('',(#1136),#1147,.T.);
#1136 = FACE_BOUND('',#1137,.T.);
#1137 = EDGE_LOOP('',(#1138,#1139,#1140,#1141));
#1138 = ORIENTED_EDGE('',*,*,#1093,.F.);
#1139 = ORIENTED_EDGE('',*,*,#875,.T.);
#1140 = ORIENTED_EDGE('',*,*,#1117,.T.);
#1141 = ORIENTED_EDGE('',*,*,#1142,.F.);
#1142 = EDGE_CURVE('',#1094,#1118,#1143,.T.);
#1143 = LINE('',#1144,#1145);
#1144 = CARTESIAN_POINT('',(90.,-225.,280.));
#1145 = VECTOR('',#1146,1.);
#1146 = DIRECTION('',(1.,0.,0.));
#1147 = PLANE('',#1148);
#1148 = AXIS2_PLACEMENT_3D('',#1149,#1150,#1151);
#1149 = CARTESIAN_POINT('',(90.,-236.,280.));
#1150 = DIRECTION('',(0.,0.,1.));
#1151 = DIRECTION('',(1.,0.,0.));
#1152 = ADVANCED_FACE('',(#1153,#1156,#1159,#1170,#1173,#1176),#1179,.T.
  );
#1153 = FACE_BOUND('',#1154,.T.);
#1154 = EDGE_LOOP('',(#1155));
#1155 = ORIENTED_EDGE('',*,*,#903,.T.);
#1156 = FACE_BOUND('',#1157,.T.);
#1157 = EDGE_LOOP('',(#1158));
#1158 = ORIENTED_EDGE('',*,*,#928,.F.);
#1159 = FACE_BOUND('',#1160,.T.);
#1160 = EDGE_LOOP('',(#1161));
#1161 = ORIENTED_EDGE('',*,*,#1162,.F.);
#1162 = EDGE_CURVE('',#1163,#1163,#1165,.T.);
#1163 = VERTEX_POINT('',#1164);
#1164 = CARTESIAN_POINT('',(75.,-1.836970198721E-14,510.));
#1165 = CIRCLE('',#1166,75.);
#1166 = AXIS2_PLACEMENT_3D('',#1167,#1168,#1169);
#1167 = CARTESIAN_POINT('',(0.,0.,510.));
#1168 = DIRECTION('',(0.,0.,1.));
#1169 = DIRECTION('',(1.,0.,0.));
#1170 = FACE_BOUND('',#1171,.T.);
#1171 = EDGE_LOOP('',(#1172));
#1172 = ORIENTED_EDGE('',*,*,#953,.F.);
#1173 = FACE_BOUND('',#1174,.T.);
#1174 = EDGE_LOOP('',(#1175));
#1175 = ORIENTED_EDGE('',*,*,#978,.F.);
#1176 = FACE_BOUND('',#1177,.T.);
#1177 = EDGE_LOOP('',(#1178));
#1178 = ORIENTED_EDGE('',*,*,#1003,.F.);
#1179 = PLANE('',#1180);
#1180 = AXIS2_PLACEMENT_3D('',#1181,#1182,#1183);
#1181 = CARTESIAN_POINT('',(0.,0.,510.));
#1182 = DIRECTION('',(0.,0.,1.));
#1183 = DIRECTION('',(1.,0.,0.));
#1184 = ADVANCED_FACE('',(#1185),#1204,.F.);
#1185 = FACE_BOUND('',#1186,.F.);
#1186 = EDGE_LOOP('',(#1187,#1196,#1202,#1203));
#1187 = ORIENTED_EDGE('',*,*,#1188,.F.);
#1188 = EDGE_CURVE('',#1189,#1189,#1191,.T.);
#1189 = VERTEX_POINT('',#1190);
#1190 = CARTESIAN_POINT('',(50.,-1.224646799147E-14,-700.));
#1191 = CIRCLE('',#1192,50.);
#1192 = AXIS2_PLACEMENT_3D('',#1193,#1194,#1195);
#1193 = CARTESIAN_POINT('',(0.,0.,-700.));
#1194 = DIRECTION('',(0.,0.,1.));
#1195 = DIRECTION('',(1.,0.,0.));
#1196 = ORIENTED_EDGE('',*,*,#1197,.F.);
#1197 = EDGE_CURVE('',#1038,#1189,#1198,.T.);
#1198 = LINE('',#1199,#1200);
#1199 = CARTESIAN_POINT('',(50.,-1.224646799147E-14,-711.));
#1200 = VECTOR('',#1201,1.);
#1201 = DIRECTION('',(0.,0.,1.));
#1202 = ORIENTED_EDGE('',*,*,#1037,.T.);
#1203 = ORIENTED_EDGE('',*,*,#1197,.T.);
#1204 = CYLINDRICAL_SURFACE('',#1205,50.);
#1205 = AXIS2_PLACEMENT_3D('',#1206,#1207,#1208);
#1206 = CARTESIAN_POINT('',(0.,0.,-711.));
#1207 = DIRECTION('',(0.,0.,1.));
#1208 = DIRECTION('',(1.,0.,0.));
#1209 = ADVANCED_FACE('',(#1210,#1216),#1250,.F.);
#1210 = FACE_BOUND('',#1211,.F.);
#1211 = EDGE_LOOP('',(#1212,#1213,#1214,#1215));
#1212 = ORIENTED_EDGE('',*,*,#1142,.F.);
#1213 = ORIENTED_EDGE('',*,*,#1101,.T.);
#1214 = ORIENTED_EDGE('',*,*,#1077,.T.);
#1215 = ORIENTED_EDGE('',*,*,#1125,.F.);
#1216 = FACE_BOUND('',#1217,.F.);
#1217 = EDGE_LOOP('',(#1218,#1228,#1236,#1244));
#1218 = ORIENTED_EDGE('',*,*,#1219,.F.);
#1219 = EDGE_CURVE('',#1220,#1222,#1224,.T.);
#1220 = VERTEX_POINT('',#1221);
#1221 = CARTESIAN_POINT('',(93.,-225.,427.));
#1222 = VERTEX_POINT('',#1223);
#1223 = CARTESIAN_POINT('',(147.,-225.,427.));
#1224 = LINE('',#1225,#1226);
#1225 = CARTESIAN_POINT('',(90.,-225.,427.));
#1226 = VECTOR('',#1227,1.);
#1227 = DIRECTION('',(1.,0.,0.));
#1228 = ORIENTED_EDGE('',*,*,#1229,.F.);
#1229 = EDGE_CURVE('',#1230,#1220,#1232,.T.);
#1230 = VERTEX_POINT('',#1231);
#1231 = CARTESIAN_POINT('',(93.,-225.,283.));
#1232 = LINE('',#1233,#1234);
#1233 = CARTESIAN_POINT('',(93.,-225.,280.));
#1234 = VECTOR('',#1235,1.);
#1235 = DIRECTION('',(0.,0.,1.));
#1236 = ORIENTED_EDGE('',*,*,#1237,.T.);
#1237 = EDGE_CURVE('',#1230,#1238,#1240,.T.);
#1238 = VERTEX_POINT('',#1239);
#1239 = CARTESIAN_POINT('',(147.,-225.,283.));
#1240 = LINE('',#1241,#1242);
#1241 = CARTESIAN_POINT('',(90.,-225.,283.));
#1242 = VECTOR('',#1243,1.);
#1243 = DIRECTION('',(1.,0.,0.));
#1244 = ORIENTED_EDGE('',*,*,#1245,.T.);
#1245 = EDGE_CURVE('',#1238,#1222,#1246,.T.);
#1246 = LINE('',#1247,#1248);
#1247 = CARTESIAN_POINT('',(147.,-225.,280.));
#1248 = VECTOR('',#1249,1.);
#1249 = DIRECTION('',(0.,0.,1.));
#1250 = PLANE('',#1251);
#1251 = AXIS2_PLACEMENT_3D('',#1252,#1253,#1254);
#1252 = CARTESIAN_POINT('',(90.,-225.,280.));
#1253 = DIRECTION('',(0.,1.,0.));
#1254 = DIRECTION('',(0.,0.,1.));
#1255 = ADVANCED_FACE('',(#1256),#1275,.F.);
#1256 = FACE_BOUND('',#1257,.F.);
#1257 = EDGE_LOOP('',(#1258,#1266,#1267,#1268));
#1258 = ORIENTED_EDGE('',*,*,#1259,.T.);
#1259 = EDGE_CURVE('',#1260,#1163,#1262,.T.);
#1260 = VERTEX_POINT('',#1261);
#1261 = CARTESIAN_POINT('',(75.,-1.836970198721E-14,500.));
#1262 = LINE('',#1263,#1264);
#1263 = CARTESIAN_POINT('',(75.,-1.836970198721E-14,494.));
#1264 = VECTOR('',#1265,1.);
#1265 = DIRECTION('',(0.,0.,1.));
#1266 = ORIENTED_EDGE('',*,*,#1162,.F.);
#1267 = ORIENTED_EDGE('',*,*,#1259,.F.);
#1268 = ORIENTED_EDGE('',*,*,#1269,.T.);
#1269 = EDGE_CURVE('',#1260,#1260,#1270,.T.);
#1270 = CIRCLE('',#1271,75.);
#1271 = AXIS2_PLACEMENT_3D('',#1272,#1273,#1274);
#1272 = CARTESIAN_POINT('',(0.,0.,500.));
#1273 = DIRECTION('',(0.,0.,1.));
#1274 = DIRECTION('',(1.,0.,0.));
#1275 = CYLINDRICAL_SURFACE('',#1276,75.);
#1276 = AXIS2_PLACEMENT_3D('',#1277,#1278,#1279);
#1277 = CARTESIAN_POINT('',(0.,0.,494.));
#1278 = DIRECTION('',(0.,0.,1.));
#1279 = DIRECTION('',(1.,0.,0.));
#1280 = ADVANCED_FACE('',(#1281,#1284),#1295,.F.);
#1281 = FACE_BOUND('',#1282,.F.);
#1282 = EDGE_LOOP('',(#1283));
#1283 = ORIENTED_EDGE('',*,*,#1188,.T.);
#1284 = FACE_BOUND('',#1285,.F.);
#1285 = EDGE_LOOP('',(#1286));
#1286 = ORIENTED_EDGE('',*,*,#1287,.F.);
#1287 = EDGE_CURVE('',#1288,#1288,#1290,.T.);
#1288 = VERTEX_POINT('',#1289);
#1289 = CARTESIAN_POINT('',(47.,-1.151167991199E-14,-700.));
#1290 = CIRCLE('',#1291,47.);
#1291 = AXIS2_PLACEMENT_3D('',#1292,#1293,#1294);
#1292 = CARTESIAN_POINT('',(0.,0.,-700.));
#1293 = DIRECTION('',(0.,0.,1.));
#1294 = DIRECTION('',(1.,0.,0.));
#1295 = PLANE('',#1296);
#1296 = AXIS2_PLACEMENT_3D('',#1297,#1298,#1299);
#1297 = CARTESIAN_POINT('',(0.,0.,-700.));
#1298 = DIRECTION('',(0.,0.,1.));
#1299 = DIRECTION('',(1.,0.,0.));
#1300 = ADVANCED_FACE('',(#1301),#1336,.F.);
#1301 = FACE_BOUND('',#1302,.F.);
#1302 = EDGE_LOOP('',(#1303,#1314,#1323,#1329,#1330));
#1303 = ORIENTED_EDGE('',*,*,#1304,.F.);
#1304 = EDGE_CURVE('',#1305,#1307,#1309,.T.);
#1305 = VERTEX_POINT('',#1306);
#1306 = CARTESIAN_POINT('',(92.381879997,-118.1760900022,427.));
#1307 = VERTEX_POINT('',#1308);
#1308 = CARTESIAN_POINT('',(147.,-29.84962311319,427.));
#1309 = CIRCLE('',#1310,150.);
#1310 = AXIS2_PLACEMENT_3D('',#1311,#1312,#1313);
#1311 = CARTESIAN_POINT('',(0.,0.,427.));
#1312 = DIRECTION('',(0.,0.,1.));
#1313 = DIRECTION('',(1.,0.,0.));
#1314 = ORIENTED_EDGE('',*,*,#1315,.F.);
#1315 = EDGE_CURVE('',#1316,#1305,#1318,.T.);
#1316 = VERTEX_POINT('',#1317);
#1317 = CARTESIAN_POINT('',(93.,-120.,427.));
#1318 = CIRCLE('',#1319,3.);
#1319 = AXIS2_PLACEMENT_3D('',#1320,#1321,#1322);
#1320 = CARTESIAN_POINT('',(90.,-120.,427.));
#1321 = DIRECTION('',(0.,0.,1.));
#1322 = DIRECTION('',(-0.8,-0.6,0.));
#1323 = ORIENTED_EDGE('',*,*,#1324,.F.);
#1324 = EDGE_CURVE('',#1220,#1316,#1325,.T.);
#1325 = LINE('',#1326,#1327);
#1326 = CARTESIAN_POINT('',(93.,-225.,427.));
#1327 = VECTOR('',#1328,1.);
#1328 = DIRECTION('',(0.,1.,0.));
#1329 = ORIENTED_EDGE('',*,*,#1219,.T.);
#1330 = ORIENTED_EDGE('',*,*,#1331,.F.);
#1331 = EDGE_CURVE('',#1307,#1222,#1332,.T.);
#1332 = LINE('',#1333,#1334);
#1333 = CARTESIAN_POINT('',(147.,-225.,427.));
#1334 = VECTOR('',#1335,1.);
#1335 = DIRECTION('',(0.,-1.,0.));
#1336 = PLANE('',#1337);
#1337 = AXIS2_PLACEMENT_3D('',#1338,#1339,#1340);
#1338 = CARTESIAN_POINT('',(90.,-225.,427.));
#1339 = DIRECTION('',(0.,0.,1.));
#1340 = DIRECTION('',(1.,0.,0.));
#1341 = ADVANCED_FACE('',(#1342),#1360,.T.);
#1342 = FACE_BOUND('',#1343,.T.);
#1343 = EDGE_LOOP('',(#1344,#1352,#1353,#1354));
#1344 = ORIENTED_EDGE('',*,*,#1345,.T.);
#1345 = EDGE_CURVE('',#1346,#1316,#1348,.T.);
#1346 = VERTEX_POINT('',#1347);
#1347 = CARTESIAN_POINT('',(93.,-120.,283.));
#1348 = LINE('',#1349,#1350);
#1349 = CARTESIAN_POINT('',(93.,-120.,0.));
#1350 = VECTOR('',#1351,1.);
#1351 = DIRECTION('',(0.,0.,1.));
#1352 = ORIENTED_EDGE('',*,*,#1324,.F.);
#1353 = ORIENTED_EDGE('',*,*,#1229,.F.);
#1354 = ORIENTED_EDGE('',*,*,#1355,.F.);
#1355 = EDGE_CURVE('',#1346,#1230,#1356,.T.);
#1356 = LINE('',#1357,#1358);
#1357 = CARTESIAN_POINT('',(93.,-225.,283.));
#1358 = VECTOR('',#1359,1.);
#1359 = DIRECTION('',(0.,-1.,0.));
#1360 = PLANE('',#1361);
#1361 = AXIS2_PLACEMENT_3D('',#1362,#1363,#1364);
#1362 = CARTESIAN_POINT('',(93.,-225.,280.));
#1363 = DIRECTION('',(1.,0.,0.));
#1364 = DIRECTION('',(0.,0.,1.));
#1365 = ADVANCED_FACE('',(#1366),#1394,.T.);
#1366 = FACE_BOUND('',#1367,.T.);
#1367 = EDGE_LOOP('',(#1368,#1379,#1386,#1387,#1388));
#1368 = ORIENTED_EDGE('',*,*,#1369,.F.);
#1369 = EDGE_CURVE('',#1370,#1372,#1374,.T.);
#1370 = VERTEX_POINT('',#1371);
#1371 = CARTESIAN_POINT('',(92.381879997,-118.1760900022,283.));
#1372 = VERTEX_POINT('',#1373);
#1373 = CARTESIAN_POINT('',(147.,-29.84962311319,283.));
#1374 = CIRCLE('',#1375,150.);
#1375 = AXIS2_PLACEMENT_3D('',#1376,#1377,#1378);
#1376 = CARTESIAN_POINT('',(0.,0.,283.));
#1377 = DIRECTION('',(0.,0.,1.));
#1378 = DIRECTION('',(1.,0.,0.));
#1379 = ORIENTED_EDGE('',*,*,#1380,.F.);
#1380 = EDGE_CURVE('',#1346,#1370,#1381,.T.);
#1381 = CIRCLE('',#1382,3.);
#1382 = AXIS2_PLACEMENT_3D('',#1383,#1384,#1385);
#1383 = CARTESIAN_POINT('',(90.,-120.,283.));
#1384 = DIRECTION('',(0.,0.,1.));
#1385 = DIRECTION('',(-0.8,-0.6,0.));
#1386 = ORIENTED_EDGE('',*,*,#1355,.T.);
#1387 = ORIENTED_EDGE('',*,*,#1237,.T.);
#1388 = ORIENTED_EDGE('',*,*,#1389,.F.);
#1389 = EDGE_CURVE('',#1372,#1238,#1390,.T.);
#1390 = LINE('',#1391,#1392);
#1391 = CARTESIAN_POINT('',(147.,-225.,283.));
#1392 = VECTOR('',#1393,1.);
#1393 = DIRECTION('',(0.,-1.,0.));
#1394 = PLANE('',#1395);
#1395 = AXIS2_PLACEMENT_3D('',#1396,#1397,#1398);
#1396 = CARTESIAN_POINT('',(90.,-225.,283.));
#1397 = DIRECTION('',(0.,0.,1.));
#1398 = DIRECTION('',(1.,0.,0.));
#1399 = ADVANCED_FACE('',(#1400),#1485,.F.);
#1400 = FACE_BOUND('',#1401,.F.);
#1401 = EDGE_LOOP('',(#1402,#1403,#1404,#1441,#1449,#1484));
#1402 = ORIENTED_EDGE('',*,*,#1245,.F.);
#1403 = ORIENTED_EDGE('',*,*,#1389,.F.);
#1404 = ORIENTED_EDGE('',*,*,#1405,.T.);
#1405 = EDGE_CURVE('',#1372,#1406,#1408,.T.);
#1406 = VERTEX_POINT('',#1407);
#1407 = CARTESIAN_POINT('',(147.,-2.84217094304E-14,280.));
#1408 = B_SPLINE_CURVE_WITH_KNOTS('',7,(#1409,#1410,#1411,#1412,#1413,
    #1414,#1415,#1416,#1417,#1418,#1419,#1420,#1421,#1422,#1423,#1424,
    #1425,#1426,#1427,#1428,#1429,#1430,#1431,#1432,#1433,#1434,#1435,
    #1436,#1437,#1438,#1439,#1440),.UNSPECIFIED.,.F.,.F.,(8,6,6,6,6,8),(
    0.,0.215769268136,0.460352990952,0.798749713882,0.932342154755,1.),
  .UNSPECIFIED.);
#1409 = CARTESIAN_POINT('',(147.,-29.84962311319,283.));
#1410 = CARTESIAN_POINT('',(147.,-28.92490532592,283.));
#1411 = CARTESIAN_POINT('',(147.,-28.00006723177,282.98683153777));
#1412 = CARTESIAN_POINT('',(147.,-27.07531931661,282.96213302938));
#1413 = CARTESIAN_POINT('',(147.,-26.15082249397,282.92713193018));
#1414 = CARTESIAN_POINT('',(147.,-25.22668551676,282.88285583147));
#1415 = CARTESIAN_POINT('',(147.,-24.30296415729,282.83017143899));
#1416 = CARTESIAN_POINT('',(147.,-22.33305692485,282.70143809339));
#1417 = CARTESIAN_POINT('',(147.,-21.28702755457,282.62321107498));
#1418 = CARTESIAN_POINT('',(147.,-20.24160824539,282.53625300656));
#1419 = CARTESIAN_POINT('',(147.,-19.19681974225,282.44148549));
#1420 = CARTESIAN_POINT('',(147.,-18.15266358966,282.33971369481));
#1421 = CARTESIAN_POINT('',(147.,-17.10911943694,282.2316632657));
#1422 = CARTESIAN_POINT('',(147.,-14.62312310576,281.96072010104));
#1423 = CARTESIAN_POINT('',(147.,-13.18121913823,281.79269204911));
#1424 = CARTESIAN_POINT('',(147.,-11.74033035541,281.61565205327));
#1425 = CARTESIAN_POINT('',(147.,-10.30034827181,281.43112205741));
#1426 = CARTESIAN_POINT('',(147.,-8.861148218438,281.2404859234));
#1427 = CARTESIAN_POINT('',(147.,-7.422583195023,281.04504305047));
#1428 = CARTESIAN_POINT('',(147.,-5.41674637353,280.7674651266));
#1429 = CARTESIAN_POINT('',(147.,-4.8490856323,280.68834330678));
#1430 = CARTESIAN_POINT('',(147.,-4.281489338082,280.60874172135));
#1431 = CARTESIAN_POINT('',(147.,-3.71394784439,280.52873554457));
#1432 = CARTESIAN_POINT('',(147.,-3.146451392598,280.44839909562));
#1433 = CARTESIAN_POINT('',(147.,-2.578990111938,280.36780583856));
#1434 = CARTESIAN_POINT('',(147.,-1.724176207715,280.24611866778));
#1435 = CARTESIAN_POINT('',(147.,-1.436804868126,280.20516174934));
#1436 = CARTESIAN_POINT('',(147.,-1.1494387094,280.16416709705));
#1437 = CARTESIAN_POINT('',(147.,-0.862076438594,280.12314416522));
#1438 = CARTESIAN_POINT('',(147.,-0.574716761145,280.08210239244));
#1439 = CARTESIAN_POINT('',(147.,-0.287358380878,280.04105120163));
#1440 = CARTESIAN_POINT('',(147.,0.,280.));
#1441 = ORIENTED_EDGE('',*,*,#1442,.T.);
#1442 = EDGE_CURVE('',#1406,#1443,#1445,.T.);
#1443 = VERTEX_POINT('',#1444);
#1444 = CARTESIAN_POINT('',(147.,0.,430.));
#1445 = LINE('',#1446,#1447);
#1446 = CARTESIAN_POINT('',(147.,0.,0.));
#1447 = VECTOR('',#1448,1.);
#1448 = DIRECTION('',(0.,0.,1.));
#1449 = ORIENTED_EDGE('',*,*,#1450,.F.);
#1450 = EDGE_CURVE('',#1307,#1443,#1451,.T.);
#1451 = B_SPLINE_CURVE_WITH_KNOTS('',7,(#1452,#1453,#1454,#1455,#1456,
    #1457,#1458,#1459,#1460,#1461,#1462,#1463,#1464,#1465,#1466,#1467,
    #1468,#1469,#1470,#1471,#1472,#1473,#1474,#1475,#1476,#1477,#1478,
    #1479,#1480,#1481,#1482,#1483),.UNSPECIFIED.,.F.,.F.,(8,6,6,6,6,8),(
    0.,0.215769268134,0.460352990951,0.798749713882,0.932342154755,1.),
  .UNSPECIFIED.);
#1452 = CARTESIAN_POINT('',(147.,-29.84962311319,427.));
#1453 = CARTESIAN_POINT('',(147.,-28.92490532592,427.));
#1454 = CARTESIAN_POINT('',(147.,-28.00006723174,427.01316846222));
#1455 = CARTESIAN_POINT('',(147.,-27.07531931666,427.03786697061));
#1456 = CARTESIAN_POINT('',(147.,-26.15082249391,427.07286806981));
#1457 = CARTESIAN_POINT('',(147.,-25.22668551679,427.11714416852));
#1458 = CARTESIAN_POINT('',(147.,-24.30296415728,427.169828561));
#1459 = CARTESIAN_POINT('',(147.,-22.33305692485,427.2985619066));
#1460 = CARTESIAN_POINT('',(147.,-21.28702755457,427.37678892502));
#1461 = CARTESIAN_POINT('',(147.,-20.24160824539,427.46374699344));
#1462 = CARTESIAN_POINT('',(147.,-19.19681974225,427.55851450999));
#1463 = CARTESIAN_POINT('',(147.,-18.15266358966,427.66028630518));
#1464 = CARTESIAN_POINT('',(147.,-17.10911943694,427.76833673429));
#1465 = CARTESIAN_POINT('',(147.,-14.62312310576,428.03927989895));
#1466 = CARTESIAN_POINT('',(147.,-13.18121913823,428.20730795088));
#1467 = CARTESIAN_POINT('',(147.,-11.74033035542,428.38434794672));
#1468 = CARTESIAN_POINT('',(147.,-10.30034827181,428.56887794258));
#1469 = CARTESIAN_POINT('',(147.,-8.861148218437,428.75951407659));
#1470 = CARTESIAN_POINT('',(147.,-7.422583195023,428.95495694952));
#1471 = CARTESIAN_POINT('',(147.,-5.41674637353,429.23253487339));
#1472 = CARTESIAN_POINT('',(147.,-4.8490856323,429.31165669321));
#1473 = CARTESIAN_POINT('',(147.,-4.281489338082,429.39125827864));
#1474 = CARTESIAN_POINT('',(147.,-3.71394784439,429.47126445542));
#1475 = CARTESIAN_POINT('',(147.,-3.146451392598,429.55160090437));
#1476 = CARTESIAN_POINT('',(147.,-2.578990111938,429.63219416143));
#1477 = CARTESIAN_POINT('',(147.,-1.724176207715,429.75388133221));
#1478 = CARTESIAN_POINT('',(147.,-1.436804868126,429.79483825065));
#1479 = CARTESIAN_POINT('',(147.,-1.1494387094,429.83583290294));
#1480 = CARTESIAN_POINT('',(147.,-0.862076438594,429.87685583477));
#1481 = CARTESIAN_POINT('',(147.,-0.574716761145,429.91789760755));
#1482 = CARTESIAN_POINT('',(147.,-0.287358380878,429.95894879836));
#1483 = CARTESIAN_POINT('',(147.,0.,430.));
#1484 = ORIENTED_EDGE('',*,*,#1331,.T.);
#1485 = PLANE('',#1486);
#1486 = AXIS2_PLACEMENT_3D('',#1487,#1488,#1489);
#1487 = CARTESIAN_POINT('',(147.,-225.,280.));
#1488 = DIRECTION('',(1.,0.,0.));
#1489 = DIRECTION('',(0.,0.,1.));
#1490 = ADVANCED_FACE('',(#1491,#1494),#1505,.T.);
#1491 = FACE_BOUND('',#1492,.T.);
#1492 = EDGE_LOOP('',(#1493));
#1493 = ORIENTED_EDGE('',*,*,#1269,.T.);
#1494 = FACE_BOUND('',#1495,.T.);
#1495 = EDGE_LOOP('',(#1496));
#1496 = ORIENTED_EDGE('',*,*,#1497,.F.);
#1497 = EDGE_CURVE('',#1498,#1498,#1500,.T.);
#1498 = VERTEX_POINT('',#1499);
#1499 = CARTESIAN_POINT('',(72.,-1.763491390772E-14,500.));
#1500 = CIRCLE('',#1501,72.);
#1501 = AXIS2_PLACEMENT_3D('',#1502,#1503,#1504);
#1502 = CARTESIAN_POINT('',(0.,0.,500.));
#1503 = DIRECTION('',(0.,0.,1.));
#1504 = DIRECTION('',(1.,0.,0.));
#1505 = PLANE('',#1506);
#1506 = AXIS2_PLACEMENT_3D('',#1507,#1508,#1509);
#1507 = CARTESIAN_POINT('',(0.,0.,500.));
#1508 = DIRECTION('',(0.,0.,1.));
#1509 = DIRECTION('',(1.,0.,0.));
#1510 = ADVANCED_FACE('',(#1511),#1539,.F.);
#1511 = FACE_BOUND('',#1512,.F.);
#1512 = EDGE_LOOP('',(#1513,#1524,#1531,#1537,#1538));
#1513 = ORIENTED_EDGE('',*,*,#1514,.T.);
#1514 = EDGE_CURVE('',#1515,#1517,#1519,.T.);
#1515 = VERTEX_POINT('',#1516);
#1516 = CARTESIAN_POINT('',(47.,-1.151167991199E-14,-600.));
#1517 = VERTEX_POINT('',#1518);
#1518 = CARTESIAN_POINT('',(-47.,5.755839955993E-15,-600.));
#1519 = CIRCLE('',#1520,47.);
#1520 = AXIS2_PLACEMENT_3D('',#1521,#1522,#1523);
#1521 = CARTESIAN_POINT('',(0.,0.,-600.));
#1522 = DIRECTION('',(0.,0.,-1.));
#1523 = DIRECTION('',(-1.,3.673940397442E-16,0.));
#1524 = ORIENTED_EDGE('',*,*,#1525,.T.);
#1525 = EDGE_CURVE('',#1517,#1515,#1526,.T.);
#1526 = CIRCLE('',#1527,47.);
#1527 = AXIS2_PLACEMENT_3D('',#1528,#1529,#1530);
#1528 = CARTESIAN_POINT('',(0.,0.,-600.));
#1529 = DIRECTION('',(0.,0.,-1.));
#1530 = DIRECTION('',(-1.,1.224646799147E-16,0.));
#1531 = ORIENTED_EDGE('',*,*,#1532,.F.);
#1532 = EDGE_CURVE('',#1288,#1515,#1533,.T.);
#1533 = LINE('',#1534,#1535);
#1534 = CARTESIAN_POINT('',(47.,-1.151167991199E-14,-700.));
#1535 = VECTOR('',#1536,1.);
#1536 = DIRECTION('',(0.,0.,1.));
#1537 = ORIENTED_EDGE('',*,*,#1287,.T.);
#1538 = ORIENTED_EDGE('',*,*,#1532,.T.);
#1539 = CYLINDRICAL_SURFACE('',#1540,47.);
#1540 = AXIS2_PLACEMENT_3D('',#1541,#1542,#1543);
#1541 = CARTESIAN_POINT('',(0.,0.,-700.));
#1542 = DIRECTION('',(0.,0.,1.));
#1543 = DIRECTION('',(1.,0.,0.));
#1544 = ADVANCED_FACE('',(#1545),#1612,.T.);
#1545 = FACE_BOUND('',#1546,.T.);
#1546 = EDGE_LOOP('',(#1547,#1556,#1557,#1558));
#1547 = ORIENTED_EDGE('',*,*,#1548,.T.);
#1548 = EDGE_CURVE('',#1549,#1443,#1551,.T.);
#1549 = VERTEX_POINT('',#1550);
#1550 = CARTESIAN_POINT('',(88.2,-117.6,429.99999970799));
#1551 = CIRCLE('',#1552,147.);
#1552 = AXIS2_PLACEMENT_3D('',#1553,#1554,#1555);
#1553 = CARTESIAN_POINT('',(0.,0.,430.));
#1554 = DIRECTION('',(0.,0.,1.));
#1555 = DIRECTION('',(1.,0.,0.));
#1556 = ORIENTED_EDGE('',*,*,#1450,.F.);
#1557 = ORIENTED_EDGE('',*,*,#1304,.F.);
#1558 = ORIENTED_EDGE('',*,*,#1559,.T.);
#1559 = EDGE_CURVE('',#1305,#1549,#1560,.T.);
#1560 = B_SPLINE_CURVE_WITH_KNOTS('',8,(#1561,#1562,#1563,#1564,#1565,
    #1566,#1567,#1568,#1569,#1570,#1571,#1572,#1573,#1574,#1575,#1576,
    #1577,#1578,#1579,#1580,#1581,#1582,#1583,#1584,#1585,#1586,#1587,
    #1588,#1589,#1590,#1591,#1592,#1593,#1594,#1595,#1596,#1597,#1598,
    #1599,#1600,#1601,#1602,#1603,#1604,#1605,#1606,#1607,#1608,#1609,
    #1610,#1611),.UNSPECIFIED.,.F.,.F.,(9,7,7,7,7,7,7,9),(0.,
    0.154192158818,0.25723195808,0.407889003709,0.68902498882,
    0.964288367827,0.982580253815,1.),.UNSPECIFIED.);
#1561 = CARTESIAN_POINT('',(92.381879997,-118.1760900022,427.));
#1562 = CARTESIAN_POINT('',(92.308613505552,-118.0804098477,427.));
#1563 = CARTESIAN_POINT('',(92.230928719031,-117.9880598769,
    427.00553204442));
#1564 = CARTESIAN_POINT('',(92.149360455411,-117.8997484898,
    427.01661109823));
#1565 = CARTESIAN_POINT('',(92.064494939847,-117.8159729895,
    427.03308301725));
#1566 = CARTESIAN_POINT('',(91.976936654831,-117.7370604623,
    427.0546746465));
#1567 = CARTESIAN_POINT('',(91.887282744386,-117.6632013572,
    427.08103390728));
#1568 = CARTESIAN_POINT('',(91.796104972273,-117.5944757661,
    427.1117598731));
#1569 = CARTESIAN_POINT('',(91.642348948325,-117.4883690902,
    427.16958655784));
#1570 = CARTESIAN_POINT('',(91.580289245062,-117.4481340001,
    427.19451919686));
#1571 = CARTESIAN_POINT('',(91.517893318605,-117.4101490271,
    427.22110484895));
#1572 = CARTESIAN_POINT('',(91.455280319051,-117.3743805256,
    427.24922900626));
#1573 = CARTESIAN_POINT('',(91.39255513059,-117.3407826062,
    427.27878078222));
#1574 = CARTESIAN_POINT('',(91.329808149662,-117.3093004311,
    427.30965513832));
#1575 = CARTESIAN_POINT('',(91.267115063119,-117.2798735083,
    427.34175511096));
#1576 = CARTESIAN_POINT('',(91.113039142233,-117.2123262949,
    427.42359349812));
#1577 = CARTESIAN_POINT('',(91.021804295819,-117.1764802067,
    427.47461823941));
#1578 = CARTESIAN_POINT('',(90.931010521707,-117.1446951044,
    427.52780092452));
#1579 = CARTESIAN_POINT('',(90.840804972687,-117.1167695244,
    427.58290098618));
#1580 = CARTESIAN_POINT('',(90.75130453678,-117.0925086638,
    427.63970551094));
#1581 = CARTESIAN_POINT('',(90.662596854243,-117.0717268846,
    427.69803012275));
#1582 = CARTESIAN_POINT('',(90.574741334574,-117.0542502196,
    427.7577198665));
#1583 = CARTESIAN_POINT('',(90.325476250005,-117.0131756448,
    427.93234991065));
#1584 = CARTESIAN_POINT('',(90.166371282916,-116.9974031424,
    428.05029267139));
#1585 = CARTESIAN_POINT('',(90.010634224159,-116.9915365027,
    428.1716760574));
#1586 = CARTESIAN_POINT('',(89.858425053332,-116.9947475798,
    428.29585529979));
#1587 = CARTESIAN_POINT('',(89.709854902453,-117.0063422913,
    428.42230553974));
#1588 = CARTESIAN_POINT('',(89.564980051661,-117.0257341514,
    428.55061123576));
#1589 = CARTESIAN_POINT('',(89.423807154632,-117.0524509794,
    428.68046648979));
#1590 = CARTESIAN_POINT('',(89.151659377489,-117.1191089938,
    428.94013314885));
#1591 = CARTESIAN_POINT('',(89.020600868787,-117.1587456794,
    429.06982412212));
#1592 = CARTESIAN_POINT('',(88.893128543282,-117.2046809544,
    429.20050557052));
#1593 = CARTESIAN_POINT('',(88.769273268246,-117.2566271309,
    429.33196543415));
#1594 = CARTESIAN_POINT('',(88.649080921496,-117.314352098,
    429.46401349476));
#1595 = CARTESIAN_POINT('',(88.532607933213,-117.3776694661,
    429.59647892419));
#1596 = CARTESIAN_POINT('',(88.41992120935,-117.4464364563,
    429.72920899501));
#1597 = CARTESIAN_POINT('',(88.303871178363,-117.5254851842,
    429.87089780388));
#1598 = CARTESIAN_POINT('',(88.296657045357,-117.5304344544,
    429.87972717287));
#1599 = CARTESIAN_POINT('',(88.289460065136,-117.5354073147,
    429.88855701592));
#1600 = CARTESIAN_POINT('',(88.282280265686,-117.5404037348,
    429.8973872886));
#1601 = CARTESIAN_POINT('',(88.275117675461,-117.5454236854,
    429.90621794656));
#1602 = CARTESIAN_POINT('',(88.26797232337,-117.5504671377,
    429.91504894546));
#1603 = CARTESIAN_POINT('',(88.26084423879,-117.5555340637,
    429.92388024105));
#1604 = CARTESIAN_POINT('',(88.246961699923,-117.5654721042,
    429.94112225731));
#1605 = CARTESIAN_POINT('',(88.240205384679,-117.5703412244,
    429.94953279098));
#1606 = CARTESIAN_POINT('',(88.233466326694,-117.5752304266,
    429.9579445214));
#1607 = CARTESIAN_POINT('',(88.226738622044,-117.5801441354,
    429.9663535474));
#1608 = CARTESIAN_POINT('',(88.220034201019,-117.5850734004,
    429.97476758503));
#1609 = CARTESIAN_POINT('',(88.213337070728,-117.5900302146,
    429.98317616073));
#1610 = CARTESIAN_POINT('',(88.206662263243,-117.5950033032,
    429.99158901038));
#1611 = CARTESIAN_POINT('',(88.2,-117.6,429.99999970799));
#1612 = TOROIDAL_SURFACE('',#1613,150.,3.);
#1613 = AXIS2_PLACEMENT_3D('',#1614,#1615,#1616);
#1614 = CARTESIAN_POINT('',(0.,0.,430.));
#1615 = DIRECTION('',(0.,0.,1.));
#1616 = DIRECTION('',(1.,0.,0.));
#1617 = ADVANCED_FACE('',(#1618),#1686,.T.);
#1618 = FACE_BOUND('',#1619,.F.);
#1619 = EDGE_LOOP('',(#1620,#1628,#1682,#1683,#1684,#1685));
#1620 = ORIENTED_EDGE('',*,*,#1621,.F.);
#1621 = EDGE_CURVE('',#1622,#1549,#1624,.T.);
#1622 = VERTEX_POINT('',#1623);
#1623 = CARTESIAN_POINT('',(88.2,-117.6,280.000000292));
#1624 = LINE('',#1625,#1626);
#1625 = CARTESIAN_POINT('',(88.2,-117.6,0.));
#1626 = VECTOR('',#1627,1.);
#1627 = DIRECTION('',(0.,0.,1.));
#1628 = ORIENTED_EDGE('',*,*,#1629,.F.);
#1629 = EDGE_CURVE('',#1370,#1622,#1630,.T.);
#1630 = B_SPLINE_CURVE_WITH_KNOTS('',8,(#1631,#1632,#1633,#1634,#1635,
    #1636,#1637,#1638,#1639,#1640,#1641,#1642,#1643,#1644,#1645,#1646,
    #1647,#1648,#1649,#1650,#1651,#1652,#1653,#1654,#1655,#1656,#1657,
    #1658,#1659,#1660,#1661,#1662,#1663,#1664,#1665,#1666,#1667,#1668,
    #1669,#1670,#1671,#1672,#1673,#1674,#1675,#1676,#1677,#1678,#1679,
    #1680,#1681),.UNSPECIFIED.,.F.,.F.,(9,7,7,7,7,7,7,9),(0.,
    0.154192158818,0.257231958079,0.407889003708,0.689024988819,
    0.964288367825,0.982580253814,1.),.UNSPECIFIED.);
#1631 = CARTESIAN_POINT('',(92.381879997,-118.1760900022,283.));
#1632 = CARTESIAN_POINT('',(92.308613505552,-118.0804098477,283.));
#1633 = CARTESIAN_POINT('',(92.230928719031,-117.9880598769,
    282.99446795557));
#1634 = CARTESIAN_POINT('',(92.149360455411,-117.8997484898,
    282.98338890176));
#1635 = CARTESIAN_POINT('',(92.064494939847,-117.8159729895,
    282.96691698274));
#1636 = CARTESIAN_POINT('',(91.976936654831,-117.7370604623,
    282.94532535349));
#1637 = CARTESIAN_POINT('',(91.887282744386,-117.6632013572,
    282.91896609271));
#1638 = CARTESIAN_POINT('',(91.796104972273,-117.5944757661,
    282.88824012689));
#1639 = CARTESIAN_POINT('',(91.642348948325,-117.4883690902,
    282.83041344215));
#1640 = CARTESIAN_POINT('',(91.580289245062,-117.4481340001,
    282.80548080313));
#1641 = CARTESIAN_POINT('',(91.517893318605,-117.4101490271,
    282.77889515104));
#1642 = CARTESIAN_POINT('',(91.455280319051,-117.3743805256,
    282.75077099373));
#1643 = CARTESIAN_POINT('',(91.39255513059,-117.3407826062,
    282.72121921777));
#1644 = CARTESIAN_POINT('',(91.329808149662,-117.3093004311,
    282.69034486167));
#1645 = CARTESIAN_POINT('',(91.267115063119,-117.2798735083,
    282.65824488903));
#1646 = CARTESIAN_POINT('',(91.113039142233,-117.2123262949,
    282.57640650187));
#1647 = CARTESIAN_POINT('',(91.021804295819,-117.1764802067,
    282.52538176058));
#1648 = CARTESIAN_POINT('',(90.931010521707,-117.1446951044,
    282.47219907547));
#1649 = CARTESIAN_POINT('',(90.840804972687,-117.1167695244,
    282.41709901381));
#1650 = CARTESIAN_POINT('',(90.75130453678,-117.0925086638,
    282.36029448905));
#1651 = CARTESIAN_POINT('',(90.662596854243,-117.0717268846,
    282.30196987724));
#1652 = CARTESIAN_POINT('',(90.574741334574,-117.0542502196,
    282.2422801335));
#1653 = CARTESIAN_POINT('',(90.325476250004,-117.0131756448,
    282.06765008934));
#1654 = CARTESIAN_POINT('',(90.166371282917,-116.9974031424,
    281.9497073286));
#1655 = CARTESIAN_POINT('',(90.010634224158,-116.9915365027,
    281.82832394259));
#1656 = CARTESIAN_POINT('',(89.858425053332,-116.9947475798,
    281.7041447002));
#1657 = CARTESIAN_POINT('',(89.709854902454,-117.0063422913,
    281.57769446025));
#1658 = CARTESIAN_POINT('',(89.564980051661,-117.0257341514,
    281.44938876423));
#1659 = CARTESIAN_POINT('',(89.423807154632,-117.0524509794,
    281.3195335102));
#1660 = CARTESIAN_POINT('',(89.151659377489,-117.1191089938,
    281.05986685114));
#1661 = CARTESIAN_POINT('',(89.020600868787,-117.1587456794,
    280.93017587787));
#1662 = CARTESIAN_POINT('',(88.893128543282,-117.2046809544,
    280.79949442947));
#1663 = CARTESIAN_POINT('',(88.769273268246,-117.2566271309,
    280.66803456584));
#1664 = CARTESIAN_POINT('',(88.649080921496,-117.314352098,
    280.53598650523));
#1665 = CARTESIAN_POINT('',(88.532607933213,-117.3776694661,
    280.4035210758));
#1666 = CARTESIAN_POINT('',(88.41992120935,-117.4464364563,
    280.27079100498));
#1667 = CARTESIAN_POINT('',(88.303871178363,-117.5254851842,
    280.12910219611));
#1668 = CARTESIAN_POINT('',(88.296657045357,-117.5304344544,
    280.12027282712));
#1669 = CARTESIAN_POINT('',(88.289460065136,-117.5354073147,
    280.11144298407));
#1670 = CARTESIAN_POINT('',(88.282280265686,-117.5404037348,
    280.10261271139));
#1671 = CARTESIAN_POINT('',(88.275117675461,-117.5454236854,
    280.09378205343));
#1672 = CARTESIAN_POINT('',(88.26797232337,-117.5504671377,
    280.08495105453));
#1673 = CARTESIAN_POINT('',(88.26084423879,-117.5555340637,
    280.07611975894));
#1674 = CARTESIAN_POINT('',(88.246961699922,-117.5654721042,
    280.05887774268));
#1675 = CARTESIAN_POINT('',(88.24020538468,-117.5703412244,
    280.05046720901));
#1676 = CARTESIAN_POINT('',(88.233466326694,-117.5752304266,
    280.04205547859));
#1677 = CARTESIAN_POINT('',(88.226738622044,-117.5801441354,
    280.03364645259));
#1678 = CARTESIAN_POINT('',(88.22003420102,-117.5850734004,
    280.02523241496));
#1679 = CARTESIAN_POINT('',(88.213337070727,-117.5900302146,
    280.01682383926));
#1680 = CARTESIAN_POINT('',(88.206662263243,-117.5950033032,
    280.00841098961));
#1681 = CARTESIAN_POINT('',(88.2,-117.6,280.000000292));
#1682 = ORIENTED_EDGE('',*,*,#1380,.F.);
#1683 = ORIENTED_EDGE('',*,*,#1345,.T.);
#1684 = ORIENTED_EDGE('',*,*,#1315,.T.);
#1685 = ORIENTED_EDGE('',*,*,#1559,.T.);
#1686 = CYLINDRICAL_SURFACE('',#1687,3.);
#1687 = AXIS2_PLACEMENT_3D('',#1688,#1689,#1690);
#1688 = CARTESIAN_POINT('',(90.,-120.,0.));
#1689 = DIRECTION('',(0.,0.,1.));
#1690 = DIRECTION('',(-0.8,-0.6,0.));
#1691 = ADVANCED_FACE('',(#1692),#1704,.T.);
#1692 = FACE_BOUND('',#1693,.F.);
#1693 = EDGE_LOOP('',(#1694,#1701,#1702,#1703));
#1694 = ORIENTED_EDGE('',*,*,#1695,.T.);
#1695 = EDGE_CURVE('',#1622,#1406,#1696,.T.);
#1696 = CIRCLE('',#1697,147.);
#1697 = AXIS2_PLACEMENT_3D('',#1698,#1699,#1700);
#1698 = CARTESIAN_POINT('',(0.,0.,280.));
#1699 = DIRECTION('',(0.,0.,1.));
#1700 = DIRECTION('',(1.,0.,0.));
#1701 = ORIENTED_EDGE('',*,*,#1405,.F.);
#1702 = ORIENTED_EDGE('',*,*,#1369,.F.);
#1703 = ORIENTED_EDGE('',*,*,#1629,.T.);
#1704 = TOROIDAL_SURFACE('',#1705,150.,3.);
#1705 = AXIS2_PLACEMENT_3D('',#1706,#1707,#1708);
#1706 = CARTESIAN_POINT('',(0.,0.,280.));
#1707 = DIRECTION('',(-0.,-0.,-1.));
#1708 = DIRECTION('',(1.,0.,0.));
#1709 = ADVANCED_FACE('',(#1710),#1757,.F.);
#1710 = FACE_BOUND('',#1711,.F.);
#1711 = EDGE_LOOP('',(#1712,#1720,#1721,#1722,#1723,#1731,#1738,#1739,
    #1740,#1741,#1750));
#1712 = ORIENTED_EDGE('',*,*,#1713,.T.);
#1713 = EDGE_CURVE('',#1714,#1406,#1716,.T.);
#1714 = VERTEX_POINT('',#1715);
#1715 = CARTESIAN_POINT('',(147.,-9.001153973733E-15,0.248287590895));
#1716 = LINE('',#1717,#1718);
#1717 = CARTESIAN_POINT('',(147.,0.,0.));
#1718 = VECTOR('',#1719,1.);
#1719 = DIRECTION('',(0.,0.,1.));
#1720 = ORIENTED_EDGE('',*,*,#1695,.F.);
#1721 = ORIENTED_EDGE('',*,*,#1621,.T.);
#1722 = ORIENTED_EDGE('',*,*,#1548,.T.);
#1723 = ORIENTED_EDGE('',*,*,#1724,.T.);
#1724 = EDGE_CURVE('',#1443,#1725,#1727,.T.);
#1725 = VERTEX_POINT('',#1726);
#1726 = CARTESIAN_POINT('',(147.,-1.800230794747E-14,447.));
#1727 = LINE('',#1728,#1729);
#1728 = CARTESIAN_POINT('',(147.,0.,0.));
#1729 = VECTOR('',#1730,1.);
#1730 = DIRECTION('',(0.,0.,1.));
#1731 = ORIENTED_EDGE('',*,*,#1732,.F.);
#1732 = EDGE_CURVE('',#1725,#1725,#1733,.T.);
#1733 = CIRCLE('',#1734,147.);
#1734 = AXIS2_PLACEMENT_3D('',#1735,#1736,#1737);
#1735 = CARTESIAN_POINT('',(0.,0.,447.));
#1736 = DIRECTION('',(0.,0.,1.));
#1737 = DIRECTION('',(1.,0.,0.));
#1738 = ORIENTED_EDGE('',*,*,#1724,.F.);
#1739 = ORIENTED_EDGE('',*,*,#1442,.F.);
#1740 = ORIENTED_EDGE('',*,*,#1713,.F.);
#1741 = ORIENTED_EDGE('',*,*,#1742,.T.);
#1742 = EDGE_CURVE('',#1714,#1743,#1745,.T.);
#1743 = VERTEX_POINT('',#1744);
#1744 = CARTESIAN_POINT('',(-147.,-9.001153973733E-15,0.248287590895));
#1745 = CIRCLE('',#1746,147.);
#1746 = AXIS2_PLACEMENT_3D('',#1747,#1748,#1749);
#1747 = CARTESIAN_POINT('',(0.,0.,0.248287590895));
#1748 = DIRECTION('',(-0.,0.,1.));
#1749 = DIRECTION('',(0.,-1.,0.));
#1750 = ORIENTED_EDGE('',*,*,#1751,.T.);
#1751 = EDGE_CURVE('',#1743,#1714,#1752,.T.);
#1752 = CIRCLE('',#1753,147.);
#1753 = AXIS2_PLACEMENT_3D('',#1754,#1755,#1756);
#1754 = CARTESIAN_POINT('',(0.,0.,0.248287590895));
#1755 = DIRECTION('',(-0.,0.,1.));
#1756 = DIRECTION('',(0.,-1.,0.));
#1757 = CYLINDRICAL_SURFACE('',#1758,147.);
#1758 = AXIS2_PLACEMENT_3D('',#1759,#1760,#1761);
#1759 = CARTESIAN_POINT('',(0.,0.,0.));
#1760 = DIRECTION('',(0.,0.,1.));
#1761 = DIRECTION('',(1.,0.,0.));
#1762 = ADVANCED_FACE('',(#1763),#1782,.F.);
#1763 = FACE_BOUND('',#1764,.F.);
#1764 = EDGE_LOOP('',(#1765,#1773,#1780,#1781));
#1765 = ORIENTED_EDGE('',*,*,#1766,.F.);
#1766 = EDGE_CURVE('',#1767,#1498,#1769,.T.);
#1767 = VERTEX_POINT('',#1768);
#1768 = CARTESIAN_POINT('',(72.,-1.763491390772E-14,450.));
#1769 = LINE('',#1770,#1771);
#1770 = CARTESIAN_POINT('',(72.,-1.763491390772E-14,270.));
#1771 = VECTOR('',#1772,1.);
#1772 = DIRECTION('',(0.,0.,1.));
#1773 = ORIENTED_EDGE('',*,*,#1774,.T.);
#1774 = EDGE_CURVE('',#1767,#1767,#1775,.T.);
#1775 = CIRCLE('',#1776,72.);
#1776 = AXIS2_PLACEMENT_3D('',#1777,#1778,#1779);
#1777 = CARTESIAN_POINT('',(0.,0.,450.));
#1778 = DIRECTION('',(0.,0.,1.));
#1779 = DIRECTION('',(1.,0.,0.));
#1780 = ORIENTED_EDGE('',*,*,#1766,.T.);
#1781 = ORIENTED_EDGE('',*,*,#1497,.F.);
#1782 = CYLINDRICAL_SURFACE('',#1783,72.);
#1783 = AXIS2_PLACEMENT_3D('',#1784,#1785,#1786);
#1784 = CARTESIAN_POINT('',(0.,0.,270.));
#1785 = DIRECTION('',(0.,0.,1.));
#1786 = DIRECTION('',(1.,0.,0.));
#1787 = ADVANCED_FACE('',(#1788),#1816,.T.);
#1788 = FACE_BOUND('',#1789,.T.);
#1789 = EDGE_LOOP('',(#1790,#1801,#1808,#1809));
#1790 = ORIENTED_EDGE('',*,*,#1791,.F.);
#1791 = EDGE_CURVE('',#1792,#1794,#1796,.T.);
#1792 = VERTEX_POINT('',#1793);
#1793 = CARTESIAN_POINT('',(47.040818228504,5.760838747281E-15,
    -599.506803038));
#1794 = VERTEX_POINT('',#1795);
#1795 = CARTESIAN_POINT('',(-47.0408182285,0.,-599.506803038));
#1796 = CIRCLE('',#1797,47.040818228504);
#1797 = AXIS2_PLACEMENT_3D('',#1798,#1799,#1800);
#1798 = CARTESIAN_POINT('',(0.,0.,-599.506803038));
#1799 = DIRECTION('',(0.,0.,-1.));
#1800 = DIRECTION('',(-1.,0.,0.));
#1801 = ORIENTED_EDGE('',*,*,#1802,.T.);
#1802 = EDGE_CURVE('',#1792,#1515,#1803,.T.);
#1803 = CIRCLE('',#1804,3.);
#1804 = AXIS2_PLACEMENT_3D('',#1805,#1806,#1807);
#1805 = CARTESIAN_POINT('',(50.,6.123233995737E-15,-600.));
#1806 = DIRECTION('',(1.224646799147E-16,-1.,0.));
#1807 = DIRECTION('',(1.,1.224646799147E-16,0.));
#1808 = ORIENTED_EDGE('',*,*,#1514,.T.);
#1809 = ORIENTED_EDGE('',*,*,#1810,.F.);
#1810 = EDGE_CURVE('',#1794,#1517,#1811,.T.);
#1811 = CIRCLE('',#1812,3.);
#1812 = AXIS2_PLACEMENT_3D('',#1813,#1814,#1815);
#1813 = CARTESIAN_POINT('',(-50.,0.,-600.));
#1814 = DIRECTION('',(0.,1.,-0.));
#1815 = DIRECTION('',(-1.,0.,0.));
#1816 = TOROIDAL_SURFACE('',#1817,50.,3.);
#1817 = AXIS2_PLACEMENT_3D('',#1818,#1819,#1820);
#1818 = CARTESIAN_POINT('',(0.,0.,-600.));
#1819 = DIRECTION('',(0.,0.,1.));
#1820 = DIRECTION('',(-1.,0.,0.));
#1821 = ADVANCED_FACE('',(#1822),#1834,.T.);
#1822 = FACE_BOUND('',#1823,.T.);
#1823 = EDGE_LOOP('',(#1824,#1831,#1832,#1833));
#1824 = ORIENTED_EDGE('',*,*,#1825,.F.);
#1825 = EDGE_CURVE('',#1794,#1792,#1826,.T.);
#1826 = CIRCLE('',#1827,47.040818228504);
#1827 = AXIS2_PLACEMENT_3D('',#1828,#1829,#1830);
#1828 = CARTESIAN_POINT('',(0.,0.,-599.506803038));
#1829 = DIRECTION('',(0.,0.,-1.));
#1830 = DIRECTION('',(-1.,0.,0.));
#1831 = ORIENTED_EDGE('',*,*,#1810,.T.);
#1832 = ORIENTED_EDGE('',*,*,#1525,.T.);
#1833 = ORIENTED_EDGE('',*,*,#1802,.F.);
#1834 = TOROIDAL_SURFACE('',#1835,50.,3.);
#1835 = AXIS2_PLACEMENT_3D('',#1836,#1837,#1838);
#1836 = CARTESIAN_POINT('',(0.,0.,-600.));
#1837 = DIRECTION('',(0.,0.,1.));
#1838 = DIRECTION('',(-1.,0.,0.));
#1839 = ADVANCED_FACE('',(#1840,#1851),#1854,.F.);
#1840 = FACE_BOUND('',#1841,.F.);
#1841 = EDGE_LOOP('',(#1842));
#1842 = ORIENTED_EDGE('',*,*,#1843,.F.);
#1843 = EDGE_CURVE('',#1844,#1844,#1846,.T.);
#1844 = VERTEX_POINT('',#1845);
#1845 = CARTESIAN_POINT('',(75.,0.,447.));
#1846 = CIRCLE('',#1847,75.);
#1847 = AXIS2_PLACEMENT_3D('',#1848,#1849,#1850);
#1848 = CARTESIAN_POINT('',(0.,0.,447.));
#1849 = DIRECTION('',(0.,0.,1.));
#1850 = DIRECTION('',(1.,0.,0.));
#1851 = FACE_BOUND('',#1852,.F.);
#1852 = EDGE_LOOP('',(#1853));
#1853 = ORIENTED_EDGE('',*,*,#1732,.T.);
#1854 = PLANE('',#1855);
#1855 = AXIS2_PLACEMENT_3D('',#1856,#1857,#1858);
#1856 = CARTESIAN_POINT('',(0.,0.,447.));
#1857 = DIRECTION('',(0.,0.,1.));
#1858 = DIRECTION('',(1.,0.,0.));
#1859 = ADVANCED_FACE('',(#1860),#1873,.F.);
#1860 = FACE_BOUND('',#1861,.F.);
#1861 = EDGE_LOOP('',(#1862,#1868,#1869,#1870,#1871,#1872));
#1862 = ORIENTED_EDGE('',*,*,#1863,.T.);
#1863 = EDGE_CURVE('',#1743,#1794,#1864,.T.);
#1864 = LINE('',#1865,#1866);
#1865 = CARTESIAN_POINT('',(-147.0408182285,0.,0.493196961916));
#1866 = VECTOR('',#1867,1.);
#1867 = DIRECTION('',(0.164398987305,0.,-0.986393923832));
#1868 = ORIENTED_EDGE('',*,*,#1791,.F.);
#1869 = ORIENTED_EDGE('',*,*,#1825,.F.);
#1870 = ORIENTED_EDGE('',*,*,#1863,.F.);
#1871 = ORIENTED_EDGE('',*,*,#1742,.F.);
#1872 = ORIENTED_EDGE('',*,*,#1751,.F.);
#1873 = CONICAL_SURFACE('',#1874,147.0408182285,0.165148677415);
#1874 = AXIS2_PLACEMENT_3D('',#1875,#1876,#1877);
#1875 = CARTESIAN_POINT('',(0.,0.,0.493196961916));
#1876 = DIRECTION('',(0.,0.,1.));
#1877 = DIRECTION('',(-1.,0.,0.));
#1878 = ADVANCED_FACE('',(#1879),#1891,.T.);
#1879 = FACE_BOUND('',#1880,.T.);
#1880 = EDGE_LOOP('',(#1881,#1882,#1889,#1890));
#1881 = ORIENTED_EDGE('',*,*,#1843,.F.);
#1882 = ORIENTED_EDGE('',*,*,#1883,.T.);
#1883 = EDGE_CURVE('',#1844,#1767,#1884,.T.);
#1884 = CIRCLE('',#1885,3.);
#1885 = AXIS2_PLACEMENT_3D('',#1886,#1887,#1888);
#1886 = CARTESIAN_POINT('',(75.,-1.836970198721E-14,450.));
#1887 = DIRECTION('',(2.449293598295E-16,1.,0.));
#1888 = DIRECTION('',(1.,-2.449293598295E-16,0.));
#1889 = ORIENTED_EDGE('',*,*,#1774,.T.);
#1890 = ORIENTED_EDGE('',*,*,#1883,.F.);
#1891 = TOROIDAL_SURFACE('',#1892,75.,3.);
#1892 = AXIS2_PLACEMENT_3D('',#1893,#1894,#1895);
#1893 = CARTESIAN_POINT('',(0.,0.,450.));
#1894 = DIRECTION('',(-0.,-0.,-1.));
#1895 = DIRECTION('',(1.,0.,0.));
#1896 = ( GEOMETRIC_REPRESENTATION_CONTEXT(3) 
GLOBAL_UNCERTAINTY_ASSIGNED_CONTEXT((#1900)) 
GLOBAL_UNIT_ASSIGNED_CONTEXT((#1897,#1898,#1899)) REPRESENTATION_CONTEXT
('Context #1','3D Context with UNIT and UNCERTAINTY') );
#1897 = ( LENGTH_UNIT() NAMED_UNIT(*) SI_UNIT(.MILLI.,.METRE.) );
#1898 = ( NAMED_UNIT(*) PLANE_ANGLE_UNIT() SI_UNIT($,.RADIAN.) );
#1899 = ( NAMED_UNIT(*) SI_UNIT($,.STERADIAN.) SOLID_ANGLE_UNIT() );
#1900 = UNCERTAINTY_MEASURE_WITH_UNIT(LENGTH_MEASURE(1.E-04),#1897,
  'distance_accuracy_value','confusion accuracy');
#1901 = PRODUCT_RELATED_PRODUCT_CATEGORY('part',$,(#7));
ENDSEC;
END-ISO-10303-21;
