  0
SECTION
  2
HEADER
  9
$ACADVER
  1
AC1015
  9
$ACADMAINTVER
 70
6
  9
$DWGCODEPAGE
  3
ANSI_1252
  9
$INSBASE
 10
0.0
 20
0.0
 30
0.0
  9
$EXTMIN
 10
1e+20
 20
1e+20
 30
1e+20
  9
$EXTMAX
 10
-1e+20
 20
-1e+20
 30
-1e+20
  9
$LIMMIN
 10
0.0
 20
0.0
  9
$LIMMAX
 10
420.0
 20
297.0
  9
$ORTHOMODE
 70
0
  9
$REGENMODE
 70
1
  9
$FILLMODE
 70
1
  9
$QTEXTMODE
 70
0
  9
$MIRRTEXT
 70
1
  9
$LTSCALE
 40
1.0
  9
$ATTMODE
 70
1
  9
$TEXTSIZE
 40
2.5
  9
$TRACEWID
 40
1.0
  9
$TEXTSTYLE
  7
Standard
  9
$CLAYER
  8
0
  9
$CELTYPE
  6
ByLayer
  9
$CECOLOR
 62
256
  9
$CELTSCALE
 40
1.0
  9
$DISPSILH
 70
0
  9
$DIMSCALE
 40
1.0
  9
$DIMASZ
 40
2.5
  9
$DIMEXO
 40
0.625
  9
$DIMDLI
 40
3.75
  9
$DIMRND
 40
0.0
  9
$DIMDLE
 40
0.0
  9
$DIMEXE
 40
1.25
  9
$DIMTP
 40
0.0
  9
$DIMTM
 40
0.0
  9
$DIMTXT
 40
2.5
  9
$DIMCEN
 40
2.5
  9
$DIMTSZ
 40
0.0
  9
$DIMTOL
 70
0
  9
$DIMLIM
 70
0
  9
$DIMTIH
 70
0
  9
$DIMTOH
 70
0
  9
$DIMSE1
 70
0
  9
$DIMSE2
 70
0
  9
$DIMTAD
 70
1
  9
$DIMZIN
 70
8
  9
$DIMBLK
  1

  9
$DIMASO
 70
1
  9
$DIMSHO
 70
1
  9
$DIMPOST
  1

  9
$DIMAPOST
  1

  9
$DIMALT
 70
0
  9
$DIMALTD
 70
3
  9
$DIMALTF
 40
0.03937007874
  9
$DIMLFAC
 40
1.0
  9
$DIMTOFL
 70
1
  9
$DIMTVP
 40
0.0
  9
$DIMTIX
 70
0
  9
$DIMSOXD
 70
0
  9
$DIMSAH
 70
0
  9
$DIMBLK1
  1

  9
$DIMBLK2
  1

  9
$DIMSTYLE
  2
ISO-25
  9
$DIMCLRD
 70
0
  9
$DIMCLRE
 70
0
  9
$DIMCLRT
 70
0
  9
$DIMTFAC
 40
1.0
  9
$DIMGAP
 40
0.625
  9
$DIMJUST
 70
0
  9
$DIMSD1
 70
0
  9
$DIMSD2
 70
0
  9
$DIMTOLJ
 70
0
  9
$DIMTZIN
 70
8
  9
$DIMALTZ
 70
0
  9
$DIMALTTZ
 70
0
  9
$DIMUPT
 70
0
  9
$DIMDEC
 70
2
  9
$DIMTDEC
 70
2
  9
$DIMALTU
 70
2
  9
$DIMALTTD
 70
3
  9
$DIMTXSTY
  7
Standard
  9
$DIMAUNIT
 70
0
  9
$DIMADEC
 70
0
  9
$DIMALTRND
 40
0.0
  9
$DIMAZIN
 70
0
  9
$DIMDSEP
 70
44
  9
$DIMATFIT
 70
3
  9
$DIMFRAC
 70
0
  9
$DIMLDRBLK
  1

  9
$DIMLUNIT
 70
2
  9
$DIMLWD
 70
-2
  9
$DIMLWE
 70
-2
  9
$DIMTMOVE
 70
0
  9
$LUNITS
 70
2
  9
$LUPREC
 70
4
  9
$SKETCHINC
 40
1.0
  9
$FILLETRAD
 40
10.0
  9
$AUNITS
 70
0
  9
$AUPREC
 70
2
  9
$MENU
  1
.
  9
$ELEVATION
 40
0.0
  9
$PELEVATION
 40
0.0
  9
$THICKNESS
 40
0.0
  9
$LIMCHECK
 70
0
  9
$CHAMFERA
 40
0.0
  9
$CHAMFERB
 40
0.0
  9
$CHAMFERC
 40
0.0
  9
$CHAMFERD
 40
0.0
  9
$SKPOLY
 70
0
  9
$TDCREATE
 40
2461264.6651157406
  9
$TDUCREATE
 40
2458532.153996898
  9
$TDUPDATE
 40
2461264.6651157406
  9
$TDUUPDATE
 40
2458532.1544311
  9
$TDINDWG
 40
0.0
  9
$TDUSRTIMER
 40
0.0
  9
$USRTIMER
 70
1
  9
$ANGBASE
 50
0.0
  9
$ANGDIR
 70
0
  9
$PDMODE
 70
0
  9
$PDSIZE
 40
0.0
  9
$PLINEWID
 40
0.0
  9
$SPLFRAME
 70
0
  9
$SPLINETYPE
 70
6
  9
$SPLINESEGS
 70
8
  9
$HANDSEED
  5
206
  9
$SURFTAB1
 70
6
  9
$SURFTAB2
 70
6
  9
$SURFTYPE
 70
6
  9
$SURFU
 70
6
  9
$SURFV
 70
6
  9
$UCSBASE
  2

  9
$UCSNAME
  2

  9
$UCSORG
 10
0.0
 20
0.0
 30
0.0
  9
$UCSXDIR
 10
1.0
 20
0.0
 30
0.0
  9
$UCSYDIR
 10
0.0
 20
1.0
 30
0.0
  9
$UCSORTHOREF
  2

  9
$UCSORTHOVIEW
 70
0
  9
$UCSORGTOP
 10
0.0
 20
0.0
 30
0.0
  9
$UCSORGBOTTOM
 10
0.0
 20
0.0
 30
0.0
  9
$UCSORGLEFT
 10
0.0
 20
0.0
 30
0.0
  9
$UCSORGRIGHT
 10
0.0
 20
0.0
 30
0.0
  9
$UCSORGFRONT
 10
0.0
 20
0.0
 30
0.0
  9
$UCSORGBACK
 10
0.0
 20
0.0
 30
0.0
  9
$PUCSBASE
  2

  9
$PUCSNAME
  2

  9
$PUCSORG
 10
0.0
 20
0.0
 30
0.0
  9
$PUCSXDIR
 10
1.0
 20
0.0
 30
0.0
  9
$PUCSYDIR
 10
0.0
 20
1.0
 30
0.0
  9
$PUCSORTHOREF
  2

  9
$PUCSORTHOVIEW
 70
0
  9
$PUCSORGTOP
 10
0.0
 20
0.0
 30
0.0
  9
$PUCSORGBOTTOM
 10
0.0
 20
0.0
 30
0.0
  9
$PUCSORGLEFT
 10
0.0
 20
0.0
 30
0.0
  9
$PUCSORGRIGHT
 10
0.0
 20
0.0
 30
0.0
  9
$PUCSORGFRONT
 10
0.0
 20
0.0
 30
0.0
  9
$PUCSORGBACK
 10
0.0
 20
0.0
 30
0.0
  9
$USERI1
 70
0
  9
$USERI2
 70
0
  9
$USERI3
 70
0
  9
$USERI4
 70
0
  9
$USERI5
 70
0
  9
$USERR1
 40
0.0
  9
$USERR2
 40
0.0
  9
$USERR3
 40
0.0
  9
$USERR4
 40
0.0
  9
$USERR5
 40
0.0
  9
$WORLDVIEW
 70
1
  9
$SHADEDGE
 70
3
  9
$SHADEDIF
 70
70
  9
$TILEMODE
 70
1
  9
$MAXACTVP
 70
64
  9
$PINSBASE
 10
0.0
 20
0.0
 30
0.0
  9
$PLIMCHECK
 70
0
  9
$PEXTMIN
 10
1e+20
 20
1e+20
 30
1e+20
  9
$PEXTMAX
 10
-1e+20
 20
-1e+20
 30
-1e+20
  9
$PLIMMIN
 10
0.0
 20
0.0
  9
$PLIMMAX
 10
420.0
 20
297.0
  9
$UNITMODE
 70
0
  9
$VISRETAIN
 70
1
  9
$PLINEGEN
 70
0
  9
$PSLTSCALE
 70
1
  9
$TREEDEPTH
 70
3020
  9
$CMLSTYLE
  2
Standard
  9
$CMLJUST
 70
0
  9
$CMLSCALE
 40
20.0
  9
$PROXYGRAPHICS
 70
1
  9
$MEASUREMENT
 70
1
  9
$CELWEIGHT
370
-1
  9
$ENDCAPS
280
0
  9
$JOINSTYLE
280
0
  9
$LWDISPLAY
290
0
  9
$INSUNITS
 70
6
  9
$HYPERLINKBASE
  1

  9
$STYLESHEET
  1

  9
$XEDIT
290
1
  9
$CEPSNTYPE
380
0
  9
$PSTYLEMODE
290
1
  9
$FINGERPRINTGUID
  2
{41093B58-FFFC-46FD-8C33-B91714E33398}
  9
$VERSIONGUID
  2
{C9DCDC7C-0B77-4284-BD30-7AD90D2930F9}
  9
$EXTNAMES
290
1
  9
$PSVPSCALE
 40
0.0
  9
$OLESTARTUP
290
0
  0
ENDSEC
  0
SECTION
  2
CLASSES
  0
CLASS
  1
ACDBDICTIONARYWDFLT
  2
AcDbDictionaryWithDefault
  3
ObjectDBX Classes
 90
0
280
0
281
0
  0
CLASS
  1
SUN
  2
AcDbSun
  3
SCENEOE
 90
1153
280
0
281
0
  0
CLASS
  1
VISUALSTYLE
  2
AcDbVisualStyle
  3
ObjectDBX Classes
 90
4095
280
0
281
0
  0
CLASS
  1
MATERIAL
  2
AcDbMaterial
  3
ObjectDBX Classes
 90
1153
280
0
281
0
  0
CLASS
  1
SCALE
  2
AcDbScale
  3
ObjectDBX Classes
 90
1153
280
0
281
0
  0
CLASS
  1
TABLESTYLE
  2
AcDbTableStyle
  3
ObjectDBX Classes
 90
4095
280
0
281
0
  0
CLASS
  1
MLEADERSTYLE
  2
AcDbMLeaderStyle
  3
ACDB_MLEADERSTYLE_CLASS
 90
4095
280
0
281
0
  0
CLASS
  1
DICTIONARYVAR
  2
AcDbDictionaryVar
  3
ObjectDBX Classes
 90
0
280
0
281
0
  0
CLASS
  1
CELLSTYLEMAP
  2
AcDbCellStyleMap
  3
ObjectDBX Classes
 90
1152
280
0
281
0
  0
CLASS
  1
MENTALRAYRENDERSETTINGS
  2
AcDbMentalRayRenderSettings
  3
SCENEOE
 90
1024
280
0
281
0
  0
CLASS
  1
ACDBDETAILVIEWSTYLE
  2
AcDbDetailViewStyle
  3
ObjectDBX Classes
 90
1025
280
0
281
0
  0
CLASS
  1
ACDBSECTIONVIEWSTYLE
  2
AcDbSectionViewStyle
  3
ObjectDBX Classes
 90
1025
280
0
281
0
  0
CLASS
  1
RASTERVARIABLES
  2
AcDbRasterVariables
  3
ISM
 90
0
280
0
281
0
  0
CLASS
  1
ACDBPLACEHOLDER
  2
AcDbPlaceHolder
  3
ObjectDBX Classes
 90
0
280
0
281
0
  0
CLASS
  1
LAYOUT
  2
AcDbLayout
  3
ObjectDBX Classes
 90
0
280
0
281
0
  0
ENDSEC
  0
SECTION
  2
TABLES
  0
TABLE
  2
VPORT
  5
8
330
0
100
AcDbSymbolTable
 70
1
  0
VPORT
  5
23
330
8
100
AcDbSymbolTableRecord
100
AcDbViewportTableRecord
  2
*Active
 70
0
 10
0.0
 20
0.0
 11
1.0
 21
1.0
 12
0.0
 22
0.0
 13
0.0
 23
0.0
 14
0.5
 24
0.5
 15
0.5
 25
0.5
 16
0.0
 26
0.0
 36
1.0
 17
0.0
 27
0.0
 37
0.0
 40
1000.0
 41
1.34
 42
50.0
 43
0.0
 44
0.0
 50
0.0
 51
0.0
 71
0
 72
1000
 73
1
 74
3
 75
0
 76
0
 77
0
 78
0
281
0
 65
0
146
0.0
  0
ENDTAB
  0
TABLE
  2
LTYPE
  5
2
330
0
100
AcDbSymbolTable
 70
3
  0
LTYPE
  5
24
330
2
100
AcDbSymbolTableRecord
100
AcDbLinetypeTableRecord
  2
ByBlock
 70
0
  3

 72
65
 73
0
 40
0.0
  0
LTYPE
  5
25
330
2
100
AcDbSymbolTableRecord
100
AcDbLinetypeTableRecord
  2
ByLayer
 70
0
  3

 72
65
 73
0
 40
0.0
  0
LTYPE
  5
26
330
2
100
AcDbSymbolTableRecord
100
AcDbLinetypeTableRecord
  2
Continuous
 70
0
  3

 72
65
 73
0
 40
0.0
  0
ENDTAB
  0
TABLE
  2
LAYER
  5
1
330
0
100
AcDbSymbolTable
 70
6
  0
LAYER
  5
27
330
1
100
AcDbSymbolTableRecord
100
AcDbLayerTableRecord
  2
0
 70
0
 62
7
  6
Continuous
370
-3
390
13
  0
LAYER
  5
28
330
1
100
AcDbSymbolTableRecord
100
AcDbLayerTableRecord
  2
Defpoints
 70
0
 62
7
  6
Continuous
290
0
370
-3
390
13
  0
LAYER
  5
2F
330
1
100
AcDbSymbolTableRecord
100
AcDbLayerTableRecord
  2
none
 70
0
 62
7
  6
Continuous
370
-3
390
13
  0
LAYER
  5
30
330
1
100
AcDbSymbolTableRecord
100
AcDbLayerTableRecord
  2
CycloneBody
 70
0
 62
7
  6
Continuous
370
-3
390
13
  0
LAYER
  5
148
330
1
100
AcDbSymbolTableRecord
100
AcDbLayerTableRecord
  2
DIM_TEXT
 70
0
 62
3
  6
Continuous
370
-3
390
13
  0
LAYER
  5
149
330
1
100
AcDbSymbolTableRecord
100
AcDbLayerTableRecord
  2
DIM_NATIVE
 70
0
 62
3
  6
Continuous
370
-3
390
13
  0
ENDTAB
  0
TABLE
  2
STYLE
  5
5
330
0
100
AcDbSymbolTable
 70
1
  0
STYLE
  5
29
330
5
100
AcDbSymbolTableRecord
100
AcDbTextStyleTableRecord
  2
Standard
 70
0
 40
0.0
 41
1.0
 50
0.0
 71
0
 42
2.5
  3
txt
  4

  0
ENDTAB
  0
TABLE
  2
VIEW
  5
7
330
0
100
AcDbSymbolTable
 70
0
  0
ENDTAB
  0
TABLE
  2
UCS
  5
6
330
0
100
AcDbSymbolTable
 70
0
  0
ENDTAB
  0
TABLE
  2
APPID
  5
3
330
0
100
AcDbSymbolTable
 70
3
  0
APPID
  5
2A
330
3
100
AcDbSymbolTableRecord
100
AcDbRegAppTableRecord
  2
ACAD
 70
0
  0
APPID
  5
145
330
3
100
AcDbSymbolTableRecord
100
AcDbRegAppTableRecord
  2
HATCHBACKGROUNDCOLOR
 70
0
  0
APPID
  5
146
330
3
100
AcDbSymbolTableRecord
100
AcDbRegAppTableRecord
  2
EZDXF
 70
0
  0
ENDTAB
  0
TABLE
  2
DIMSTYLE
  5
4
330
0
100
AcDbSymbolTable
 70
1
100
AcDbDimStyleTable
  0
DIMSTYLE
105
2B
330
4
100
AcDbSymbolTableRecord
100
AcDbDimStyleTableRecord
  2
Standard
 70
0
  3

  4

 40
1.0
 41
2.5
 42
0.625
 43
3.75
 44
1.25
 45
0.0
 46
0.0
 47
0.0
 48
0.0
140
2.5
141
2.5
142
0.0
143
0.03937007874
144
1.0
145
0.0
146
1.0
147
0.625
148
0.0
 71
0
 72
0
 73
0
 74
0
 75
0
 76
0
 77
1
 78
8
 79
3
170
0
171
3
172
1
173
0
174
0
175
0
176
0
177
0
178
0
179
2
271
2
272
2
273
2
274
3
275
0
276
0
277
2
278
44
279
0
280
0
281
0
282
0
283
0
284
8
285
0
286
0
288
0
289
3
371
-2
372
-2
  0
ENDTAB
  0
TABLE
  2
BLOCK_RECORD
  5
9
330
0
100
AcDbSymbolTable
 70
11
  0
BLOCK_RECORD
  5
17
330
9
100
AcDbSymbolTableRecord
100
AcDbBlockTableRecord
  2
*Model_Space
340
1A
  0
BLOCK_RECORD
  5
1B
330
9
100
AcDbSymbolTableRecord
100
AcDbBlockTableRecord
  2
*Paper_Space
340
1E
  0
BLOCK_RECORD
  5
14B
330
9
100
AcDbSymbolTableRecord
100
AcDbBlockTableRecord
  2
*D1
340
0
  0
BLOCK_RECORD
  5
150
330
9
100
AcDbSymbolTableRecord
100
AcDbBlockTableRecord
  2
_CLOSEDFILLED
340
0
  0
BLOCK_RECORD
  5
166
330
9
100
AcDbSymbolTableRecord
100
AcDbBlockTableRecord
  2
*D2
340
0
  0
BLOCK_RECORD
  5
17D
330
9
100
AcDbSymbolTableRecord
100
AcDbBlockTableRecord
  2
*D3
340
0
  0
BLOCK_RECORD
  5
194
330
9
100
AcDbSymbolTableRecord
100
AcDbBlockTableRecord
  2
*D4
340
0
  0
BLOCK_RECORD
  5
1AB
330
9
100
AcDbSymbolTableRecord
100
AcDbBlockTableRecord
  2
*D5
340
0
  0
BLOCK_RECORD
  5
1C2
330
9
100
AcDbSymbolTableRecord
100
AcDbBlockTableRecord
  2
*D6
340
0
  0
BLOCK_RECORD
  5
1D9
330
9
100
AcDbSymbolTableRecord
100
AcDbBlockTableRecord
  2
*D7
340
0
  0
BLOCK_RECORD
  5
1F0
330
9
100
AcDbSymbolTableRecord
100
AcDbBlockTableRecord
  2
*D8
340
0
  0
ENDTAB
  0
ENDSEC
  0
SECTION
  2
BLOCKS
  0
BLOCK
  5
18
330
17
100
AcDbEntity
  8
0
100
AcDbBlockBegin
  2
*Model_Space
 70
0
 10
0.0
 20
0.0
 30
0.0
  3
*Model_Space
  1

  0
ENDBLK
  5
19
330
17
100
AcDbEntity
  8
0
100
AcDbBlockEnd
  0
BLOCK
  5
1C
330
1B
100
AcDbEntity
  8
0
100
AcDbBlockBegin
  2
*Paper_Space
 70
0
 10
0.0
 20
0.0
 30
0.0
  3
*Paper_Space
  1

  0
ENDBLK
  5
1D
330
1B
100
AcDbEntity
  8
0
100
AcDbBlockEnd
  0
BLOCK
  5
14C
330
14B
100
AcDbEntity
  8
0
100
AcDbBlockBegin
  2
*D1
 70
1
 10
0.0
 20
0.0
 30
0.0
  3
*D1
  1

  0
LINE
  5
14E
330
14B
100
AcDbEntity
  8
0
 62
3
100
AcDbLine
 10
-150.0
 20
-5.0
 30
0.0
 11
-150.0
 21
-708.0
 31
0.0
  0
LINE
  5
14F
330
14B
100
AcDbEntity
  8
0
 62
3
100
AcDbLine
 10
150.0
 20
-5.0
 30
0.0
 11
150.0
 21
-708.0
 31
0.0
  0
INSERT
  5
154
330
14B
100
AcDbEntity
  8
DIM_NATIVE
 62
3
100
AcDbBlockReference
  2
_CLOSEDFILLED
 10
-150.0
 20
-700.0
 30
0.0
 41
10.0
 42
10.0
 50
180.0
  0
INSERT
  5
156
330
14B
100
AcDbEntity
  8
DIM_NATIVE
 62
3
100
AcDbBlockReference
  2
_CLOSEDFILLED
 10
150.0
 20
-700.0
 30
0.0
 41
10.0
 42
10.0
  0
LINE
  5
158
330
14B
100
AcDbEntity
  8
0
 62
3
100
AcDbLine
 10
-140.0
 20
-700.0
 30
0.0
 11
140.0
 21
-700.0
 31
0.0
  0
MTEXT
  5
159
330
14B
100
AcDbEntity
  8
DIM_NATIVE
 62
3
100
AcDbMText
 10
0.0
 20
-689.375
 30
0.0
 40
20.0
 71
5
  1
300
  0
POINT
  5
15A
330
14B
100
AcDbEntity
  8
Defpoints
100
AcDbPoint
 10
-150.0
 20
-700.0
 30
0.0
  0
POINT
  5
15B
330
14B
100
AcDbEntity
  8
Defpoints
100
AcDbPoint
 10
-150.0
 20
0.0
 30
0.0
  0
POINT
  5
15C
330
14B
100
AcDbEntity
  8
Defpoints
100
AcDbPoint
 10
150.0
 20
0.0
 30
0.0
  0
ENDBLK
  5
14D
330
14B
100
AcDbEntity
  8
0
100
AcDbBlockEnd
  0
BLOCK
  5
151
330
150
100
AcDbEntity
  8
0
100
AcDbBlockBegin
  2
_CLOSEDFILLED
 70
0
 10
0.0
 20
0.0
 30
0.0
  3
_CLOSEDFILLED
  1

  0
SOLID
  5
153
330
150
100
AcDbEntity
  8
0
  6
BYBLOCK
 62
0
100
AcDbTrace
 10
-1.0
 20
0.16439898372402537
 30
0.0
 11
0.0
 21
0.0
 31
0.0
 12
-1.0
 22
-0.16439898372402537
 32
0.0
 13
-1.0
 23
-0.16439898372402537
 33
0.0
  0
ENDBLK
  5
152
330
150
100
AcDbEntity
  8
0
100
AcDbBlockEnd
  0
BLOCK
  5
167
330
166
100
AcDbEntity
  8
0
100
AcDbBlockBegin
  2
*D2
 70
1
 10
0.0
 20
0.0
 30
0.0
  3
*D2
  1

  0
LINE
  5
169
330
166
100
AcDbEntity
  8
0
 62
3
100
AcDbLine
 10
-50.0
 20
-605.0
 30
0.0
 11
-50.0
 21
-758.0
 31
0.0
  0
LINE
  5
16A
330
166
100
AcDbEntity
  8
0
 62
3
100
AcDbLine
 10
50.0
 20
-605.0
 30
0.0
 11
50.0
 21
-758.0
 31
0.0
  0
INSERT
  5
16B
330
166
100
AcDbEntity
  8
DIM_NATIVE
 62
3
100
AcDbBlockReference
  2
_CLOSEDFILLED
 10
-50.0
 20
-750.0
 30
0.0
 41
10.0
 42
10.0
 50
180.0
  0
INSERT
  5
16D
330
166
100
AcDbEntity
  8
DIM_NATIVE
 62
3
100
AcDbBlockReference
  2
_CLOSEDFILLED
 10
50.0
 20
-750.0
 30
0.0
 41
10.0
 42
10.0
  0
LINE
  5
16F
330
166
100
AcDbEntity
  8
0
 62
3
100
AcDbLine
 10
-40.0
 20
-750.0
 30
0.0
 11
40.0
 21
-750.0
 31
0.0
  0
MTEXT
  5
170
330
166
100
AcDbEntity
  8
DIM_NATIVE
 62
3
100
AcDbMText
 10
0.0
 20
-739.375
 30
0.0
 40
20.0
 71
5
  1
100
  0
POINT
  5
171
330
166
100
AcDbEntity
  8
Defpoints
100
AcDbPoint
 10
-50.0
 20
-750.0
 30
0.0
  0
POINT
  5
172
330
166
100
AcDbEntity
  8
Defpoints
100
AcDbPoint
 10
-50.0
 20
-600.0
 30
0.0
  0
POINT
  5
173
330
166
100
AcDbEntity
  8
Defpoints
100
AcDbPoint
 10
50.0
 20
-600.0
 30
0.0
  0
ENDBLK
  5
168
330
166
100
AcDbEntity
  8
0
100
AcDbBlockEnd
  0
BLOCK
  5
17E
330
17D
100
AcDbEntity
  8
0
100
AcDbBlockBegin
  2
*D3
 70
1
 10
0.0
 20
0.0
 30
0.0
  3
*D3
  1

  0
LINE
  5
180
330
17D
100
AcDbEntity
  8
0
 62
3
100
AcDbLine
 10
155.0
 20
0.0
 30
0.0
 11
238.0
 21
0.0
 31
0.0
  0
LINE
  5
181
330
17D
100
AcDbEntity
  8
0
 62
3
100
AcDbLine
 10
155.0
 20
450.0
 30
0.0
 11
238.0
 21
450.0
 31
0.0
  0
INSERT
  5
182
330
17D
100
AcDbEntity
  8
DIM_NATIVE
 62
3
100
AcDbBlockReference
  2
_CLOSEDFILLED
 10
230.0
 20
0.0
 30
0.0
 41
10.0
 42
10.0
 50
270.0
  0
INSERT
  5
184
330
17D
100
AcDbEntity
  8
DIM_NATIVE
 62
3
100
AcDbBlockReference
  2
_CLOSEDFILLED
 10
230.0
 20
450.0
 30
0.0
 41
10.0
 42
10.0
 50
90.0
  0
LINE
  5
186
330
17D
100
AcDbEntity
  8
0
 62
3
100
AcDbLine
 10
230.0
 20
10.0
 30
0.0
 11
230.0
 21
440.0
 31
0.0
  0
MTEXT
  5
187
330
17D
100
AcDbEntity
  8
DIM_NATIVE
 62
3
100
AcDbMText
 10
219.375
 20
225.0
 30
0.0
 40
20.0
 71
5
  1
450
 50
90.0
  0
POINT
  5
188
330
17D
100
AcDbEntity
  8
Defpoints
100
AcDbPoint
 10
230.0
 20
0.0
 30
0.0
  0
POINT
  5
189
330
17D
100
AcDbEntity
  8
Defpoints
100
AcDbPoint
 10
150.0
 20
0.0
 30
0.0
  0
POINT
  5
18A
330
17D
100
AcDbEntity
  8
Defpoints
100
AcDbPoint
 10
150.0
 20
450.0
 30
0.0
  0
ENDBLK
  5
17F
330
17D
100
AcDbEntity
  8
0
100
AcDbBlockEnd
  0
BLOCK
  5
195
330
194
100
AcDbEntity
  8
0
100
AcDbBlockBegin
  2
*D4
 70
1
 10
0.0
 20
0.0
 30
0.0
  3
*D4
  1

  0
LINE
  5
197
330
194
100
AcDbEntity
  8
0
 62
3
100
AcDbLine
 10
155.0
 20
0.0
 30
0.0
 11
238.0
 21
0.0
 31
0.0
  0
LINE
  5
198
330
194
100
AcDbEntity
  8
0
 62
3
100
AcDbLine
 10
155.0
 20
-600.0
 30
0.0
 11
238.0
 21
-600.0
 31
0.0
  0
INSERT
  5
199
330
194
100
AcDbEntity
  8
DIM_NATIVE
 62
3
100
AcDbBlockReference
  2
_CLOSEDFILLED
 10
230.0
 20
0.0
 30
0.0
 41
10.0
 42
10.0
 50
270.0
  0
INSERT
  5
19B
330
194
100
AcDbEntity
  8
DIM_NATIVE
 62
3
100
AcDbBlockReference
  2
_CLOSEDFILLED
 10
230.0
 20
-600.0
 30
0.0
 41
10.0
 42
10.0
 50
90.0
  0
LINE
  5
19D
330
194
100
AcDbEntity
  8
0
 62
3
100
AcDbLine
 10
230.0
 20
10.0
 30
0.0
 11
230.0
 21
-610.0
 31
0.0
  0
MTEXT
  5
19E
330
194
100
AcDbEntity
  8
DIM_NATIVE
 62
3
100
AcDbMText
 10
240.625
 20
-300.0
 30
0.0
 40
20.0
 71
5
  1
600
 50
90.0
  0
POINT
  5
19F
330
194
100
AcDbEntity
  8
Defpoints
100
AcDbPoint
 10
230.0
 20
0.0
 30
0.0
  0
POINT
  5
1A0
330
194
100
AcDbEntity
  8
Defpoints
100
AcDbPoint
 10
150.0
 20
0.0
 30
0.0
  0
POINT
  5
1A1
330
194
100
AcDbEntity
  8
Defpoints
100
AcDbPoint
 10
150.0
 20
-600.0
 30
0.0
  0
ENDBLK
  5
196
330
194
100
AcDbEntity
  8
0
100
AcDbBlockEnd
  0
BLOCK
  5
1AC
330
1AB
100
AcDbEntity
  8
0
100
AcDbBlockBegin
  2
*D5
 70
1
 10
0.0
 20
0.0
 30
0.0
  3
*D5
  1

  0
LINE
  5
1AE
330
1AB
100
AcDbEntity
  8
0
 62
3
100
AcDbLine
 10
155.0
 20
270.0
 30
0.0
 11
288.0
 21
270.0
 31
0.0
  0
LINE
  5
1AF
330
1AB
100
AcDbEntity
  8
0
 62
3
100
AcDbLine
 10
155.0
 20
450.0
 30
0.0
 11
288.0
 21
450.0
 31
0.0
  0
INSERT
  5
1B0
330
1AB
100
AcDbEntity
  8
DIM_NATIVE
 62
3
100
AcDbBlockReference
  2
_CLOSEDFILLED
 10
280.0
 20
270.0
 30
0.0
 41
10.0
 42
10.0
 50
270.0
  0
INSERT
  5
1B2
330
1AB
100
AcDbEntity
  8
DIM_NATIVE
 62
3
100
AcDbBlockReference
  2
_CLOSEDFILLED
 10
280.0
 20
450.0
 30
0.0
 41
10.0
 42
10.0
 50
90.0
  0
LINE
  5
1B4
330
1AB
100
AcDbEntity
  8
0
 62
3
100
AcDbLine
 10
280.0
 20
280.0
 30
0.0
 11
280.0
 21
440.0
 31
0.0
  0
MTEXT
  5
1B5
330
1AB
100
AcDbEntity
  8
DIM_NATIVE
 62
3
100
AcDbMText
 10
269.375
 20
360.0
 30
0.0
 40
20.0
 71
5
  1
180
 50
90.0
  0
POINT
  5
1B6
330
1AB
100
AcDbEntity
  8
Defpoints
100
AcDbPoint
 10
280.0
 20
270.0
 30
0.0
  0
POINT
  5
1B7
330
1AB
100
AcDbEntity
  8
Defpoints
100
AcDbPoint
 10
150.0
 20
270.0
 30
0.0
  0
POINT
  5
1B8
330
1AB
100
AcDbEntity
  8
Defpoints
100
AcDbPoint
 10
150.0
 20
450.0
 30
0.0
  0
ENDBLK
  5
1AD
330
1AB
100
AcDbEntity
  8
0
100
AcDbBlockEnd
  0
BLOCK
  5
1C3
330
1C2
100
AcDbEntity
  8
0
100
AcDbBlockBegin
  2
*D6
 70
1
 10
0.0
 20
0.0
 30
0.0
  3
*D6
  1

  0
LINE
  5
1C5
330
1C2
100
AcDbEntity
  8
0
 62
3
100
AcDbLine
 10
155.0
 20
280.0
 30
0.0
 11
338.0
 21
280.0
 31
0.0
  0
LINE
  5
1C6
330
1C2
100
AcDbEntity
  8
0
 62
3
100
AcDbLine
 10
155.0
 20
430.0
 30
0.0
 11
338.0
 21
430.0
 31
0.0
  0
INSERT
  5
1C7
330
1C2
100
AcDbEntity
  8
DIM_NATIVE
 62
3
100
AcDbBlockReference
  2
_CLOSEDFILLED
 10
330.0
 20
280.0
 30
0.0
 41
10.0
 42
10.0
 50
270.0
  0
INSERT
  5
1C9
330
1C2
100
AcDbEntity
  8
DIM_NATIVE
 62
3
100
AcDbBlockReference
  2
_CLOSEDFILLED
 10
330.0
 20
430.0
 30
0.0
 41
10.0
 42
10.0
 50
90.0
  0
LINE
  5
1CB
330
1C2
100
AcDbEntity
  8
0
 62
3
100
AcDbLine
 10
330.0
 20
290.0
 30
0.0
 11
330.0
 21
420.0
 31
0.0
  0
MTEXT
  5
1CC
330
1C2
100
AcDbEntity
  8
DIM_NATIVE
 62
3
100
AcDbMText
 10
321.875
 20
355.0
 30
0.0
 40
15.0
 71
5
  1
150
 50
90.0
  0
POINT
  5
1CD
330
1C2
100
AcDbEntity
  8
Defpoints
100
AcDbPoint
 10
330.0
 20
280.0
 30
0.0
  0
POINT
  5
1CE
330
1C2
100
AcDbEntity
  8
Defpoints
100
AcDbPoint
 10
150.0
 20
280.0
 30
0.0
  0
POINT
  5
1CF
330
1C2
100
AcDbEntity
  8
Defpoints
100
AcDbPoint
 10
150.0
 20
430.0
 30
0.0
  0
ENDBLK
  5
1C4
330
1C2
100
AcDbEntity
  8
0
100
AcDbBlockEnd
  0
BLOCK
  5
1DA
330
1D9
100
AcDbEntity
  8
0
100
AcDbBlockBegin
  2
*D7
 70
1
 10
0.0
 20
0.0
 30
0.0
  3
*D7
  1

  0
LINE
  5
1DC
330
1D9
100
AcDbEntity
  8
0
 62
3
100
AcDbLine
 10
90.0
 20
255.0
 30
0.0
 11
90.0
 21
212.0
 31
0.0
  0
LINE
  5
1DD
330
1D9
100
AcDbEntity
  8
0
 62
3
100
AcDbLine
 10
150.0
 20
255.0
 30
0.0
 11
150.0
 21
212.0
 31
0.0
  0
INSERT
  5
1DE
330
1D9
100
AcDbEntity
  8
DIM_NATIVE
 62
3
100
AcDbBlockReference
  2
_CLOSEDFILLED
 10
90.0
 20
220.0
 30
0.0
 41
10.0
 42
10.0
 50
180.0
  0
INSERT
  5
1E0
330
1D9
100
AcDbEntity
  8
DIM_NATIVE
 62
3
100
AcDbBlockReference
  2
_CLOSEDFILLED
 10
150.0
 20
220.0
 30
0.0
 41
10.0
 42
10.0
  0
LINE
  5
1E2
330
1D9
100
AcDbEntity
  8
0
 62
3
100
AcDbLine
 10
100.0
 20
220.0
 30
0.0
 11
140.0
 21
220.0
 31
0.0
  0
MTEXT
  5
1E3
330
1D9
100
AcDbEntity
  8
DIM_NATIVE
 62
3
100
AcDbMText
 10
120.0
 20
228.125
 30
0.0
 40
15.0
 71
5
  1
60
  0
POINT
  5
1E4
330
1D9
100
AcDbEntity
  8
Defpoints
100
AcDbPoint
 10
90.0
 20
220.0
 30
0.0
  0
POINT
  5
1E5
330
1D9
100
AcDbEntity
  8
Defpoints
100
AcDbPoint
 10
90.0
 20
260.0
 30
0.0
  0
POINT
  5
1E6
330
1D9
100
AcDbEntity
  8
Defpoints
100
AcDbPoint
 10
150.0
 20
260.0
 30
0.0
  0
ENDBLK
  5
1DB
330
1D9
100
AcDbEntity
  8
0
100
AcDbBlockEnd
  0
BLOCK
  5
1F1
330
1F0
100
AcDbEntity
  8
0
100
AcDbBlockBegin
  2
*D8
 70
1
 10
0.0
 20
0.0
 30
0.0
  3
*D8
  1

  0
LINE
  5
1F3
330
1F0
100
AcDbEntity
  8
0
 62
3
100
AcDbLine
 10
-75.0
 20
505.0
 30
0.0
 11
-75.0
 21
538.0
 31
0.0
  0
LINE
  5
1F4
330
1F0
100
AcDbEntity
  8
0
 62
3
100
AcDbLine
 10
75.0
 20
505.0
 30
0.0
 11
75.0
 21
538.0
 31
0.0
  0
INSERT
  5
1F5
330
1F0
100
AcDbEntity
  8
DIM_NATIVE
 62
3
100
AcDbBlockReference
  2
_CLOSEDFILLED
 10
-75.0
 20
530.0
 30
0.0
 41
10.0
 42
10.0
 50
180.0
  0
INSERT
  5
1F7
330
1F0
100
AcDbEntity
  8
DIM_NATIVE
 62
3
100
AcDbBlockReference
  2
_CLOSEDFILLED
 10
75.0
 20
530.0
 30
0.0
 41
10.0
 42
10.0
  0
LINE
  5
1F9
330
1F0
100
AcDbEntity
  8
0
 62
3
100
AcDbLine
 10
-65.0
 20
530.0
 30
0.0
 11
65.0
 21
530.0
 31
0.0
  0
MTEXT
  5
1FA
330
1F0
100
AcDbEntity
  8
DIM_NATIVE
 62
3
100
AcDbMText
 10
0.0
 20
540.625
 30
0.0
 40
20.0
 71
5
  1
150
  0
POINT
  5
1FB
330
1F0
100
AcDbEntity
  8
Defpoints
100
AcDbPoint
 10
-75.0
 20
530.0
 30
0.0
  0
POINT
  5
1FC
330
1F0
100
AcDbEntity
  8
Defpoints
100
AcDbPoint
 10
-75.0
 20
500.0
 30
0.0
  0
POINT
  5
1FD
330
1F0
100
AcDbEntity
  8
Defpoints
100
AcDbPoint
 10
75.0
 20
500.0
 30
0.0
  0
ENDBLK
  5
1F2
330
1F0
100
AcDbEntity
  8
0
100
AcDbBlockEnd
  0
ENDSEC
  0
SECTION
  2
ENTITIES
  0
LWPOLYLINE
  5
31
330
17
100
AcDbEntity
  8
CycloneBody
100
AcDbPolyline
 90
33
 70
0
 10
-150.0
 20
0.0
 10
-149.2255669095112
 20
0.0
 10
-146.9525331288418
 20
0.0
 10
-143.25629689418733
 20
0.0
 10
-138.2122564417433
 20
0.0
 10
-131.89581000770525
 20
0.0
 10
-124.38235582826869
 20
0.0
 10
-115.74729213962914
 20
0.0
 10
-106.06601717798215
 20
0.0
 10
-95.4139291795232
 20
0.0
 10
-83.86642638044782
 20
0.0
 10
-71.49890701695156
 20
0.0
 10
-58.38676932522992
 20
0.0
 10
-44.60541154147842
 20
0.0
 10
-30.23023190189258
 20
0.0
 10
-15.33662864266796
 20
0.0
 10
-2.7554552980815446e-14
 20
0.0
 10
15.336628642667897
 20
0.0
 10
30.230231901892534
 20
0.0
 10
44.60541154147836
 20
0.0
 10
58.38676932522986
 20
0.0
 10
71.4989070169515
 20
0.0
 10
83.86642638044776
 20
0.0
 10
95.41392917952314
 20
0.0
 10
106.06601717798209
 20
0.0
 10
115.74729213962911
 20
0.0
 10
124.38235582826866
 20
0.0
 10
131.89581000770522
 20
0.0
 10
138.21225644174328
 20
0.0
 10
143.2562968941873
 20
0.0
 10
146.9525331288418
 20
0.0
 10
149.2255669095112
 20
0.0
 10
150.0
 20
0.0
  0
LWPOLYLINE
  5
32
330
17
100
AcDbEntity
  8
CycloneBody
100
AcDbPolyline
 90
33
 70
0
 10
150.0
 20
0.0
 10
149.2255669095112
 20
0.0
 10
146.9525331288418
 20
0.0
 10
143.25629689418733
 20
0.0
 10
138.2122564417433
 20
0.0
 10
131.89581000770525
 20
0.0
 10
124.38235582826869
 20
0.0
 10
115.74729213962914
 20
0.0
 10
106.06601717798213
 20
0.0
 10
95.41392917952318
 20
0.0
 10
83.86642638044782
 20
0.0
 10
71.49890701695155
 20
0.0
 10
58.38676932522989
 20
0.0
 10
44.605411541478404
 20
0.0
 10
30.230231901892566
 20
0.0
 10
15.336628642667932
 20
0.0
 10
9.184850993605149e-15
 20
0.0
 10
-15.336628642667918
 20
0.0
 10
-30.230231901892555
 20
0.0
 10
-44.60541154147839
 20
0.0
 10
-58.386769325229885
 20
0.0
 10
-71.49890701695152
 20
0.0
 10
-83.86642638044778
 20
0.0
 10
-95.41392917952315
 20
0.0
 10
-106.06601717798209
 20
0.0
 10
-115.74729213962911
 20
0.0
 10
-124.38235582826866
 20
0.0
 10
-131.89581000770522
 20
0.0
 10
-138.21225644174328
 20
0.0
 10
-143.2562968941873
 20
0.0
 10
-146.9525331288418
 20
0.0
 10
-149.2255669095112
 20
0.0
 10
-150.0
 20
0.0
  0
LWPOLYLINE
  5
33
330
17
100
AcDbEntity
  8
CycloneBody
100
AcDbPolyline
 90
2
 70
0
 10
150.0
 20
0.0
 10
150.0
 20
280.0
  0
LWPOLYLINE
  5
34
330
17
100
AcDbEntity
  8
CycloneBody
100
AcDbPolyline
 90
2
 70
0
 10
150.0
 20
280.0
 10
150.0
 20
430.0
  0
LWPOLYLINE
  5
35
330
17
100
AcDbEntity
  8
CycloneBody
100
AcDbPolyline
 90
2
 70
0
 10
150.0
 20
430.0
 10
150.0
 20
450.0
  0
LWPOLYLINE
  5
36
330
17
100
AcDbEntity
  8
CycloneBody
100
AcDbPolyline
 90
65
 70
1
 10
150.0
 20
450.0
 10
149.2255669095112
 20
450.0
 10
146.9525331288418
 20
450.0
 10
143.2562968941873
 20
450.0
 10
138.21225644174328
 20
450.0
 10
131.89581000770522
 20
450.0
 10
124.38235582826866
 20
450.0
 10
115.74729213962911
 20
450.0
 10
106.0660171779821
 20
450.0
 10
95.41392917952314
 20
450.0
 10
83.86642638044778
 20
450.0
 10
71.4989070169515
 20
450.0
 10
58.386769325229864
 20
450.0
 10
44.60541154147836
 20
450.0
 10
30.230231901892537
 20
450.0
 10
15.336628642667904
 20
450.0
 10
-2.7554552980815446e-14
 20
450.0
 10
-15.336628642667955
 20
450.0
 10
-30.230231901892594
 20
450.0
 10
-44.605411541478425
 20
450.0
 10
-58.38676932522992
 20
450.0
 10
-71.49890701695156
 20
450.0
 10
-83.86642638044782
 20
450.0
 10
-95.4139291795232
 20
450.0
 10
-106.06601717798213
 20
450.0
 10
-115.74729213962915
 20
450.0
 10
-124.38235582826869
 20
450.0
 10
-131.89581000770525
 20
450.0
 10
-138.21225644174328
 20
450.0
 10
-143.25629689418733
 20
450.0
 10
-146.9525331288418
 20
450.0
 10
-149.2255669095112
 20
450.0
 10
-150.0
 20
450.0
 10
-149.2255669095112
 20
450.0
 10
-146.9525331288418
 20
450.0
 10
-143.2562968941873
 20
450.0
 10
-138.21225644174328
 20
450.0
 10
-131.89581000770522
 20
450.0
 10
-124.38235582826866
 20
450.0
 10
-115.74729213962912
 20
450.0
 10
-106.0660171779821
 20
450.0
 10
-95.41392917952317
 20
450.0
 10
-83.86642638044779
 20
450.0
 10
-71.49890701695152
 20
450.0
 10
-58.38676932522989
 20
450.0
 10
-44.60541154147839
 20
450.0
 10
-30.230231901892566
 20
450.0
 10
-15.336628642667932
 20
450.0
 10
9.184850993605149e-15
 20
450.0
 10
15.336628642667936
 20
450.0
 10
30.230231901892576
 20
450.0
 10
44.605411541478404
 20
450.0
 10
58.3867693252299
 20
450.0
 10
71.49890701695155
 20
450.0
 10
83.86642638044782
 20
450.0
 10
95.41392917952318
 20
450.0
 10
106.06601717798215
 20
450.0
 10
115.74729213962915
 20
450.0
 10
124.3823558282687
 20
450.0
 10
131.89581000770525
 20
450.0
 10
138.2122564417433
 20
450.0
 10
143.25629689418733
 20
450.0
 10
146.9525331288418
 20
450.0
 10
149.2255669095112
 20
450.0
 10
150.0
 20
450.0
  0
LWPOLYLINE
  5
37
330
17
100
AcDbEntity
  8
CycloneBody
100
AcDbPolyline
 90
2
 70
0
 10
150.0
 20
430.0
 10
150.0
 20
450.0
  0
LWPOLYLINE
  5
38
330
17
100
AcDbEntity
  8
CycloneBody
100
AcDbPolyline
 90
9
 70
0
 10
90.00000000032668
 20
430.0
 10
103.42249771665406
 20
430.0
 10
115.30958848143038
 20
430.0
 10
125.58290466809284
 20
430.0
 10
134.16407865007866
 20
430.0
 10
140.97474280082508
 20
430.0
 10
145.93652949376929
 20
430.0
 10
148.9710711023485
 20
430.0
 10
150.0
 20
430.0
  0
LWPOLYLINE
  5
39
330
17
100
AcDbEntity
  8
CycloneBody
100
AcDbPolyline
 90
2
 70
0
 10
90.0
 20
280.0
 10
90.0
 20
430.0
  0
LWPOLYLINE
  5
3A
330
17
100
AcDbEntity
  8
CycloneBody
100
AcDbPolyline
 90
9
 70
0
 10
90.00000000032668
 20
280.0
 10
103.42249771665406
 20
280.0
 10
115.30958848143038
 20
280.0
 10
125.58290466809284
 20
280.0
 10
134.16407865007866
 20
280.0
 10
140.97474280082508
 20
280.0
 10
145.93652949376929
 20
280.0
 10
148.9710711023485
 20
280.0
 10
150.0
 20
280.0
  0
LWPOLYLINE
  5
3B
330
17
100
AcDbEntity
  8
CycloneBody
100
AcDbPolyline
 90
2
 70
0
 10
150.0
 20
0.0
 10
150.0
 20
280.0
  0
LWPOLYLINE
  5
3C
330
17
100
AcDbEntity
  8
CycloneBody
100
AcDbPolyline
 90
33
 70
0
 10
-150.0
 20
0.0
 10
-149.2255669095112
 20
0.0
 10
-146.9525331288418
 20
0.0
 10
-143.25629689418733
 20
0.0
 10
-138.2122564417433
 20
0.0
 10
-131.89581000770525
 20
0.0
 10
-124.38235582826869
 20
0.0
 10
-115.74729213962914
 20
0.0
 10
-106.06601717798215
 20
0.0
 10
-95.4139291795232
 20
0.0
 10
-83.86642638044782
 20
0.0
 10
-71.49890701695156
 20
0.0
 10
-58.38676932522992
 20
0.0
 10
-44.60541154147842
 20
0.0
 10
-30.23023190189258
 20
0.0
 10
-15.33662864266796
 20
0.0
 10
-2.7554552980815446e-14
 20
0.0
 10
15.336628642667897
 20
0.0
 10
30.230231901892534
 20
0.0
 10
44.60541154147836
 20
0.0
 10
58.38676932522986
 20
0.0
 10
71.4989070169515
 20
0.0
 10
83.86642638044776
 20
0.0
 10
95.41392917952314
 20
0.0
 10
106.06601717798209
 20
0.0
 10
115.74729213962911
 20
0.0
 10
124.38235582826866
 20
0.0
 10
131.89581000770522
 20
0.0
 10
138.21225644174328
 20
0.0
 10
143.2562968941873
 20
0.0
 10
146.9525331288418
 20
0.0
 10
149.2255669095112
 20
0.0
 10
150.0
 20
0.0
  0
LWPOLYLINE
  5
3D
330
17
100
AcDbEntity
  8
CycloneBody
100
AcDbPolyline
 90
33
 70
0
 10
150.0
 20
0.0
 10
149.2255669095112
 20
0.0
 10
146.9525331288418
 20
0.0
 10
143.25629689418733
 20
0.0
 10
138.2122564417433
 20
0.0
 10
131.89581000770525
 20
0.0
 10
124.38235582826869
 20
0.0
 10
115.74729213962914
 20
0.0
 10
106.06601717798213
 20
0.0
 10
95.41392917952318
 20
0.0
 10
83.86642638044782
 20
0.0
 10
71.49890701695155
 20
0.0
 10
58.38676932522989
 20
0.0
 10
44.605411541478404
 20
0.0
 10
30.230231901892566
 20
0.0
 10
15.336628642667932
 20
0.0
 10
9.184850993605149e-15
 20
0.0
 10
-15.336628642667918
 20
0.0
 10
-30.230231901892555
 20
0.0
 10
-44.60541154147839
 20
0.0
 10
-58.386769325229885
 20
0.0
 10
-71.49890701695152
 20
0.0
 10
-83.86642638044778
 20
0.0
 10
-95.41392917952315
 20
0.0
 10
-106.06601717798209
 20
0.0
 10
-115.74729213962911
 20
0.0
 10
-124.38235582826866
 20
0.0
 10
-131.89581000770522
 20
0.0
 10
-138.21225644174328
 20
0.0
 10
-143.2562968941873
 20
0.0
 10
-146.9525331288418
 20
0.0
 10
-149.2255669095112
 20
0.0
 10
-150.0
 20
0.0
  0
LWPOLYLINE
  5
3E
330
17
100
AcDbEntity
  8
CycloneBody
100
AcDbPolyline
 90
2
 70
0
 10
-150.0
 20
0.0
 10
-50.0
 20
-600.0
  0
LWPOLYLINE
  5
3F
330
17
100
AcDbEntity
  8
CycloneBody
100
AcDbPolyline
 90
17
 70
0
 10
50.0
 20
-600.0
 10
48.98417770961393
 20
-600.0
 10
46.07075214724777
 20
-600.0
 10
41.46078527608957
 20
-600.0
 10
35.35533905932738
 20
-600.0
 10
27.95547546014927
 20
-600.0
 10
19.4622564417433
 20
-600.0
 10
10.076743967297524
 20
-600.0
 10
3.061616997868383e-15
 20
-600.0
 10
-10.076743967297517
 20
-600.0
 10
-19.462256441743293
 20
-600.0
 10
-27.955475460149263
 20
-600.0
 10
-35.35533905932737
 20
-600.0
 10
-41.46078527608955
 20
-600.0
 10
-46.07075214724776
 20
-600.0
 10
-48.98417770961393
 20
-600.0
 10
-50.0
 20
-600.0
  0
LWPOLYLINE
  5
40
330
17
100
AcDbEntity
  8
CycloneBody
100
AcDbPolyline
 90
17
 70
0
 10
-50.0
 20
-600.0
 10
-48.98417770961393
 20
-600.0
 10
-46.07075214724777
 20
-600.0
 10
-41.46078527608957
 20
-600.0
 10
-35.35533905932738
 20
-600.0
 10
-27.955475460149273
 20
-600.0
 10
-19.462256441743307
 20
-600.0
 10
-10.076743967297531
 20
-600.0
 10
-9.184850993605149e-15
 20
-600.0
 10
10.076743967297512
 20
-600.0
 10
19.462256441743286
 20
-600.0
 10
27.955475460149255
 20
-600.0
 10
35.35533905932737
 20
-600.0
 10
41.46078527608955
 20
-600.0
 10
46.07075214724777
 20
-600.0
 10
48.98417770961393
 20
-600.0
 10
50.0
 20
-600.0
  0
LWPOLYLINE
  5
41
330
17
100
AcDbEntity
  8
CycloneBody
100
AcDbPolyline
 90
2
 70
0
 10
-150.0
 20
0.0
 10
-50.0
 20
-600.0
  0
LWPOLYLINE
  5
42
330
17
100
AcDbEntity
  8
CycloneBody
100
AcDbPolyline
 90
2
 70
0
 10
150.0
 20
430.0
 10
150.0
 20
280.0
  0
LWPOLYLINE
  5
43
330
17
100
AcDbEntity
  8
CycloneBody
100
AcDbPolyline
 90
2
 70
1
 10
150.0
 20
430.0
 10
150.0
 20
430.0
  0
LWPOLYLINE
  5
44
330
17
100
AcDbEntity
  8
CycloneBody
100
AcDbPolyline
 90
2
 70
0
 10
150.0
 20
280.0
 10
150.0
 20
430.0
  0
LWPOLYLINE
  5
45
330
17
100
AcDbEntity
  8
CycloneBody
100
AcDbPolyline
 90
2
 70
1
 10
150.0
 20
280.0
 10
150.0
 20
280.0
  0
LWPOLYLINE
  5
46
330
17
100
AcDbEntity
  8
CycloneBody
100
AcDbPolyline
 90
65
 70
1
 10
150.0
 20
450.0
 10
149.2255669095112
 20
450.0
 10
146.9525331288418
 20
450.0
 10
143.2562968941873
 20
450.0
 10
138.21225644174328
 20
450.0
 10
131.89581000770522
 20
450.0
 10
124.38235582826866
 20
450.0
 10
115.74729213962911
 20
450.0
 10
106.0660171779821
 20
450.0
 10
95.41392917952314
 20
450.0
 10
83.86642638044778
 20
450.0
 10
71.4989070169515
 20
450.0
 10
58.386769325229864
 20
450.0
 10
44.60541154147836
 20
450.0
 10
30.230231901892537
 20
450.0
 10
15.336628642667904
 20
450.0
 10
-2.7554552980815446e-14
 20
450.0
 10
-15.336628642667955
 20
450.0
 10
-30.230231901892594
 20
450.0
 10
-44.605411541478425
 20
450.0
 10
-58.38676932522992
 20
450.0
 10
-71.49890701695156
 20
450.0
 10
-83.86642638044782
 20
450.0
 10
-95.4139291795232
 20
450.0
 10
-106.06601717798213
 20
450.0
 10
-115.74729213962915
 20
450.0
 10
-124.38235582826869
 20
450.0
 10
-131.89581000770525
 20
450.0
 10
-138.21225644174328
 20
450.0
 10
-143.25629689418733
 20
450.0
 10
-146.9525331288418
 20
450.0
 10
-149.2255669095112
 20
450.0
 10
-150.0
 20
450.0
 10
-149.2255669095112
 20
450.0
 10
-146.9525331288418
 20
450.0
 10
-143.2562968941873
 20
450.0
 10
-138.21225644174328
 20
450.0
 10
-131.89581000770522
 20
450.0
 10
-124.38235582826866
 20
450.0
 10
-115.74729213962912
 20
450.0
 10
-106.0660171779821
 20
450.0
 10
-95.41392917952317
 20
450.0
 10
-83.86642638044779
 20
450.0
 10
-71.49890701695152
 20
450.0
 10
-58.38676932522989
 20
450.0
 10
-44.60541154147839
 20
450.0
 10
-30.230231901892566
 20
450.0
 10
-15.336628642667932
 20
450.0
 10
9.184850993605149e-15
 20
450.0
 10
15.336628642667936
 20
450.0
 10
30.230231901892576
 20
450.0
 10
44.605411541478404
 20
450.0
 10
58.3867693252299
 20
450.0
 10
71.49890701695155
 20
450.0
 10
83.86642638044782
 20
450.0
 10
95.41392917952318
 20
450.0
 10
106.06601717798215
 20
450.0
 10
115.74729213962915
 20
450.0
 10
124.3823558282687
 20
450.0
 10
131.89581000770525
 20
450.0
 10
138.2122564417433
 20
450.0
 10
143.25629689418733
 20
450.0
 10
146.9525331288418
 20
450.0
 10
149.2255669095112
 20
450.0
 10
150.0
 20
450.0
  0
LWPOLYLINE
  5
47
330
17
100
AcDbEntity
  8
CycloneBody
100
AcDbPolyline
 90
33
 70
1
 10
75.0
 20
450.0
 10
73.4762665644209
 20
450.0
 10
69.10612822087164
 20
450.0
 10
62.19117791413433
 20
450.0
 10
53.03300858899105
 20
450.0
 10
41.93321319022389
 20
450.0
 10
29.193384662614932
 20
450.0
 10
15.115115950946269
 20
450.0
 10
-1.3777276490407723e-14
 20
450.0
 10
-15.115115950946297
 20
450.0
 10
-29.19338466261496
 20
450.0
 10
-41.93321319022391
 20
450.0
 10
-53.033008588991066
 20
450.0
 10
-62.19117791413434
 20
450.0
 10
-69.10612822087164
 20
450.0
 10
-73.4762665644209
 20
450.0
 10
-75.0
 20
450.0
 10
-73.4762665644209
 20
450.0
 10
-69.10612822087164
 20
450.0
 10
-62.19117791413433
 20
450.0
 10
-53.03300858899105
 20
450.0
 10
-41.933213190223896
 20
450.0
 10
-29.193384662614946
 20
450.0
 10
-15.115115950946283
 20
450.0
 10
4.592425496802574e-15
 20
450.0
 10
15.115115950946288
 20
450.0
 10
29.19338466261495
 20
450.0
 10
41.93321319022391
 20
450.0
 10
53.03300858899107
 20
450.0
 10
62.19117791413435
 20
450.0
 10
69.10612822087165
 20
450.0
 10
73.4762665644209
 20
450.0
 10
75.0
 20
450.0
  0
LWPOLYLINE
  5
48
330
17
100
AcDbEntity
  8
CycloneBody
100
AcDbPolyline
 90
2
 70
1
 10
90.0
 20
430.0
 10
90.0
 20
430.0
  0
LWPOLYLINE
  5
49
330
17
100
AcDbEntity
  8
CycloneBody
100
AcDbPolyline
 90
9
 70
0
 10
90.00000000032668
 20
430.0
 10
103.42249771665406
 20
430.0
 10
115.30958848143038
 20
430.0
 10
125.58290466809284
 20
430.0
 10
134.16407865007866
 20
430.0
 10
140.97474280082508
 20
430.0
 10
145.93652949376929
 20
430.0
 10
148.9710711023485
 20
430.0
 10
150.0
 20
430.0
  0
LWPOLYLINE
  5
4A
330
17
100
AcDbEntity
  8
CycloneBody
100
AcDbPolyline
 90
2
 70
1
 10
150.0
 20
430.0
 10
150.0
 20
430.0
  0
LWPOLYLINE
  5
4B
330
17
100
AcDbEntity
  8
CycloneBody
100
AcDbPolyline
 90
2
 70
0
 10
90.0
 20
430.0
 10
150.0
 20
430.0
  0
LWPOLYLINE
  5
4C
330
17
100
AcDbEntity
  8
CycloneBody
100
AcDbPolyline
 90
2
 70
1
 10
90.0
 20
430.0
 10
90.0
 20
430.0
  0
LWPOLYLINE
  5
4D
330
17
100
AcDbEntity
  8
CycloneBody
100
AcDbPolyline
 90
2
 70
0
 10
90.0
 20
280.0
 10
90.0
 20
430.0
  0
LWPOLYLINE
  5
4E
330
17
100
AcDbEntity
  8
CycloneBody
100
AcDbPolyline
 90
2
 70
1
 10
90.0
 20
280.0
 10
90.0
 20
280.0
  0
LWPOLYLINE
  5
4F
330
17
100
AcDbEntity
  8
CycloneBody
100
AcDbPolyline
 90
2
 70
0
 10
90.0
 20
430.0
 10
90.0
 20
280.0
  0
LWPOLYLINE
  5
50
330
17
100
AcDbEntity
  8
CycloneBody
100
AcDbPolyline
 90
2
 70
1
 10
90.0
 20
280.0
 10
90.0
 20
280.0
  0
LWPOLYLINE
  5
51
330
17
100
AcDbEntity
  8
CycloneBody
100
AcDbPolyline
 90
9
 70
0
 10
90.00000000032668
 20
280.0
 10
103.42249771665406
 20
280.0
 10
115.30958848143038
 20
280.0
 10
125.58290466809284
 20
280.0
 10
134.16407865007866
 20
280.0
 10
140.97474280082508
 20
280.0
 10
145.93652949376929
 20
280.0
 10
148.9710711023485
 20
280.0
 10
150.0
 20
280.0
  0
LWPOLYLINE
  5
52
330
17
100
AcDbEntity
  8
CycloneBody
100
AcDbPolyline
 90
2
 70
1
 10
150.0
 20
280.0
 10
150.0
 20
280.0
  0
LWPOLYLINE
  5
53
330
17
100
AcDbEntity
  8
CycloneBody
100
AcDbPolyline
 90
2
 70
0
 10
90.0
 20
280.0
 10
150.0
 20
280.0
  0
LWPOLYLINE
  5
54
330
17
100
AcDbEntity
  8
CycloneBody
100
AcDbPolyline
 90
2
 70
0
 10
50.0
 20
-695.0
 10
50.0
 20
-600.0
  0
LWPOLYLINE
  5
55
330
17
100
AcDbEntity
  8
CycloneBody
100
AcDbPolyline
 90
33
 70
1
 10
50.0
 20
-695.0
 10
48.98417770961393
 20
-695.0
 10
46.07075214724776
 20
-695.0
 10
41.46078527608955
 20
-695.0
 10
35.35533905932736
 20
-695.0
 10
27.95547546014926
 20
-695.0
 10
19.462256441743286
 20
-695.0
 10
10.07674396729751
 20
-695.0
 10
-9.184850993605149e-15
 20
-695.0
 10
-10.07674396729753
 20
-695.0
 10
-19.462256441743307
 20
-695.0
 10
-27.955475460149277
 20
-695.0
 10
-35.35533905932738
 20
-695.0
 10
-41.46078527608957
 20
-695.0
 10
-46.07075214724777
 20
-695.0
 10
-48.98417770961393
 20
-695.0
 10
-50.0
 20
-695.0
 10
-48.98417770961393
 20
-695.0
 10
-46.07075214724776
 20
-695.0
 10
-41.46078527608955
 20
-695.0
 10
-35.35533905932737
 20
-695.0
 10
-27.955475460149266
 20
-695.0
 10
-19.462256441743293
 20
-695.0
 10
-10.076743967297517
 20
-695.0
 10
3.061616997868383e-15
 20
-695.0
 10
10.076743967297524
 20
-695.0
 10
19.462256441743303
 20
-695.0
 10
27.95547546014927
 20
-695.0
 10
35.35533905932738
 20
-695.0
 10
41.46078527608956
 20
-695.0
 10
46.07075214724777
 20
-695.0
 10
48.98417770961393
 20
-695.0
 10
50.0
 20
-695.0
  0
LWPOLYLINE
  5
56
330
17
100
AcDbEntity
  8
CycloneBody
100
AcDbPolyline
 90
2
 70
0
 10
50.0
 20
-695.0
 10
50.0
 20
-600.0
  0
LWPOLYLINE
  5
57
330
17
100
AcDbEntity
  8
CycloneBody
100
AcDbPolyline
 90
17
 70
0
 10
50.0
 20
-600.0
 10
48.98417770961393
 20
-600.0
 10
46.07075214724777
 20
-600.0
 10
41.46078527608957
 20
-600.0
 10
35.35533905932738
 20
-600.0
 10
27.95547546014927
 20
-600.0
 10
19.4622564417433
 20
-600.0
 10
10.076743967297524
 20
-600.0
 10
3.061616997868383e-15
 20
-600.0
 10
-10.076743967297517
 20
-600.0
 10
-19.462256441743293
 20
-600.0
 10
-27.955475460149263
 20
-600.0
 10
-35.35533905932737
 20
-600.0
 10
-41.46078527608955
 20
-600.0
 10
-46.07075214724776
 20
-600.0
 10
-48.98417770961393
 20
-600.0
 10
-50.0
 20
-600.0
  0
LWPOLYLINE
  5
58
330
17
100
AcDbEntity
  8
CycloneBody
100
AcDbPolyline
 90
17
 70
0
 10
-50.0
 20
-600.0
 10
-48.98417770961393
 20
-600.0
 10
-46.07075214724777
 20
-600.0
 10
-41.46078527608957
 20
-600.0
 10
-35.35533905932738
 20
-600.0
 10
-27.955475460149273
 20
-600.0
 10
-19.462256441743307
 20
-600.0
 10
-10.076743967297531
 20
-600.0
 10
-9.184850993605149e-15
 20
-600.0
 10
10.076743967297512
 20
-600.0
 10
19.462256441743286
 20
-600.0
 10
27.955475460149255
 20
-600.0
 10
35.35533905932737
 20
-600.0
 10
41.46078527608955
 20
-600.0
 10
46.07075214724777
 20
-600.0
 10
48.98417770961393
 20
-600.0
 10
50.0
 20
-600.0
  0
LWPOLYLINE
  5
59
330
17
100
AcDbEntity
  8
CycloneBody
100
AcDbPolyline
 90
2
 70
0
 10
65.0
 20
255.0
 10
175.0
 20
255.0
  0
LWPOLYLINE
  5
5A
330
17
100
AcDbEntity
  8
CycloneBody
100
AcDbPolyline
 90
2
 70
0
 10
175.0
 20
255.0
 10
175.0
 20
455.0
  0
LWPOLYLINE
  5
5B
330
17
100
AcDbEntity
  8
CycloneBody
100
AcDbPolyline
 90
2
 70
0
 10
65.0
 20
255.0
 10
65.0
 20
455.0
  0
LWPOLYLINE
  5
5C
330
17
100
AcDbEntity
  8
CycloneBody
100
AcDbPolyline
 90
2
 70
0
 10
65.0
 20
455.0
 10
175.0
 20
455.0
  0
LWPOLYLINE
  5
5D
330
17
100
AcDbEntity
  8
CycloneBody
100
AcDbPolyline
 90
17
 70
1
 10
83.5
 20
267.5
 10
83.02849025766973
 20
267.5
 10
81.74264068711928
 20
267.5
 10
79.83547077300919
 20
267.5
 10
77.5
 20
267.5
 10
75.16452922699081
 20
267.5
 10
73.25735931288071
 20
267.5
 10
71.97150974233027
 20
267.5
 10
71.5
 20
267.5
 10
71.97150974233027
 20
267.5
 10
73.25735931288071
 20
267.5
 10
75.16452922699081
 20
267.5
 10
77.5
 20
267.5
 10
79.83547077300919
 20
267.5
 10
81.74264068711929
 20
267.5
 10
83.02849025766973
 20
267.5
 10
83.5
 20
267.5
  0
LWPOLYLINE
  5
5E
330
17
100
AcDbEntity
  8
CycloneBody
100
AcDbPolyline
 90
17
 70
1
 10
83.5
 20
442.5
 10
83.02849025766973
 20
442.5
 10
81.74264068711928
 20
442.5
 10
79.83547077300919
 20
442.5
 10
77.5
 20
442.5
 10
75.16452922699081
 20
442.5
 10
73.25735931288071
 20
442.5
 10
71.97150974233027
 20
442.5
 10
71.5
 20
442.5
 10
71.97150974233027
 20
442.5
 10
73.25735931288071
 20
442.5
 10
75.16452922699081
 20
442.5
 10
77.5
 20
442.5
 10
79.83547077300919
 20
442.5
 10
81.74264068711929
 20
442.5
 10
83.02849025766973
 20
442.5
 10
83.5
 20
442.5
  0
LWPOLYLINE
  5
5F
330
17
100
AcDbEntity
  8
CycloneBody
100
AcDbPolyline
 90
2
 70
0
 10
90.0
 20
430.0
 10
150.0
 20
430.0
  0
LWPOLYLINE
  5
60
330
17
100
AcDbEntity
  8
CycloneBody
100
AcDbPolyline
 90
2
 70
0
 10
90.0
 20
430.0
 10
90.0
 20
280.0
  0
LWPOLYLINE
  5
61
330
17
100
AcDbEntity
  8
CycloneBody
100
AcDbPolyline
 90
2
 70
0
 10
150.0
 20
430.0
 10
150.0
 20
280.0
  0
LWPOLYLINE
  5
62
330
17
100
AcDbEntity
  8
CycloneBody
100
AcDbPolyline
 90
2
 70
0
 10
90.0
 20
280.0
 10
150.0
 20
280.0
  0
LWPOLYLINE
  5
63
330
17
100
AcDbEntity
  8
CycloneBody
100
AcDbPolyline
 90
17
 70
1
 10
168.5
 20
267.5
 10
168.02849025766974
 20
267.5
 10
166.7426406871193
 20
267.5
 10
164.8354707730092
 20
267.5
 10
162.5
 20
267.5
 10
160.1645292269908
 20
267.5
 10
158.2573593128807
 20
267.5
 10
156.97150974233026
 20
267.5
 10
156.5
 20
267.5
 10
156.97150974233026
 20
267.5
 10
158.2573593128807
 20
267.5
 10
160.1645292269908
 20
267.5
 10
162.5
 20
267.5
 10
164.8354707730092
 20
267.5
 10
166.7426406871193
 20
267.5
 10
168.02849025766974
 20
267.5
 10
168.5
 20
267.5
  0
LWPOLYLINE
  5
64
330
17
100
AcDbEntity
  8
CycloneBody
100
AcDbPolyline
 90
17
 70
1
 10
168.5
 20
442.5
 10
168.02849025766974
 20
442.5
 10
166.7426406871193
 20
442.5
 10
164.8354707730092
 20
442.5
 10
162.5
 20
442.5
 10
160.1645292269908
 20
442.5
 10
158.2573593128807
 20
442.5
 10
156.97150974233026
 20
442.5
 10
156.5
 20
442.5
 10
156.97150974233026
 20
442.5
 10
158.2573593128807
 20
442.5
 10
160.1645292269908
 20
442.5
 10
162.5
 20
442.5
 10
164.8354707730092
 20
442.5
 10
166.7426406871193
 20
442.5
 10
168.02849025766974
 20
442.5
 10
168.5
 20
442.5
  0
LWPOLYLINE
  5
65
330
17
100
AcDbEntity
  8
CycloneBody
100
AcDbPolyline
 90
33
 70
1
 10
75.0
 20
450.0
 10
73.4762665644209
 20
450.0
 10
69.10612822087164
 20
450.0
 10
62.19117791413433
 20
450.0
 10
53.03300858899105
 20
450.0
 10
41.93321319022389
 20
450.0
 10
29.193384662614932
 20
450.0
 10
15.115115950946269
 20
450.0
 10
-1.3777276490407723e-14
 20
450.0
 10
-15.115115950946297
 20
450.0
 10
-29.19338466261496
 20
450.0
 10
-41.93321319022391
 20
450.0
 10
-53.033008588991066
 20
450.0
 10
-62.19117791413434
 20
450.0
 10
-69.10612822087164
 20
450.0
 10
-73.4762665644209
 20
450.0
 10
-75.0
 20
450.0
 10
-73.4762665644209
 20
450.0
 10
-69.10612822087164
 20
450.0
 10
-62.19117791413433
 20
450.0
 10
-53.03300858899105
 20
450.0
 10
-41.933213190223896
 20
450.0
 10
-29.193384662614946
 20
450.0
 10
-15.115115950946283
 20
450.0
 10
4.592425496802574e-15
 20
450.0
 10
15.115115950946288
 20
450.0
 10
29.19338466261495
 20
450.0
 10
41.93321319022391
 20
450.0
 10
53.03300858899107
 20
450.0
 10
62.19117791413435
 20
450.0
 10
69.10612822087165
 20
450.0
 10
73.4762665644209
 20
450.0
 10
75.0
 20
450.0
  0
LWPOLYLINE
  5
66
330
17
100
AcDbEntity
  8
CycloneBody
100
AcDbPolyline
 90
2
 70
0
 10
75.0
 20
450.0
 10
75.0
 20
495.0
  0
LWPOLYLINE
  5
67
330
17
100
AcDbEntity
  8
CycloneBody
100
AcDbPolyline
 90
33
 70
1
 10
75.0
 20
495.0
 10
73.4762665644209
 20
495.0
 10
69.10612822087164
 20
495.0
 10
62.19117791413433
 20
495.0
 10
53.03300858899105
 20
495.0
 10
41.93321319022389
 20
495.0
 10
29.193384662614932
 20
495.0
 10
15.115115950946269
 20
495.0
 10
-1.3777276490407723e-14
 20
495.0
 10
-15.115115950946297
 20
495.0
 10
-29.19338466261496
 20
495.0
 10
-41.93321319022391
 20
495.0
 10
-53.033008588991066
 20
495.0
 10
-62.19117791413434
 20
495.0
 10
-69.10612822087164
 20
495.0
 10
-73.4762665644209
 20
495.0
 10
-75.0
 20
495.0
 10
-73.4762665644209
 20
495.0
 10
-69.10612822087164
 20
495.0
 10
-62.19117791413433
 20
495.0
 10
-53.03300858899105
 20
495.0
 10
-41.933213190223896
 20
495.0
 10
-29.193384662614946
 20
495.0
 10
-15.115115950946283
 20
495.0
 10
4.592425496802574e-15
 20
495.0
 10
15.115115950946288
 20
495.0
 10
29.19338466261495
 20
495.0
 10
41.93321319022391
 20
495.0
 10
53.03300858899107
 20
495.0
 10
62.19117791413435
 20
495.0
 10
69.10612822087165
 20
495.0
 10
73.4762665644209
 20
495.0
 10
75.0
 20
495.0
  0
LWPOLYLINE
  5
68
330
17
100
AcDbEntity
  8
CycloneBody
100
AcDbPolyline
 90
2
 70
0
 10
75.0
 20
450.0
 10
75.0
 20
495.0
  0
LWPOLYLINE
  5
69
330
17
100
AcDbEntity
  8
CycloneBody
100
AcDbPolyline
 90
33
 70
1
 10
75.0
 20
-695.0
 10
73.4762665644209
 20
-695.0
 10
69.10612822087164
 20
-695.0
 10
62.19117791413433
 20
-695.0
 10
53.03300858899105
 20
-695.0
 10
41.93321319022389
 20
-695.0
 10
29.193384662614932
 20
-695.0
 10
15.115115950946269
 20
-695.0
 10
-1.3777276490407723e-14
 20
-695.0
 10
-15.115115950946297
 20
-695.0
 10
-29.19338466261496
 20
-695.0
 10
-41.93321319022391
 20
-695.0
 10
-53.033008588991066
 20
-695.0
 10
-62.19117791413434
 20
-695.0
 10
-69.10612822087164
 20
-695.0
 10
-73.4762665644209
 20
-695.0
 10
-75.0
 20
-695.0
 10
-73.4762665644209
 20
-695.0
 10
-69.10612822087164
 20
-695.0
 10
-62.19117791413433
 20
-695.0
 10
-53.03300858899105
 20
-695.0
 10
-41.933213190223896
 20
-695.0
 10
-29.193384662614946
 20
-695.0
 10
-15.115115950946283
 20
-695.0
 10
4.592425496802574e-15
 20
-695.0
 10
15.115115950946288
 20
-695.0
 10
29.19338466261495
 20
-695.0
 10
41.93321319022391
 20
-695.0
 10
53.03300858899107
 20
-695.0
 10
62.19117791413435
 20
-695.0
 10
69.10612822087165
 20
-695.0
 10
73.4762665644209
 20
-695.0
 10
75.0
 20
-695.0
  0
LWPOLYLINE
  5
6A
330
17
100
AcDbEntity
  8
CycloneBody
100
AcDbPolyline
 90
17
 70
1
 10
6.0
 20
-695.0
 10
5.5284902576697315
 20
-695.0
 10
4.242640687119284
 20
-695.0
 10
2.3354707730091944
 20
-695.0
 10
-1.102182119232618e-15
 20
-695.0
 10
-2.3354707730091966
 20
-695.0
 10
-4.242640687119286
 20
-695.0
 10
-5.5284902576697315
 20
-695.0
 10
-6.0
 20
-695.0
 10
-5.5284902576697315
 20
-695.0
 10
-4.242640687119284
 20
-695.0
 10
-2.3354707730091953
 20
-695.0
 10
3.6739403974420594e-16
 20
-695.0
 10
2.335470773009196
 20
-695.0
 10
4.242640687119286
 20
-695.0
 10
5.528490257669732
 20
-695.0
 10
6.0
 20
-695.0
  0
LWPOLYLINE
  5
6B
330
17
100
AcDbEntity
  8
CycloneBody
100
AcDbPolyline
 90
17
 70
1
 10
-56.5
 20
-695.0
 10
-56.97150974233027
 20
-695.0
 10
-58.257359312880716
 20
-695.0
 10
-60.16452922699081
 20
-695.0
 10
-62.5
 20
-695.0
 10
-64.83547077300919
 20
-695.0
 10
-66.74264068711929
 20
-695.0
 10
-68.02849025766973
 20
-695.0
 10
-68.5
 20
-695.0
 10
-68.02849025766973
 20
-695.0
 10
-66.74264068711929
 20
-695.0
 10
-64.83547077300919
 20
-695.0
 10
-62.5
 20
-695.0
 10
-60.16452922699081
 20
-695.0
 10
-58.257359312880716
 20
-695.0
 10
-56.97150974233027
 20
-695.0
 10
-56.5
 20
-695.0
  0
LWPOLYLINE
  5
6C
330
17
100
AcDbEntity
  8
CycloneBody
100
AcDbPolyline
 90
33
 70
1
 10
50.0
 20
-695.0
 10
48.98417770961393
 20
-695.0
 10
46.07075214724776
 20
-695.0
 10
41.46078527608955
 20
-695.0
 10
35.35533905932736
 20
-695.0
 10
27.95547546014926
 20
-695.0
 10
19.462256441743286
 20
-695.0
 10
10.07674396729751
 20
-695.0
 10
-9.184850993605149e-15
 20
-695.0
 10
-10.07674396729753
 20
-695.0
 10
-19.462256441743307
 20
-695.0
 10
-27.955475460149277
 20
-695.0
 10
-35.35533905932738
 20
-695.0
 10
-41.46078527608957
 20
-695.0
 10
-46.07075214724777
 20
-695.0
 10
-48.98417770961393
 20
-695.0
 10
-50.0
 20
-695.0
 10
-48.98417770961393
 20
-695.0
 10
-46.07075214724776
 20
-695.0
 10
-41.46078527608955
 20
-695.0
 10
-35.35533905932737
 20
-695.0
 10
-27.955475460149266
 20
-695.0
 10
-19.462256441743293
 20
-695.0
 10
-10.076743967297517
 20
-695.0
 10
3.061616997868383e-15
 20
-695.0
 10
10.076743967297524
 20
-695.0
 10
19.462256441743303
 20
-695.0
 10
27.95547546014927
 20
-695.0
 10
35.35533905932738
 20
-695.0
 10
41.46078527608956
 20
-695.0
 10
46.07075214724777
 20
-695.0
 10
48.98417770961393
 20
-695.0
 10
50.0
 20
-695.0
  0
LWPOLYLINE
  5
6D
330
17
100
AcDbEntity
  8
CycloneBody
100
AcDbPolyline
 90
17
 70
1
 10
68.5
 20
-695.0
 10
68.02849025766973
 20
-695.0
 10
66.74264068711928
 20
-695.0
 10
64.83547077300919
 20
-695.0
 10
62.5
 20
-695.0
 10
60.16452922699081
 20
-695.0
 10
58.257359312880716
 20
-695.0
 10
56.97150974233027
 20
-695.0
 10
56.5
 20
-695.0
 10
56.97150974233027
 20
-695.0
 10
58.257359312880716
 20
-695.0
 10
60.16452922699081
 20
-695.0
 10
62.5
 20
-695.0
 10
64.83547077300919
 20
-695.0
 10
66.74264068711929
 20
-695.0
 10
68.02849025766973
 20
-695.0
 10
68.5
 20
-695.0
  0
LWPOLYLINE
  5
6E
330
17
100
AcDbEntity
  8
CycloneBody
100
AcDbPolyline
 90
17
 70
1
 10
6.0
 20
-695.0
 10
5.5284902576697315
 20
-695.0
 10
4.242640687119284
 20
-695.0
 10
2.3354707730091944
 20
-695.0
 10
-1.102182119232618e-15
 20
-695.0
 10
-2.3354707730091966
 20
-695.0
 10
-4.242640687119286
 20
-695.0
 10
-5.5284902576697315
 20
-695.0
 10
-6.0
 20
-695.0
 10
-5.5284902576697315
 20
-695.0
 10
-4.242640687119284
 20
-695.0
 10
-2.3354707730091953
 20
-695.0
 10
3.6739403974420594e-16
 20
-695.0
 10
2.335470773009196
 20
-695.0
 10
4.242640687119286
 20
-695.0
 10
5.528490257669732
 20
-695.0
 10
6.0
 20
-695.0
  0
LWPOLYLINE
  5
6F
330
17
100
AcDbEntity
  8
CycloneBody
100
AcDbPolyline
 90
2
 70
1
 10
65.0
 20
255.0
 10
65.0
 20
255.0
  0
LWPOLYLINE
  5
70
330
17
100
AcDbEntity
  8
CycloneBody
100
AcDbPolyline
 90
2
 70
0
 10
65.0
 20
255.0
 10
175.0
 20
255.0
  0
LWPOLYLINE
  5
71
330
17
100
AcDbEntity
  8
CycloneBody
100
AcDbPolyline
 90
2
 70
1
 10
175.0
 20
255.0
 10
175.0
 20
255.0
  0
LWPOLYLINE
  5
72
330
17
100
AcDbEntity
  8
CycloneBody
100
AcDbPolyline
 90
2
 70
0
 10
65.0
 20
255.0
 10
175.0
 20
255.0
  0
LWPOLYLINE
  5
73
330
17
100
AcDbEntity
  8
CycloneBody
100
AcDbPolyline
 90
2
 70
0
 10
175.0
 20
255.0
 10
175.0
 20
455.0
  0
LWPOLYLINE
  5
74
330
17
100
AcDbEntity
  8
CycloneBody
100
AcDbPolyline
 90
2
 70
1
 10
175.0
 20
455.0
 10
175.0
 20
455.0
  0
LWPOLYLINE
  5
75
330
17
100
AcDbEntity
  8
CycloneBody
100
AcDbPolyline
 90
2
 70
0
 10
175.0
 20
255.0
 10
175.0
 20
455.0
  0
LWPOLYLINE
  5
76
330
17
100
AcDbEntity
  8
CycloneBody
100
AcDbPolyline
 90
2
 70
1
 10
175.0
 20
255.0
 10
175.0
 20
255.0
  0
LWPOLYLINE
  5
77
330
17
100
AcDbEntity
  8
CycloneBody
100
AcDbPolyline
 90
2
 70
0
 10
65.0
 20
255.0
 10
65.0
 20
455.0
  0
LWPOLYLINE
  5
78
330
17
100
AcDbEntity
  8
CycloneBody
100
AcDbPolyline
 90
2
 70
1
 10
65.0
 20
455.0
 10
65.0
 20
455.0
  0
LWPOLYLINE
  5
79
330
17
100
AcDbEntity
  8
CycloneBody
100
AcDbPolyline
 90
2
 70
0
 10
65.0
 20
255.0
 10
65.0
 20
455.0
  0
LWPOLYLINE
  5
7A
330
17
100
AcDbEntity
  8
CycloneBody
100
AcDbPolyline
 90
2
 70
1
 10
65.0
 20
255.0
 10
65.0
 20
255.0
  0
LWPOLYLINE
  5
7B
330
17
100
AcDbEntity
  8
CycloneBody
100
AcDbPolyline
 90
2
 70
1
 10
65.0
 20
455.0
 10
65.0
 20
455.0
  0
LWPOLYLINE
  5
7C
330
17
100
AcDbEntity
  8
CycloneBody
100
AcDbPolyline
 90
2
 70
0
 10
65.0
 20
455.0
 10
175.0
 20
455.0
  0
LWPOLYLINE
  5
7D
330
17
100
AcDbEntity
  8
CycloneBody
100
AcDbPolyline
 90
2
 70
1
 10
175.0
 20
455.0
 10
175.0
 20
455.0
  0
LWPOLYLINE
  5
7E
330
17
100
AcDbEntity
  8
CycloneBody
100
AcDbPolyline
 90
2
 70
0
 10
65.0
 20
455.0
 10
175.0
 20
455.0
  0
LWPOLYLINE
  5
7F
330
17
100
AcDbEntity
  8
CycloneBody
100
AcDbPolyline
 90
17
 70
1
 10
83.5
 20
267.5
 10
83.02849025766973
 20
267.5
 10
81.74264068711928
 20
267.5
 10
79.83547077300919
 20
267.5
 10
77.5
 20
267.5
 10
75.16452922699081
 20
267.5
 10
73.25735931288071
 20
267.5
 10
71.97150974233027
 20
267.5
 10
71.5
 20
267.5
 10
71.97150974233027
 20
267.5
 10
73.25735931288071
 20
267.5
 10
75.16452922699081
 20
267.5
 10
77.5
 20
267.5
 10
79.83547077300919
 20
267.5
 10
81.74264068711929
 20
267.5
 10
83.02849025766973
 20
267.5
 10
83.5
 20
267.5
  0
LWPOLYLINE
  5
80
330
17
100
AcDbEntity
  8
CycloneBody
100
AcDbPolyline
 90
2
 70
1
 10
77.5
 20
273.5
 10
77.5
 20
273.5
  0
LWPOLYLINE
  5
81
330
17
100
AcDbEntity
  8
CycloneBody
100
AcDbPolyline
 90
17
 70
1
 10
83.5
 20
267.5
 10
83.02849025766973
 20
267.5
 10
81.74264068711928
 20
267.5
 10
79.83547077300919
 20
267.5
 10
77.5
 20
267.5
 10
75.16452922699081
 20
267.5
 10
73.25735931288071
 20
267.5
 10
71.97150974233027
 20
267.5
 10
71.5
 20
267.5
 10
71.97150974233027
 20
267.5
 10
73.25735931288071
 20
267.5
 10
75.16452922699081
 20
267.5
 10
77.5
 20
267.5
 10
79.83547077300919
 20
267.5
 10
81.74264068711929
 20
267.5
 10
83.02849025766973
 20
267.5
 10
83.5
 20
267.5
  0
LWPOLYLINE
  5
82
330
17
100
AcDbEntity
  8
CycloneBody
100
AcDbPolyline
 90
2
 70
1
 10
77.5
 20
273.5
 10
77.5
 20
273.5
  0
LWPOLYLINE
  5
83
330
17
100
AcDbEntity
  8
CycloneBody
100
AcDbPolyline
 90
17
 70
1
 10
83.5
 20
442.5
 10
83.02849025766973
 20
442.5
 10
81.74264068711928
 20
442.5
 10
79.83547077300919
 20
442.5
 10
77.5
 20
442.5
 10
75.16452922699081
 20
442.5
 10
73.25735931288071
 20
442.5
 10
71.97150974233027
 20
442.5
 10
71.5
 20
442.5
 10
71.97150974233027
 20
442.5
 10
73.25735931288071
 20
442.5
 10
75.16452922699081
 20
442.5
 10
77.5
 20
442.5
 10
79.83547077300919
 20
442.5
 10
81.74264068711929
 20
442.5
 10
83.02849025766973
 20
442.5
 10
83.5
 20
442.5
  0
LWPOLYLINE
  5
84
330
17
100
AcDbEntity
  8
CycloneBody
100
AcDbPolyline
 90
2
 70
1
 10
77.5
 20
448.5
 10
77.5
 20
448.5
  0
LWPOLYLINE
  5
85
330
17
100
AcDbEntity
  8
CycloneBody
100
AcDbPolyline
 90
17
 70
1
 10
83.5
 20
442.5
 10
83.02849025766973
 20
442.5
 10
81.74264068711928
 20
442.5
 10
79.83547077300919
 20
442.5
 10
77.5
 20
442.5
 10
75.16452922699081
 20
442.5
 10
73.25735931288071
 20
442.5
 10
71.97150974233027
 20
442.5
 10
71.5
 20
442.5
 10
71.97150974233027
 20
442.5
 10
73.25735931288071
 20
442.5
 10
75.16452922699081
 20
442.5
 10
77.5
 20
442.5
 10
79.83547077300919
 20
442.5
 10
81.74264068711929
 20
442.5
 10
83.02849025766973
 20
442.5
 10
83.5
 20
442.5
  0
LWPOLYLINE
  5
86
330
17
100
AcDbEntity
  8
CycloneBody
100
AcDbPolyline
 90
2
 70
1
 10
77.5
 20
448.5
 10
77.5
 20
448.5
  0
LWPOLYLINE
  5
87
330
17
100
AcDbEntity
  8
CycloneBody
100
AcDbPolyline
 90
17
 70
1
 10
168.5
 20
267.5
 10
168.02849025766974
 20
267.5
 10
166.7426406871193
 20
267.5
 10
164.8354707730092
 20
267.5
 10
162.5
 20
267.5
 10
160.1645292269908
 20
267.5
 10
158.2573593128807
 20
267.5
 10
156.97150974233026
 20
267.5
 10
156.5
 20
267.5
 10
156.97150974233026
 20
267.5
 10
158.2573593128807
 20
267.5
 10
160.1645292269908
 20
267.5
 10
162.5
 20
267.5
 10
164.8354707730092
 20
267.5
 10
166.7426406871193
 20
267.5
 10
168.02849025766974
 20
267.5
 10
168.5
 20
267.5
  0
LWPOLYLINE
  5
88
330
17
100
AcDbEntity
  8
CycloneBody
100
AcDbPolyline
 90
2
 70
1
 10
162.5
 20
273.5
 10
162.5
 20
273.5
  0
LWPOLYLINE
  5
89
330
17
100
AcDbEntity
  8
CycloneBody
100
AcDbPolyline
 90
17
 70
1
 10
168.5
 20
267.5
 10
168.02849025766974
 20
267.5
 10
166.7426406871193
 20
267.5
 10
164.8354707730092
 20
267.5
 10
162.5
 20
267.5
 10
160.1645292269908
 20
267.5
 10
158.2573593128807
 20
267.5
 10
156.97150974233026
 20
267.5
 10
156.5
 20
267.5
 10
156.97150974233026
 20
267.5
 10
158.2573593128807
 20
267.5
 10
160.1645292269908
 20
267.5
 10
162.5
 20
267.5
 10
164.8354707730092
 20
267.5
 10
166.7426406871193
 20
267.5
 10
168.02849025766974
 20
267.5
 10
168.5
 20
267.5
  0
LWPOLYLINE
  5
8A
330
17
100
AcDbEntity
  8
CycloneBody
100
AcDbPolyline
 90
2
 70
1
 10
162.5
 20
273.5
 10
162.5
 20
273.5
  0
LWPOLYLINE
  5
8B
330
17
100
AcDbEntity
  8
CycloneBody
100
AcDbPolyline
 90
17
 70
1
 10
168.5
 20
442.5
 10
168.02849025766974
 20
442.5
 10
166.7426406871193
 20
442.5
 10
164.8354707730092
 20
442.5
 10
162.5
 20
442.5
 10
160.1645292269908
 20
442.5
 10
158.2573593128807
 20
442.5
 10
156.97150974233026
 20
442.5
 10
156.5
 20
442.5
 10
156.97150974233026
 20
442.5
 10
158.2573593128807
 20
442.5
 10
160.1645292269908
 20
442.5
 10
162.5
 20
442.5
 10
164.8354707730092
 20
442.5
 10
166.7426406871193
 20
442.5
 10
168.02849025766974
 20
442.5
 10
168.5
 20
442.5
  0
LWPOLYLINE
  5
8C
330
17
100
AcDbEntity
  8
CycloneBody
100
AcDbPolyline
 90
2
 70
1
 10
162.5
 20
448.5
 10
162.5
 20
448.5
  0
LWPOLYLINE
  5
8D
330
17
100
AcDbEntity
  8
CycloneBody
100
AcDbPolyline
 90
17
 70
1
 10
168.5
 20
442.5
 10
168.02849025766974
 20
442.5
 10
166.7426406871193
 20
442.5
 10
164.8354707730092
 20
442.5
 10
162.5
 20
442.5
 10
160.1645292269908
 20
442.5
 10
158.2573593128807
 20
442.5
 10
156.97150974233026
 20
442.5
 10
156.5
 20
442.5
 10
156.97150974233026
 20
442.5
 10
158.2573593128807
 20
442.5
 10
160.1645292269908
 20
442.5
 10
162.5
 20
442.5
 10
164.8354707730092
 20
442.5
 10
166.7426406871193
 20
442.5
 10
168.02849025766974
 20
442.5
 10
168.5
 20
442.5
  0
LWPOLYLINE
  5
8E
330
17
100
AcDbEntity
  8
CycloneBody
100
AcDbPolyline
 90
2
 70
1
 10
162.5
 20
448.5
 10
162.5
 20
448.5
  0
LWPOLYLINE
  5
8F
330
17
100
AcDbEntity
  8
CycloneBody
100
AcDbPolyline
 90
41
 70
1
 10
100.0
 20
495.0
 10
99.48371127300746
 20
495.0
 10
97.96835541922786
 20
495.0
 10
92.14150429449552
 20
495.0
 10
82.9215705521791
 20
495.0
 10
70.71067811865473
 20
495.0
 10
55.91095092029852
 20
495.0
 10
38.92451288348657
 20
495.0
 10
20.15348793459502
 20
495.0
 10
10.224419095111926
 20
495.0
 10
-1.8369701987210297e-14
 20
495.0
 10
-10.22441909511197
 20
495.0
 10
-20.15348793459506
 20
495.0
 10
-38.924512883486614
 20
495.0
 10
-55.91095092029855
 20
495.0
 10
-70.71067811865476
 20
495.0
 10
-82.92157055217913
 20
495.0
 10
-92.14150429449553
 20
495.0
 10
-97.96835541922786
 20
495.0
 10
-99.48371127300746
 20
495.0
 10
-100.0
 20
495.0
 10
-99.48371127300746
 20
495.0
 10
-97.96835541922786
 20
495.0
 10
-92.14150429449552
 20
495.0
 10
-82.9215705521791
 20
495.0
 10
-70.71067811865474
 20
495.0
 10
-55.91095092029853
 20
495.0
 10
-38.924512883486585
 20
495.0
 10
-20.153487934595034
 20
495.0
 10
-10.224419095111955
 20
495.0
 10
6.123233995736766e-15
 20
495.0
 10
10.224419095111957
 20
495.0
 10
20.15348793459505
 20
495.0
 10
38.92451288348661
 20
495.0
 10
55.91095092029854
 20
495.0
 10
70.71067811865476
 20
495.0
 10
82.92157055217912
 20
495.0
 10
92.14150429449553
 20
495.0
 10
97.96835541922786
 20
495.0
 10
99.48371127300746
 20
495.0
 10
100.0
 20
495.0
  0
LWPOLYLINE
  5
90
330
17
100
AcDbEntity
  8
CycloneBody
100
AcDbPolyline
 90
17
 70
1
 10
6.0
 20
495.0
 10
5.5284902576697315
 20
495.0
 10
4.242640687119284
 20
495.0
 10
2.3354707730091944
 20
495.0
 10
-1.102182119232618e-15
 20
495.0
 10
-2.3354707730091966
 20
495.0
 10
-4.242640687119286
 20
495.0
 10
-5.5284902576697315
 20
495.0
 10
-6.0
 20
495.0
 10
-5.5284902576697315
 20
495.0
 10
-4.242640687119284
 20
495.0
 10
-2.3354707730091953
 20
495.0
 10
3.6739403974420594e-16
 20
495.0
 10
2.335470773009196
 20
495.0
 10
4.242640687119286
 20
495.0
 10
5.528490257669732
 20
495.0
 10
6.0
 20
495.0
  0
LWPOLYLINE
  5
91
330
17
100
AcDbEntity
  8
CycloneBody
100
AcDbPolyline
 90
33
 70
1
 10
75.0
 20
495.0
 10
73.4762665644209
 20
495.0
 10
69.10612822087164
 20
495.0
 10
62.19117791413433
 20
495.0
 10
53.03300858899105
 20
495.0
 10
41.93321319022389
 20
495.0
 10
29.193384662614932
 20
495.0
 10
15.115115950946269
 20
495.0
 10
-1.3777276490407723e-14
 20
495.0
 10
-15.115115950946297
 20
495.0
 10
-29.19338466261496
 20
495.0
 10
-41.93321319022391
 20
495.0
 10
-53.033008588991066
 20
495.0
 10
-62.19117791413434
 20
495.0
 10
-69.10612822087164
 20
495.0
 10
-73.4762665644209
 20
495.0
 10
-75.0
 20
495.0
 10
-73.4762665644209
 20
495.0
 10
-69.10612822087164
 20
495.0
 10
-62.19117791413433
 20
495.0
 10
-53.03300858899105
 20
495.0
 10
-41.933213190223896
 20
495.0
 10
-29.193384662614946
 20
495.0
 10
-15.115115950946283
 20
495.0
 10
4.592425496802574e-15
 20
495.0
 10
15.115115950946288
 20
495.0
 10
29.19338466261495
 20
495.0
 10
41.93321319022391
 20
495.0
 10
53.03300858899107
 20
495.0
 10
62.19117791413435
 20
495.0
 10
69.10612822087165
 20
495.0
 10
73.4762665644209
 20
495.0
 10
75.0
 20
495.0
  0
LWPOLYLINE
  5
92
330
17
100
AcDbEntity
  8
CycloneBody
100
AcDbPolyline
 90
17
 70
1
 10
93.5
 20
495.0
 10
93.02849025766973
 20
495.0
 10
91.74264068711928
 20
495.0
 10
89.83547077300919
 20
495.0
 10
87.5
 20
495.0
 10
85.16452922699081
 20
495.0
 10
83.25735931288071
 20
495.0
 10
81.97150974233027
 20
495.0
 10
81.5
 20
495.0
 10
81.97150974233027
 20
495.0
 10
83.25735931288071
 20
495.0
 10
85.16452922699081
 20
495.0
 10
87.5
 20
495.0
 10
89.83547077300919
 20
495.0
 10
91.74264068711929
 20
495.0
 10
93.02849025766973
 20
495.0
 10
93.5
 20
495.0
  0
LWPOLYLINE
  5
93
330
17
100
AcDbEntity
  8
CycloneBody
100
AcDbPolyline
 90
17
 70
1
 10
-81.5
 20
495.0
 10
-81.97150974233027
 20
495.0
 10
-83.25735931288072
 20
495.0
 10
-85.16452922699081
 20
495.0
 10
-87.5
 20
495.0
 10
-89.83547077300919
 20
495.0
 10
-91.74264068711929
 20
495.0
 10
-93.02849025766973
 20
495.0
 10
-93.5
 20
495.0
 10
-93.02849025766973
 20
495.0
 10
-91.74264068711929
 20
495.0
 10
-89.83547077300919
 20
495.0
 10
-87.5
 20
495.0
 10
-85.16452922699081
 20
495.0
 10
-83.25735931288071
 20
495.0
 10
-81.97150974233027
 20
495.0
 10
-81.5
 20
495.0
  0
LWPOLYLINE
  5
94
330
17
100
AcDbEntity
  8
CycloneBody
100
AcDbPolyline
 90
17
 70
1
 10
6.0
 20
495.0
 10
5.5284902576697315
 20
495.0
 10
4.242640687119284
 20
495.0
 10
2.3354707730091944
 20
495.0
 10
-1.102182119232618e-15
 20
495.0
 10
-2.3354707730091966
 20
495.0
 10
-4.242640687119286
 20
495.0
 10
-5.5284902576697315
 20
495.0
 10
-6.0
 20
495.0
 10
-5.5284902576697315
 20
495.0
 10
-4.242640687119284
 20
495.0
 10
-2.3354707730091953
 20
495.0
 10
3.6739403974420594e-16
 20
495.0
 10
2.335470773009196
 20
495.0
 10
4.242640687119286
 20
495.0
 10
5.528490257669732
 20
495.0
 10
6.0
 20
495.0
  0
LWPOLYLINE
  5
95
330
17
100
AcDbEntity
  8
CycloneBody
100
AcDbPolyline
 90
33
 70
1
 10
75.0
 20
-695.0
 10
73.4762665644209
 20
-695.0
 10
69.10612822087164
 20
-695.0
 10
62.19117791413433
 20
-695.0
 10
53.03300858899105
 20
-695.0
 10
41.93321319022389
 20
-695.0
 10
29.193384662614932
 20
-695.0
 10
15.115115950946269
 20
-695.0
 10
-1.3777276490407723e-14
 20
-695.0
 10
-15.115115950946297
 20
-695.0
 10
-29.19338466261496
 20
-695.0
 10
-41.93321319022391
 20
-695.0
 10
-53.033008588991066
 20
-695.0
 10
-62.19117791413434
 20
-695.0
 10
-69.10612822087164
 20
-695.0
 10
-73.4762665644209
 20
-695.0
 10
-75.0
 20
-695.0
 10
-73.4762665644209
 20
-695.0
 10
-69.10612822087164
 20
-695.0
 10
-62.19117791413433
 20
-695.0
 10
-53.03300858899105
 20
-695.0
 10
-41.933213190223896
 20
-695.0
 10
-29.193384662614946
 20
-695.0
 10
-15.115115950946283
 20
-695.0
 10
4.592425496802574e-15
 20
-695.0
 10
15.115115950946288
 20
-695.0
 10
29.19338466261495
 20
-695.0
 10
41.93321319022391
 20
-695.0
 10
53.03300858899107
 20
-695.0
 10
62.19117791413435
 20
-695.0
 10
69.10612822087165
 20
-695.0
 10
73.4762665644209
 20
-695.0
 10
75.0
 20
-695.0
  0
LWPOLYLINE
  5
96
330
17
100
AcDbEntity
  8
CycloneBody
100
AcDbPolyline
 90
2
 70
0
 10
75.0
 20
-710.0
 10
75.0
 20
-695.0
  0
LWPOLYLINE
  5
97
330
17
100
AcDbEntity
  8
CycloneBody
100
AcDbPolyline
 90
33
 70
1
 10
75.0
 20
-710.0
 10
73.4762665644209
 20
-710.0
 10
69.10612822087164
 20
-710.0
 10
62.19117791413433
 20
-710.0
 10
53.03300858899105
 20
-710.0
 10
41.93321319022389
 20
-710.0
 10
29.193384662614932
 20
-710.0
 10
15.115115950946269
 20
-710.0
 10
-1.3777276490407723e-14
 20
-710.0
 10
-15.115115950946297
 20
-710.0
 10
-29.19338466261496
 20
-710.0
 10
-41.93321319022391
 20
-710.0
 10
-53.033008588991066
 20
-710.0
 10
-62.19117791413434
 20
-710.0
 10
-69.10612822087164
 20
-710.0
 10
-73.4762665644209
 20
-710.0
 10
-75.0
 20
-710.0
 10
-73.4762665644209
 20
-710.0
 10
-69.10612822087164
 20
-710.0
 10
-62.19117791413433
 20
-710.0
 10
-53.03300858899105
 20
-710.0
 10
-41.933213190223896
 20
-710.0
 10
-29.193384662614946
 20
-710.0
 10
-15.115115950946283
 20
-710.0
 10
4.592425496802574e-15
 20
-710.0
 10
15.115115950946288
 20
-710.0
 10
29.19338466261495
 20
-710.0
 10
41.93321319022391
 20
-710.0
 10
53.03300858899107
 20
-710.0
 10
62.19117791413435
 20
-710.0
 10
69.10612822087165
 20
-710.0
 10
73.4762665644209
 20
-710.0
 10
75.0
 20
-710.0
  0
LWPOLYLINE
  5
98
330
17
100
AcDbEntity
  8
CycloneBody
100
AcDbPolyline
 90
2
 70
0
 10
75.0
 20
-710.0
 10
75.0
 20
-695.0
  0
LWPOLYLINE
  5
99
330
17
100
AcDbEntity
  8
CycloneBody
100
AcDbPolyline
 90
17
 70
1
 10
6.0
 20
-695.0
 10
5.5284902576697315
 20
-695.0
 10
4.242640687119284
 20
-695.0
 10
2.3354707730091944
 20
-695.0
 10
-1.102182119232618e-15
 20
-695.0
 10
-2.3354707730091966
 20
-695.0
 10
-4.242640687119286
 20
-695.0
 10
-5.5284902576697315
 20
-695.0
 10
-6.0
 20
-695.0
 10
-5.5284902576697315
 20
-695.0
 10
-4.242640687119284
 20
-695.0
 10
-2.3354707730091953
 20
-695.0
 10
3.6739403974420594e-16
 20
-695.0
 10
2.335470773009196
 20
-695.0
 10
4.242640687119286
 20
-695.0
 10
5.528490257669732
 20
-695.0
 10
6.0
 20
-695.0
  0
LWPOLYLINE
  5
9A
330
17
100
AcDbEntity
  8
CycloneBody
100
AcDbPolyline
 90
2
 70
0
 10
6.0
 20
-710.0
 10
6.0
 20
-695.0
  0
LWPOLYLINE
  5
9B
330
17
100
AcDbEntity
  8
CycloneBody
100
AcDbPolyline
 90
17
 70
1
 10
6.0
 20
-710.0
 10
5.5284902576697315
 20
-710.0
 10
4.242640687119284
 20
-710.0
 10
2.3354707730091944
 20
-710.0
 10
-1.102182119232618e-15
 20
-710.0
 10
-2.3354707730091966
 20
-710.0
 10
-4.242640687119286
 20
-710.0
 10
-5.5284902576697315
 20
-710.0
 10
-6.0
 20
-710.0
 10
-5.5284902576697315
 20
-710.0
 10
-4.242640687119284
 20
-710.0
 10
-2.3354707730091953
 20
-710.0
 10
3.6739403974420594e-16
 20
-710.0
 10
2.335470773009196
 20
-710.0
 10
4.242640687119286
 20
-710.0
 10
5.528490257669732
 20
-710.0
 10
6.0
 20
-710.0
  0
LWPOLYLINE
  5
9C
330
17
100
AcDbEntity
  8
CycloneBody
100
AcDbPolyline
 90
2
 70
0
 10
6.0
 20
-710.0
 10
6.0
 20
-695.0
  0
LWPOLYLINE
  5
9D
330
17
100
AcDbEntity
  8
CycloneBody
100
AcDbPolyline
 90
17
 70
1
 10
-56.5
 20
-695.0
 10
-56.97150974233027
 20
-695.0
 10
-58.257359312880716
 20
-695.0
 10
-60.16452922699081
 20
-695.0
 10
-62.5
 20
-695.0
 10
-64.83547077300919
 20
-695.0
 10
-66.74264068711929
 20
-695.0
 10
-68.02849025766973
 20
-695.0
 10
-68.5
 20
-695.0
 10
-68.02849025766973
 20
-695.0
 10
-66.74264068711929
 20
-695.0
 10
-64.83547077300919
 20
-695.0
 10
-62.5
 20
-695.0
 10
-60.16452922699081
 20
-695.0
 10
-58.257359312880716
 20
-695.0
 10
-56.97150974233027
 20
-695.0
 10
-56.5
 20
-695.0
  0
LWPOLYLINE
  5
9E
330
17
100
AcDbEntity
  8
CycloneBody
100
AcDbPolyline
 90
2
 70
0
 10
-56.5
 20
-710.0
 10
-56.5
 20
-695.0
  0
LWPOLYLINE
  5
9F
330
17
100
AcDbEntity
  8
CycloneBody
100
AcDbPolyline
 90
17
 70
1
 10
-56.5
 20
-710.0
 10
-56.97150974233027
 20
-710.0
 10
-58.257359312880716
 20
-710.0
 10
-60.16452922699081
 20
-710.0
 10
-62.5
 20
-710.0
 10
-64.83547077300919
 20
-710.0
 10
-66.74264068711929
 20
-710.0
 10
-68.02849025766973
 20
-710.0
 10
-68.5
 20
-710.0
 10
-68.02849025766973
 20
-710.0
 10
-66.74264068711929
 20
-710.0
 10
-64.83547077300919
 20
-710.0
 10
-62.5
 20
-710.0
 10
-60.16452922699081
 20
-710.0
 10
-58.257359312880716
 20
-710.0
 10
-56.97150974233027
 20
-710.0
 10
-56.5
 20
-710.0
  0
LWPOLYLINE
  5
A0
330
17
100
AcDbEntity
  8
CycloneBody
100
AcDbPolyline
 90
2
 70
0
 10
-56.5
 20
-710.0
 10
-56.5
 20
-695.0
  0
LWPOLYLINE
  5
A1
330
17
100
AcDbEntity
  8
CycloneBody
100
AcDbPolyline
 90
17
 70
1
 10
68.5
 20
-695.0
 10
68.02849025766973
 20
-695.0
 10
66.74264068711928
 20
-695.0
 10
64.83547077300919
 20
-695.0
 10
62.5
 20
-695.0
 10
60.16452922699081
 20
-695.0
 10
58.257359312880716
 20
-695.0
 10
56.97150974233027
 20
-695.0
 10
56.5
 20
-695.0
 10
56.97150974233027
 20
-695.0
 10
58.257359312880716
 20
-695.0
 10
60.16452922699081
 20
-695.0
 10
62.5
 20
-695.0
 10
64.83547077300919
 20
-695.0
 10
66.74264068711929
 20
-695.0
 10
68.02849025766973
 20
-695.0
 10
68.5
 20
-695.0
  0
LWPOLYLINE
  5
A2
330
17
100
AcDbEntity
  8
CycloneBody
100
AcDbPolyline
 90
2
 70
0
 10
68.5
 20
-710.0
 10
68.5
 20
-695.0
  0
LWPOLYLINE
  5
A3
330
17
100
AcDbEntity
  8
CycloneBody
100
AcDbPolyline
 90
17
 70
1
 10
68.5
 20
-710.0
 10
68.02849025766973
 20
-710.0
 10
66.74264068711928
 20
-710.0
 10
64.83547077300919
 20
-710.0
 10
62.5
 20
-710.0
 10
60.16452922699081
 20
-710.0
 10
58.257359312880716
 20
-710.0
 10
56.97150974233027
 20
-710.0
 10
56.5
 20
-710.0
 10
56.97150974233027
 20
-710.0
 10
58.257359312880716
 20
-710.0
 10
60.16452922699081
 20
-710.0
 10
62.5
 20
-710.0
 10
64.83547077300919
 20
-710.0
 10
66.74264068711929
 20
-710.0
 10
68.02849025766973
 20
-710.0
 10
68.5
 20
-710.0
  0
LWPOLYLINE
  5
A4
330
17
100
AcDbEntity
  8
CycloneBody
100
AcDbPolyline
 90
2
 70
0
 10
68.5
 20
-710.0
 10
68.5
 20
-695.0
  0
LWPOLYLINE
  5
A5
330
17
100
AcDbEntity
  8
CycloneBody
100
AcDbPolyline
 90
17
 70
1
 10
6.0
 20
-695.0
 10
5.5284902576697315
 20
-695.0
 10
4.242640687119284
 20
-695.0
 10
2.3354707730091944
 20
-695.0
 10
-1.102182119232618e-15
 20
-695.0
 10
-2.3354707730091966
 20
-695.0
 10
-4.242640687119286
 20
-695.0
 10
-5.5284902576697315
 20
-695.0
 10
-6.0
 20
-695.0
 10
-5.5284902576697315
 20
-695.0
 10
-4.242640687119284
 20
-695.0
 10
-2.3354707730091953
 20
-695.0
 10
3.6739403974420594e-16
 20
-695.0
 10
2.335470773009196
 20
-695.0
 10
4.242640687119286
 20
-695.0
 10
5.528490257669732
 20
-695.0
 10
6.0
 20
-695.0
  0
LWPOLYLINE
  5
A6
330
17
100
AcDbEntity
  8
CycloneBody
100
AcDbPolyline
 90
2
 70
0
 10
6.0
 20
-710.0
 10
6.0
 20
-695.0
  0
LWPOLYLINE
  5
A7
330
17
100
AcDbEntity
  8
CycloneBody
100
AcDbPolyline
 90
17
 70
1
 10
6.0
 20
-710.0
 10
5.5284902576697315
 20
-710.0
 10
4.242640687119284
 20
-710.0
 10
2.3354707730091944
 20
-710.0
 10
-1.102182119232618e-15
 20
-710.0
 10
-2.3354707730091966
 20
-710.0
 10
-4.242640687119286
 20
-710.0
 10
-5.5284902576697315
 20
-710.0
 10
-6.0
 20
-710.0
 10
-5.5284902576697315
 20
-710.0
 10
-4.242640687119284
 20
-710.0
 10
-2.3354707730091953
 20
-710.0
 10
3.6739403974420594e-16
 20
-710.0
 10
2.335470773009196
 20
-710.0
 10
4.242640687119286
 20
-710.0
 10
5.528490257669732
 20
-710.0
 10
6.0
 20
-710.0
  0
LWPOLYLINE
  5
A8
330
17
100
AcDbEntity
  8
CycloneBody
100
AcDbPolyline
 90
2
 70
0
 10
6.0
 20
-710.0
 10
6.0
 20
-695.0
  0
LWPOLYLINE
  5
A9
330
17
100
AcDbEntity
  8
CycloneBody
100
AcDbPolyline
 90
2
 70
0
 10
65.0
 20
255.0
 10
175.0
 20
255.0
  0
LWPOLYLINE
  5
AA
330
17
100
AcDbEntity
  8
CycloneBody
100
AcDbPolyline
 90
2
 70
0
 10
175.0
 20
255.0
 10
175.0
 20
455.0
  0
LWPOLYLINE
  5
AB
330
17
100
AcDbEntity
  8
CycloneBody
100
AcDbPolyline
 90
2
 70
0
 10
65.0
 20
255.0
 10
65.0
 20
455.0
  0
LWPOLYLINE
  5
AC
330
17
100
AcDbEntity
  8
CycloneBody
100
AcDbPolyline
 90
2
 70
0
 10
65.0
 20
455.0
 10
175.0
 20
455.0
  0
LWPOLYLINE
  5
AD
330
17
100
AcDbEntity
  8
CycloneBody
100
AcDbPolyline
 90
17
 70
1
 10
83.5
 20
267.5
 10
83.02849025766973
 20
267.5
 10
81.74264068711928
 20
267.5
 10
79.83547077300919
 20
267.5
 10
77.5
 20
267.5
 10
75.16452922699081
 20
267.5
 10
73.25735931288071
 20
267.5
 10
71.97150974233027
 20
267.5
 10
71.5
 20
267.5
 10
71.97150974233027
 20
267.5
 10
73.25735931288071
 20
267.5
 10
75.16452922699081
 20
267.5
 10
77.5
 20
267.5
 10
79.83547077300919
 20
267.5
 10
81.74264068711929
 20
267.5
 10
83.02849025766973
 20
267.5
 10
83.5
 20
267.5
  0
LWPOLYLINE
  5
AE
330
17
100
AcDbEntity
  8
CycloneBody
100
AcDbPolyline
 90
17
 70
1
 10
83.5
 20
442.5
 10
83.02849025766973
 20
442.5
 10
81.74264068711928
 20
442.5
 10
79.83547077300919
 20
442.5
 10
77.5
 20
442.5
 10
75.16452922699081
 20
442.5
 10
73.25735931288071
 20
442.5
 10
71.97150974233027
 20
442.5
 10
71.5
 20
442.5
 10
71.97150974233027
 20
442.5
 10
73.25735931288071
 20
442.5
 10
75.16452922699081
 20
442.5
 10
77.5
 20
442.5
 10
79.83547077300919
 20
442.5
 10
81.74264068711929
 20
442.5
 10
83.02849025766973
 20
442.5
 10
83.5
 20
442.5
  0
LWPOLYLINE
  5
AF
330
17
100
AcDbEntity
  8
CycloneBody
100
AcDbPolyline
 90
2
 70
0
 10
90.0
 20
430.0
 10
150.0
 20
430.0
  0
LWPOLYLINE
  5
B0
330
17
100
AcDbEntity
  8
CycloneBody
100
AcDbPolyline
 90
2
 70
0
 10
90.0
 20
430.0
 10
90.0
 20
280.0
  0
LWPOLYLINE
  5
B1
330
17
100
AcDbEntity
  8
CycloneBody
100
AcDbPolyline
 90
2
 70
0
 10
150.0
 20
430.0
 10
150.0
 20
280.0
  0
LWPOLYLINE
  5
B2
330
17
100
AcDbEntity
  8
CycloneBody
100
AcDbPolyline
 90
2
 70
0
 10
90.0
 20
280.0
 10
150.0
 20
280.0
  0
LWPOLYLINE
  5
B3
330
17
100
AcDbEntity
  8
CycloneBody
100
AcDbPolyline
 90
17
 70
1
 10
168.5
 20
267.5
 10
168.02849025766974
 20
267.5
 10
166.7426406871193
 20
267.5
 10
164.8354707730092
 20
267.5
 10
162.5
 20
267.5
 10
160.1645292269908
 20
267.5
 10
158.2573593128807
 20
267.5
 10
156.97150974233026
 20
267.5
 10
156.5
 20
267.5
 10
156.97150974233026
 20
267.5
 10
158.2573593128807
 20
267.5
 10
160.1645292269908
 20
267.5
 10
162.5
 20
267.5
 10
164.8354707730092
 20
267.5
 10
166.7426406871193
 20
267.5
 10
168.02849025766974
 20
267.5
 10
168.5
 20
267.5
  0
LWPOLYLINE
  5
B4
330
17
100
AcDbEntity
  8
CycloneBody
100
AcDbPolyline
 90
17
 70
1
 10
168.5
 20
442.5
 10
168.02849025766974
 20
442.5
 10
166.7426406871193
 20
442.5
 10
164.8354707730092
 20
442.5
 10
162.5
 20
442.5
 10
160.1645292269908
 20
442.5
 10
158.2573593128807
 20
442.5
 10
156.97150974233026
 20
442.5
 10
156.5
 20
442.5
 10
156.97150974233026
 20
442.5
 10
158.2573593128807
 20
442.5
 10
160.1645292269908
 20
442.5
 10
162.5
 20
442.5
 10
164.8354707730092
 20
442.5
 10
166.7426406871193
 20
442.5
 10
168.02849025766974
 20
442.5
 10
168.5
 20
442.5
  0
LWPOLYLINE
  5
B5
330
17
100
AcDbEntity
  8
CycloneBody
100
AcDbPolyline
 90
41
 70
1
 10
100.0
 20
510.0
 10
99.48371127300746
 20
510.0
 10
97.96835541922786
 20
510.0
 10
92.14150429449552
 20
510.0
 10
82.9215705521791
 20
510.0
 10
70.71067811865473
 20
510.0
 10
55.91095092029852
 20
510.0
 10
38.92451288348657
 20
510.0
 10
20.15348793459502
 20
510.0
 10
10.224419095111926
 20
510.0
 10
-1.8369701987210297e-14
 20
510.0
 10
-10.22441909511197
 20
510.0
 10
-20.15348793459506
 20
510.0
 10
-38.924512883486614
 20
510.0
 10
-55.91095092029855
 20
510.0
 10
-70.71067811865476
 20
510.0
 10
-82.92157055217913
 20
510.0
 10
-92.14150429449553
 20
510.0
 10
-97.96835541922786
 20
510.0
 10
-99.48371127300746
 20
510.0
 10
-100.0
 20
510.0
 10
-99.48371127300746
 20
510.0
 10
-97.96835541922786
 20
510.0
 10
-92.14150429449552
 20
510.0
 10
-82.9215705521791
 20
510.0
 10
-70.71067811865474
 20
510.0
 10
-55.91095092029853
 20
510.0
 10
-38.924512883486585
 20
510.0
 10
-20.153487934595034
 20
510.0
 10
-10.224419095111955
 20
510.0
 10
6.123233995736766e-15
 20
510.0
 10
10.224419095111957
 20
510.0
 10
20.15348793459505
 20
510.0
 10
38.92451288348661
 20
510.0
 10
55.91095092029854
 20
510.0
 10
70.71067811865476
 20
510.0
 10
82.92157055217912
 20
510.0
 10
92.14150429449553
 20
510.0
 10
97.96835541922786
 20
510.0
 10
99.48371127300746
 20
510.0
 10
100.0
 20
510.0
  0
LWPOLYLINE
  5
B6
330
17
100
AcDbEntity
  8
CycloneBody
100
AcDbPolyline
 90
2
 70
0
 10
100.0
 20
495.0
 10
100.0
 20
510.0
  0
LWPOLYLINE
  5
B7
330
17
100
AcDbEntity
  8
CycloneBody
100
AcDbPolyline
 90
41
 70
1
 10
100.0
 20
495.0
 10
99.48371127300746
 20
495.0
 10
97.96835541922786
 20
495.0
 10
92.14150429449552
 20
495.0
 10
82.9215705521791
 20
495.0
 10
70.71067811865473
 20
495.0
 10
55.91095092029852
 20
495.0
 10
38.92451288348657
 20
495.0
 10
20.15348793459502
 20
495.0
 10
10.224419095111926
 20
495.0
 10
-1.8369701987210297e-14
 20
495.0
 10
-10.22441909511197
 20
495.0
 10
-20.15348793459506
 20
495.0
 10
-38.924512883486614
 20
495.0
 10
-55.91095092029855
 20
495.0
 10
-70.71067811865476
 20
495.0
 10
-82.92157055217913
 20
495.0
 10
-92.14150429449553
 20
495.0
 10
-97.96835541922786
 20
495.0
 10
-99.48371127300746
 20
495.0
 10
-100.0
 20
495.0
 10
-99.48371127300746
 20
495.0
 10
-97.96835541922786
 20
495.0
 10
-92.14150429449552
 20
495.0
 10
-82.9215705521791
 20
495.0
 10
-70.71067811865474
 20
495.0
 10
-55.91095092029853
 20
495.0
 10
-38.924512883486585
 20
495.0
 10
-20.153487934595034
 20
495.0
 10
-10.224419095111955
 20
495.0
 10
6.123233995736766e-15
 20
495.0
 10
10.224419095111957
 20
495.0
 10
20.15348793459505
 20
495.0
 10
38.92451288348661
 20
495.0
 10
55.91095092029854
 20
495.0
 10
70.71067811865476
 20
495.0
 10
82.92157055217912
 20
495.0
 10
92.14150429449553
 20
495.0
 10
97.96835541922786
 20
495.0
 10
99.48371127300746
 20
495.0
 10
100.0
 20
495.0
  0
LWPOLYLINE
  5
B8
330
17
100
AcDbEntity
  8
CycloneBody
100
AcDbPolyline
 90
2
 70
0
 10
100.0
 20
495.0
 10
100.0
 20
510.0
  0
LWPOLYLINE
  5
B9
330
17
100
AcDbEntity
  8
CycloneBody
100
AcDbPolyline
 90
17
 70
1
 10
6.0
 20
510.0
 10
5.5284902576697315
 20
510.0
 10
4.242640687119284
 20
510.0
 10
2.3354707730091944
 20
510.0
 10
-1.102182119232618e-15
 20
510.0
 10
-2.3354707730091966
 20
510.0
 10
-4.242640687119286
 20
510.0
 10
-5.5284902576697315
 20
510.0
 10
-6.0
 20
510.0
 10
-5.5284902576697315
 20
510.0
 10
-4.242640687119284
 20
510.0
 10
-2.3354707730091953
 20
510.0
 10
3.6739403974420594e-16
 20
510.0
 10
2.335470773009196
 20
510.0
 10
4.242640687119286
 20
510.0
 10
5.528490257669732
 20
510.0
 10
6.0
 20
510.0
  0
LWPOLYLINE
  5
BA
330
17
100
AcDbEntity
  8
CycloneBody
100
AcDbPolyline
 90
2
 70
0
 10
6.0
 20
495.0
 10
6.0
 20
510.0
  0
LWPOLYLINE
  5
BB
330
17
100
AcDbEntity
  8
CycloneBody
100
AcDbPolyline
 90
17
 70
1
 10
6.0
 20
495.0
 10
5.5284902576697315
 20
495.0
 10
4.242640687119284
 20
495.0
 10
2.3354707730091944
 20
495.0
 10
-1.102182119232618e-15
 20
495.0
 10
-2.3354707730091966
 20
495.0
 10
-4.242640687119286
 20
495.0
 10
-5.5284902576697315
 20
495.0
 10
-6.0
 20
495.0
 10
-5.5284902576697315
 20
495.0
 10
-4.242640687119284
 20
495.0
 10
-2.3354707730091953
 20
495.0
 10
3.6739403974420594e-16
 20
495.0
 10
2.335470773009196
 20
495.0
 10
4.242640687119286
 20
495.0
 10
5.528490257669732
 20
495.0
 10
6.0
 20
495.0
  0
LWPOLYLINE
  5
BC
330
17
100
AcDbEntity
  8
CycloneBody
100
AcDbPolyline
 90
2
 70
0
 10
6.0
 20
495.0
 10
6.0
 20
510.0
  0
LWPOLYLINE
  5
BD
330
17
100
AcDbEntity
  8
CycloneBody
100
AcDbPolyline
 90
17
 70
1
 10
93.5
 20
510.0
 10
93.02849025766973
 20
510.0
 10
91.74264068711928
 20
510.0
 10
89.83547077300919
 20
510.0
 10
87.5
 20
510.0
 10
85.16452922699081
 20
510.0
 10
83.25735931288071
 20
510.0
 10
81.97150974233027
 20
510.0
 10
81.5
 20
510.0
 10
81.97150974233027
 20
510.0
 10
83.25735931288071
 20
510.0
 10
85.16452922699081
 20
510.0
 10
87.5
 20
510.0
 10
89.83547077300919
 20
510.0
 10
91.74264068711929
 20
510.0
 10
93.02849025766973
 20
510.0
 10
93.5
 20
510.0
  0
LWPOLYLINE
  5
BE
330
17
100
AcDbEntity
  8
CycloneBody
100
AcDbPolyline
 90
2
 70
0
 10
93.5
 20
495.0
 10
93.5
 20
510.0
  0
LWPOLYLINE
  5
BF
330
17
100
AcDbEntity
  8
CycloneBody
100
AcDbPolyline
 90
17
 70
1
 10
93.5
 20
495.0
 10
93.02849025766973
 20
495.0
 10
91.74264068711928
 20
495.0
 10
89.83547077300919
 20
495.0
 10
87.5
 20
495.0
 10
85.16452922699081
 20
495.0
 10
83.25735931288071
 20
495.0
 10
81.97150974233027
 20
495.0
 10
81.5
 20
495.0
 10
81.97150974233027
 20
495.0
 10
83.25735931288071
 20
495.0
 10
85.16452922699081
 20
495.0
 10
87.5
 20
495.0
 10
89.83547077300919
 20
495.0
 10
91.74264068711929
 20
495.0
 10
93.02849025766973
 20
495.0
 10
93.5
 20
495.0
  0
LWPOLYLINE
  5
C0
330
17
100
AcDbEntity
  8
CycloneBody
100
AcDbPolyline
 90
2
 70
0
 10
93.5
 20
495.0
 10
93.5
 20
510.0
  0
LWPOLYLINE
  5
C1
330
17
100
AcDbEntity
  8
CycloneBody
100
AcDbPolyline
 90
17
 70
1
 10
-81.5
 20
510.0
 10
-81.97150974233027
 20
510.0
 10
-83.25735931288072
 20
510.0
 10
-85.16452922699081
 20
510.0
 10
-87.5
 20
510.0
 10
-89.83547077300919
 20
510.0
 10
-91.74264068711929
 20
510.0
 10
-93.02849025766973
 20
510.0
 10
-93.5
 20
510.0
 10
-93.02849025766973
 20
510.0
 10
-91.74264068711929
 20
510.0
 10
-89.83547077300919
 20
510.0
 10
-87.5
 20
510.0
 10
-85.16452922699081
 20
510.0
 10
-83.25735931288071
 20
510.0
 10
-81.97150974233027
 20
510.0
 10
-81.5
 20
510.0
  0
LWPOLYLINE
  5
C2
330
17
100
AcDbEntity
  8
CycloneBody
100
AcDbPolyline
 90
2
 70
0
 10
-81.5
 20
495.0
 10
-81.5
 20
510.0
  0
LWPOLYLINE
  5
C3
330
17
100
AcDbEntity
  8
CycloneBody
100
AcDbPolyline
 90
17
 70
1
 10
-81.5
 20
495.0
 10
-81.97150974233027
 20
495.0
 10
-83.25735931288072
 20
495.0
 10
-85.16452922699081
 20
495.0
 10
-87.5
 20
495.0
 10
-89.83547077300919
 20
495.0
 10
-91.74264068711929
 20
495.0
 10
-93.02849025766973
 20
495.0
 10
-93.5
 20
495.0
 10
-93.02849025766973
 20
495.0
 10
-91.74264068711929
 20
495.0
 10
-89.83547077300919
 20
495.0
 10
-87.5
 20
495.0
 10
-85.16452922699081
 20
495.0
 10
-83.25735931288071
 20
495.0
 10
-81.97150974233027
 20
495.0
 10
-81.5
 20
495.0
  0
LWPOLYLINE
  5
C4
330
17
100
AcDbEntity
  8
CycloneBody
100
AcDbPolyline
 90
2
 70
0
 10
-81.5
 20
495.0
 10
-81.5
 20
510.0
  0
LWPOLYLINE
  5
C5
330
17
100
AcDbEntity
  8
CycloneBody
100
AcDbPolyline
 90
17
 70
1
 10
6.0
 20
510.0
 10
5.5284902576697315
 20
510.0
 10
4.242640687119284
 20
510.0
 10
2.3354707730091944
 20
510.0
 10
-1.102182119232618e-15
 20
510.0
 10
-2.3354707730091966
 20
510.0
 10
-4.242640687119286
 20
510.0
 10
-5.5284902576697315
 20
510.0
 10
-6.0
 20
510.0
 10
-5.5284902576697315
 20
510.0
 10
-4.242640687119284
 20
510.0
 10
-2.3354707730091953
 20
510.0
 10
3.6739403974420594e-16
 20
510.0
 10
2.335470773009196
 20
510.0
 10
4.242640687119286
 20
510.0
 10
5.528490257669732
 20
510.0
 10
6.0
 20
510.0
  0
LWPOLYLINE
  5
C6
330
17
100
AcDbEntity
  8
CycloneBody
100
AcDbPolyline
 90
2
 70
0
 10
6.0
 20
495.0
 10
6.0
 20
510.0
  0
LWPOLYLINE
  5
C7
330
17
100
AcDbEntity
  8
CycloneBody
100
AcDbPolyline
 90
17
 70
1
 10
6.0
 20
495.0
 10
5.5284902576697315
 20
495.0
 10
4.242640687119284
 20
495.0
 10
2.3354707730091944
 20
495.0
 10
-1.102182119232618e-15
 20
495.0
 10
-2.3354707730091966
 20
495.0
 10
-4.242640687119286
 20
495.0
 10
-5.5284902576697315
 20
495.0
 10
-6.0
 20
495.0
 10
-5.5284902576697315
 20
495.0
 10
-4.242640687119284
 20
495.0
 10
-2.3354707730091953
 20
495.0
 10
3.6739403974420594e-16
 20
495.0
 10
2.335470773009196
 20
495.0
 10
4.242640687119286
 20
495.0
 10
5.528490257669732
 20
495.0
 10
6.0
 20
495.0
  0
LWPOLYLINE
  5
C8
330
17
100
AcDbEntity
  8
CycloneBody
100
AcDbPolyline
 90
2
 70
0
 10
6.0
 20
495.0
 10
6.0
 20
510.0
  0
LWPOLYLINE
  5
C9
330
17
100
AcDbEntity
  8
CycloneBody
100
AcDbPolyline
 90
33
 70
1
 10
75.0
 20
-710.0
 10
73.4762665644209
 20
-710.0
 10
69.10612822087164
 20
-710.0
 10
62.19117791413433
 20
-710.0
 10
53.03300858899105
 20
-710.0
 10
41.93321319022389
 20
-710.0
 10
29.193384662614932
 20
-710.0
 10
15.115115950946269
 20
-710.0
 10
-1.3777276490407723e-14
 20
-710.0
 10
-15.115115950946297
 20
-710.0
 10
-29.19338466261496
 20
-710.0
 10
-41.93321319022391
 20
-710.0
 10
-53.033008588991066
 20
-710.0
 10
-62.19117791413434
 20
-710.0
 10
-69.10612822087164
 20
-710.0
 10
-73.4762665644209
 20
-710.0
 10
-75.0
 20
-710.0
 10
-73.4762665644209
 20
-710.0
 10
-69.10612822087164
 20
-710.0
 10
-62.19117791413433
 20
-710.0
 10
-53.03300858899105
 20
-710.0
 10
-41.933213190223896
 20
-710.0
 10
-29.193384662614946
 20
-710.0
 10
-15.115115950946283
 20
-710.0
 10
4.592425496802574e-15
 20
-710.0
 10
15.115115950946288
 20
-710.0
 10
29.19338466261495
 20
-710.0
 10
41.93321319022391
 20
-710.0
 10
53.03300858899107
 20
-710.0
 10
62.19117791413435
 20
-710.0
 10
69.10612822087165
 20
-710.0
 10
73.4762665644209
 20
-710.0
 10
75.0
 20
-710.0
  0
LWPOLYLINE
  5
CA
330
17
100
AcDbEntity
  8
CycloneBody
100
AcDbPolyline
 90
17
 70
1
 10
6.0
 20
-710.0
 10
5.5284902576697315
 20
-710.0
 10
4.242640687119284
 20
-710.0
 10
2.3354707730091944
 20
-710.0
 10
-1.102182119232618e-15
 20
-710.0
 10
-2.3354707730091966
 20
-710.0
 10
-4.242640687119286
 20
-710.0
 10
-5.5284902576697315
 20
-710.0
 10
-6.0
 20
-710.0
 10
-5.5284902576697315
 20
-710.0
 10
-4.242640687119284
 20
-710.0
 10
-2.3354707730091953
 20
-710.0
 10
3.6739403974420594e-16
 20
-710.0
 10
2.335470773009196
 20
-710.0
 10
4.242640687119286
 20
-710.0
 10
5.528490257669732
 20
-710.0
 10
6.0
 20
-710.0
  0
LWPOLYLINE
  5
CB
330
17
100
AcDbEntity
  8
CycloneBody
100
AcDbPolyline
 90
17
 70
1
 10
-56.5
 20
-710.0
 10
-56.97150974233027
 20
-710.0
 10
-58.257359312880716
 20
-710.0
 10
-60.16452922699081
 20
-710.0
 10
-62.5
 20
-710.0
 10
-64.83547077300919
 20
-710.0
 10
-66.74264068711929
 20
-710.0
 10
-68.02849025766973
 20
-710.0
 10
-68.5
 20
-710.0
 10
-68.02849025766973
 20
-710.0
 10
-66.74264068711929
 20
-710.0
 10
-64.83547077300919
 20
-710.0
 10
-62.5
 20
-710.0
 10
-60.16452922699081
 20
-710.0
 10
-58.257359312880716
 20
-710.0
 10
-56.97150974233027
 20
-710.0
 10
-56.5
 20
-710.0
  0
LWPOLYLINE
  5
CC
330
17
100
AcDbEntity
  8
CycloneBody
100
AcDbPolyline
 90
33
 70
1
 10
50.0
 20
-710.0
 10
48.98417770961393
 20
-710.0
 10
46.07075214724776
 20
-710.0
 10
41.46078527608955
 20
-710.0
 10
35.35533905932736
 20
-710.0
 10
27.95547546014926
 20
-710.0
 10
19.462256441743286
 20
-710.0
 10
10.07674396729751
 20
-710.0
 10
-9.184850993605149e-15
 20
-710.0
 10
-10.07674396729753
 20
-710.0
 10
-19.462256441743307
 20
-710.0
 10
-27.955475460149277
 20
-710.0
 10
-35.35533905932738
 20
-710.0
 10
-41.46078527608957
 20
-710.0
 10
-46.07075214724777
 20
-710.0
 10
-48.98417770961393
 20
-710.0
 10
-50.0
 20
-710.0
 10
-48.98417770961393
 20
-710.0
 10
-46.07075214724776
 20
-710.0
 10
-41.46078527608955
 20
-710.0
 10
-35.35533905932737
 20
-710.0
 10
-27.955475460149266
 20
-710.0
 10
-19.462256441743293
 20
-710.0
 10
-10.076743967297517
 20
-710.0
 10
3.061616997868383e-15
 20
-710.0
 10
10.076743967297524
 20
-710.0
 10
19.462256441743303
 20
-710.0
 10
27.95547546014927
 20
-710.0
 10
35.35533905932738
 20
-710.0
 10
41.46078527608956
 20
-710.0
 10
46.07075214724777
 20
-710.0
 10
48.98417770961393
 20
-710.0
 10
50.0
 20
-710.0
  0
LWPOLYLINE
  5
CD
330
17
100
AcDbEntity
  8
CycloneBody
100
AcDbPolyline
 90
17
 70
1
 10
68.5
 20
-710.0
 10
68.02849025766973
 20
-710.0
 10
66.74264068711928
 20
-710.0
 10
64.83547077300919
 20
-710.0
 10
62.5
 20
-710.0
 10
60.16452922699081
 20
-710.0
 10
58.257359312880716
 20
-710.0
 10
56.97150974233027
 20
-710.0
 10
56.5
 20
-710.0
 10
56.97150974233027
 20
-710.0
 10
58.257359312880716
 20
-710.0
 10
60.16452922699081
 20
-710.0
 10
62.5
 20
-710.0
 10
64.83547077300919
 20
-710.0
 10
66.74264068711929
 20
-710.0
 10
68.02849025766973
 20
-710.0
 10
68.5
 20
-710.0
  0
LWPOLYLINE
  5
CE
330
17
100
AcDbEntity
  8
CycloneBody
100
AcDbPolyline
 90
17
 70
1
 10
6.0
 20
-710.0
 10
5.5284902576697315
 20
-710.0
 10
4.242640687119284
 20
-710.0
 10
2.3354707730091944
 20
-710.0
 10
-1.102182119232618e-15
 20
-710.0
 10
-2.3354707730091966
 20
-710.0
 10
-4.242640687119286
 20
-710.0
 10
-5.5284902576697315
 20
-710.0
 10
-6.0
 20
-710.0
 10
-5.5284902576697315
 20
-710.0
 10
-4.242640687119284
 20
-710.0
 10
-2.3354707730091953
 20
-710.0
 10
3.6739403974420594e-16
 20
-710.0
 10
2.335470773009196
 20
-710.0
 10
4.242640687119286
 20
-710.0
 10
5.528490257669732
 20
-710.0
 10
6.0
 20
-710.0
  0
LWPOLYLINE
  5
CF
330
17
100
AcDbEntity
  8
CycloneBody
100
AcDbPolyline
 90
2
 70
1
 10
90.0
 20
430.0
 10
90.0
 20
430.0
  0
LWPOLYLINE
  5
D0
330
17
100
AcDbEntity
  8
CycloneBody
100
AcDbPolyline
 90
2
 70
0
 10
90.0
 20
430.0
 10
150.0
 20
430.0
  0
LWPOLYLINE
  5
D1
330
17
100
AcDbEntity
  8
CycloneBody
100
AcDbPolyline
 90
2
 70
1
 10
150.0
 20
430.0
 10
150.0
 20
430.0
  0
LWPOLYLINE
  5
D2
330
17
100
AcDbEntity
  8
CycloneBody
100
AcDbPolyline
 90
2
 70
0
 10
90.0
 20
430.0
 10
150.0
 20
430.0
  0
LWPOLYLINE
  5
D3
330
17
100
AcDbEntity
  8
CycloneBody
100
AcDbPolyline
 90
2
 70
1
 10
90.0
 20
430.0
 10
90.0
 20
430.0
  0
LWPOLYLINE
  5
D4
330
17
100
AcDbEntity
  8
CycloneBody
100
AcDbPolyline
 90
2
 70
0
 10
90.0
 20
280.0
 10
90.0
 20
430.0
  0
LWPOLYLINE
  5
D5
330
17
100
AcDbEntity
  8
CycloneBody
100
AcDbPolyline
 90
2
 70
1
 10
90.0
 20
280.0
 10
90.0
 20
280.0
  0
LWPOLYLINE
  5
D6
330
17
100
AcDbEntity
  8
CycloneBody
100
AcDbPolyline
 90
2
 70
0
 10
90.0
 20
430.0
 10
90.0
 20
280.0
  0
LWPOLYLINE
  5
D7
330
17
100
AcDbEntity
  8
CycloneBody
100
AcDbPolyline
 90
2
 70
1
 10
150.0
 20
430.0
 10
150.0
 20
430.0
  0
LWPOLYLINE
  5
D8
330
17
100
AcDbEntity
  8
CycloneBody
100
AcDbPolyline
 90
2
 70
0
 10
150.0
 20
280.0
 10
150.0
 20
430.0
  0
LWPOLYLINE
  5
D9
330
17
100
AcDbEntity
  8
CycloneBody
100
AcDbPolyline
 90
2
 70
1
 10
150.0
 20
280.0
 10
150.0
 20
280.0
  0
LWPOLYLINE
  5
DA
330
17
100
AcDbEntity
  8
CycloneBody
100
AcDbPolyline
 90
2
 70
0
 10
150.0
 20
430.0
 10
150.0
 20
280.0
  0
LWPOLYLINE
  5
DB
330
17
100
AcDbEntity
  8
CycloneBody
100
AcDbPolyline
 90
2
 70
1
 10
90.0
 20
280.0
 10
90.0
 20
280.0
  0
LWPOLYLINE
  5
DC
330
17
100
AcDbEntity
  8
CycloneBody
100
AcDbPolyline
 90
2
 70
0
 10
90.0
 20
280.0
 10
150.0
 20
280.0
  0
LWPOLYLINE
  5
DD
330
17
100
AcDbEntity
  8
CycloneBody
100
AcDbPolyline
 90
2
 70
1
 10
150.0
 20
280.0
 10
150.0
 20
280.0
  0
LWPOLYLINE
  5
DE
330
17
100
AcDbEntity
  8
CycloneBody
100
AcDbPolyline
 90
2
 70
0
 10
90.0
 20
280.0
 10
150.0
 20
280.0
  0
LWPOLYLINE
  5
DF
330
17
100
AcDbEntity
  8
CycloneBody
100
AcDbPolyline
 90
41
 70
1
 10
100.0
 20
510.0
 10
99.48371127300746
 20
510.0
 10
97.96835541922786
 20
510.0
 10
92.14150429449552
 20
510.0
 10
82.9215705521791
 20
510.0
 10
70.71067811865473
 20
510.0
 10
55.91095092029852
 20
510.0
 10
38.92451288348657
 20
510.0
 10
20.15348793459502
 20
510.0
 10
10.224419095111926
 20
510.0
 10
-1.8369701987210297e-14
 20
510.0
 10
-10.22441909511197
 20
510.0
 10
-20.15348793459506
 20
510.0
 10
-38.924512883486614
 20
510.0
 10
-55.91095092029855
 20
510.0
 10
-70.71067811865476
 20
510.0
 10
-82.92157055217913
 20
510.0
 10
-92.14150429449553
 20
510.0
 10
-97.96835541922786
 20
510.0
 10
-99.48371127300746
 20
510.0
 10
-100.0
 20
510.0
 10
-99.48371127300746
 20
510.0
 10
-97.96835541922786
 20
510.0
 10
-92.14150429449552
 20
510.0
 10
-82.9215705521791
 20
510.0
 10
-70.71067811865474
 20
510.0
 10
-55.91095092029853
 20
510.0
 10
-38.924512883486585
 20
510.0
 10
-20.153487934595034
 20
510.0
 10
-10.224419095111955
 20
510.0
 10
6.123233995736766e-15
 20
510.0
 10
10.224419095111957
 20
510.0
 10
20.15348793459505
 20
510.0
 10
38.92451288348661
 20
510.0
 10
55.91095092029854
 20
510.0
 10
70.71067811865476
 20
510.0
 10
82.92157055217912
 20
510.0
 10
92.14150429449553
 20
510.0
 10
97.96835541922786
 20
510.0
 10
99.48371127300746
 20
510.0
 10
100.0
 20
510.0
  0
LWPOLYLINE
  5
E0
330
17
100
AcDbEntity
  8
CycloneBody
100
AcDbPolyline
 90
17
 70
1
 10
6.0
 20
510.0
 10
5.5284902576697315
 20
510.0
 10
4.242640687119284
 20
510.0
 10
2.3354707730091944
 20
510.0
 10
-1.102182119232618e-15
 20
510.0
 10
-2.3354707730091966
 20
510.0
 10
-4.242640687119286
 20
510.0
 10
-5.5284902576697315
 20
510.0
 10
-6.0
 20
510.0
 10
-5.5284902576697315
 20
510.0
 10
-4.242640687119284
 20
510.0
 10
-2.3354707730091953
 20
510.0
 10
3.6739403974420594e-16
 20
510.0
 10
2.335470773009196
 20
510.0
 10
4.242640687119286
 20
510.0
 10
5.528490257669732
 20
510.0
 10
6.0
 20
510.0
  0
LWPOLYLINE
  5
E1
330
17
100
AcDbEntity
  8
CycloneBody
100
AcDbPolyline
 90
33
 70
1
 10
75.0
 20
510.0
 10
73.4762665644209
 20
510.0
 10
69.10612822087164
 20
510.0
 10
62.19117791413433
 20
510.0
 10
53.03300858899105
 20
510.0
 10
41.93321319022389
 20
510.0
 10
29.193384662614932
 20
510.0
 10
15.115115950946269
 20
510.0
 10
-1.3777276490407723e-14
 20
510.0
 10
-15.115115950946297
 20
510.0
 10
-29.19338466261496
 20
510.0
 10
-41.93321319022391
 20
510.0
 10
-53.033008588991066
 20
510.0
 10
-62.19117791413434
 20
510.0
 10
-69.10612822087164
 20
510.0
 10
-73.4762665644209
 20
510.0
 10
-75.0
 20
510.0
 10
-73.4762665644209
 20
510.0
 10
-69.10612822087164
 20
510.0
 10
-62.19117791413433
 20
510.0
 10
-53.03300858899105
 20
510.0
 10
-41.933213190223896
 20
510.0
 10
-29.193384662614946
 20
510.0
 10
-15.115115950946283
 20
510.0
 10
4.592425496802574e-15
 20
510.0
 10
15.115115950946288
 20
510.0
 10
29.19338466261495
 20
510.0
 10
41.93321319022391
 20
510.0
 10
53.03300858899107
 20
510.0
 10
62.19117791413435
 20
510.0
 10
69.10612822087165
 20
510.0
 10
73.4762665644209
 20
510.0
 10
75.0
 20
510.0
  0
LWPOLYLINE
  5
E2
330
17
100
AcDbEntity
  8
CycloneBody
100
AcDbPolyline
 90
17
 70
1
 10
93.5
 20
510.0
 10
93.02849025766973
 20
510.0
 10
91.74264068711928
 20
510.0
 10
89.83547077300919
 20
510.0
 10
87.5
 20
510.0
 10
85.16452922699081
 20
510.0
 10
83.25735931288071
 20
510.0
 10
81.97150974233027
 20
510.0
 10
81.5
 20
510.0
 10
81.97150974233027
 20
510.0
 10
83.25735931288071
 20
510.0
 10
85.16452922699081
 20
510.0
 10
87.5
 20
510.0
 10
89.83547077300919
 20
510.0
 10
91.74264068711929
 20
510.0
 10
93.02849025766973
 20
510.0
 10
93.5
 20
510.0
  0
LWPOLYLINE
  5
E3
330
17
100
AcDbEntity
  8
CycloneBody
100
AcDbPolyline
 90
17
 70
1
 10
-81.5
 20
510.0
 10
-81.97150974233027
 20
510.0
 10
-83.25735931288072
 20
510.0
 10
-85.16452922699081
 20
510.0
 10
-87.5
 20
510.0
 10
-89.83547077300919
 20
510.0
 10
-91.74264068711929
 20
510.0
 10
-93.02849025766973
 20
510.0
 10
-93.5
 20
510.0
 10
-93.02849025766973
 20
510.0
 10
-91.74264068711929
 20
510.0
 10
-89.83547077300919
 20
510.0
 10
-87.5
 20
510.0
 10
-85.16452922699081
 20
510.0
 10
-83.25735931288071
 20
510.0
 10
-81.97150974233027
 20
510.0
 10
-81.5
 20
510.0
  0
LWPOLYLINE
  5
E4
330
17
100
AcDbEntity
  8
CycloneBody
100
AcDbPolyline
 90
17
 70
1
 10
6.0
 20
510.0
 10
5.5284902576697315
 20
510.0
 10
4.242640687119284
 20
510.0
 10
2.3354707730091944
 20
510.0
 10
-1.102182119232618e-15
 20
510.0
 10
-2.3354707730091966
 20
510.0
 10
-4.242640687119286
 20
510.0
 10
-5.5284902576697315
 20
510.0
 10
-6.0
 20
510.0
 10
-5.5284902576697315
 20
510.0
 10
-4.242640687119284
 20
510.0
 10
-2.3354707730091953
 20
510.0
 10
3.6739403974420594e-16
 20
510.0
 10
2.335470773009196
 20
510.0
 10
4.242640687119286
 20
510.0
 10
5.528490257669732
 20
510.0
 10
6.0
 20
510.0
  0
LWPOLYLINE
  5
E5
330
17
100
AcDbEntity
  8
CycloneBody
100
AcDbPolyline
 90
33
 70
1
 10
50.0
 20
-700.0
 10
48.98417770961393
 20
-700.0
 10
46.07075214724776
 20
-700.0
 10
41.46078527608955
 20
-700.0
 10
35.35533905932736
 20
-700.0
 10
27.95547546014926
 20
-700.0
 10
19.462256441743286
 20
-700.0
 10
10.07674396729751
 20
-700.0
 10
-9.184850993605149e-15
 20
-700.0
 10
-10.07674396729753
 20
-700.0
 10
-19.462256441743307
 20
-700.0
 10
-27.955475460149277
 20
-700.0
 10
-35.35533905932738
 20
-700.0
 10
-41.46078527608957
 20
-700.0
 10
-46.07075214724777
 20
-700.0
 10
-48.98417770961393
 20
-700.0
 10
-50.0
 20
-700.0
 10
-48.98417770961393
 20
-700.0
 10
-46.07075214724776
 20
-700.0
 10
-41.46078527608955
 20
-700.0
 10
-35.35533905932737
 20
-700.0
 10
-27.955475460149266
 20
-700.0
 10
-19.462256441743293
 20
-700.0
 10
-10.076743967297517
 20
-700.0
 10
3.061616997868383e-15
 20
-700.0
 10
10.076743967297524
 20
-700.0
 10
19.462256441743303
 20
-700.0
 10
27.95547546014927
 20
-700.0
 10
35.35533905932738
 20
-700.0
 10
41.46078527608956
 20
-700.0
 10
46.07075214724777
 20
-700.0
 10
48.98417770961393
 20
-700.0
 10
50.0
 20
-700.0
  0
LWPOLYLINE
  5
E6
330
17
100
AcDbEntity
  8
CycloneBody
100
AcDbPolyline
 90
2
 70
0
 10
50.0
 20
-710.0
 10
50.0
 20
-700.0
  0
LWPOLYLINE
  5
E7
330
17
100
AcDbEntity
  8
CycloneBody
100
AcDbPolyline
 90
33
 70
1
 10
50.0
 20
-710.0
 10
48.98417770961393
 20
-710.0
 10
46.07075214724776
 20
-710.0
 10
41.46078527608955
 20
-710.0
 10
35.35533905932736
 20
-710.0
 10
27.95547546014926
 20
-710.0
 10
19.462256441743286
 20
-710.0
 10
10.07674396729751
 20
-710.0
 10
-9.184850993605149e-15
 20
-710.0
 10
-10.07674396729753
 20
-710.0
 10
-19.462256441743307
 20
-710.0
 10
-27.955475460149277
 20
-710.0
 10
-35.35533905932738
 20
-710.0
 10
-41.46078527608957
 20
-710.0
 10
-46.07075214724777
 20
-710.0
 10
-48.98417770961393
 20
-710.0
 10
-50.0
 20
-710.0
 10
-48.98417770961393
 20
-710.0
 10
-46.07075214724776
 20
-710.0
 10
-41.46078527608955
 20
-710.0
 10
-35.35533905932737
 20
-710.0
 10
-27.955475460149266
 20
-710.0
 10
-19.462256441743293
 20
-710.0
 10
-10.076743967297517
 20
-710.0
 10
3.061616997868383e-15
 20
-710.0
 10
10.076743967297524
 20
-710.0
 10
19.462256441743303
 20
-710.0
 10
27.95547546014927
 20
-710.0
 10
35.35533905932738
 20
-710.0
 10
41.46078527608956
 20
-710.0
 10
46.07075214724777
 20
-710.0
 10
48.98417770961393
 20
-710.0
 10
50.0
 20
-710.0
  0
LWPOLYLINE
  5
E8
330
17
100
AcDbEntity
  8
CycloneBody
100
AcDbPolyline
 90
2
 70
0
 10
50.0
 20
-710.0
 10
50.0
 20
-700.0
  0
LWPOLYLINE
  5
E9
330
17
100
AcDbEntity
  8
CycloneBody
100
AcDbPolyline
 90
2
 70
0
 10
90.0
 20
280.0
 10
150.0
 20
280.0
  0
LWPOLYLINE
  5
EA
330
17
100
AcDbEntity
  8
CycloneBody
100
AcDbPolyline
 90
2
 70
0
 10
90.0
 20
280.0
 10
90.0
 20
430.0
  0
LWPOLYLINE
  5
EB
330
17
100
AcDbEntity
  8
CycloneBody
100
AcDbPolyline
 90
2
 70
0
 10
90.0
 20
430.0
 10
150.0
 20
430.0
  0
LWPOLYLINE
  5
EC
330
17
100
AcDbEntity
  8
CycloneBody
100
AcDbPolyline
 90
2
 70
0
 10
150.0
 20
280.0
 10
150.0
 20
430.0
  0
LWPOLYLINE
  5
ED
330
17
100
AcDbEntity
  8
CycloneBody
100
AcDbPolyline
 90
2
 70
0
 10
93.0
 20
427.0
 10
147.0
 20
427.0
  0
LWPOLYLINE
  5
EE
330
17
100
AcDbEntity
  8
CycloneBody
100
AcDbPolyline
 90
2
 70
0
 10
93.0
 20
283.0
 10
93.0
 20
427.0
  0
LWPOLYLINE
  5
EF
330
17
100
AcDbEntity
  8
CycloneBody
100
AcDbPolyline
 90
2
 70
0
 10
93.0
 20
283.0
 10
147.0
 20
283.0
  0
LWPOLYLINE
  5
F0
330
17
100
AcDbEntity
  8
CycloneBody
100
AcDbPolyline
 90
2
 70
0
 10
147.0
 20
283.0
 10
147.0
 20
427.0
  0
LWPOLYLINE
  5
F1
330
17
100
AcDbEntity
  8
CycloneBody
100
AcDbPolyline
 90
2
 70
0
 10
75.0
 20
500.0
 10
75.0
 20
510.0
  0
LWPOLYLINE
  5
F2
330
17
100
AcDbEntity
  8
CycloneBody
100
AcDbPolyline
 90
33
 70
1
 10
75.0
 20
500.0
 10
73.4762665644209
 20
500.0
 10
69.10612822087164
 20
500.0
 10
62.19117791413433
 20
500.0
 10
53.03300858899105
 20
500.0
 10
41.93321319022389
 20
500.0
 10
29.193384662614932
 20
500.0
 10
15.115115950946269
 20
500.0
 10
-1.3777276490407723e-14
 20
500.0
 10
-15.115115950946297
 20
500.0
 10
-29.19338466261496
 20
500.0
 10
-41.93321319022391
 20
500.0
 10
-53.033008588991066
 20
500.0
 10
-62.19117791413434
 20
500.0
 10
-69.10612822087164
 20
500.0
 10
-73.4762665644209
 20
500.0
 10
-75.0
 20
500.0
 10
-73.4762665644209
 20
500.0
 10
-69.10612822087164
 20
500.0
 10
-62.19117791413433
 20
500.0
 10
-53.03300858899105
 20
500.0
 10
-41.933213190223896
 20
500.0
 10
-29.193384662614946
 20
500.0
 10
-15.115115950946283
 20
500.0
 10
4.592425496802574e-15
 20
500.0
 10
15.115115950946288
 20
500.0
 10
29.19338466261495
 20
500.0
 10
41.93321319022391
 20
500.0
 10
53.03300858899107
 20
500.0
 10
62.19117791413435
 20
500.0
 10
69.10612822087165
 20
500.0
 10
73.4762665644209
 20
500.0
 10
75.0
 20
500.0
  0
LWPOLYLINE
  5
F3
330
17
100
AcDbEntity
  8
CycloneBody
100
AcDbPolyline
 90
2
 70
0
 10
75.0
 20
500.0
 10
75.0
 20
510.0
  0
LWPOLYLINE
  5
F4
330
17
100
AcDbEntity
  8
CycloneBody
100
AcDbPolyline
 90
33
 70
1
 10
75.0
 20
510.0
 10
73.4762665644209
 20
510.0
 10
69.10612822087164
 20
510.0
 10
62.19117791413433
 20
510.0
 10
53.03300858899105
 20
510.0
 10
41.93321319022389
 20
510.0
 10
29.193384662614932
 20
510.0
 10
15.115115950946269
 20
510.0
 10
-1.3777276490407723e-14
 20
510.0
 10
-15.115115950946297
 20
510.0
 10
-29.19338466261496
 20
510.0
 10
-41.93321319022391
 20
510.0
 10
-53.033008588991066
 20
510.0
 10
-62.19117791413434
 20
510.0
 10
-69.10612822087164
 20
510.0
 10
-73.4762665644209
 20
510.0
 10
-75.0
 20
510.0
 10
-73.4762665644209
 20
510.0
 10
-69.10612822087164
 20
510.0
 10
-62.19117791413433
 20
510.0
 10
-53.03300858899105
 20
510.0
 10
-41.933213190223896
 20
510.0
 10
-29.193384662614946
 20
510.0
 10
-15.115115950946283
 20
510.0
 10
4.592425496802574e-15
 20
510.0
 10
15.115115950946288
 20
510.0
 10
29.19338466261495
 20
510.0
 10
41.93321319022391
 20
510.0
 10
53.03300858899107
 20
510.0
 10
62.19117791413435
 20
510.0
 10
69.10612822087165
 20
510.0
 10
73.4762665644209
 20
510.0
 10
75.0
 20
510.0
  0
LWPOLYLINE
  5
F5
330
17
100
AcDbEntity
  8
CycloneBody
100
AcDbPolyline
 90
33
 70
1
 10
50.0
 20
-700.0
 10
48.98417770961393
 20
-700.0
 10
46.07075214724776
 20
-700.0
 10
41.46078527608955
 20
-700.0
 10
35.35533905932736
 20
-700.0
 10
27.95547546014926
 20
-700.0
 10
19.462256441743286
 20
-700.0
 10
10.07674396729751
 20
-700.0
 10
-9.184850993605149e-15
 20
-700.0
 10
-10.07674396729753
 20
-700.0
 10
-19.462256441743307
 20
-700.0
 10
-27.955475460149277
 20
-700.0
 10
-35.35533905932738
 20
-700.0
 10
-41.46078527608957
 20
-700.0
 10
-46.07075214724777
 20
-700.0
 10
-48.98417770961393
 20
-700.0
 10
-50.0
 20
-700.0
 10
-48.98417770961393
 20
-700.0
 10
-46.07075214724776
 20
-700.0
 10
-41.46078527608955
 20
-700.0
 10
-35.35533905932737
 20
-700.0
 10
-27.955475460149266
 20
-700.0
 10
-19.462256441743293
 20
-700.0
 10
-10.076743967297517
 20
-700.0
 10
3.061616997868383e-15
 20
-700.0
 10
10.076743967297524
 20
-700.0
 10
19.462256441743303
 20
-700.0
 10
27.95547546014927
 20
-700.0
 10
35.35533905932738
 20
-700.0
 10
41.46078527608956
 20
-700.0
 10
46.07075214724777
 20
-700.0
 10
48.98417770961393
 20
-700.0
 10
50.0
 20
-700.0
  0
LWPOLYLINE
  5
F6
330
17
100
AcDbEntity
  8
CycloneBody
100
AcDbPolyline
 90
33
 70
1
 10
47.0
 20
-700.0
 10
46.04512704703709
 20
-700.0
 10
43.306507018412894
 20
-700.0
 10
38.97313815952418
 20
-700.0
 10
33.234018715767725
 20
-700.0
 10
26.278146932540302
 20
-700.0
 10
18.29452105523869
 20
-700.0
 10
9.472139329259662
 20
-700.0
 10
-8.633759933988839e-15
 20
-700.0
 10
-9.47213932925968
 20
-700.0
 10
-18.294521055238707
 20
-700.0
 10
-26.278146932540317
 20
-700.0
 10
-33.23401871576774
 20
-700.0
 10
-38.97313815952419
 20
-700.0
 10
-43.3065070184129
 20
-700.0
 10
-46.0451270470371
 20
-700.0
 10
-47.0
 20
-700.0
 10
-46.04512704703709
 20
-700.0
 10
-43.306507018412894
 20
-700.0
 10
-38.97313815952418
 20
-700.0
 10
-33.23401871576773
 20
-700.0
 10
-26.27814693254031
 20
-700.0
 10
-18.294521055238697
 20
-700.0
 10
-9.472139329259669
 20
-700.0
 10
2.87791997799628e-15
 20
-700.0
 10
9.472139329259674
 20
-700.0
 10
18.294521055238704
 20
-700.0
 10
26.278146932540317
 20
-700.0
 10
33.23401871576773
 20
-700.0
 10
38.97313815952418
 20
-700.0
 10
43.3065070184129
 20
-700.0
 10
46.0451270470371
 20
-700.0
 10
47.0
 20
-700.0
  0
LWPOLYLINE
  5
F7
330
17
100
AcDbEntity
  8
CycloneBody
100
AcDbPolyline
 90
9
 70
0
 10
92.38187999791083
 20
427.0
 10
102.51709764841887
 20
427.0
 10
111.78885517595778
 20
427.0
 10
120.15631797768681
 20
427.0
 10
127.5786514507652
 20
427.0
 10
134.01502099235216
 20
427.0
 10
139.42459199960695
 20
427.0
 10
143.76652986968884
 20
427.0
 10
146.999999999757
 20
427.0
  0
LWPOLYLINE
  5
F8
330
17
100
AcDbEntity
  8
CycloneBody
100
AcDbPolyline
 90
5
 70
0
 10
93.0
 20
427.0
 10
92.95979281570456
 20
427.0
 10
92.841270841628
 20
427.0
 10
92.64758344598503
 20
427.0
 10
92.38187999699034
 20
427.0
  0
LWPOLYLINE
  5
F9
330
17
100
AcDbEntity
  8
CycloneBody
100
AcDbPolyline
 90
2
 70
1
 10
93.0
 20
427.0
 10
93.0
 20
427.0
  0
LWPOLYLINE
  5
FA
330
17
100
AcDbEntity
  8
CycloneBody
100
AcDbPolyline
 90
2
 70
0
 10
93.0
 20
427.0
 10
147.0
 20
427.0
  0
LWPOLYLINE
  5
FB
330
17
100
AcDbEntity
  8
CycloneBody
100
AcDbPolyline
 90
2
 70
1
 10
147.0
 20
427.0
 10
147.0
 20
427.0
  0
LWPOLYLINE
  5
FC
330
17
100
AcDbEntity
  8
CycloneBody
100
AcDbPolyline
 90
2
 70
0
 10
93.0
 20
283.0
 10
93.0
 20
427.0
  0
LWPOLYLINE
  5
FD
330
17
100
AcDbEntity
  8
CycloneBody
100
AcDbPolyline
 90
2
 70
1
 10
93.0
 20
427.0
 10
93.0
 20
427.0
  0
LWPOLYLINE
  5
FE
330
17
100
AcDbEntity
  8
CycloneBody
100
AcDbPolyline
 90
2
 70
0
 10
93.0
 20
283.0
 10
93.0
 20
427.0
  0
LWPOLYLINE
  5
FF
330
17
100
AcDbEntity
  8
CycloneBody
100
AcDbPolyline
 90
2
 70
1
 10
93.0
 20
283.0
 10
93.0
 20
283.0
  0
LWPOLYLINE
  5
100
330
17
100
AcDbEntity
  8
CycloneBody
100
AcDbPolyline
 90
9
 70
0
 10
92.38187999791083
 20
283.0
 10
102.51709764841887
 20
283.0
 10
111.78885517595778
 20
283.0
 10
120.15631797768681
 20
283.0
 10
127.5786514507652
 20
283.0
 10
134.01502099235216
 20
283.0
 10
139.42459199960695
 20
283.0
 10
143.76652986968884
 20
283.0
 10
146.999999999757
 20
283.0
  0
LWPOLYLINE
  5
101
330
17
100
AcDbEntity
  8
CycloneBody
100
AcDbPolyline
 90
5
 70
0
 10
93.0
 20
283.0
 10
92.95979281570456
 20
283.0
 10
92.841270841628
 20
283.0
 10
92.64758344598503
 20
283.0
 10
92.38187999699034
 20
283.0
  0
LWPOLYLINE
  5
102
330
17
100
AcDbEntity
  8
CycloneBody
100
AcDbPolyline
 90
2
 70
1
 10
93.0
 20
283.0
 10
93.0
 20
283.0
  0
LWPOLYLINE
  5
103
330
17
100
AcDbEntity
  8
CycloneBody
100
AcDbPolyline
 90
2
 70
0
 10
93.0
 20
283.0
 10
147.0
 20
283.0
  0
LWPOLYLINE
  5
104
330
17
100
AcDbEntity
  8
CycloneBody
100
AcDbPolyline
 90
2
 70
1
 10
147.0
 20
283.0
 10
147.0
 20
283.0
  0
LWPOLYLINE
  5
105
330
17
100
AcDbEntity
  8
CycloneBody
100
AcDbPolyline
 90
2
 70
0
 10
147.0
 20
283.0
 10
147.0
 20
427.0
  0
LWPOLYLINE
  5
106
330
17
100
AcDbEntity
  8
CycloneBody
100
AcDbPolyline
 90
2
 70
1
 10
147.0
 20
283.0
 10
147.0
 20
283.0
  0
LWPOLYLINE
  5
107
330
17
100
AcDbEntity
  8
CycloneBody
100
AcDbPolyline
 90
13
 70
0
 10
147.0
 20
283.0
 10
147.0
 20
282.9835260093125
 10
147.0
 20
282.937320183
 10
147.0
 20
282.8649126679375
 10
147.0
 20
282.769833611
 10
147.0
 20
282.63779836193754
 10
147.0
 20
282.48332847425
 10
147.0
 20
282.3091506824375
 10
147.0
 20
282.117991721
 10
147.0
 20
281.6467893960625
 10
147.0
 20
281.12504793825
 10
147.0
 20
280.5702804415625
 10
147.0
 20
280.0
  0
LWPOLYLINE
  5
108
330
17
100
AcDbEntity
  8
CycloneBody
100
AcDbPolyline
 90
2
 70
0
 10
147.0
 20
280.0
 10
147.0
 20
430.0
  0
LWPOLYLINE
  5
109
330
17
100
AcDbEntity
  8
CycloneBody
100
AcDbPolyline
 90
13
 70
0
 10
147.0
 20
427.0
 10
147.0
 20
427.0164739906875
 10
147.0
 20
427.062679817
 10
147.0
 20
427.1350873320625
 10
147.0
 20
427.230166389
 10
147.0
 20
427.36220163806246
 10
147.0
 20
427.51667152575
 10
147.0
 20
427.6908493175625
 10
147.0
 20
427.882008279
 10
147.0
 20
428.3532106039375
 10
147.0
 20
428.87495206175
 10
147.0
 20
429.4297195584375
 10
147.0
 20
430.0
  0
LWPOLYLINE
  5
10A
330
17
100
AcDbEntity
  8
CycloneBody
100
AcDbPolyline
 90
2
 70
1
 10
147.0
 20
427.0
 10
147.0
 20
427.0
  0
LWPOLYLINE
  5
10B
330
17
100
AcDbEntity
  8
CycloneBody
100
AcDbPolyline
 90
33
 70
1
 10
75.0
 20
500.0
 10
73.4762665644209
 20
500.0
 10
69.10612822087164
 20
500.0
 10
62.19117791413433
 20
500.0
 10
53.03300858899105
 20
500.0
 10
41.93321319022389
 20
500.0
 10
29.193384662614932
 20
500.0
 10
15.115115950946269
 20
500.0
 10
-1.3777276490407723e-14
 20
500.0
 10
-15.115115950946297
 20
500.0
 10
-29.19338466261496
 20
500.0
 10
-41.93321319022391
 20
500.0
 10
-53.033008588991066
 20
500.0
 10
-62.19117791413434
 20
500.0
 10
-69.10612822087164
 20
500.0
 10
-73.4762665644209
 20
500.0
 10
-75.0
 20
500.0
 10
-73.4762665644209
 20
500.0
 10
-69.10612822087164
 20
500.0
 10
-62.19117791413433
 20
500.0
 10
-53.03300858899105
 20
500.0
 10
-41.933213190223896
 20
500.0
 10
-29.193384662614946
 20
500.0
 10
-15.115115950946283
 20
500.0
 10
4.592425496802574e-15
 20
500.0
 10
15.115115950946288
 20
500.0
 10
29.19338466261495
 20
500.0
 10
41.93321319022391
 20
500.0
 10
53.03300858899107
 20
500.0
 10
62.19117791413435
 20
500.0
 10
69.10612822087165
 20
500.0
 10
73.4762665644209
 20
500.0
 10
75.0
 20
500.0
  0
LWPOLYLINE
  5
10C
330
17
100
AcDbEntity
  8
CycloneBody
100
AcDbPolyline
 90
33
 70
1
 10
72.0
 20
500.0
 10
70.53721590184406
 20
500.0
 10
66.34188309203677
 20
500.0
 10
59.70353079756896
 20
500.0
 10
50.91168824543141
 20
500.0
 10
40.25588466261493
 20
500.0
 10
28.02564927611033
 20
500.0
 10
14.51051131290842
 20
500.0
 10
-1.3226185430791413e-14
 20
500.0
 10
-14.510511312908443
 20
500.0
 10
-28.025649276110357
 20
500.0
 10
-40.25588466261496
 20
500.0
 10
-50.91168824543143
 20
500.0
 10
-59.70353079756897
 20
500.0
 10
-66.34188309203678
 20
500.0
 10
-70.53721590184406
 20
500.0
 10
-72.0
 20
500.0
 10
-70.53721590184406
 20
500.0
 10
-66.34188309203678
 20
500.0
 10
-59.70353079756896
 20
500.0
 10
-50.911688245431414
 20
500.0
 10
-40.25588466261494
 20
500.0
 10
-28.025649276110343
 20
500.0
 10
-14.510511312908427
 20
500.0
 10
4.408728476930472e-15
 20
500.0
 10
14.510511312908434
 20
500.0
 10
28.02564927611035
 20
500.0
 10
40.25588466261495
 20
500.0
 10
50.91168824543143
 20
500.0
 10
59.70353079756897
 20
500.0
 10
66.34188309203678
 20
500.0
 10
70.53721590184406
 20
500.0
 10
72.0
 20
500.0
  0
LWPOLYLINE
  5
10D
330
17
100
AcDbEntity
  8
CycloneBody
100
AcDbPolyline
 90
17
 70
0
 10
-47.0
 20
-600.0
 10
-46.0451270470371
 20
-600.0
 10
-43.3065070184129
 20
-600.0
 10
-38.97313815952419
 20
-600.0
 10
-33.23401871576773
 20
-600.0
 10
-26.278146932540317
 20
-600.0
 10
-18.294521055238707
 20
-600.0
 10
-9.472139329259676
 20
-600.0
 10
-8.633759933988839e-15
 20
-600.0
 10
9.47213932925966
 20
-600.0
 10
18.29452105523869
 20
-600.0
 10
26.278146932540302
 20
-600.0
 10
33.234018715767725
 20
-600.0
 10
38.97313815952418
 20
-600.0
 10
43.306507018412894
 20
-600.0
 10
46.04512704703709
 20
-600.0
 10
47.0
 20
-600.0
  0
LWPOLYLINE
  5
10E
330
17
100
AcDbEntity
  8
CycloneBody
100
AcDbPolyline
 90
17
 70
0
 10
47.0
 20
-600.0
 10
46.0451270470371
 20
-600.0
 10
43.3065070184129
 20
-600.0
 10
38.97313815952419
 20
-600.0
 10
33.23401871576773
 20
-600.0
 10
26.278146932540317
 20
-600.0
 10
18.294521055238704
 20
-600.0
 10
9.472139329259676
 20
-600.0
 10
2.87791997799628e-15
 20
-600.0
 10
-9.472139329259665
 20
-600.0
 10
-18.294521055238693
 20
-600.0
 10
-26.278146932540306
 20
-600.0
 10
-33.23401871576773
 20
-600.0
 10
-38.97313815952418
 20
-600.0
 10
-43.306507018412894
 20
-600.0
 10
-46.04512704703709
 20
-600.0
 10
-47.0
 20
-600.0
  0
LWPOLYLINE
  5
10F
330
17
100
AcDbEntity
  8
CycloneBody
100
AcDbPolyline
 90
2
 70
0
 10
47.0
 20
-700.0
 10
47.0
 20
-600.0
  0
LWPOLYLINE
  5
110
330
17
100
AcDbEntity
  8
CycloneBody
100
AcDbPolyline
 90
33
 70
1
 10
47.0
 20
-700.0
 10
46.04512704703709
 20
-700.0
 10
43.306507018412894
 20
-700.0
 10
38.97313815952418
 20
-700.0
 10
33.234018715767725
 20
-700.0
 10
26.278146932540302
 20
-700.0
 10
18.29452105523869
 20
-700.0
 10
9.472139329259662
 20
-700.0
 10
-8.633759933988839e-15
 20
-700.0
 10
-9.47213932925968
 20
-700.0
 10
-18.294521055238707
 20
-700.0
 10
-26.278146932540317
 20
-700.0
 10
-33.23401871576774
 20
-700.0
 10
-38.97313815952419
 20
-700.0
 10
-43.3065070184129
 20
-700.0
 10
-46.0451270470371
 20
-700.0
 10
-47.0
 20
-700.0
 10
-46.04512704703709
 20
-700.0
 10
-43.306507018412894
 20
-700.0
 10
-38.97313815952418
 20
-700.0
 10
-33.23401871576773
 20
-700.0
 10
-26.27814693254031
 20
-700.0
 10
-18.294521055238697
 20
-700.0
 10
-9.472139329259669
 20
-700.0
 10
2.87791997799628e-15
 20
-700.0
 10
9.472139329259674
 20
-700.0
 10
18.294521055238704
 20
-700.0
 10
26.278146932540317
 20
-700.0
 10
33.23401871576773
 20
-700.0
 10
38.97313815952418
 20
-700.0
 10
43.3065070184129
 20
-700.0
 10
46.0451270470371
 20
-700.0
 10
47.0
 20
-700.0
  0
LWPOLYLINE
  5
111
330
17
100
AcDbEntity
  8
CycloneBody
100
AcDbPolyline
 90
2
 70
0
 10
47.0
 20
-700.0
 10
47.0
 20
-600.0
  0
LWPOLYLINE
  5
112
330
17
100
AcDbEntity
  8
CycloneBody
100
AcDbPolyline
 90
9
 70
0
 10
88.20000000032014
 20
430.0
 10
101.35404776232099
 20
430.0
 10
113.00339671180177
 20
430.0
 10
123.07124657473099
 20
430.0
 10
131.48079707707709
 20
430.0
 10
138.15524794480856
 20
430.0
 10
143.0177989038939
 20
430.0
 10
145.99164968030155
 20
430.0
 10
147.0
 20
430.0
  0
LWPOLYLINE
  5
113
330
17
100
AcDbEntity
  8
CycloneBody
100
AcDbPolyline
 90
13
 70
0
 10
147.0
 20
427.0
 10
147.0
 20
427.0164739906875
 10
147.0
 20
427.062679817
 10
147.0
 20
427.1350873320625
 10
147.0
 20
427.230166389
 10
147.0
 20
427.36220163806246
 10
147.0
 20
427.51667152575
 10
147.0
 20
427.6908493175625
 10
147.0
 20
427.882008279
 10
147.0
 20
428.3532106039375
 10
147.0
 20
428.87495206175
 10
147.0
 20
429.4297195584375
 10
147.0
 20
430.0
  0
LWPOLYLINE
  5
114
330
17
100
AcDbEntity
  8
CycloneBody
100
AcDbPolyline
 90
9
 70
0
 10
92.38187999791083
 20
427.0
 10
102.51709764841887
 20
427.0
 10
111.78885517595778
 20
427.0
 10
120.15631797768681
 20
427.0
 10
127.5786514507652
 20
427.0
 10
134.01502099235216
 20
427.0
 10
139.42459199960695
 20
427.0
 10
143.76652986968884
 20
427.0
 10
146.999999999757
 20
427.0
  0
LWPOLYLINE
  5
115
330
17
100
AcDbEntity
  8
CycloneBody
100
AcDbPolyline
 90
17
 70
0
 10
92.381879997
 20
427.0
 10
92.22809311596875
 20
427.00962261392186
 10
92.061801487
 20
427.038225795375
 10
91.88606392228125
 20
427.08432178764065
 10
91.703939234
 20
427.146422834
 10
91.39715214103126
 20
427.2778555739688
 10
91.089307777
 20
427.43791147125
 10
90.78473687646876
 20
427.62027986440626
 10
90.487770174
 20
427.818650092
 10
90.16889581342188
 20
428.0528542713125
 10
89.862074043125
 20
428.29809532875004
 10
89.56773205776562
 20
428.5518687863125
 10
89.286297052
 20
428.811670166
 10
88.99010762357813
 20
429.1043931118594
 10
88.710055872875
 20
429.400912786375
 10
88.44655044873437
 20
429.69989353620315
 10
88.2
 20
429.999999708
  0
LWPOLYLINE
  5
116
330
17
100
AcDbEntity
  8
CycloneBody
100
AcDbPolyline
 90
2
 70
0
 10
88.2
 20
280.0
 10
88.2
 20
430.0
  0
LWPOLYLINE
  5
117
330
17
100
AcDbEntity
  8
CycloneBody
100
AcDbPolyline
 90
17
 70
0
 10
92.381879997
 20
283.0
 10
92.22809311596875
 20
282.99037738607814
 10
92.061801487
 20
282.961774204625
 10
91.88606392228125
 20
282.91567821235935
 10
91.703939234
 20
282.853577166
 10
91.39715214103126
 20
282.7221444260312
 10
91.089307777
 20
282.56208852875
 10
90.78473687646876
 20
282.37972013559374
 10
90.487770174
 20
282.181349908
 10
90.16889581342188
 20
281.9471457286875
 10
89.862074043125
 20
281.70190467124996
 10
89.56773205776562
 20
281.4481312136875
 10
89.286297052
 20
281.188329834
 10
88.99010762357813
 20
280.8956068881406
 10
88.710055872875
 20
280.599087213625
 10
88.44655044873437
 20
280.30010646379685
 10
88.2
 20
280.000000292
  0
LWPOLYLINE
  5
118
330
17
100
AcDbEntity
  8
CycloneBody
100
AcDbPolyline
 90
5
 70
0
 10
93.0
 20
283.0
 10
92.95979281570456
 20
283.0
 10
92.841270841628
 20
283.0
 10
92.64758344598503
 20
283.0
 10
92.38187999699034
 20
283.0
  0
LWPOLYLINE
  5
119
330
17
100
AcDbEntity
  8
CycloneBody
100
AcDbPolyline
 90
2
 70
0
 10
93.0
 20
283.0
 10
93.0
 20
427.0
  0
LWPOLYLINE
  5
11A
330
17
100
AcDbEntity
  8
CycloneBody
100
AcDbPolyline
 90
5
 70
0
 10
93.0
 20
427.0
 10
92.95979281570456
 20
427.0
 10
92.841270841628
 20
427.0
 10
92.64758344598503
 20
427.0
 10
92.38187999699034
 20
427.0
  0
LWPOLYLINE
  5
11B
330
17
100
AcDbEntity
  8
CycloneBody
100
AcDbPolyline
 90
17
 70
0
 10
92.381879997
 20
427.0
 10
92.22809311596875
 20
427.00962261392186
 10
92.061801487
 20
427.038225795375
 10
91.88606392228125
 20
427.08432178764065
 10
91.703939234
 20
427.146422834
 10
91.39715214103126
 20
427.2778555739688
 10
91.089307777
 20
427.43791147125
 10
90.78473687646876
 20
427.62027986440626
 10
90.487770174
 20
427.818650092
 10
90.16889581342188
 20
428.0528542713125
 10
89.862074043125
 20
428.29809532875004
 10
89.56773205776562
 20
428.5518687863125
 10
89.286297052
 20
428.811670166
 10
88.99010762357813
 20
429.1043931118594
 10
88.710055872875
 20
429.400912786375
 10
88.44655044873437
 20
429.69989353620315
 10
88.2
 20
429.999999708
  0
LWPOLYLINE
  5
11C
330
17
100
AcDbEntity
  8
CycloneBody
100
AcDbPolyline
 90
9
 70
0
 10
88.20000000032014
 20
280.0
 10
101.35404776232099
 20
280.0
 10
113.00339671180177
 20
280.0
 10
123.07124657473099
 20
280.0
 10
131.48079707707709
 20
280.0
 10
138.15524794480856
 20
280.0
 10
143.0177989038939
 20
280.0
 10
145.99164968030155
 20
280.0
 10
147.0
 20
280.0
  0
LWPOLYLINE
  5
11D
330
17
100
AcDbEntity
  8
CycloneBody
100
AcDbPolyline
 90
13
 70
0
 10
147.0
 20
283.0
 10
147.0
 20
282.9835260093125
 10
147.0
 20
282.937320183
 10
147.0
 20
282.8649126679375
 10
147.0
 20
282.769833611
 10
147.0
 20
282.63779836193754
 10
147.0
 20
282.48332847425
 10
147.0
 20
282.3091506824375
 10
147.0
 20
282.117991721
 10
147.0
 20
281.6467893960625
 10
147.0
 20
281.12504793825
 10
147.0
 20
280.5702804415625
 10
147.0
 20
280.0
  0
LWPOLYLINE
  5
11E
330
17
100
AcDbEntity
  8
CycloneBody
100
AcDbPolyline
 90
9
 70
0
 10
92.38187999791083
 20
283.0
 10
102.51709764841887
 20
283.0
 10
111.78885517595778
 20
283.0
 10
120.15631797768681
 20
283.0
 10
127.5786514507652
 20
283.0
 10
134.01502099235216
 20
283.0
 10
139.42459199960695
 20
283.0
 10
143.76652986968884
 20
283.0
 10
146.999999999757
 20
283.0
  0
LWPOLYLINE
  5
11F
330
17
100
AcDbEntity
  8
CycloneBody
100
AcDbPolyline
 90
17
 70
0
 10
92.381879997
 20
283.0
 10
92.22809311596875
 20
282.99037738607814
 10
92.061801487
 20
282.961774204625
 10
91.88606392228125
 20
282.91567821235935
 10
91.703939234
 20
282.853577166
 10
91.39715214103126
 20
282.7221444260312
 10
91.089307777
 20
282.56208852875
 10
90.78473687646876
 20
282.37972013559374
 10
90.487770174
 20
282.181349908
 10
90.16889581342188
 20
281.9471457286875
 10
89.862074043125
 20
281.70190467124996
 10
89.56773205776562
 20
281.4481312136875
 10
89.286297052
 20
281.188329834
 10
88.99010762357813
 20
280.8956068881406
 10
88.710055872875
 20
280.599087213625
 10
88.44655044873437
 20
280.30010646379685
 10
88.2
 20
280.000000292
  0
LWPOLYLINE
  5
120
330
17
100
AcDbEntity
  8
CycloneBody
100
AcDbPolyline
 90
2
 70
0
 10
147.0
 20
0.248287591
 10
147.0
 20
280.0
  0
LWPOLYLINE
  5
121
330
17
100
AcDbEntity
  8
CycloneBody
100
AcDbPolyline
 90
9
 70
0
 10
88.20000000032014
 20
280.0
 10
101.35404776232099
 20
280.0
 10
113.00339671180177
 20
280.0
 10
123.07124657473099
 20
280.0
 10
131.48079707707709
 20
280.0
 10
138.15524794480856
 20
280.0
 10
143.0177989038939
 20
280.0
 10
145.99164968030155
 20
280.0
 10
147.0
 20
280.0
  0
LWPOLYLINE
  5
122
330
17
100
AcDbEntity
  8
CycloneBody
100
AcDbPolyline
 90
2
 70
0
 10
88.2
 20
280.0
 10
88.2
 20
430.0
  0
LWPOLYLINE
  5
123
330
17
100
AcDbEntity
  8
CycloneBody
100
AcDbPolyline
 90
9
 70
0
 10
88.20000000032014
 20
430.0
 10
101.35404776232099
 20
430.0
 10
113.00339671180177
 20
430.0
 10
123.07124657473099
 20
430.0
 10
131.48079707707709
 20
430.0
 10
138.15524794480856
 20
430.0
 10
143.0177989038939
 20
430.0
 10
145.99164968030155
 20
430.0
 10
147.0
 20
430.0
  0
LWPOLYLINE
  5
124
330
17
100
AcDbEntity
  8
CycloneBody
100
AcDbPolyline
 90
2
 70
0
 10
147.0
 20
430.0
 10
147.0
 20
447.0
  0
LWPOLYLINE
  5
125
330
17
100
AcDbEntity
  8
CycloneBody
100
AcDbPolyline
 90
65
 70
1
 10
147.0
 20
447.0
 10
146.24105557132097
 20
447.0
 10
144.01348246626495
 20
447.0
 10
140.39117095630357
 20
447.0
 10
135.44801131290842
 20
447.0
 10
129.2578938075511
 20
447.0
 10
121.89470871170329
 20
447.0
 10
113.43234629683653
 20
447.0
 10
103.94469683442246
 20
447.0
 10
93.50565059593268
 20
447.0
 10
82.18909785283881
 20
447.0
 10
70.06892887661247
 20
447.0
 10
57.21903393872526
 20
447.0
 10
43.7133033106488
 20
447.0
 10
29.625627263854696
 20
447.0
 10
15.029896069814527
 20
447.0
 10
-2.7003461921199135e-14
 20
447.0
 10
-15.029896069814594
 20
447.0
 10
-29.625627263854742
 20
447.0
 10
-43.713303310648854
 20
447.0
 10
-57.21903393872532
 20
447.0
 10
-70.06892887661252
 20
447.0
 10
-82.18909785283887
 20
447.0
 10
-93.50565059593274
 20
447.0
 10
-103.9446968344225
 20
447.0
 10
-113.43234629683657
 20
447.0
 10
-121.89470871170332
 20
447.0
 10
-129.25789380755114
 20
447.0
 10
-135.44801131290845
 20
447.0
 10
-140.39117095630357
 20
447.0
 10
-144.01348246626497
 20
447.0
 10
-146.24105557132097
 20
447.0
 10
-147.0
 20
447.0
 10
-146.24105557132097
 20
447.0
 10
-144.01348246626495
 20
447.0
 10
-140.39117095630357
 20
447.0
 10
-135.44801131290842
 20
447.0
 10
-129.2578938075511
 20
447.0
 10
-121.89470871170329
 20
447.0
 10
-113.43234629683654
 20
447.0
 10
-103.94469683442247
 20
447.0
 10
-93.50565059593269
 20
447.0
 10
-82.18909785283884
 20
447.0
 10
-70.06892887661249
 20
447.0
 10
-57.21903393872529
 20
447.0
 10
-43.713303310648826
 20
447.0
 10
-29.62562726385471
 20
447.0
 10
-15.029896069814555
 20
447.0
 10
9.001153973733046e-15
 20
447.0
 10
15.029896069814576
 20
447.0
 10
29.625627263854724
 20
447.0
 10
43.71330331064883
 20
447.0
 10
57.2190339387253
 20
447.0
 10
70.06892887661252
 20
447.0
 10
82.18909785283886
 20
447.0
 10
93.50565059593272
 20
447.0
 10
103.9446968344225
 20
447.0
 10
113.43234629683657
 20
447.0
 10
121.89470871170333
 20
447.0
 10
129.25789380755114
 20
447.0
 10
135.44801131290842
 20
447.0
 10
140.39117095630357
 20
447.0
 10
144.01348246626497
 20
447.0
 10
146.24105557132097
 20
447.0
 10
147.0
 20
447.0
  0
LWPOLYLINE
  5
126
330
17
100
AcDbEntity
  8
CycloneBody
100
AcDbPolyline
 90
2
 70
0
 10
147.0
 20
430.0
 10
147.0
 20
447.0
  0
LWPOLYLINE
  5
127
330
17
100
AcDbEntity
  8
CycloneBody
100
AcDbPolyline
 90
2
 70
0
 10
147.0
 20
280.0
 10
147.0
 20
430.0
  0
LWPOLYLINE
  5
128
330
17
100
AcDbEntity
  8
CycloneBody
100
AcDbPolyline
 90
2
 70
0
 10
147.0
 20
0.248287591
 10
147.0
 20
280.0
  0
LWPOLYLINE
  5
129
330
17
100
AcDbEntity
  8
CycloneBody
100
AcDbPolyline
 90
33
 70
0
 10
147.0
 20
0.248287591
 10
146.24105557132097
 20
0.248287591
 10
144.01348246626495
 20
0.248287591
 10
140.39117095630357
 20
0.248287591
 10
135.44801131290842
 20
0.248287591
 10
129.25789380755114
 20
0.248287591
 10
121.89470871170332
 20
0.248287591
 10
113.43234629683656
 20
0.248287591
 10
103.94469683442249
 20
0.248287591
 10
93.50565059593272
 20
0.248287591
 10
82.18909785283886
 20
0.248287591
 10
70.06892887661252
 20
0.248287591
 10
57.2190339387253
 20
0.248287591
 10
43.713303310648826
 20
0.248287591
 10
29.62562726385471
 20
0.248287591
 10
15.029896069814583
 20
0.248287591
 10
9.001153973733046e-15
 20
0.248287591
 10
-15.029896069814559
 20
0.248287591
 10
-29.625627263854703
 20
0.248287591
 10
-43.71330331064882
 20
0.248287591
 10
-57.21903393872528
 20
0.248287591
 10
-70.06892887661247
 20
0.248287591
 10
-82.18909785283883
 20
0.248287591
 10
-93.50565059593269
 20
0.248287591
 10
-103.94469683442246
 20
0.248287591
 10
-113.43234629683653
 20
0.248287591
 10
-121.89470871170327
 20
0.248287591
 10
-129.2578938075511
 20
0.248287591
 10
-135.44801131290842
 20
0.248287591
 10
-140.39117095630357
 20
0.248287591
 10
-144.01348246626495
 20
0.248287591
 10
-146.24105557132097
 20
0.248287591
 10
-147.0
 20
0.248287591
  0
LWPOLYLINE
  5
12A
330
17
100
AcDbEntity
  8
CycloneBody
100
AcDbPolyline
 90
33
 70
0
 10
-147.0
 20
0.248287591
 10
-146.24105557132097
 20
0.248287591
 10
-144.01348246626495
 20
0.248287591
 10
-140.39117095630357
 20
0.248287591
 10
-135.44801131290842
 20
0.248287591
 10
-129.25789380755114
 20
0.248287591
 10
-121.89470871170332
 20
0.248287591
 10
-113.43234629683656
 20
0.248287591
 10
-103.9446968344225
 20
0.248287591
 10
-93.50565059593274
 20
0.248287591
 10
-82.18909785283887
 20
0.248287591
 10
-70.06892887661252
 20
0.248287591
 10
-57.21903393872532
 20
0.248287591
 10
-43.713303310648854
 20
0.248287591
 10
-29.62562726385474
 20
0.248287591
 10
-15.029896069814612
 20
0.248287591
 10
-2.7003461921199135e-14
 20
0.248287591
 10
15.02989606981454
 20
0.248287591
 10
29.625627263854685
 20
0.248287591
 10
43.7133033106488
 20
0.248287591
 10
57.21903393872527
 20
0.248287591
 10
70.06892887661247
 20
0.248287591
 10
82.18909785283881
 20
0.248287591
 10
93.50565059593268
 20
0.248287591
 10
103.94469683442246
 20
0.248287591
 10
113.43234629683653
 20
0.248287591
 10
121.89470871170329
 20
0.248287591
 10
129.2578938075511
 20
0.248287591
 10
135.44801131290842
 20
0.248287591
 10
140.39117095630357
 20
0.248287591
 10
144.01348246626495
 20
0.248287591
 10
146.24105557132097
 20
0.248287591
 10
147.0
 20
0.248287591
  0
LWPOLYLINE
  5
12B
330
17
100
AcDbEntity
  8
CycloneBody
100
AcDbPolyline
 90
2
 70
0
 10
72.0
 20
450.0
 10
72.0
 20
500.0
  0
LWPOLYLINE
  5
12C
330
17
100
AcDbEntity
  8
CycloneBody
100
AcDbPolyline
 90
33
 70
1
 10
72.0
 20
450.0
 10
70.53721590184406
 20
450.0
 10
66.34188309203677
 20
450.0
 10
59.70353079756896
 20
450.0
 10
50.91168824543141
 20
450.0
 10
40.25588466261493
 20
450.0
 10
28.02564927611033
 20
450.0
 10
14.51051131290842
 20
450.0
 10
-1.3226185430791413e-14
 20
450.0
 10
-14.510511312908443
 20
450.0
 10
-28.025649276110357
 20
450.0
 10
-40.25588466261496
 20
450.0
 10
-50.91168824543143
 20
450.0
 10
-59.70353079756897
 20
450.0
 10
-66.34188309203678
 20
450.0
 10
-70.53721590184406
 20
450.0
 10
-72.0
 20
450.0
 10
-70.53721590184406
 20
450.0
 10
-66.34188309203678
 20
450.0
 10
-59.70353079756896
 20
450.0
 10
-50.911688245431414
 20
450.0
 10
-40.25588466261494
 20
450.0
 10
-28.025649276110343
 20
450.0
 10
-14.510511312908427
 20
450.0
 10
4.408728476930472e-15
 20
450.0
 10
14.510511312908434
 20
450.0
 10
28.02564927611035
 20
450.0
 10
40.25588466261495
 20
450.0
 10
50.91168824543143
 20
450.0
 10
59.70353079756897
 20
450.0
 10
66.34188309203678
 20
450.0
 10
70.53721590184406
 20
450.0
 10
72.0
 20
450.0
  0
LWPOLYLINE
  5
12D
330
17
100
AcDbEntity
  8
CycloneBody
100
AcDbPolyline
 90
2
 70
0
 10
72.0
 20
450.0
 10
72.0
 20
500.0
  0
LWPOLYLINE
  5
12E
330
17
100
AcDbEntity
  8
CycloneBody
100
AcDbPolyline
 90
33
 70
1
 10
72.0
 20
500.0
 10
70.53721590184406
 20
500.0
 10
66.34188309203677
 20
500.0
 10
59.70353079756896
 20
500.0
 10
50.91168824543141
 20
500.0
 10
40.25588466261493
 20
500.0
 10
28.02564927611033
 20
500.0
 10
14.51051131290842
 20
500.0
 10
-1.3226185430791413e-14
 20
500.0
 10
-14.510511312908443
 20
500.0
 10
-28.025649276110357
 20
500.0
 10
-40.25588466261496
 20
500.0
 10
-50.91168824543143
 20
500.0
 10
-59.70353079756897
 20
500.0
 10
-66.34188309203678
 20
500.0
 10
-70.53721590184406
 20
500.0
 10
-72.0
 20
500.0
 10
-70.53721590184406
 20
500.0
 10
-66.34188309203678
 20
500.0
 10
-59.70353079756896
 20
500.0
 10
-50.911688245431414
 20
500.0
 10
-40.25588466261494
 20
500.0
 10
-28.025649276110343
 20
500.0
 10
-14.510511312908427
 20
500.0
 10
4.408728476930472e-15
 20
500.0
 10
14.510511312908434
 20
500.0
 10
28.02564927611035
 20
500.0
 10
40.25588466261495
 20
500.0
 10
50.91168824543143
 20
500.0
 10
59.70353079756897
 20
500.0
 10
66.34188309203678
 20
500.0
 10
70.53721590184406
 20
500.0
 10
72.0
 20
500.0
  0
LWPOLYLINE
  5
12F
330
17
100
AcDbEntity
  8
CycloneBody
100
AcDbPolyline
 90
17
 70
0
 10
-47.040818229
 20
-599.506803038
 10
-46.085115994699656
 20
-599.506803038
 10
-43.34411754863988
 20
-599.506803038
 10
-39.006985276082574
 20
-599.506803038
 10
-33.262881562289664
 20
-599.506803038
 10
-26.300968792523044
 20
-599.506803038
 10
-18.310409352044623
 20
-599.506803038
 10
-9.48036562611631
 20
-599.506803038
 10
-8.641258121012597e-15
 20
-599.506803038
 10
9.480365626116292
 20
-599.506803038
 10
18.31040935204461
 20
-599.506803038
 10
26.300968792523033
 20
-599.506803038
 10
33.26288156228966
 20
-599.506803038
 10
39.00698527608257
 20
-599.506803038
 10
43.344117548639865
 20
-599.506803038
 10
46.08511599469965
 20
-599.506803038
 10
47.040818229
 20
-599.506803038
  0
LWPOLYLINE
  5
130
330
17
100
AcDbEntity
  8
CycloneBody
100
AcDbPolyline
 90
17
 70
0
 10
-47.0
 20
-600.0
 10
-46.0451270470371
 20
-600.0
 10
-43.3065070184129
 20
-600.0
 10
-38.97313815952419
 20
-600.0
 10
-33.23401871576773
 20
-600.0
 10
-26.278146932540317
 20
-600.0
 10
-18.294521055238707
 20
-600.0
 10
-9.472139329259676
 20
-600.0
 10
-8.633759933988839e-15
 20
-600.0
 10
9.47213932925966
 20
-600.0
 10
18.29452105523869
 20
-600.0
 10
26.278146932540302
 20
-600.0
 10
33.234018715767725
 20
-600.0
 10
38.97313815952418
 20
-600.0
 10
43.306507018412894
 20
-600.0
 10
46.04512704703709
 20
-600.0
 10
47.0
 20
-600.0
  0
LWPOLYLINE
  5
131
330
17
100
AcDbEntity
  8
CycloneBody
100
AcDbPolyline
 90
17
 70
0
 10
47.040818229
 20
-599.506803038
 10
46.085115994699656
 20
-599.506803038
 10
43.34411754863987
 20
-599.506803038
 10
39.006985276082574
 20
-599.506803038
 10
33.262881562289664
 20
-599.506803038
 10
26.30096879252304
 20
-599.506803038
 10
18.31040935204462
 20
-599.506803038
 10
9.480365626116303
 20
-599.506803038
 10
2.8804193736708657e-15
 20
-599.506803038
 10
-9.480365626116297
 20
-599.506803038
 10
-18.310409352044612
 20
-599.506803038
 10
-26.300968792523033
 20
-599.506803038
 10
-33.26288156228966
 20
-599.506803038
 10
-39.006985276082574
 20
-599.506803038
 10
-43.34411754863987
 20
-599.506803038
 10
-46.08511599469965
 20
-599.506803038
 10
-47.040818229
 20
-599.506803038
  0
LWPOLYLINE
  5
132
330
17
100
AcDbEntity
  8
CycloneBody
100
AcDbPolyline
 90
17
 70
0
 10
47.0
 20
-600.0
 10
46.0451270470371
 20
-600.0
 10
43.3065070184129
 20
-600.0
 10
38.97313815952419
 20
-600.0
 10
33.23401871576773
 20
-600.0
 10
26.278146932540317
 20
-600.0
 10
18.294521055238704
 20
-600.0
 10
9.472139329259676
 20
-600.0
 10
2.87791997799628e-15
 20
-600.0
 10
-9.472139329259665
 20
-600.0
 10
-18.294521055238693
 20
-600.0
 10
-26.278146932540306
 20
-600.0
 10
-33.23401871576773
 20
-600.0
 10
-38.97313815952418
 20
-600.0
 10
-43.306507018412894
 20
-600.0
 10
-46.04512704703709
 20
-600.0
 10
-47.0
 20
-600.0
  0
LWPOLYLINE
  5
133
330
17
100
AcDbEntity
  8
CycloneBody
100
AcDbPolyline
 90
33
 70
1
 10
75.0
 20
447.0
 10
73.4762665644209
 20
447.0
 10
69.10612822087164
 20
447.0
 10
62.19117791413433
 20
447.0
 10
53.03300858899105
 20
447.0
 10
41.93321319022389
 20
447.0
 10
29.193384662614932
 20
447.0
 10
15.115115950946269
 20
447.0
 10
-1.3777276490407723e-14
 20
447.0
 10
-15.115115950946297
 20
447.0
 10
-29.19338466261496
 20
447.0
 10
-41.93321319022391
 20
447.0
 10
-53.033008588991066
 20
447.0
 10
-62.19117791413434
 20
447.0
 10
-69.10612822087164
 20
447.0
 10
-73.4762665644209
 20
447.0
 10
-75.0
 20
447.0
 10
-73.4762665644209
 20
447.0
 10
-69.10612822087164
 20
447.0
 10
-62.19117791413433
 20
447.0
 10
-53.03300858899105
 20
447.0
 10
-41.933213190223896
 20
447.0
 10
-29.193384662614946
 20
447.0
 10
-15.115115950946283
 20
447.0
 10
4.592425496802574e-15
 20
447.0
 10
15.115115950946288
 20
447.0
 10
29.19338466261495
 20
447.0
 10
41.93321319022391
 20
447.0
 10
53.03300858899107
 20
447.0
 10
62.19117791413435
 20
447.0
 10
69.10612822087165
 20
447.0
 10
73.4762665644209
 20
447.0
 10
75.0
 20
447.0
  0
LWPOLYLINE
  5
134
330
17
100
AcDbEntity
  8
CycloneBody
100
AcDbPolyline
 90
65
 70
1
 10
147.0
 20
447.0
 10
146.24105557132097
 20
447.0
 10
144.01348246626495
 20
447.0
 10
140.39117095630357
 20
447.0
 10
135.44801131290842
 20
447.0
 10
129.2578938075511
 20
447.0
 10
121.89470871170329
 20
447.0
 10
113.43234629683653
 20
447.0
 10
103.94469683442246
 20
447.0
 10
93.50565059593268
 20
447.0
 10
82.18909785283881
 20
447.0
 10
70.06892887661247
 20
447.0
 10
57.21903393872526
 20
447.0
 10
43.7133033106488
 20
447.0
 10
29.625627263854696
 20
447.0
 10
15.029896069814527
 20
447.0
 10
-2.7003461921199135e-14
 20
447.0
 10
-15.029896069814594
 20
447.0
 10
-29.625627263854742
 20
447.0
 10
-43.713303310648854
 20
447.0
 10
-57.21903393872532
 20
447.0
 10
-70.06892887661252
 20
447.0
 10
-82.18909785283887
 20
447.0
 10
-93.50565059593274
 20
447.0
 10
-103.9446968344225
 20
447.0
 10
-113.43234629683657
 20
447.0
 10
-121.89470871170332
 20
447.0
 10
-129.25789380755114
 20
447.0
 10
-135.44801131290845
 20
447.0
 10
-140.39117095630357
 20
447.0
 10
-144.01348246626497
 20
447.0
 10
-146.24105557132097
 20
447.0
 10
-147.0
 20
447.0
 10
-146.24105557132097
 20
447.0
 10
-144.01348246626495
 20
447.0
 10
-140.39117095630357
 20
447.0
 10
-135.44801131290842
 20
447.0
 10
-129.2578938075511
 20
447.0
 10
-121.89470871170329
 20
447.0
 10
-113.43234629683654
 20
447.0
 10
-103.94469683442247
 20
447.0
 10
-93.50565059593269
 20
447.0
 10
-82.18909785283884
 20
447.0
 10
-70.06892887661249
 20
447.0
 10
-57.21903393872529
 20
447.0
 10
-43.713303310648826
 20
447.0
 10
-29.62562726385471
 20
447.0
 10
-15.029896069814555
 20
447.0
 10
9.001153973733046e-15
 20
447.0
 10
15.029896069814576
 20
447.0
 10
29.625627263854724
 20
447.0
 10
43.71330331064883
 20
447.0
 10
57.2190339387253
 20
447.0
 10
70.06892887661252
 20
447.0
 10
82.18909785283886
 20
447.0
 10
93.50565059593272
 20
447.0
 10
103.9446968344225
 20
447.0
 10
113.43234629683657
 20
447.0
 10
121.89470871170333
 20
447.0
 10
129.25789380755114
 20
447.0
 10
135.44801131290842
 20
447.0
 10
140.39117095630357
 20
447.0
 10
144.01348246626497
 20
447.0
 10
146.24105557132097
 20
447.0
 10
147.0
 20
447.0
  0
LWPOLYLINE
  5
135
330
17
100
AcDbEntity
  8
CycloneBody
100
AcDbPolyline
 90
2
 70
0
 10
-147.0
 20
0.248287591
 10
-47.040818229
 20
-599.506803038
  0
LWPOLYLINE
  5
136
330
17
100
AcDbEntity
  8
CycloneBody
100
AcDbPolyline
 90
17
 70
0
 10
-47.040818229
 20
-599.506803038
 10
-46.085115994699656
 20
-599.506803038
 10
-43.34411754863988
 20
-599.506803038
 10
-39.006985276082574
 20
-599.506803038
 10
-33.262881562289664
 20
-599.506803038
 10
-26.300968792523044
 20
-599.506803038
 10
-18.310409352044623
 20
-599.506803038
 10
-9.48036562611631
 20
-599.506803038
 10
-8.641258121012597e-15
 20
-599.506803038
 10
9.480365626116292
 20
-599.506803038
 10
18.31040935204461
 20
-599.506803038
 10
26.300968792523033
 20
-599.506803038
 10
33.26288156228966
 20
-599.506803038
 10
39.00698527608257
 20
-599.506803038
 10
43.344117548639865
 20
-599.506803038
 10
46.08511599469965
 20
-599.506803038
 10
47.040818229
 20
-599.506803038
  0
LWPOLYLINE
  5
137
330
17
100
AcDbEntity
  8
CycloneBody
100
AcDbPolyline
 90
17
 70
0
 10
47.040818229
 20
-599.506803038
 10
46.085115994699656
 20
-599.506803038
 10
43.34411754863987
 20
-599.506803038
 10
39.006985276082574
 20
-599.506803038
 10
33.262881562289664
 20
-599.506803038
 10
26.30096879252304
 20
-599.506803038
 10
18.31040935204462
 20
-599.506803038
 10
9.480365626116303
 20
-599.506803038
 10
2.8804193736708657e-15
 20
-599.506803038
 10
-9.480365626116297
 20
-599.506803038
 10
-18.310409352044612
 20
-599.506803038
 10
-26.300968792523033
 20
-599.506803038
 10
-33.26288156228966
 20
-599.506803038
 10
-39.006985276082574
 20
-599.506803038
 10
-43.34411754863987
 20
-599.506803038
 10
-46.08511599469965
 20
-599.506803038
 10
-47.040818229
 20
-599.506803038
  0
LWPOLYLINE
  5
138
330
17
100
AcDbEntity
  8
CycloneBody
100
AcDbPolyline
 90
2
 70
0
 10
-147.0
 20
0.248287591
 10
-47.040818229
 20
-599.506803038
  0
LWPOLYLINE
  5
139
330
17
100
AcDbEntity
  8
CycloneBody
100
AcDbPolyline
 90
33
 70
0
 10
147.0
 20
0.248287591
 10
146.24105557132097
 20
0.248287591
 10
144.01348246626495
 20
0.248287591
 10
140.39117095630357
 20
0.248287591
 10
135.44801131290842
 20
0.248287591
 10
129.25789380755114
 20
0.248287591
 10
121.89470871170332
 20
0.248287591
 10
113.43234629683656
 20
0.248287591
 10
103.94469683442249
 20
0.248287591
 10
93.50565059593272
 20
0.248287591
 10
82.18909785283886
 20
0.248287591
 10
70.06892887661252
 20
0.248287591
 10
57.2190339387253
 20
0.248287591
 10
43.713303310648826
 20
0.248287591
 10
29.62562726385471
 20
0.248287591
 10
15.029896069814583
 20
0.248287591
 10
9.001153973733046e-15
 20
0.248287591
 10
-15.029896069814559
 20
0.248287591
 10
-29.625627263854703
 20
0.248287591
 10
-43.71330331064882
 20
0.248287591
 10
-57.21903393872528
 20
0.248287591
 10
-70.06892887661247
 20
0.248287591
 10
-82.18909785283883
 20
0.248287591
 10
-93.50565059593269
 20
0.248287591
 10
-103.94469683442246
 20
0.248287591
 10
-113.43234629683653
 20
0.248287591
 10
-121.89470871170327
 20
0.248287591
 10
-129.2578938075511
 20
0.248287591
 10
-135.44801131290842
 20
0.248287591
 10
-140.39117095630357
 20
0.248287591
 10
-144.01348246626495
 20
0.248287591
 10
-146.24105557132097
 20
0.248287591
 10
-147.0
 20
0.248287591
  0
LWPOLYLINE
  5
13A
330
17
100
AcDbEntity
  8
CycloneBody
100
AcDbPolyline
 90
33
 70
0
 10
-147.0
 20
0.248287591
 10
-146.24105557132097
 20
0.248287591
 10
-144.01348246626495
 20
0.248287591
 10
-140.39117095630357
 20
0.248287591
 10
-135.44801131290842
 20
0.248287591
 10
-129.25789380755114
 20
0.248287591
 10
-121.89470871170332
 20
0.248287591
 10
-113.43234629683656
 20
0.248287591
 10
-103.9446968344225
 20
0.248287591
 10
-93.50565059593274
 20
0.248287591
 10
-82.18909785283887
 20
0.248287591
 10
-70.06892887661252
 20
0.248287591
 10
-57.21903393872532
 20
0.248287591
 10
-43.713303310648854
 20
0.248287591
 10
-29.62562726385474
 20
0.248287591
 10
-15.029896069814612
 20
0.248287591
 10
-2.7003461921199135e-14
 20
0.248287591
 10
15.02989606981454
 20
0.248287591
 10
29.625627263854685
 20
0.248287591
 10
43.7133033106488
 20
0.248287591
 10
57.21903393872527
 20
0.248287591
 10
70.06892887661247
 20
0.248287591
 10
82.18909785283881
 20
0.248287591
 10
93.50565059593268
 20
0.248287591
 10
103.94469683442246
 20
0.248287591
 10
113.43234629683653
 20
0.248287591
 10
121.89470871170329
 20
0.248287591
 10
129.2578938075511
 20
0.248287591
 10
135.44801131290842
 20
0.248287591
 10
140.39117095630357
 20
0.248287591
 10
144.01348246626495
 20
0.248287591
 10
146.24105557132097
 20
0.248287591
 10
147.0
 20
0.248287591
  0
LWPOLYLINE
  5
13B
330
17
100
AcDbEntity
  8
CycloneBody
100
AcDbPolyline
 90
33
 70
1
 10
75.0
 20
447.0
 10
73.4762665644209
 20
447.0
 10
69.10612822087164
 20
447.0
 10
62.19117791413433
 20
447.0
 10
53.03300858899105
 20
447.0
 10
41.93321319022389
 20
447.0
 10
29.193384662614932
 20
447.0
 10
15.115115950946269
 20
447.0
 10
-1.3777276490407723e-14
 20
447.0
 10
-15.115115950946297
 20
447.0
 10
-29.19338466261496
 20
447.0
 10
-41.93321319022391
 20
447.0
 10
-53.033008588991066
 20
447.0
 10
-62.19117791413434
 20
447.0
 10
-69.10612822087164
 20
447.0
 10
-73.4762665644209
 20
447.0
 10
-75.0
 20
447.0
 10
-73.4762665644209
 20
447.0
 10
-69.10612822087164
 20
447.0
 10
-62.19117791413433
 20
447.0
 10
-53.03300858899105
 20
447.0
 10
-41.933213190223896
 20
447.0
 10
-29.193384662614946
 20
447.0
 10
-15.115115950946283
 20
447.0
 10
4.592425496802574e-15
 20
447.0
 10
15.115115950946288
 20
447.0
 10
29.19338466261495
 20
447.0
 10
41.93321319022391
 20
447.0
 10
53.03300858899107
 20
447.0
 10
62.19117791413435
 20
447.0
 10
69.10612822087165
 20
447.0
 10
73.4762665644209
 20
447.0
 10
75.0
 20
447.0
  0
LWPOLYLINE
  5
13C
330
17
100
AcDbEntity
  8
CycloneBody
100
AcDbPolyline
 90
33
 70
1
 10
72.0
 20
450.0
 10
70.53721590184406
 20
450.0
 10
66.34188309203677
 20
450.0
 10
59.70353079756896
 20
450.0
 10
50.91168824543141
 20
450.0
 10
40.25588466261493
 20
450.0
 10
28.02564927611033
 20
450.0
 10
14.51051131290842
 20
450.0
 10
-1.3226185430791413e-14
 20
450.0
 10
-14.510511312908443
 20
450.0
 10
-28.025649276110357
 20
450.0
 10
-40.25588466261496
 20
450.0
 10
-50.91168824543143
 20
450.0
 10
-59.70353079756897
 20
450.0
 10
-66.34188309203678
 20
450.0
 10
-70.53721590184406
 20
450.0
 10
-72.0
 20
450.0
 10
-70.53721590184406
 20
450.0
 10
-66.34188309203678
 20
450.0
 10
-59.70353079756896
 20
450.0
 10
-50.911688245431414
 20
450.0
 10
-40.25588466261494
 20
450.0
 10
-28.025649276110343
 20
450.0
 10
-14.510511312908427
 20
450.0
 10
4.408728476930472e-15
 20
450.0
 10
14.510511312908434
 20
450.0
 10
28.02564927611035
 20
450.0
 10
40.25588466261495
 20
450.0
 10
50.91168824543143
 20
450.0
 10
59.70353079756897
 20
450.0
 10
66.34188309203678
 20
450.0
 10
70.53721590184406
 20
450.0
 10
72.0
 20
450.0
  0
LINE
  5
13D
330
17
100
AcDbEntity
  8
CycloneBody
100
AcDbLine
 10
150.0
 20
0.0
 30
0.0
 11
150.0
 21
450.0
 31
0.0
  0
LINE
  5
13E
330
17
100
AcDbEntity
  8
CycloneBody
100
AcDbLine
 10
150.0
 20
0.0
 30
0.0
 11
50.0
 21
-600.0
 31
0.0
  0
LINE
  5
13F
330
17
100
AcDbEntity
  8
CycloneBody
100
AcDbLine
 10
50.0
 20
-600.0
 30
0.0
 11
50.0
 21
-700.0
 31
0.0
  0
LINE
  5
140
330
17
100
AcDbEntity
  8
CycloneBody
100
AcDbLine
 10
75.0
 20
270.0
 30
0.0
 11
75.0
 21
500.0
 31
0.0
  0
LINE
  5
141
330
17
100
AcDbEntity
  8
CycloneBody
100
AcDbLine
 10
-150.0
 20
0.0
 30
0.0
 11
-150.0
 21
450.0
 31
0.0
  0
LINE
  5
142
330
17
100
AcDbEntity
  8
CycloneBody
100
AcDbLine
 10
-150.0
 20
0.0
 30
0.0
 11
-50.0
 21
-600.0
 31
0.0
  0
LINE
  5
143
330
17
100
AcDbEntity
  8
CycloneBody
100
AcDbLine
 10
-50.0
 20
-600.0
 30
0.0
 11
-50.0
 21
-700.0
 31
0.0
  0
LINE
  5
144
330
17
100
AcDbEntity
  8
CycloneBody
100
AcDbLine
 10
-75.0
 20
270.0
 30
0.0
 11
-75.0
 21
500.0
 31
0.0
  0
DIMENSION
  5
14A
330
17
100
AcDbEntity
  8
DIM_NATIVE
100
AcDbDimension
  2
*D1
  3
Standard
 10
-150.0
 20
-700.0
 30
0.0
 11
0.0
 21
-689.375
 31
0.0
 70
32
 71
5
  1
<>
100
AcDbAlignedDimension
 13
-150.0
 23
0.0
 33
0.0
 14
150.0
 24
0.0
 34
0.0
 50
0.0
100
AcDbRotatedDimension
1001
ACAD
1000
DSTYLE
1002
{
1070
140
1040
20.0
1070
41
1040
10.0
1070
42
1040
5.0
1070
44
1040
8.0
1070
176
1070
3
1070
177
1070
3
1070
178
1070
3
1002
}
  0
LINE
  5
15D
330
17
100
AcDbEntity
  8
DIM_TEXT
 62
3
100
AcDbLine
 10
-150.0
 20
-5.0
 30
0.0
 11
-150.0
 21
-708.0
 31
0.0
  0
LINE
  5
15E
330
17
100
AcDbEntity
  8
DIM_TEXT
 62
3
100
AcDbLine
 10
150.0
 20
-5.0
 30
0.0
 11
150.0
 21
-708.0
 31
0.0
  0
LINE
  5
15F
330
17
100
AcDbEntity
  8
DIM_TEXT
 62
3
100
AcDbLine
 10
-150.0
 20
-700.0
 30
0.0
 11
150.0
 21
-700.0
 31
0.0
  0
LINE
  5
160
330
17
100
AcDbEntity
  8
DIM_TEXT
 62
3
100
AcDbLine
 10
-150.0
 20
-700.0
 30
0.0
 11
-140.0
 21
-704.0
 31
0.0
  0
LINE
  5
161
330
17
100
AcDbEntity
  8
DIM_TEXT
 62
3
100
AcDbLine
 10
-150.0
 20
-700.0
 30
0.0
 11
-140.0
 21
-696.0
 31
0.0
  0
LINE
  5
162
330
17
100
AcDbEntity
  8
DIM_TEXT
 62
3
100
AcDbLine
 10
150.0
 20
-700.0
 30
0.0
 11
140.0
 21
-696.0
 31
0.0
  0
LINE
  5
163
330
17
100
AcDbEntity
  8
DIM_TEXT
 62
3
100
AcDbLine
 10
150.0
 20
-700.0
 30
0.0
 11
140.0
 21
-704.0
 31
0.0
  0
TEXT
  5
164
330
17
100
AcDbEntity
  8
DIM_TEXT
 62
3
100
AcDbText
 10
0.0
 20
-685.0
 30
0.0
 40
20.0
  1
300
 72
1
 11
0.0
 21
-685.0
 31
0.0
100
AcDbText
 73
2
  0
DIMENSION
  5
165
330
17
100
AcDbEntity
  8
DIM_NATIVE
100
AcDbDimension
  2
*D2
  3
Standard
 10
-50.0
 20
-750.0
 30
0.0
 11
0.0
 21
-739.375
 31
0.0
 70
32
 71
5
  1
<>
100
AcDbAlignedDimension
 13
-50.0
 23
-600.0
 33
0.0
 14
50.0
 24
-600.0
 34
0.0
 50
0.0
100
AcDbRotatedDimension
1001
ACAD
1000
DSTYLE
1002
{
1070
140
1040
20.0
1070
41
1040
10.0
1070
42
1040
5.0
1070
44
1040
8.0
1070
176
1070
3
1070
177
1070
3
1070
178
1070
3
1002
}
  0
LINE
  5
174
330
17
100
AcDbEntity
  8
DIM_TEXT
 62
3
100
AcDbLine
 10
-50.0
 20
-605.0
 30
0.0
 11
-50.0
 21
-758.0
 31
0.0
  0
LINE
  5
175
330
17
100
AcDbEntity
  8
DIM_TEXT
 62
3
100
AcDbLine
 10
50.0
 20
-605.0
 30
0.0
 11
50.0
 21
-758.0
 31
0.0
  0
LINE
  5
176
330
17
100
AcDbEntity
  8
DIM_TEXT
 62
3
100
AcDbLine
 10
-50.0
 20
-750.0
 30
0.0
 11
50.0
 21
-750.0
 31
0.0
  0
LINE
  5
177
330
17
100
AcDbEntity
  8
DIM_TEXT
 62
3
100
AcDbLine
 10
-50.0
 20
-750.0
 30
0.0
 11
-40.0
 21
-754.0
 31
0.0
  0
LINE
  5
178
330
17
100
AcDbEntity
  8
DIM_TEXT
 62
3
100
AcDbLine
 10
-50.0
 20
-750.0
 30
0.0
 11
-40.0
 21
-746.0
 31
0.0
  0
LINE
  5
179
330
17
100
AcDbEntity
  8
DIM_TEXT
 62
3
100
AcDbLine
 10
50.0
 20
-750.0
 30
0.0
 11
40.0
 21
-746.0
 31
0.0
  0
LINE
  5
17A
330
17
100
AcDbEntity
  8
DIM_TEXT
 62
3
100
AcDbLine
 10
50.0
 20
-750.0
 30
0.0
 11
40.0
 21
-754.0
 31
0.0
  0
TEXT
  5
17B
330
17
100
AcDbEntity
  8
DIM_TEXT
 62
3
100
AcDbText
 10
0.0
 20
-735.0
 30
0.0
 40
20.0
  1
100
 72
1
 11
0.0
 21
-735.0
 31
0.0
100
AcDbText
 73
2
  0
DIMENSION
  5
17C
330
17
100
AcDbEntity
  8
DIM_NATIVE
100
AcDbDimension
  2
*D3
  3
Standard
 10
230.0
 20
0.0
 30
0.0
 11
219.375
 21
225.0
 31
0.0
 70
32
 71
5
  1
<>
100
AcDbAlignedDimension
 13
150.0
 23
0.0
 33
0.0
 14
150.0
 24
450.0
 34
0.0
 50
90.0
100
AcDbRotatedDimension
1001
ACAD
1000
DSTYLE
1002
{
1070
140
1040
20.0
1070
41
1040
10.0
1070
42
1040
5.0
1070
44
1040
8.0
1070
176
1070
3
1070
177
1070
3
1070
178
1070
3
1002
}
  0
LINE
  5
18B
330
17
100
AcDbEntity
  8
DIM_TEXT
 62
3
100
AcDbLine
 10
155.0
 20
0.0
 30
0.0
 11
238.0
 21
0.0
 31
0.0
  0
LINE
  5
18C
330
17
100
AcDbEntity
  8
DIM_TEXT
 62
3
100
AcDbLine
 10
155.0
 20
450.0
 30
0.0
 11
238.0
 21
450.0
 31
0.0
  0
LINE
  5
18D
330
17
100
AcDbEntity
  8
DIM_TEXT
 62
3
100
AcDbLine
 10
230.0
 20
0.0
 30
0.0
 11
230.0
 21
450.0
 31
0.0
  0
LINE
  5
18E
330
17
100
AcDbEntity
  8
DIM_TEXT
 62
3
100
AcDbLine
 10
230.0
 20
0.0
 30
0.0
 11
234.0
 21
10.0
 31
0.0
  0
LINE
  5
18F
330
17
100
AcDbEntity
  8
DIM_TEXT
 62
3
100
AcDbLine
 10
230.0
 20
0.0
 30
0.0
 11
226.0
 21
10.0
 31
0.0
  0
LINE
  5
190
330
17
100
AcDbEntity
  8
DIM_TEXT
 62
3
100
AcDbLine
 10
230.0
 20
450.0
 30
0.0
 11
226.0
 21
440.0
 31
0.0
  0
LINE
  5
191
330
17
100
AcDbEntity
  8
DIM_TEXT
 62
3
100
AcDbLine
 10
230.0
 20
450.0
 30
0.0
 11
234.0
 21
440.0
 31
0.0
  0
TEXT
  5
192
330
17
100
AcDbEntity
  8
DIM_TEXT
 62
3
100
AcDbText
 10
245.0
 20
225.0
 30
0.0
 40
20.0
  1
450
 50
90.0
 72
1
 11
245.0
 21
225.0
 31
0.0
100
AcDbText
 73
2
  0
DIMENSION
  5
193
330
17
100
AcDbEntity
  8
DIM_NATIVE
100
AcDbDimension
  2
*D4
  3
Standard
 10
230.0
 20
0.0
 30
0.0
 11
240.625
 21
-300.0
 31
0.0
 70
32
 71
5
  1
<>
100
AcDbAlignedDimension
 13
150.0
 23
0.0
 33
0.0
 14
150.0
 24
-600.0
 34
0.0
 50
90.0
100
AcDbRotatedDimension
1001
ACAD
1000
DSTYLE
1002
{
1070
140
1040
20.0
1070
41
1040
10.0
1070
42
1040
5.0
1070
44
1040
8.0
1070
176
1070
3
1070
177
1070
3
1070
178
1070
3
1002
}
  0
LINE
  5
1A2
330
17
100
AcDbEntity
  8
DIM_TEXT
 62
3
100
AcDbLine
 10
155.0
 20
0.0
 30
0.0
 11
238.0
 21
0.0
 31
0.0
  0
LINE
  5
1A3
330
17
100
AcDbEntity
  8
DIM_TEXT
 62
3
100
AcDbLine
 10
155.0
 20
-600.0
 30
0.0
 11
238.0
 21
-600.0
 31
0.0
  0
LINE
  5
1A4
330
17
100
AcDbEntity
  8
DIM_TEXT
 62
3
100
AcDbLine
 10
230.0
 20
0.0
 30
0.0
 11
230.0
 21
-600.0
 31
0.0
  0
LINE
  5
1A5
330
17
100
AcDbEntity
  8
DIM_TEXT
 62
3
100
AcDbLine
 10
230.0
 20
0.0
 30
0.0
 11
226.0
 21
-10.0
 31
0.0
  0
LINE
  5
1A6
330
17
100
AcDbEntity
  8
DIM_TEXT
 62
3
100
AcDbLine
 10
230.0
 20
0.0
 30
0.0
 11
234.0
 21
-10.0
 31
0.0
  0
LINE
  5
1A7
330
17
100
AcDbEntity
  8
DIM_TEXT
 62
3
100
AcDbLine
 10
230.0
 20
-600.0
 30
0.0
 11
234.0
 21
-590.0
 31
0.0
  0
LINE
  5
1A8
330
17
100
AcDbEntity
  8
DIM_TEXT
 62
3
100
AcDbLine
 10
230.0
 20
-600.0
 30
0.0
 11
226.0
 21
-590.0
 31
0.0
  0
TEXT
  5
1A9
330
17
100
AcDbEntity
  8
DIM_TEXT
 62
3
100
AcDbText
 10
245.0
 20
-300.0
 30
0.0
 40
20.0
  1
600
 50
90.0
 72
1
 11
245.0
 21
-300.0
 31
0.0
100
AcDbText
 73
2
  0
DIMENSION
  5
1AA
330
17
100
AcDbEntity
  8
DIM_NATIVE
100
AcDbDimension
  2
*D5
  3
Standard
 10
280.0
 20
270.0
 30
0.0
 11
269.375
 21
360.0
 31
0.0
 70
32
 71
5
  1
<>
100
AcDbAlignedDimension
 13
150.0
 23
270.0
 33
0.0
 14
150.0
 24
450.0
 34
0.0
 50
90.0
100
AcDbRotatedDimension
1001
ACAD
1000
DSTYLE
1002
{
1070
140
1040
20.0
1070
41
1040
10.0
1070
42
1040
5.0
1070
44
1040
8.0
1070
176
1070
3
1070
177
1070
3
1070
178
1070
3
1002
}
  0
LINE
  5
1B9
330
17
100
AcDbEntity
  8
DIM_TEXT
 62
3
100
AcDbLine
 10
155.0
 20
270.0
 30
0.0
 11
288.0
 21
270.0
 31
0.0
  0
LINE
  5
1BA
330
17
100
AcDbEntity
  8
DIM_TEXT
 62
3
100
AcDbLine
 10
155.0
 20
450.0
 30
0.0
 11
288.0
 21
450.0
 31
0.0
  0
LINE
  5
1BB
330
17
100
AcDbEntity
  8
DIM_TEXT
 62
3
100
AcDbLine
 10
280.0
 20
270.0
 30
0.0
 11
280.0
 21
450.0
 31
0.0
  0
LINE
  5
1BC
330
17
100
AcDbEntity
  8
DIM_TEXT
 62
3
100
AcDbLine
 10
280.0
 20
270.0
 30
0.0
 11
284.0
 21
280.0
 31
0.0
  0
LINE
  5
1BD
330
17
100
AcDbEntity
  8
DIM_TEXT
 62
3
100
AcDbLine
 10
280.0
 20
270.0
 30
0.0
 11
276.0
 21
280.0
 31
0.0
  0
LINE
  5
1BE
330
17
100
AcDbEntity
  8
DIM_TEXT
 62
3
100
AcDbLine
 10
280.0
 20
450.0
 30
0.0
 11
276.0
 21
440.0
 31
0.0
  0
LINE
  5
1BF
330
17
100
AcDbEntity
  8
DIM_TEXT
 62
3
100
AcDbLine
 10
280.0
 20
450.0
 30
0.0
 11
284.0
 21
440.0
 31
0.0
  0
TEXT
  5
1C0
330
17
100
AcDbEntity
  8
DIM_TEXT
 62
3
100
AcDbText
 10
295.0
 20
360.0
 30
0.0
 40
20.0
  1
180
 50
90.0
 72
1
 11
295.0
 21
360.0
 31
0.0
100
AcDbText
 73
2
  0
DIMENSION
  5
1C1
330
17
100
AcDbEntity
  8
DIM_NATIVE
100
AcDbDimension
  2
*D6
  3
Standard
 10
330.0
 20
280.0
 30
0.0
 11
321.875
 21
355.0
 31
0.0
 70
32
 71
5
  1
<>
100
AcDbAlignedDimension
 13
150.0
 23
280.0
 33
0.0
 14
150.0
 24
430.0
 34
0.0
 50
90.0
100
AcDbRotatedDimension
1001
ACAD
1000
DSTYLE
1002
{
1070
140
1040
15.0
1070
41
1040
10.0
1070
42
1040
5.0
1070
44
1040
8.0
1070
176
1070
3
1070
177
1070
3
1070
178
1070
3
1002
}
  0
LINE
  5
1D0
330
17
100
AcDbEntity
  8
DIM_TEXT
 62
3
100
AcDbLine
 10
155.0
 20
280.0
 30
0.0
 11
338.0
 21
280.0
 31
0.0
  0
LINE
  5
1D1
330
17
100
AcDbEntity
  8
DIM_TEXT
 62
3
100
AcDbLine
 10
155.0
 20
430.0
 30
0.0
 11
338.0
 21
430.0
 31
0.0
  0
LINE
  5
1D2
330
17
100
AcDbEntity
  8
DIM_TEXT
 62
3
100
AcDbLine
 10
330.0
 20
280.0
 30
0.0
 11
330.0
 21
430.0
 31
0.0
  0
LINE
  5
1D3
330
17
100
AcDbEntity
  8
DIM_TEXT
 62
3
100
AcDbLine
 10
330.0
 20
280.0
 30
0.0
 11
334.0
 21
290.0
 31
0.0
  0
LINE
  5
1D4
330
17
100
AcDbEntity
  8
DIM_TEXT
 62
3
100
AcDbLine
 10
330.0
 20
280.0
 30
0.0
 11
326.0
 21
290.0
 31
0.0
  0
LINE
  5
1D5
330
17
100
AcDbEntity
  8
DIM_TEXT
 62
3
100
AcDbLine
 10
330.0
 20
430.0
 30
0.0
 11
326.0
 21
420.0
 31
0.0
  0
LINE
  5
1D6
330
17
100
AcDbEntity
  8
DIM_TEXT
 62
3
100
AcDbLine
 10
330.0
 20
430.0
 30
0.0
 11
334.0
 21
420.0
 31
0.0
  0
TEXT
  5
1D7
330
17
100
AcDbEntity
  8
DIM_TEXT
 62
3
100
AcDbText
 10
345.0
 20
355.0
 30
0.0
 40
15.0
  1
150
 50
90.0
 72
1
 11
345.0
 21
355.0
 31
0.0
100
AcDbText
 73
2
  0
DIMENSION
  5
1D8
330
17
100
AcDbEntity
  8
DIM_NATIVE
100
AcDbDimension
  2
*D7
  3
Standard
 10
90.0
 20
220.0
 30
0.0
 11
120.0
 21
228.125
 31
0.0
 70
32
 71
5
  1
<>
100
AcDbAlignedDimension
 13
90.0
 23
260.0
 33
0.0
 14
150.0
 24
260.0
 34
0.0
 50
0.0
100
AcDbRotatedDimension
1001
ACAD
1000
DSTYLE
1002
{
1070
140
1040
15.0
1070
41
1040
10.0
1070
42
1040
5.0
1070
44
1040
8.0
1070
176
1070
3
1070
177
1070
3
1070
178
1070
3
1002
}
  0
LINE
  5
1E7
330
17
100
AcDbEntity
  8
DIM_TEXT
 62
3
100
AcDbLine
 10
90.0
 20
255.0
 30
0.0
 11
90.0
 21
212.0
 31
0.0
  0
LINE
  5
1E8
330
17
100
AcDbEntity
  8
DIM_TEXT
 62
3
100
AcDbLine
 10
150.0
 20
255.0
 30
0.0
 11
150.0
 21
212.0
 31
0.0
  0
LINE
  5
1E9
330
17
100
AcDbEntity
  8
DIM_TEXT
 62
3
100
AcDbLine
 10
90.0
 20
220.0
 30
0.0
 11
150.0
 21
220.0
 31
0.0
  0
LINE
  5
1EA
330
17
100
AcDbEntity
  8
DIM_TEXT
 62
3
100
AcDbLine
 10
90.0
 20
220.0
 30
0.0
 11
100.0
 21
216.0
 31
0.0
  0
LINE
  5
1EB
330
17
100
AcDbEntity
  8
DIM_TEXT
 62
3
100
AcDbLine
 10
90.0
 20
220.0
 30
0.0
 11
100.0
 21
224.0
 31
0.0
  0
LINE
  5
1EC
330
17
100
AcDbEntity
  8
DIM_TEXT
 62
3
100
AcDbLine
 10
150.0
 20
220.0
 30
0.0
 11
140.0
 21
224.0
 31
0.0
  0
LINE
  5
1ED
330
17
100
AcDbEntity
  8
DIM_TEXT
 62
3
100
AcDbLine
 10
150.0
 20
220.0
 30
0.0
 11
140.0
 21
216.0
 31
0.0
  0
TEXT
  5
1EE
330
17
100
AcDbEntity
  8
DIM_TEXT
 62
3
100
AcDbText
 10
120.0
 20
235.0
 30
0.0
 40
15.0
  1
60
 72
1
 11
120.0
 21
235.0
 31
0.0
100
AcDbText
 73
2
  0
DIMENSION
  5
1EF
330
17
100
AcDbEntity
  8
DIM_NATIVE
100
AcDbDimension
  2
*D8
  3
Standard
 10
-75.0
 20
530.0
 30
0.0
 11
0.0
 21
540.625
 31
0.0
 70
32
 71
5
  1
<>
100
AcDbAlignedDimension
 13
-75.0
 23
500.0
 33
0.0
 14
75.0
 24
500.0
 34
0.0
 50
0.0
100
AcDbRotatedDimension
1001
ACAD
1000
DSTYLE
1002
{
1070
140
1040
20.0
1070
41
1040
10.0
1070
42
1040
5.0
1070
44
1040
8.0
1070
176
1070
3
1070
177
1070
3
1070
178
1070
3
1002
}
  0
LINE
  5
1FE
330
17
100
AcDbEntity
  8
DIM_TEXT
 62
3
100
AcDbLine
 10
-75.0
 20
505.0
 30
0.0
 11
-75.0
 21
538.0
 31
0.0
  0
LINE
  5
1FF
330
17
100
AcDbEntity
  8
DIM_TEXT
 62
3
100
AcDbLine
 10
75.0
 20
505.0
 30
0.0
 11
75.0
 21
538.0
 31
0.0
  0
LINE
  5
200
330
17
100
AcDbEntity
  8
DIM_TEXT
 62
3
100
AcDbLine
 10
-75.0
 20
530.0
 30
0.0
 11
75.0
 21
530.0
 31
0.0
  0
LINE
  5
201
330
17
100
AcDbEntity
  8
DIM_TEXT
 62
3
100
AcDbLine
 10
-75.0
 20
530.0
 30
0.0
 11
-65.0
 21
526.0
 31
0.0
  0
LINE
  5
202
330
17
100
AcDbEntity
  8
DIM_TEXT
 62
3
100
AcDbLine
 10
-75.0
 20
530.0
 30
0.0
 11
-65.0
 21
534.0
 31
0.0
  0
LINE
  5
203
330
17
100
AcDbEntity
  8
DIM_TEXT
 62
3
100
AcDbLine
 10
75.0
 20
530.0
 30
0.0
 11
65.0
 21
534.0
 31
0.0
  0
LINE
  5
204
330
17
100
AcDbEntity
  8
DIM_TEXT
 62
3
100
AcDbLine
 10
75.0
 20
530.0
 30
0.0
 11
65.0
 21
526.0
 31
0.0
  0
TEXT
  5
205
330
17
100
AcDbEntity
  8
DIM_TEXT
 62
3
100
AcDbText
 10
0.0
 20
545.0
 30
0.0
 40
20.0
  1
150
 72
1
 11
0.0
 21
545.0
 31
0.0
100
AcDbText
 73
2
  0
ENDSEC
  0
SECTION
  2
OBJECTS
  0
DICTIONARY
  5
A
330
0
100
AcDbDictionary
281
1
  3
ACAD_COLOR
350
B
  3
ACAD_GROUP
350
C
  3
ACAD_LAYOUT
350
D
  3
ACAD_MATERIAL
350
E
  3
ACAD_MLEADERSTYLE
350
F
  3
ACAD_MLINESTYLE
350
10
  3
ACAD_PLOTSETTINGS
350
11
  3
ACAD_PLOTSTYLENAME
350
12
  3
ACAD_SCALELIST
350
14
  3
ACAD_TABLESTYLE
350
15
  3
ACAD_VISUALSTYLE
350
16
  3
EZDXF_META
350
2D
  0
DICTIONARY
  5
B
330
A
100
AcDbDictionary
281
1
  0
DICTIONARY
  5
C
330
A
100
AcDbDictionary
281
1
  0
DICTIONARY
  5
D
330
A
100
AcDbDictionary
281
1
  3
Model
350
1A
  3
Layout1
350
1E
  0
DICTIONARY
  5
E
330
A
100
AcDbDictionary
281
1
  3
ByBlock
350
1F
  3
ByLayer
350
20
  3
Global
350
21
  0
DICTIONARY
  5
F
330
A
100
AcDbDictionary
281
1
  3
Standard
350
2C
  0
DICTIONARY
  5
10
330
A
100
AcDbDictionary
281
1
  3
Standard
350
22
  0
DICTIONARY
  5
11
330
A
100
AcDbDictionary
281
1
  0
ACDBDICTIONARYWDFLT
  5
12
330
A
100
AcDbDictionary
281
1
  3
Normal
350
13
100
AcDbDictionaryWithDefault
340
13
  0
ACDBPLACEHOLDER
  5
13
330
12
  0
DICTIONARY
  5
14
330
A
100
AcDbDictionary
281
1
  0
DICTIONARY
  5
15
330
A
100
AcDbDictionary
281
1
  0
DICTIONARY
  5
16
330
A
100
AcDbDictionary
281
1
  0
LAYOUT
  5
1A
330
D
100
AcDbPlotSettings
  1

  4
A3
  6

 40
7.5
 41
20.0
 42
7.5
 43
20.0
 44
420.0
 45
297.0
 46
0.0
 47
0.0
 48
0.0
 49
0.0
140
0.0
141
0.0
142
1.0
143
1.0
 70
1024
 72
1
 73
0
 74
5
  7

 75
16
 76
0
 77
2
 78
300
147
1.0
148
0.0
149
0.0
100
AcDbLayout
  1
Model
 70
1
 71
0
 10
0.0
 20
0.0
 11
420.0
 21
297.0
 12
0.0
 22
0.0
 32
0.0
 14
1e+20
 24
1e+20
 34
1e+20
 15
-1e+20
 25
-1e+20
 35
-1e+20
146
0.0
 13
0.0
 23
0.0
 33
0.0
 16
1.0
 26
0.0
 36
0.0
 17
0.0
 27
1.0
 37
0.0
 76
1
330
17
  0
LAYOUT
  5
1E
330
D
100
AcDbPlotSettings
  1

  4
A3
  6

 40
7.5
 41
20.0
 42
7.5
 43
20.0
 44
420.0
 45
297.0
 46
0.0
 47
0.0
 48
0.0
 49
0.0
140
0.0
141
0.0
142
1.0
143
1.0
 70
0
 72
1
 73
0
 74
5
  7

 75
16
 76
0
 77
2
 78
300
147
1.0
148
0.0
149
0.0
100
AcDbLayout
  1
Layout1
 70
1
 71
1
 10
0.0
 20
0.0
 11
420.0
 21
297.0
 12
0.0
 22
0.0
 32
0.0
 14
1e+20
 24
1e+20
 34
1e+20
 15
-1e+20
 25
-1e+20
 35
-1e+20
146
0.0
 13
0.0
 23
0.0
 33
0.0
 16
1.0
 26
0.0
 36
0.0
 17
0.0
 27
1.0
 37
0.0
 76
1
330
1B
  0
MATERIAL
  5
1F
102
{ACAD_REACTORS
330
E
102
}
330
E
100
AcDbMaterial
  1
ByBlock
  2

 70
0
 40
1.0
 71
1
 41
1.0
 91
-1023410177
 42
1.0
 72
1
  3

 73
1
 74
1
 75
1
 44
0.5
 73
0
 45
1.0
 46
1.0
 77
1
  4

 78
1
 79
1
170
1
 48
1.0
171
1
  6

172
1
173
1
174
1
140
1.0
141
1.0
175
1
  7

176
1
177
1
178
1
143
1.0
179
1
  8

270
1
271
1
272
1
145
1.0
146
1.0
273
1
  9

274
1
275
1
276
1
 42
1.0
 72
1
  3

 73
1
 74
1
 75
1
 94
63
  0
MATERIAL
  5
20
102
{ACAD_REACTORS
330
E
102
}
330
E
100
AcDbMaterial
  1
ByLayer
  2

 70
0
 40
1.0
 71
1
 41
1.0
 91
-1023410177
 42
1.0
 72
1
  3

 73
1
 74
1
 75
1
 44
0.5
 73
0
 45
1.0
 46
1.0
 77
1
  4

 78
1
 79
1
170
1
 48
1.0
171
1
  6

172
1
173
1
174
1
140
1.0
141
1.0
175
1
  7

176
1
177
1
178
1
143
1.0
179
1
  8

270
1
271
1
272
1
145
1.0
146
1.0
273
1
  9

274
1
275
1
276
1
 42
1.0
 72
1
  3

 73
1
 74
1
 75
1
 94
63
  0
MATERIAL
  5
21
102
{ACAD_REACTORS
330
E
102
}
330
E
100
AcDbMaterial
  1
Global
  2

 70
0
 40
1.0
 71
1
 41
1.0
 91
-1023410177
 42
1.0
 72
1
  3

 73
1
 74
1
 75
1
 44
0.5
 73
0
 45
1.0
 46
1.0
 77
1
  4

 78
1
 79
1
170
1
 48
1.0
171
1
  6

172
1
173
1
174
1
140
1.0
141
1.0
175
1
  7

176
1
177
1
178
1
143
1.0
179
1
  8

270
1
271
1
272
1
145
1.0
146
1.0
273
1
  9

274
1
275
1
276
1
 42
1.0
 72
1
  3

 73
1
 74
1
 75
1
 94
63
  0
MLINESTYLE
  5
22
102
{ACAD_REACTORS
330
10
102
}
330
10
100
AcDbMlineStyle
  2
Standard
 70
0
  3

 62
256
 51
90.0
 52
90.0
 71
2
 49
0.5
 62
256
  6
BYLAYER
 49
-0.5
 62
256
  6
BYLAYER
  0
MLEADERSTYLE
  5
2C
102
{ACAD_REACTORS
330
F
102
}
330
F
100
AcDbMLeaderStyle
179
2
170
2
171
1
172
0
 90
2
 40
0.0
 41
0.0
173
1
 91
-1056964608
 92
-2
290
1
 42
2.0
291
1
 43
8.0
  3
Standard
 44
4.0
300

342
29
174
1
175
1
176
0
178
1
 93
-1056964608
 45
4.0
292
0
297
0
 46
4.0
 94
-1056964608
 47
1.0
 49
1.0
140
1.0
294
1
141
0.0
177
0
142
1.0
295
0
296
0
143
3.75
271
0
272
9
273
9
  0
DICTIONARY
  5
2D
330
A
100
AcDbDictionary
280
1
281
1
  3
CREATED_BY_EZDXF
350
2E
  3
WRITTEN_BY_EZDXF
350
147
  0
DICTIONARYVAR
  5
2E
330
2D
100
DictionaryVariables
280
0
  1
1.4.4 @ 2026-08-11T10:27:45.917093+00:00
  0
DICTIONARYVAR
  5
147
330
2D
100
DictionaryVariables
280
0
  1
1.4.4 @ 2026-08-11T10:27:46.358645+00:00
  0
ENDSEC
  0
EOF
