999
FreeCAD v1.1 20260725 (Git shallow)
  0
SECTION
  2
HEADER
  9
$ACADVER
  1
AC1014
  9
$ACADMAINTVER
 70
     9
  9
$DWGCODEPAGE
  3
ANSI_1252
  9
$TEXTSTYLE
  7
STANDARD
  9
$DIMSTYLE
  2
STANDARD
  9
$DIMTXSTY
  7
STANDARD
  9
$CMLSTYLE
  2
STANDARD
  9
$LUNITS
 70
2
  9
$INSUNITS
 70
4
  9
$PEXTMAX
 10
50
 20
50
 30
50
  9
$PEXTMIN
 10
0
 20
0
 30
0
  9
$HANDSEED
  5
FFFF
  0
ENDSEC
  0
SECTION
  2
CLASSES
  0
CLASS
  1
ACDBDICTIONARYWDFLT
  2
AcDbDictionaryWithDefault
  3
ObjectDBX Classes
 90
        0
280
     0
281
     0
  0
CLASS
  1
XRECORD
  2
AcDbXrecord
  3
ObjectDBX Classes
 90
        0
280
     0
281
     0
  0
CLASS
  1
LWPOLYLINE
  2
AcDbPolyline
  3
ObjectDBX Classes
 90
        0
280
     0
281
     1
  0
ENDSEC
  0
SECTION
  2
TABLES
  0
TABLE
  2
VPORT
  5
20
330
0
100
AcDbSymbolTable
 70
     1
  0
VPORT
  5
21
330
20
100
AcDbSymbolTableRecord
100
AcDbViewportTableRecord
  2
*ACTIVE
 70
     0
  0
ENDTAB
  0
TABLE
  2
LTYPE
  5
22
330
0
100
AcDbSymbolTable
 70
     1
  0
LTYPE
  5
23
330
21
100
AcDbSymbolTableRecord
100
AcDbLinetypeTableRecord
  2
BYBLOCK
 70
     0
  3

 72
    65
 73
     0
 40
0.0
  0
LTYPE
  5
24
330
21
100
AcDbSymbolTableRecord
100
AcDbLinetypeTableRecord
  2
BYLAYER
 70
     0
  3

 72
    65
 73
     0
 40
0.0
  0
LTYPE
  5
25
330
21
100
AcDbSymbolTableRecord
100
AcDbLinetypeTableRecord
  2
CONTINUOUS
 70
     0
  3
Solid line
 72
    65
 73
     0
 40
0.0
  0
ENDTAB
  0
TABLE
  2
LAYER
  5
A2E
330
0
100
AcDbSymbolTable
 70
2
  0
LAYER
  5
A2F
330
A2E
100
AcDbSymbolTableRecord
100
AcDbLayerTableRecord
  2
0
 70
   0
 62
   7
  6
CONTINUOUS
  0
LAYER
  5
A30
330
A2E
100
AcDbSymbolTableRecord
100
AcDbLayerTableRecord
  2
View_cyclone_front_dxf
 70
    0
 62
    7
  6
CONTINUOUS
  0
ENDTAB
  0
TABLE
  2
STYLE
  5
70
330
0
100
AcDbSymbolTable
 70
     2
  0
STYLE
  5
71
330
70
100
AcDbSymbolTableRecord
100
AcDbTextStyleTableRecord
  2
STANDARD
 70
     0
 40
0.0
 41
1.0
 50
0.0
 71
     0
 42
2.5
  3
arial.ttf
  4

  0
STYLE
  5
72
330
70
100
AcDbSymbolTableRecord
100
AcDbTextStyleTableRecord
  2
ANNOTATIVE
 70
     0
 40
0.0
 41
1.0
 50
0.0
 71
     0
 42
2.5
  3
arial.ttf
  4

  0
ENDTAB
  0
TABLE
  2
VIEW
  5
73
330
0
100
AcDbSymbolTable
 70
     0
  0
ENDTAB
  0
TABLE
  2
UCS
  5
74
330
0
100
AcDbSymbolTable
 70
     0
  0
ENDTAB
  0
TABLE
  2
APPID
  5
75
330
0
100
AcDbSymbolTable
 70
     2
  0
APPID
  5
76
330
75
100
AcDbSymbolTableRecord
100
AcDbRegAppTableRecord
  2
ACAD
 70
     0
  0
APPID
  5
77
330
75
100
AcDbSymbolTableRecord
100
AcDbRegAppTableRecord
  2
ACADANNOTATIVE
 70
     0
  0
ENDTAB
  0
TABLE
  2
DIMSTYLE
  5
78
330
0
100
AcDbSymbolTable
 70
     2
  0
DIMSTYLE
105
79
330
78
100
AcDbSymbolTableRecord
100
AcDbDimStyleTableRecord
  2
STANDARD
 70
     0
  3

  4

  5

  6

  7

 40
0.0
 41
2.5
 42
0.625
 43
3.75
 44
1.25
 45
0.0
 46
0.0
 47
0.0
 48
0.0
140
2.5
141
2.5
142
0.0
143
0.03937007874016
144
1.0
145
0.0
146
1.0
147
0.625
 71
     0
 72
     0
 73
     0
 74
     0
 75
     0
 76
     0
 77
     1
 78
     8
170
     0
171
     3
172
     1
173
     0
174
     0
175
     0
176
     0
177
     0
178
     0
270
     2
271
     2
272
     2
273
     2
274
     3
340
71
275
     0
280
     0
281
     0
282
     0
283
     0
284
     8
285
     0
286
     0
287
     3
288
     0
  0
ENDTAB
  0
TABLE
  2
BLOCK_RECORD
  5
A01
330
0
100
AcDbSymbolTable
  70
5
  0
BLOCK_RECORD
  5
A02
330
A01
100
AcDbSymbolTableRecord
100
AcDbBlockTableRecord
  2
*MODEL_SPACE
  0
BLOCK_RECORD
  5
A03
330
A01
100
AcDbSymbolTableRecord
100
AcDbBlockTableRecord
  2
*PAPER_SPACE
  0
ENDTAB
  0
ENDSEC
  0
SECTION
  2
BLOCKS
  0
BLOCK
  5
A04
330
A02
100
AcDbEntity
  8
0
100
AcDbBlockBegin
  2
*MODEL_SPACE
 70
   0
 10
0
 20
0
 30
0
  3
*MODEL_SPACE
  1
 
  0
ENDBLK
  5
A05
330
A02
100
AcDbEntity
  8
0
100
AcDbBlockEnd
  0
BLOCK
  5
A06
330
A03
100
AcDbEntity
 67
1
  8
0
100
AcDbBlockBegin
  2
*PAPER_SPACE
 70
   0
 10
0
 20
0
 30
0
  3
*PAPER_SPACE
  1
 
  0
ENDBLK
  5
A07
330
A03
100
AcDbEntity
 67
    1
  8
0
100
AcDbBlockEnd
  0
ENDSEC
  0
SECTION
  2
ENTITIES
  0
SPLINE
  5
A08
330
A02
100
AcDbEntity
  8
View_cyclone_front_dxf
100
AcDbSpline
210
0
220
0
230
1
 70
8
 71
1
 72
17
 73
15
 74
0
 40
3.141592654
 40
3.141592654
 40
3.365992129
 40
3.590391604
 40
3.814791079
 40
4.039190555
 40
4.263590030
 40
4.487989505
 40
4.712388980
 40
4.936788456
 40
5.161187931
 40
5.385587406
 40
5.609986881
 40
5.834386357
 40
6.058785832
 40
6.283185307
 40
6.283185307
 10
-162.500000000
 20
100.000000000
 30
0.000000000
 10
-158.739186827
 20
100.000000000
 30
0.000000000
 10
-147.645330185
 20
100.000000000
 30
0.000000000
 10
-129.774722370
 20
100.000000000
 30
0.000000000
 10
-106.023470279
 20
100.000000000
 30
0.000000000
 10
-77.582560868
 20
100.000000000
 30
0.000000000
 10
-45.878140093
 20
100.000000000
 30
0.000000000
 10
-12.500000000
 20
100.000000000
 30
0.000000000
 10
20.878140093
 20
100.000000000
 30
0.000000000
 10
52.582560868
 20
100.000000000
 30
0.000000000
 10
81.023470279
 20
100.000000000
 30
0.000000000
 10
104.774722370
 20
100.000000000
 30
0.000000000
 10
122.645330185
 20
100.000000000
 30
0.000000000
 10
133.739186827
 20
100.000000000
 30
0.000000000
 10
137.500000000
 20
100.000000000
 30
0.000000000
  0
LINE
  5
A09
330
A02
100
AcDbEntity
  8
View_cyclone_front_dxf
100
AcDbLine
 10
137.500000000
 20
100.000000000
 30
0.000000000
 11
137.500000000
 21
355.000000000
 31
0.000000000
  0
SPLINE
  5
A0A
330
A02
100
AcDbEntity
  8
View_cyclone_front_dxf
100
AcDbSpline
210
0
220
0
230
1
 70
8
 71
1
 72
17
 73
15
 74
0
 40
3.141592654
 40
3.141592654
 40
3.285805830
 40
3.430019005
 40
3.574232181
 40
3.718445357
 40
3.862658533
 40
4.006871709
 40
4.151084885
 40
4.295298061
 40
4.439511237
 40
4.583724413
 40
4.727937589
 40
4.872150765
 40
5.016363940
 40
5.160577116
 40
5.160577116
 10
-162.500000000
 20
550.000000000
 30
0.000000000
 10
-160.942893453
 20
550.000000000
 30
0.000000000
 10
-156.303901556
 20
550.000000000
 30
0.000000000
 10
-148.679336372
 20
550.000000000
 30
0.000000000
 10
-138.227494704
 20
550.000000000
 30
0.000000000
 10
-125.165371635
 20
550.000000000
 30
0.000000000
 10
-109.764155395
 20
550.000000000
 30
0.000000000
 10
-92.343597113
 20
550.000000000
 30
0.000000000
 10
-73.265372328
 20
550.000000000
 30
0.000000000
 10
-52.925572088
 20
550.000000000
 30
0.000000000
 10
-31.746479542
 20
550.000000000
 30
0.000000000
 10
-10.167802738
 20
550.000000000
 30
0.000000000
 10
11.362454337
 20
550.000000000
 30
0.000000000
 10
32.397292961
 20
550.000000000
 30
0.000000000
 10
52.500000000
 20
550.000000000
 30
0.000000000
  0
LINE
  5
A0B
330
A02
100
AcDbEntity
  8
View_cyclone_front_dxf
100
AcDbLine
 10
-162.500000000
 20
100.000000000
 30
0.000000000
 11
-62.500000000
 21
-500.000000000
 31
0.000000000
  0
SPLINE
  5
A0C
330
A02
100
AcDbEntity
  8
View_cyclone_front_dxf
100
AcDbSpline
210
0
220
0
230
1
 70
8
 71
1
 72
17
 73
15
 74
0
 40
3.141592654
 40
3.141592654
 40
3.365992129
 40
3.590391604
 40
3.814791079
 40
4.039190555
 40
4.263590030
 40
4.487989505
 40
4.712388980
 40
4.936788456
 40
5.161187931
 40
5.385587406
 40
5.609986881
 40
5.834386357
 40
6.058785832
 40
6.283185307
 40
6.283185307
 10
37.500000000
 20
-500.000000000
 30
0.000000000
 10
36.246395609
 20
-500.000000000
 30
0.000000000
 10
32.548443395
 20
-500.000000000
 30
0.000000000
 10
26.591574123
 20
-500.000000000
 30
0.000000000
 10
18.674490093
 20
-500.000000000
 30
0.000000000
 10
9.194186956
 20
-500.000000000
 30
0.000000000
 10
-1.373953302
 20
-500.000000000
 30
0.000000000
 10
-12.500000000
 20
-500.000000000
 30
0.000000000
 10
-23.626046698
 20
-500.000000000
 30
0.000000000
 10
-34.194186956
 20
-500.000000000
 30
0.000000000
 10
-43.674490093
 20
-500.000000000
 30
0.000000000
 10
-51.591574123
 20
-500.000000000
 30
0.000000000
 10
-57.548443395
 20
-500.000000000
 30
0.000000000
 10
-61.246395609
 20
-500.000000000
 30
0.000000000
 10
-62.500000000
 20
-500.000000000
 30
0.000000000
  0
LINE
  5
A0D
330
A02
100
AcDbEntity
  8
View_cyclone_front_dxf
100
AcDbLine
 10
37.500000000
 20
-595.000000000
 30
0.000000000
 11
37.500000000
 21
-500.000000000
 31
0.000000000
  0
LINE
  5
A0E
330
A02
100
AcDbEntity
  8
View_cyclone_front_dxf
100
AcDbLine
 10
62.500000000
 20
555.000000000
 30
0.000000000
 11
62.500000000
 21
595.000000000
 31
0.000000000
  0
SPLINE
  5
A0F
330
A02
100
AcDbEntity
  8
View_cyclone_front_dxf
100
AcDbSpline
210
0
220
0
230
1
 70
8
 71
1
 72
17
 73
15
 74
0
 40
3.141592654
 40
3.141592654
 40
3.365992129
 40
3.590391604
 40
3.814791079
 40
4.039190555
 40
4.263590030
 40
4.487989505
 40
4.712388980
 40
4.936788456
 40
5.161187931
 40
5.385587406
 40
5.609986881
 40
5.834386357
 40
6.058785832
 40
6.283185307
 40
6.283185307
 10
-87.500000000
 20
-595.000000000
 30
0.000000000
 10
-85.619593414
 20
-595.000000000
 30
0.000000000
 10
-80.072665093
 20
-595.000000000
 30
0.000000000
 10
-71.137361185
 20
-595.000000000
 30
0.000000000
 10
-59.261735139
 20
-595.000000000
 30
0.000000000
 10
-45.041280434
 20
-595.000000000
 30
0.000000000
 10
-29.189070047
 20
-595.000000000
 30
0.000000000
 10
-12.500000000
 20
-595.000000000
 30
0.000000000
 10
4.189070047
 20
-595.000000000
 30
0.000000000
 10
20.041280434
 20
-595.000000000
 30
0.000000000
 10
34.261735139
 20
-595.000000000
 30
0.000000000
 10
46.137361185
 20
-595.000000000
 30
0.000000000
 10
55.072665093
 20
-595.000000000
 30
0.000000000
 10
60.619593414
 20
-595.000000000
 30
0.000000000
 10
62.500000000
 20
-595.000000000
 30
0.000000000
  0
LINE
  5
A10
330
A02
100
AcDbEntity
  8
View_cyclone_front_dxf
100
AcDbLine
 10
52.500000000
 20
355.000000000
 30
0.000000000
 11
162.500000000
 21
355.000000000
 31
0.000000000
  0
LINE
  5
A11
330
A02
100
AcDbEntity
  8
View_cyclone_front_dxf
100
AcDbLine
 10
162.500000000
 20
355.000000000
 30
0.000000000
 11
162.500000000
 21
555.000000000
 31
0.000000000
  0
LINE
  5
A12
330
A02
100
AcDbEntity
  8
View_cyclone_front_dxf
100
AcDbLine
 10
52.500000000
 20
355.000000000
 30
0.000000000
 11
52.500000000
 21
555.000000000
 31
0.000000000
  0
LINE
  5
A13
330
A02
100
AcDbEntity
  8
View_cyclone_front_dxf
100
AcDbLine
 10
52.500000000
 20
555.000000000
 30
0.000000000
 11
162.500000000
 21
555.000000000
 31
0.000000000
  0
CIRCLE
  5
A14
330
A02
100
AcDbEntity
  8
View_cyclone_front_dxf
100
AcDbCircle
 10
65.000000000
 20
367.500000000
 30
0.000000000
 40
6.000000000
  0
CIRCLE
  5
A15
330
A02
100
AcDbEntity
  8
View_cyclone_front_dxf
100
AcDbCircle
 10
65.000000000
 20
542.500000000
 30
0.000000000
 40
6.000000000
  0
CIRCLE
  5
A16
330
A02
100
AcDbEntity
  8
View_cyclone_front_dxf
100
AcDbCircle
 10
150.000000000
 20
367.500000000
 30
0.000000000
 40
6.000000000
  0
CIRCLE
  5
A17
330
A02
100
AcDbEntity
  8
View_cyclone_front_dxf
100
AcDbCircle
 10
150.000000000
 20
542.500000000
 30
0.000000000
 40
6.000000000
  0
SPLINE
  5
A18
330
A02
100
AcDbEntity
  8
View_cyclone_front_dxf
100
AcDbSpline
210
0
220
0
230
1
 70
8
 71
1
 72
17
 73
15
 74
0
 40
3.141592654
 40
3.141592654
 40
3.365992129
 40
3.590391604
 40
3.814791079
 40
4.039190555
 40
4.263590030
 40
4.487989505
 40
4.712388980
 40
4.936788456
 40
5.161187931
 40
5.385587406
 40
5.609986881
 40
5.834386357
 40
6.058785832
 40
6.283185307
 40
6.283185307
 10
-112.500000000
 20
595.000000000
 30
0.000000000
 10
-109.992791218
 20
595.000000000
 30
0.000000000
 10
-102.596886790
 20
595.000000000
 30
0.000000000
 10
-90.683148247
 20
595.000000000
 30
0.000000000
 10
-74.848980186
 20
595.000000000
 30
0.000000000
 10
-55.888373912
 20
595.000000000
 30
0.000000000
 10
-34.752093396
 20
595.000000000
 30
0.000000000
 10
-12.500000000
 20
595.000000000
 30
0.000000000
 10
9.752093396
 20
595.000000000
 30
0.000000000
 10
30.888373912
 20
595.000000000
 30
0.000000000
 10
49.848980186
 20
595.000000000
 30
0.000000000
 10
65.683148247
 20
595.000000000
 30
0.000000000
 10
77.596886790
 20
595.000000000
 30
0.000000000
 10
84.992791218
 20
595.000000000
 30
0.000000000
 10
87.500000000
 20
595.000000000
 30
0.000000000
  0
LINE
  5
A19
330
A02
100
AcDbEntity
  8
View_cyclone_front_dxf
100
AcDbLine
 10
62.500000000
 20
-610.000000000
 30
0.000000000
 11
62.500000000
 21
-595.000000000
 31
0.000000000
  0
SPLINE
  5
A1A
330
A02
100
AcDbEntity
  8
View_cyclone_front_dxf
100
AcDbSpline
210
0
220
0
230
1
 70
8
 71
1
 72
17
 73
15
 74
0
 40
3.141592654
 40
3.141592654
 40
3.365992129
 40
3.590391604
 40
3.814791079
 40
4.039190555
 40
4.263590030
 40
4.487989505
 40
4.712388980
 40
4.936788456
 40
5.161187931
 40
5.385587406
 40
5.609986881
 40
5.834386357
 40
6.058785832
 40
6.283185307
 40
6.283185307
 10
-87.500000000
 20
-610.000000000
 30
0.000000000
 10
-85.619593414
 20
-610.000000000
 30
0.000000000
 10
-80.072665093
 20
-610.000000000
 30
0.000000000
 10
-71.137361185
 20
-610.000000000
 30
0.000000000
 10
-59.261735139
 20
-610.000000000
 30
0.000000000
 10
-45.041280434
 20
-610.000000000
 30
0.000000000
 10
-29.189070047
 20
-610.000000000
 30
0.000000000
 10
-12.500000000
 20
-610.000000000
 30
0.000000000
 10
4.189070047
 20
-610.000000000
 30
0.000000000
 10
20.041280434
 20
-610.000000000
 30
0.000000000
 10
34.261735139
 20
-610.000000000
 30
0.000000000
 10
46.137361185
 20
-610.000000000
 30
0.000000000
 10
55.072665093
 20
-610.000000000
 30
0.000000000
 10
60.619593414
 20
-610.000000000
 30
0.000000000
 10
62.500000000
 20
-610.000000000
 30
0.000000000
  0
LINE
  5
A1B
330
A02
100
AcDbEntity
  8
View_cyclone_front_dxf
100
AcDbLine
 10
77.500000000
 20
530.000000000
 30
0.000000000
 11
137.500000000
 21
530.000000000
 31
0.000000000
  0
LINE
  5
A1C
330
A02
100
AcDbEntity
  8
View_cyclone_front_dxf
100
AcDbLine
 10
77.500000000
 20
530.000000000
 30
0.000000000
 11
77.500000000
 21
380.000000000
 31
0.000000000
  0
LINE
  5
A1D
330
A02
100
AcDbEntity
  8
View_cyclone_front_dxf
100
AcDbLine
 10
137.500000000
 20
530.000000000
 30
0.000000000
 11
137.500000000
 21
380.000000000
 31
0.000000000
  0
LINE
  5
A1E
330
A02
100
AcDbEntity
  8
View_cyclone_front_dxf
100
AcDbLine
 10
77.500000000
 20
380.000000000
 30
0.000000000
 11
137.500000000
 21
380.000000000
 31
0.000000000
  0
SPLINE
  5
A1F
330
A02
100
AcDbEntity
  8
View_cyclone_front_dxf
100
AcDbSpline
210
0
220
0
230
1
 70
8
 71
1
 72
17
 73
15
 74
0
 40
3.141592654
 40
3.141592654
 40
3.365992129
 40
3.590391604
 40
3.814791079
 40
4.039190555
 40
4.263590030
 40
4.487989505
 40
4.712388980
 40
4.936788456
 40
5.161187931
 40
5.385587406
 40
5.609986881
 40
5.834386357
 40
6.058785832
 40
6.283185307
 40
6.283185307
 10
-112.500000000
 20
610.000000000
 30
0.000000000
 10
-109.992791218
 20
610.000000000
 30
0.000000000
 10
-102.596886790
 20
610.000000000
 30
0.000000000
 10
-90.683148247
 20
610.000000000
 30
0.000000000
 10
-74.848980186
 20
610.000000000
 30
0.000000000
 10
-55.888373912
 20
610.000000000
 30
0.000000000
 10
-34.752093396
 20
610.000000000
 30
0.000000000
 10
-12.500000000
 20
610.000000000
 30
0.000000000
 10
9.752093396
 20
610.000000000
 30
0.000000000
 10
30.888373912
 20
610.000000000
 30
0.000000000
 10
49.848980186
 20
610.000000000
 30
0.000000000
 10
65.683148247
 20
610.000000000
 30
0.000000000
 10
77.596886790
 20
610.000000000
 30
0.000000000
 10
84.992791218
 20
610.000000000
 30
0.000000000
 10
87.500000000
 20
610.000000000
 30
0.000000000
  0
LINE
  5
A20
330
A02
100
AcDbEntity
  8
View_cyclone_front_dxf
100
AcDbLine
 10
87.500000000
 20
595.000000000
 30
0.000000000
 11
87.500000000
 21
610.000000000
 31
0.000000000
  0
LINE
  5
A21
330
A02
100
AcDbEntity
  8
View_cyclone_front_dxf
100
AcDbLine
 10
80.500000000
 20
527.000000000
 30
0.000000000
 11
134.500000000
 21
527.000000000
 31
0.000000000
  0
LINE
  5
A22
330
A02
100
AcDbEntity
  8
View_cyclone_front_dxf
100
AcDbLine
 10
80.500000000
 20
383.000000000
 30
0.000000000
 11
80.500000000
 21
527.000000000
 31
0.000000000
  0
LINE
  5
A23
330
A02
100
AcDbEntity
  8
View_cyclone_front_dxf
100
AcDbLine
 10
80.500000000
 20
383.000000000
 30
0.000000000
 11
134.500000000
 21
383.000000000
 31
0.000000000
  0
LINE
  5
A24
330
A02
100
AcDbEntity
  8
View_cyclone_front_dxf
100
AcDbLine
 10
134.500000000
 20
383.000000000
 30
0.000000000
 11
134.500000000
 21
527.000000000
 31
0.000000000
  0
SPLINE
  5
A25
330
A02
100
AcDbEntity
  8
View_cyclone_front_dxf
100
AcDbSpline
210
0
220
0
230
1
 70
8
 71
1
 72
17
 73
15
 74
0
 40
5.381131684
 40
5.381131684
 40
5.431254454
 40
5.481377224
 40
5.531499994
 40
5.581622764
 40
5.631745534
 40
5.681868304
 40
5.731991074
 40
5.782113844
 40
5.832236614
 40
5.882359384
 40
5.932482155
 40
5.982604925
 40
6.032727695
 40
6.082850465
 40
6.082850465
 10
80.500000000
 20
527.000000000
 30
0.000000000
 10
86.279695617
 20
527.000000000
 30
0.000000000
 10
91.811279737
 20
527.000000000
 30
0.000000000
 10
97.080858315
 20
527.000000000
 30
0.000000000
 10
102.075195402
 20
527.000000000
 30
0.000000000
 10
106.781746390
 20
527.000000000
 30
0.000000000
 10
111.188689524
 20
527.000000000
 30
0.000000000
 10
115.284955594
 20
527.000000000
 30
0.000000000
 10
119.060255737
 20
527.000000000
 30
0.000000000
 10
122.505107282
 20
527.000000000
 30
0.000000000
 10
125.610857567
 20
527.000000000
 30
0.000000000
 10
128.369705674
 20
527.000000000
 30
0.000000000
 10
130.774722022
 20
527.000000000
 30
0.000000000
 10
132.819865771
 20
527.000000000
 30
0.000000000
 10
134.500000000
 20
527.000000000
 30
0.000000000
  0
SPLINE
  5
A26
330
A02
100
AcDbEntity
  8
View_cyclone_front_dxf
100
AcDbSpline
210
0
220
0
230
1
 70
8
 71
1
 72
17
 73
15
 74
0
 40
5.381131684
 40
5.381131684
 40
5.431254454
 40
5.481377224
 40
5.531499994
 40
5.581622764
 40
5.631745534
 40
5.681868304
 40
5.731991074
 40
5.782113844
 40
5.832236614
 40
5.882359384
 40
5.932482155
 40
5.982604925
 40
6.032727695
 40
6.082850465
 40
6.082850465
 10
80.500000000
 20
383.000000000
 30
0.000000000
 10
86.279695617
 20
383.000000000
 30
0.000000000
 10
91.811279737
 20
383.000000000
 30
0.000000000
 10
97.080858315
 20
383.000000000
 30
0.000000000
 10
102.075195402
 20
383.000000000
 30
0.000000000
 10
106.781746390
 20
383.000000000
 30
0.000000000
 10
111.188689524
 20
383.000000000
 30
0.000000000
 10
115.284955594
 20
383.000000000
 30
0.000000000
 10
119.060255737
 20
383.000000000
 30
0.000000000
 10
122.505107282
 20
383.000000000
 30
0.000000000
 10
125.610857567
 20
383.000000000
 30
0.000000000
 10
128.369705674
 20
383.000000000
 30
0.000000000
 10
130.774722022
 20
383.000000000
 30
0.000000000
 10
132.819865771
 20
383.000000000
 30
0.000000000
 10
134.500000000
 20
383.000000000
 30
0.000000000
  0
LINE
  5
A27
330
A02
100
AcDbEntity
  8
View_cyclone_front_dxf
100
AcDbLine
 10
134.500000000
 20
383.000000000
 30
0.000000000
 11
134.500000000
 21
527.000000000
 31
0.000000000
  0
LINE
  5
A28
330
A02
100
AcDbEntity
  8
View_cyclone_front_dxf
100
AcDbLine
 10
-162.500000000
 20
100.000000000
 30
0.000000000
 11
-162.500000000
 21
550.000000000
 31
0.000000000
  0
LINE
  5
A29
330
A02
100
AcDbEntity
  8
View_cyclone_front_dxf
100
AcDbLine
 10
37.500000000
 20
-500.000000000
 30
0.000000000
 11
137.500000000
 21
100.000000000
 31
0.000000000
  0
LINE
  5
A2A
330
A02
100
AcDbEntity
  8
View_cyclone_front_dxf
100
AcDbLine
 10
-62.500000000
 20
-595.000000000
 30
0.000000000
 11
-62.500000000
 21
-500.000000000
 31
0.000000000
  0
LINE
  5
A2B
330
A02
100
AcDbEntity
  8
View_cyclone_front_dxf
100
AcDbLine
 10
-87.500000000
 20
550.000000000
 30
0.000000000
 11
-87.500000000
 21
595.000000000
 31
0.000000000
  0
LINE
  5
A2C
330
A02
100
AcDbEntity
  8
View_cyclone_front_dxf
100
AcDbLine
 10
-87.500000000
 20
-610.000000000
 30
0.000000000
 11
-87.500000000
 21
-595.000000000
 31
0.000000000
  0
LINE
  5
A2D
330
A02
100
AcDbEntity
  8
View_cyclone_front_dxf
100
AcDbLine
 10
-112.500000000
 20
595.000000000
 30
0.000000000
 11
-112.500000000
 21
610.000000000
 31
0.000000000
  0
ENDSEC
  0
SECTION
  2
OBJECTS
  0
DICTIONARY
  5
F000
330
0
100
AcDbDictionary
  3
ACAD_GROUP
350
F001
  0
DICTIONARY
  5
F001
330
F000
100
AcDbDictionary
  0
ENDSEC
  0
EOF